M48
; DRILL file {KiCad 9.0.0} date 2025-05-24T01:38:50+0300
; FORMAT={-:-/ absolute / metric / decimal}
; #@! TF.CreationDate,2025-05-24T01:38:50+03:00
; #@! TF.GenerationSoftware,Kicad,Pcbnew,9.0.0
; #@! TF.FileFunction,Plated,1,2,PTH
FMAT,2
METRIC
; #@! TA.AperFunction,Plated,PTH,ViaDrill
T1C0.300
; #@! TA.AperFunction,Plated,PTH,ComponentDrill
T2C0.950
; #@! TA.AperFunction,Plated,PTH,ComponentDrill
T3C1.000
; #@! TA.AperFunction,Plated,PTH,ComponentDrill
T4C1.100
; #@! TA.AperFunction,Plated,PTH,ComponentDrill
T5C1.200
; #@! TA.AperFunction,Plated,PTH,ComponentDrill
T6C2.200
; #@! TA.AperFunction,Plated,PTH,ComponentDrill
T7C2.590
; #@! TA.AperFunction,Plated,PTH,ComponentDrill
T8C4.500
%
G90
G05
T1
X106.025Y-103.075
X106.025Y-104.275
X106.025Y-105.575
X106.05Y-101.95
X106.05Y-106.875
X106.075Y-107.975
X107.3Y-103.1
X107.3Y-104.275
X107.3Y-105.575
X107.3Y-106.875
X107.45Y-85.025
X107.45Y-90.0
X107.475Y-52.5
X107.475Y-55.0
X107.475Y-57.5
X107.475Y-62.5
X107.475Y-75.0
X107.475Y-80.025
X107.475Y-87.5
X107.475Y-120.0
X107.475Y-135.05
X107.5Y-70.075
X107.5Y-72.45
X107.5Y-77.475
X107.5Y-82.5
X108.75Y-105.0
X109.975Y-132.525
X110.0Y-84.975
X110.0Y-122.5
X110.0Y-129.425
X110.0Y-137.6
X110.025Y-80.0
X110.025Y-82.525
X110.025Y-87.5
X110.05Y-135.05
X110.1Y-140.0
X112.35Y-137.625
X112.4Y-139.975
X112.5Y-87.5
X112.55Y-135.05
X114.9Y-87.5
X114.975Y-137.6
X115.0Y-139.975
X115.025Y-135.0
X115.75Y-110.875
X116.1Y-110.225
X116.45Y-110.875
X116.8Y-110.225
X117.15Y-110.875
X117.475Y-82.5
X117.5Y-110.225
X117.85Y-110.875
X118.2Y-110.225
X118.55Y-110.875
X118.9Y-110.225
X119.25Y-110.875
X119.6Y-110.225
X119.941Y-110.78
X119.941Y-111.455
X119.941Y-112.155
X119.941Y-112.78
X119.941Y-113.53
X119.941Y-114.205
X120.0Y-72.5
X120.0Y-75.025
X120.0Y-77.5
X120.441Y-110.33
X120.566Y-113.08
X120.591Y-111.105
X120.591Y-111.805
X120.591Y-112.43
X120.591Y-113.855
X120.591Y-114.555
X120.95Y-56.25
X123.65Y-72.5
X123.725Y-79.3
X124.925Y-102.475
X124.925Y-105.025
X124.95Y-97.525
X124.95Y-107.5
X124.95Y-109.925
X124.95Y-125.025
X124.975Y-100.1
X124.975Y-112.375
X124.975Y-117.45
X124.975Y-120.025
X124.975Y-122.45
X124.975Y-127.75
X124.975Y-129.95
X125.0Y-57.5
X126.1Y-94.125
X127.075Y-60.0
X127.45Y-127.75
X127.45Y-129.95
X127.5Y-52.5
X127.5Y-122.5
X127.525Y-55.0
X127.525Y-117.5
X127.525Y-120.05
X127.525Y-125.05
X128.3Y-90.525
X128.3Y-92.925
X129.8Y-120.05
X129.85Y-127.75
X129.85Y-129.95
X129.975Y-54.975
X130.0Y-52.5
X130.0Y-57.5
X130.0Y-125.05
X130.025Y-60.025
X130.325Y-107.55
X131.7Y-86.525
X131.7Y-92.925
X132.1Y-52.475
X132.1Y-54.975
X132.1Y-57.5
X132.325Y-105.05
X132.35Y-120.05
X132.4Y-125.05
X132.4Y-127.7
X132.4Y-129.9
X132.4Y-139.925
X133.05Y-79.325
X133.137Y-83.662
X133.25Y-73.675
X133.597Y-86.109
X133.8Y-98.625
X133.934Y-88.159
X134.3Y-52.475
X134.3Y-92.925
X134.3Y-99.725
X134.45Y-110.35
X134.925Y-127.7
X134.925Y-129.9
X134.95Y-125.0
X135.0Y-139.95
X135.1Y-94.325
X135.1Y-120.125
X135.15Y-79.325
X135.5Y-87.725
X135.625Y-74.55
X136.02Y-114.85
X136.5Y-94.525
X137.45Y-105.025
X137.45Y-139.975
X137.475Y-110.35
X137.475Y-125.0
X137.5Y-108.325
X137.5Y-127.725
X137.5Y-129.925
X137.525Y-114.95
X137.525Y-120.0
X139.9Y-108.325
X139.9Y-110.325
X139.9Y-129.925
X139.975Y-114.95
X139.975Y-137.425
X140.0Y-105.025
X140.0Y-132.55
X140.0Y-134.95
X140.0Y-139.975
X140.05Y-125.025
X140.54Y-104.305
X140.9Y-118.53
X141.55Y-101.875
X142.4Y-74.95
X142.475Y-127.525
X142.475Y-132.525
X142.5Y-77.5
X142.5Y-110.33
X142.5Y-129.925
X142.5Y-137.45
X142.5Y-140.0
X142.525Y-114.95
X142.6Y-135.025
X143.9Y-86.325
X143.9Y-108.33
X143.95Y-56.25
X144.05Y-85.125
X144.1Y-89.53
X144.762Y-80.462
X144.925Y-120.0
X144.925Y-122.5
X144.95Y-139.95
X145.0Y-117.03
X145.025Y-114.95
X145.45Y-127.5
X145.825Y-79.975
X146.5Y-86.325
X146.9Y-105.53
X147.45Y-139.975
X147.475Y-129.95
X147.5Y-57.55
X147.5Y-72.475
X147.5Y-74.95
X147.5Y-79.125
X147.5Y-132.525
X147.5Y-135.0
X147.525Y-137.275
X147.55Y-70.625
X147.6Y-110.33
X148.3Y-104.375
X148.8Y-108.53
X148.9Y-86.325
X148.925Y-83.95
X149.0Y-89.53
X149.1Y-106.73
X149.975Y-72.5
X150.0Y-52.5
X150.0Y-54.925
X150.0Y-82.475
X150.05Y-70.625
X150.075Y-59.975
X150.1Y-75.0
X150.1Y-77.575
X150.1Y-79.15
X150.475Y-87.375
X150.9Y-110.13
X151.8Y-94.73
X152.05Y-105.43
X152.05Y-108.48
X152.125Y-87.375
X152.475Y-54.925
X152.475Y-57.525
X152.5Y-52.525
X152.5Y-120.0
X152.5Y-127.5
X152.5Y-129.95
X153.125Y-83.95
X153.375Y-73.225
X153.4Y-71.0
X153.4Y-75.95
X153.425Y-79.0
X153.55Y-85.125
X153.55Y-104.375
X153.591Y-134.93
X153.6Y-133.775
X154.2Y-107.73
X154.2Y-110.33
X154.75Y-80.9
X154.825Y-128.875
X154.95Y-57.525
X154.975Y-54.925
X155.0Y-75.025
X155.0Y-77.5
X155.0Y-120.05
X155.0Y-122.5
X155.05Y-103.625
X155.6Y-109.93
X155.9Y-94.93
X157.16Y-140.805
X157.3Y-99.125
X157.425Y-90.0
X157.475Y-117.525
X157.5Y-79.25
X157.5Y-114.83
X157.6Y-108.98
X157.65Y-72.525
X157.8Y-104.33
X157.85Y-102.975
X158.15Y-84.35
X158.45Y-74.0
X159.9Y-114.83
X159.975Y-92.5
X160.0Y-119.975
X160.0Y-127.5
X160.0Y-137.475
X161.0Y-109.93
X162.0Y-109.93
X162.375Y-100.075
X162.475Y-122.45
X162.525Y-137.475
X162.55Y-140.8
X163.8Y-114.875
X164.925Y-87.5
X164.975Y-92.525
X165.0Y-74.975
X165.0Y-77.9
X165.0Y-100.05
X165.0Y-119.975
X165.0Y-137.475
X165.025Y-127.45
X166.3Y-140.775
X166.95Y-105.025
X167.1Y-56.3
X167.35Y-73.825
X167.4Y-81.21
X167.45Y-92.55
X167.48Y-80.23
X167.5Y-87.475
X167.5Y-137.5
X167.525Y-127.45
X167.6Y-85.025
X168.45Y-86.175
X168.75Y-99.975
X168.85Y-95.0
X169.3Y-140.775
X169.375Y-102.6
X169.6Y-92.55
X169.925Y-73.825
X169.95Y-105.05
X169.975Y-70.0
X169.975Y-79.275
X169.975Y-107.725
X170.0Y-132.475
X170.025Y-135.0
X170.1Y-57.55
X171.55Y-56.775
X172.025Y-72.425
X172.05Y-70.0
X172.05Y-74.95
X172.05Y-78.525
X172.05Y-80.3
X172.052Y-88.082
X172.075Y-77.1
X172.2Y-82.5
X172.225Y-84.95
X172.45Y-89.975
X172.45Y-92.5
X172.45Y-100.0
X172.5Y-49.975
X172.5Y-52.5
X172.5Y-95.0
X172.5Y-97.5
X172.525Y-105.025
X172.525Y-110.05
X172.55Y-135.0
X172.575Y-132.5
X172.65Y-107.725
X173.475Y-114.45
X173.475Y-119.975
X173.475Y-126.8
X173.93Y-88.36
X174.5Y-51.325
X174.5Y-55.0
T2
X142.8Y-91.375
X145.3Y-91.375
X147.8Y-91.375
X150.3Y-91.375
X152.8Y-91.375
X171.275Y-117.825
X171.275Y-120.325
X171.275Y-122.825
X171.275Y-125.325
X171.275Y-127.825
T3
X131.6Y-96.925
X131.6Y-112.165
X134.14Y-96.925
X134.14Y-112.165
X136.68Y-96.925
X136.68Y-112.165
X139.22Y-96.925
X139.22Y-112.165
X141.76Y-96.925
X141.76Y-112.165
X144.3Y-96.925
X144.3Y-112.165
X146.84Y-96.925
X146.84Y-112.165
X149.38Y-96.925
X149.38Y-112.165
X151.92Y-96.925
X151.92Y-112.165
X154.46Y-96.925
X154.46Y-112.165
X157.0Y-96.925
X157.0Y-112.165
X159.54Y-96.925
X159.54Y-112.165
X162.08Y-96.925
X162.08Y-112.165
X164.62Y-96.925
X164.62Y-112.165
X167.16Y-96.925
X167.16Y-112.165
T4
X108.51Y-60.07
X111.05Y-60.07
X113.59Y-60.07
X120.06Y-60.07
X122.6Y-60.07
X125.14Y-60.07
X131.61Y-60.07
X134.15Y-60.07
X136.69Y-60.07
X143.16Y-60.07
X145.7Y-60.07
X148.24Y-60.07
X154.71Y-60.07
X157.25Y-60.07
X159.79Y-60.07
X166.26Y-60.07
X168.8Y-60.07
X171.34Y-60.07
T5
X109.513Y-96.525
X109.513Y-113.125
X117.013Y-96.525
X117.013Y-113.125
T6
X131.8Y-47.875
X139.8Y-47.875
X147.8Y-47.875
T7
X118.875Y-124.275
X118.875Y-129.355
X118.875Y-133.415
X118.875Y-138.495
T8
X127.55Y-135.625
X134.75Y-135.625
M30
