%TF.GenerationSoftware,KiCad,Pcbnew,9.0.0*%
%TF.CreationDate,2025-05-24T01:38:51+03:00*%
%TF.ProjectId,Inverter,496e7665-7274-4657-922e-6b696361645f,rev?*%
%TF.SameCoordinates,Original*%
%TF.FileFunction,Soldermask,Bot*%
%TF.FilePolarity,Negative*%
%FSLAX46Y46*%
G04 Gerber Fmt 4.6, Leading zero omitted, Abs format (unit mm)*
G04 Created by KiCad (PCBNEW 9.0.0) date 2025-05-24 01:38:51*
%MOMM*%
%LPD*%
G01*
G04 APERTURE LIST*
G04 Aperture macros list*
%AMRoundRect*
0 Rectangle with rounded corners*
0 $1 Rounding radius*
0 $2 $3 $4 $5 $6 $7 $8 $9 X,Y pos of 4 corners*
0 Add a 4 corners polygon primitive as box body*
4,1,4,$2,$3,$4,$5,$6,$7,$8,$9,$2,$3,0*
0 Add four circle primitives for the rounded corners*
1,1,$1+$1,$2,$3*
1,1,$1+$1,$4,$5*
1,1,$1+$1,$6,$7*
1,1,$1+$1,$8,$9*
0 Add four rect primitives between the rounded corners*
20,1,$1+$1,$2,$3,$4,$5,0*
20,1,$1+$1,$4,$5,$6,$7,0*
20,1,$1+$1,$6,$7,$8,$9,0*
20,1,$1+$1,$8,$9,$2,$3,0*%
G04 Aperture macros list end*
%ADD10RoundRect,0.250000X0.600000X0.725000X-0.600000X0.725000X-0.600000X-0.725000X0.600000X-0.725000X0*%
%ADD11O,1.700000X1.950000*%
%ADD12R,2.400000X2.400000*%
%ADD13C,2.400000*%
%ADD14C,3.500000*%
%ADD15R,1.600000X1.600000*%
%ADD16O,1.600000X1.600000*%
%ADD17C,4.400000*%
%ADD18RoundRect,1.500000X1.500000X1.500000X-1.500000X1.500000X-1.500000X-1.500000X1.500000X-1.500000X0*%
%ADD19C,6.000000*%
%ADD20RoundRect,0.250000X0.725000X-0.600000X0.725000X0.600000X-0.725000X0.600000X-0.725000X-0.600000X0*%
%ADD21O,1.950000X1.700000*%
%ADD22R,1.905000X2.000000*%
%ADD23O,1.905000X2.000000*%
G04 APERTURE END LIST*
D10*
%TO.C,J3*%
X152800000Y-91375000D03*
D11*
X150300000Y-91375000D03*
X147800000Y-91375000D03*
X145300000Y-91375000D03*
X142800000Y-91375000D03*
%TD*%
D12*
%TO.C,C6*%
X117012755Y-113125000D03*
D13*
X109512755Y-113125000D03*
%TD*%
D14*
%TO.C,F2*%
X118875000Y-124275000D03*
X118875000Y-129355000D03*
X118875000Y-133415000D03*
X118875000Y-138495000D03*
%TD*%
D15*
%TO.C,A1*%
X131600000Y-112165000D03*
D16*
X134140000Y-112165000D03*
X136680000Y-112165000D03*
X139220000Y-112165000D03*
X141760000Y-112165000D03*
X144300000Y-112165000D03*
X146840000Y-112165000D03*
X149380000Y-112165000D03*
X151920000Y-112165000D03*
X154460000Y-112165000D03*
X157000000Y-112165000D03*
X159540000Y-112165000D03*
X162080000Y-112165000D03*
X164620000Y-112165000D03*
X167160000Y-112165000D03*
X167160000Y-96925000D03*
X164620000Y-96925000D03*
X162080000Y-96925000D03*
X159540000Y-96925000D03*
X157000000Y-96925000D03*
X154460000Y-96925000D03*
X151920000Y-96925000D03*
X149380000Y-96925000D03*
X146840000Y-96925000D03*
X144300000Y-96925000D03*
X141760000Y-96925000D03*
X139220000Y-96925000D03*
X136680000Y-96925000D03*
X134140000Y-96925000D03*
X131600000Y-96925000D03*
%TD*%
D17*
%TO.C,V1*%
X139800000Y-47875000D03*
%TD*%
%TO.C,W1*%
X131800000Y-47875000D03*
%TD*%
D18*
%TO.C,J1*%
X134750000Y-135625000D03*
D19*
X127550000Y-135625000D03*
%TD*%
D12*
%TO.C,C5*%
X117012755Y-96525000D03*
D13*
X109512755Y-96525000D03*
%TD*%
D20*
%TO.C,J2*%
X171275000Y-127825000D03*
D21*
X171275000Y-125325000D03*
X171275000Y-122825000D03*
X171275000Y-120325000D03*
X171275000Y-117825000D03*
%TD*%
D17*
%TO.C,U2*%
X147800000Y-47875000D03*
%TD*%
D14*
%TO.C,Q1*%
X168800000Y-76730000D03*
D22*
X171340000Y-60070000D03*
D23*
X168800000Y-60070000D03*
X166260000Y-60070000D03*
%TD*%
D14*
%TO.C,Q5*%
X122600000Y-76730000D03*
D22*
X125140000Y-60070000D03*
D23*
X122600000Y-60070000D03*
X120060000Y-60070000D03*
%TD*%
D14*
%TO.C,Q3*%
X145700000Y-76730000D03*
D22*
X148240000Y-60070000D03*
D23*
X145700000Y-60070000D03*
X143160000Y-60070000D03*
%TD*%
D14*
%TO.C,Q4*%
X134150000Y-76730000D03*
D22*
X136690000Y-60070000D03*
D23*
X134150000Y-60070000D03*
X131610000Y-60070000D03*
%TD*%
D14*
%TO.C,Q2*%
X157250000Y-76730000D03*
D22*
X159790000Y-60070000D03*
D23*
X157250000Y-60070000D03*
X154710000Y-60070000D03*
%TD*%
D14*
%TO.C,Q6*%
X111050000Y-76730000D03*
D22*
X113590000Y-60070000D03*
D23*
X111050000Y-60070000D03*
X108510000Y-60070000D03*
%TD*%
G36*
X169475500Y-59544962D02*
G01*
X169530038Y-59599500D01*
X169550000Y-59674000D01*
X169550000Y-63201293D01*
X169530038Y-63275793D01*
X169491416Y-63319725D01*
X161953481Y-69074493D01*
X161882151Y-69103833D01*
X161863186Y-69105061D01*
X131850000Y-69129482D01*
X131850000Y-81397977D01*
X131830038Y-81472477D01*
X131826218Y-81478733D01*
X122451475Y-96014851D01*
X122478052Y-114725788D01*
X122458195Y-114800317D01*
X122403735Y-114854932D01*
X122329264Y-114875000D01*
X115424000Y-114875000D01*
X115349500Y-114855038D01*
X115294962Y-114800500D01*
X115275000Y-114726000D01*
X115275000Y-94729987D01*
X115294962Y-94655487D01*
X115298600Y-94649515D01*
X124900000Y-79687532D01*
X124900000Y-68925000D01*
X121901464Y-64563493D01*
X121875707Y-64490792D01*
X121875248Y-64478287D01*
X121900542Y-59723207D01*
X121920900Y-59648815D01*
X121975727Y-59594568D01*
X122049540Y-59575000D01*
X123251000Y-59575000D01*
X123325500Y-59594962D01*
X123380038Y-59649500D01*
X123400000Y-59724000D01*
X123400000Y-62598628D01*
X144800000Y-62624694D01*
X144800000Y-59774000D01*
X144819962Y-59699500D01*
X144874500Y-59644962D01*
X144949000Y-59625000D01*
X146451000Y-59625000D01*
X146525500Y-59644962D01*
X146580038Y-59699500D01*
X146600000Y-59774000D01*
X146600000Y-62625000D01*
X168000000Y-62625000D01*
X168000000Y-59674000D01*
X168019962Y-59599500D01*
X168074500Y-59544962D01*
X168149000Y-59525000D01*
X169401000Y-59525000D01*
X169475500Y-59544962D01*
G37*
G36*
X130343039Y-131694685D02*
G01*
X130388794Y-131747489D01*
X130400000Y-131799000D01*
X130400000Y-140101000D01*
X130380315Y-140168039D01*
X130327511Y-140213794D01*
X130276000Y-140225000D01*
X117174000Y-140225000D01*
X117106961Y-140205315D01*
X117061206Y-140152511D01*
X117050000Y-140101000D01*
X117050000Y-131799000D01*
X117069685Y-131731961D01*
X117122489Y-131686206D01*
X117174000Y-131675000D01*
X130276000Y-131675000D01*
X130343039Y-131694685D01*
G37*
M02*
