%TF.GenerationSoftware,KiCad,Pcbnew,9.0.0*%
%TF.CreationDate,2025-05-24T01:38:51+03:00*%
%TF.ProjectId,Inverter,496e7665-7274-4657-922e-6b696361645f,rev?*%
%TF.SameCoordinates,Original*%
%TF.FileFunction,Paste,Bot*%
%TF.FilePolarity,Positive*%
%FSLAX46Y46*%
G04 Gerber Fmt 4.6, Leading zero omitted, Abs format (unit mm)*
G04 Created by KiCad (PCBNEW 9.0.0) date 2025-05-24 01:38:51*
%MOMM*%
%LPD*%
G01*
G04 APERTURE LIST*
G04 APERTURE END LIST*
G36*
X169475500Y-59544962D02*
G01*
X169530038Y-59599500D01*
X169550000Y-59674000D01*
X169550000Y-63201293D01*
X169530038Y-63275793D01*
X169491416Y-63319725D01*
X161953481Y-69074493D01*
X161882151Y-69103833D01*
X161863186Y-69105061D01*
X131850000Y-69129482D01*
X131850000Y-81397977D01*
X131830038Y-81472477D01*
X131826218Y-81478733D01*
X122451475Y-96014851D01*
X122478052Y-114725788D01*
X122458195Y-114800317D01*
X122403735Y-114854932D01*
X122329264Y-114875000D01*
X115424000Y-114875000D01*
X115349500Y-114855038D01*
X115294962Y-114800500D01*
X115275000Y-114726000D01*
X115275000Y-94729987D01*
X115294962Y-94655487D01*
X115298600Y-94649515D01*
X124900000Y-79687532D01*
X124900000Y-68925000D01*
X121901464Y-64563493D01*
X121875707Y-64490792D01*
X121875248Y-64478287D01*
X121900542Y-59723207D01*
X121920900Y-59648815D01*
X121975727Y-59594568D01*
X122049540Y-59575000D01*
X123251000Y-59575000D01*
X123325500Y-59594962D01*
X123380038Y-59649500D01*
X123400000Y-59724000D01*
X123400000Y-62598628D01*
X144800000Y-62624694D01*
X144800000Y-59774000D01*
X144819962Y-59699500D01*
X144874500Y-59644962D01*
X144949000Y-59625000D01*
X146451000Y-59625000D01*
X146525500Y-59644962D01*
X146580038Y-59699500D01*
X146600000Y-59774000D01*
X146600000Y-62625000D01*
X168000000Y-62625000D01*
X168000000Y-59674000D01*
X168019962Y-59599500D01*
X168074500Y-59544962D01*
X168149000Y-59525000D01*
X169401000Y-59525000D01*
X169475500Y-59544962D01*
G37*
G36*
X130343039Y-131694685D02*
G01*
X130388794Y-131747489D01*
X130400000Y-131799000D01*
X130400000Y-140101000D01*
X130380315Y-140168039D01*
X130327511Y-140213794D01*
X130276000Y-140225000D01*
X117174000Y-140225000D01*
X117106961Y-140205315D01*
X117061206Y-140152511D01*
X117050000Y-140101000D01*
X117050000Y-131799000D01*
X117069685Y-131731961D01*
X117122489Y-131686206D01*
X117174000Y-131675000D01*
X130276000Y-131675000D01*
X130343039Y-131694685D01*
G37*
M02*
