%TF.GenerationSoftware,KiCad,Pcbnew,9.0.0*%
%TF.CreationDate,2025-05-24T01:38:51+03:00*%
%TF.ProjectId,Inverter,496e7665-7274-4657-922e-6b696361645f,rev?*%
%TF.SameCoordinates,Original*%
%TF.FileFunction,Copper,L2,Bot*%
%TF.FilePolarity,Positive*%
%FSLAX46Y46*%
G04 Gerber Fmt 4.6, Leading zero omitted, Abs format (unit mm)*
G04 Created by KiCad (PCBNEW 9.0.0) date 2025-05-24 01:38:51*
%MOMM*%
%LPD*%
G01*
G04 APERTURE LIST*
G04 Aperture macros list*
%AMRoundRect*
0 Rectangle with rounded corners*
0 $1 Rounding radius*
0 $2 $3 $4 $5 $6 $7 $8 $9 X,Y pos of 4 corners*
0 Add a 4 corners polygon primitive as box body*
4,1,4,$2,$3,$4,$5,$6,$7,$8,$9,$2,$3,0*
0 Add four circle primitives for the rounded corners*
1,1,$1+$1,$2,$3*
1,1,$1+$1,$4,$5*
1,1,$1+$1,$6,$7*
1,1,$1+$1,$8,$9*
0 Add four rect primitives between the rounded corners*
20,1,$1+$1,$2,$3,$4,$5,0*
20,1,$1+$1,$4,$5,$6,$7,0*
20,1,$1+$1,$6,$7,$8,$9,0*
20,1,$1+$1,$8,$9,$2,$3,0*%
G04 Aperture macros list end*
%TA.AperFunction,ComponentPad*%
%ADD10RoundRect,0.250000X0.600000X0.725000X-0.600000X0.725000X-0.600000X-0.725000X0.600000X-0.725000X0*%
%TD*%
%TA.AperFunction,ComponentPad*%
%ADD11O,1.700000X1.950000*%
%TD*%
%TA.AperFunction,ComponentPad*%
%ADD12R,2.400000X2.400000*%
%TD*%
%TA.AperFunction,ComponentPad*%
%ADD13C,2.400000*%
%TD*%
%TA.AperFunction,ComponentPad*%
%ADD14C,3.500000*%
%TD*%
%TA.AperFunction,ComponentPad*%
%ADD15R,1.600000X1.600000*%
%TD*%
%TA.AperFunction,ComponentPad*%
%ADD16O,1.600000X1.600000*%
%TD*%
%TA.AperFunction,ComponentPad*%
%ADD17C,4.400000*%
%TD*%
%TA.AperFunction,ComponentPad*%
%ADD18RoundRect,1.500000X1.500000X1.500000X-1.500000X1.500000X-1.500000X-1.500000X1.500000X-1.500000X0*%
%TD*%
%TA.AperFunction,ComponentPad*%
%ADD19C,6.000000*%
%TD*%
%TA.AperFunction,ComponentPad*%
%ADD20RoundRect,0.250000X0.725000X-0.600000X0.725000X0.600000X-0.725000X0.600000X-0.725000X-0.600000X0*%
%TD*%
%TA.AperFunction,ComponentPad*%
%ADD21O,1.950000X1.700000*%
%TD*%
%TA.AperFunction,ComponentPad*%
%ADD22R,1.905000X2.000000*%
%TD*%
%TA.AperFunction,ComponentPad*%
%ADD23O,1.905000X2.000000*%
%TD*%
%TA.AperFunction,ViaPad*%
%ADD24C,0.600000*%
%TD*%
%TA.AperFunction,Conductor*%
%ADD25C,0.300000*%
%TD*%
%TA.AperFunction,Conductor*%
%ADD26C,0.400000*%
%TD*%
%TA.AperFunction,Conductor*%
%ADD27C,0.700000*%
%TD*%
%TA.AperFunction,Conductor*%
%ADD28C,0.500000*%
%TD*%
G04 APERTURE END LIST*
D10*
%TO.P,J3,1,Pin_1*%
%TO.N,GND*%
X152800000Y-91375000D03*
D11*
%TO.P,J3,2,Pin_2*%
%TO.N,Net-(J3-Pin_2)*%
X150300000Y-91375000D03*
%TO.P,J3,3,Pin_3*%
%TO.N,Net-(J3-Pin_3)*%
X147800000Y-91375000D03*
%TO.P,J3,4,Pin_4*%
%TO.N,Net-(J3-Pin_4)*%
X145300000Y-91375000D03*
%TO.P,J3,5,Pin_5*%
%TO.N,+5V_Fuse*%
X142800000Y-91375000D03*
%TD*%
D12*
%TO.P,C6,1*%
%TO.N,+33V*%
X117012755Y-113125000D03*
D13*
%TO.P,C6,2*%
%TO.N,GND*%
X109512755Y-113125000D03*
%TD*%
D14*
%TO.P,F2,1*%
%TO.N,+33V*%
X118875000Y-124275000D03*
X118875000Y-129355000D03*
%TO.P,F2,2*%
%TO.N,/Vin*%
X118875000Y-133415000D03*
X118875000Y-138495000D03*
%TD*%
D15*
%TO.P,A1,1,D1/TX*%
%TO.N,unconnected-(A1-D1{slash}TX-Pad1)*%
X131600000Y-112165000D03*
D16*
%TO.P,A1,2,D0/RX*%
%TO.N,unconnected-(A1-D0{slash}RX-Pad2)*%
X134140000Y-112165000D03*
%TO.P,A1,3,~{RESET}*%
%TO.N,unconnected-(A1-~{RESET}-Pad3)*%
X136680000Y-112165000D03*
%TO.P,A1,4,GND*%
%TO.N,GND*%
X139220000Y-112165000D03*
%TO.P,A1,5,D2*%
%TO.N,unconnected-(A1-D2-Pad5)*%
X141760000Y-112165000D03*
%TO.P,A1,6,D3*%
%TO.N,/PWM_W*%
X144300000Y-112165000D03*
%TO.P,A1,7,D4*%
%TO.N,/CWR*%
X146840000Y-112165000D03*
%TO.P,A1,8,D5*%
%TO.N,/HAL_U*%
X149380000Y-112165000D03*
%TO.P,A1,9,D6*%
%TO.N,/HAL_V*%
X151920000Y-112165000D03*
%TO.P,A1,10,D7*%
%TO.N,/HAL_W*%
X154460000Y-112165000D03*
%TO.P,A1,11,D8*%
%TO.N,/IN_U*%
X157000000Y-112165000D03*
%TO.P,A1,12,D9*%
%TO.N,/PWM_V*%
X159540000Y-112165000D03*
%TO.P,A1,13,D10*%
%TO.N,/PWM_U*%
X162080000Y-112165000D03*
%TO.P,A1,14,D11*%
%TO.N,/IN_V*%
X164620000Y-112165000D03*
%TO.P,A1,15,D12*%
%TO.N,/IN_W*%
X167160000Y-112165000D03*
%TO.P,A1,16,D13*%
%TO.N,unconnected-(A1-D13-Pad16)*%
X167160000Y-96925000D03*
%TO.P,A1,17,3V3*%
%TO.N,unconnected-(A1-3V3-Pad17)*%
X164620000Y-96925000D03*
%TO.P,A1,18,AREF*%
%TO.N,unconnected-(A1-AREF-Pad18)*%
X162080000Y-96925000D03*
%TO.P,A1,19,A0*%
%TO.N,/Vbatt*%
X159540000Y-96925000D03*
%TO.P,A1,20,A1*%
%TO.N,/Cur_U*%
X157000000Y-96925000D03*
%TO.P,A1,21,A2*%
%TO.N,/Cur_V*%
X154460000Y-96925000D03*
%TO.P,A1,22,A3*%
%TO.N,/Cur_W*%
X151920000Y-96925000D03*
%TO.P,A1,23,A4*%
%TO.N,unconnected-(A1-A4-Pad23)*%
X149380000Y-96925000D03*
%TO.P,A1,24,A5*%
%TO.N,unconnected-(A1-A5-Pad24)*%
X146840000Y-96925000D03*
%TO.P,A1,25,A6*%
%TO.N,/POT*%
X144300000Y-96925000D03*
%TO.P,A1,26,A7*%
%TO.N,unconnected-(A1-A7-Pad26)*%
X141760000Y-96925000D03*
%TO.P,A1,27,+5V*%
%TO.N,+5V*%
X139220000Y-96925000D03*
%TO.P,A1,28,~{RESET}*%
%TO.N,unconnected-(A1-~{RESET}-Pad28)*%
X136680000Y-96925000D03*
%TO.P,A1,29,GND*%
%TO.N,GND*%
X134140000Y-96925000D03*
%TO.P,A1,30,VIN*%
%TO.N,Net-(A1-VIN)*%
X131600000Y-96925000D03*
%TD*%
D17*
%TO.P,V1,1,1*%
%TO.N,/V_OUT*%
X139800000Y-47875000D03*
%TD*%
%TO.P,W1,1,1*%
%TO.N,/W_OUT*%
X131800000Y-47875000D03*
%TD*%
D18*
%TO.P,J1,1,Pin_1*%
%TO.N,GND*%
X134750000Y-135625000D03*
D19*
%TO.P,J1,2,Pin_2*%
%TO.N,/Vin*%
X127550000Y-135625000D03*
%TD*%
D12*
%TO.P,C5,1*%
%TO.N,+33V*%
X117012755Y-96525000D03*
D13*
%TO.P,C5,2*%
%TO.N,GND*%
X109512755Y-96525000D03*
%TD*%
D20*
%TO.P,J2,1,Pin_1*%
%TO.N,GND*%
X171275000Y-127825000D03*
D21*
%TO.P,J2,2,Pin_2*%
X171275000Y-125325000D03*
%TO.P,J2,3,Pin_3*%
%TO.N,/CWR*%
X171275000Y-122825000D03*
%TO.P,J2,4,Pin_4*%
%TO.N,/POT*%
X171275000Y-120325000D03*
%TO.P,J2,5,Pin_5*%
%TO.N,+5V_Fuse*%
X171275000Y-117825000D03*
%TD*%
D17*
%TO.P,U2,1,1*%
%TO.N,/U_OUT*%
X147800000Y-47875000D03*
%TD*%
D22*
%TO.P,Q1,1,G*%
%TO.N,Net-(D9-A)*%
X171340000Y-60070000D03*
D23*
%TO.P,Q1,2,D*%
%TO.N,+33V*%
X168800000Y-60070000D03*
%TO.P,Q1,3,S*%
%TO.N,/U_IN*%
X166260000Y-60070000D03*
%TD*%
D22*
%TO.P,Q5,1,G*%
%TO.N,Net-(D13-A)*%
X125140000Y-60070000D03*
D23*
%TO.P,Q5,2,D*%
%TO.N,+33V*%
X122600000Y-60070000D03*
%TO.P,Q5,3,S*%
%TO.N,/W_IN*%
X120060000Y-60070000D03*
%TD*%
D22*
%TO.P,Q3,1,G*%
%TO.N,Net-(D11-A)*%
X148240000Y-60070000D03*
D23*
%TO.P,Q3,2,D*%
%TO.N,+33V*%
X145700000Y-60070000D03*
%TO.P,Q3,3,S*%
%TO.N,/V_IN*%
X143160000Y-60070000D03*
%TD*%
D22*
%TO.P,Q4,1,G*%
%TO.N,Net-(D12-A)*%
X136690000Y-60070000D03*
D23*
%TO.P,Q4,2,D*%
%TO.N,/V_IN*%
X134150000Y-60070000D03*
%TO.P,Q4,3,S*%
%TO.N,GND*%
X131610000Y-60070000D03*
%TD*%
D22*
%TO.P,Q2,1,G*%
%TO.N,Net-(D10-A)*%
X159790000Y-60070000D03*
D23*
%TO.P,Q2,2,D*%
%TO.N,/U_IN*%
X157250000Y-60070000D03*
%TO.P,Q2,3,S*%
%TO.N,GND*%
X154710000Y-60070000D03*
%TD*%
D22*
%TO.P,Q6,1,G*%
%TO.N,Net-(D14-A)*%
X113590000Y-60070000D03*
D23*
%TO.P,Q6,2,D*%
%TO.N,/W_IN*%
X111050000Y-60070000D03*
%TO.P,Q6,3,S*%
%TO.N,GND*%
X108510000Y-60070000D03*
%TD*%
D24*
%TO.N,/IN_U*%
X167400000Y-81210000D03*
%TO.N,/IN_W*%
X133934314Y-88159314D03*
X149100000Y-106730000D03*
%TO.N,/PWM_U*%
X167480000Y-80230000D03*
%TO.N,/IN_V*%
X145825000Y-79975000D03*
X157600000Y-108980000D03*
%TO.N,/PWM_V*%
X161000000Y-109930000D03*
X144762500Y-80462500D03*
X155600000Y-109930000D03*
%TO.N,+5V*%
X152125000Y-87375000D03*
X172052188Y-88082188D03*
X135500000Y-87725000D03*
X133137500Y-83662500D03*
X150475000Y-87375000D03*
X173930331Y-88360331D03*
%TO.N,GND*%
X110000000Y-129425000D03*
X127525000Y-55000000D03*
X137450000Y-105025000D03*
X129850000Y-127750000D03*
X157425000Y-90000000D03*
X169950000Y-105050000D03*
X124950000Y-109925000D03*
X167500000Y-87475000D03*
X155000000Y-120050000D03*
X170100000Y-57550000D03*
X162550000Y-140800000D03*
X107475000Y-87500000D03*
X155000000Y-77500000D03*
X147525000Y-137275000D03*
X110025000Y-82525000D03*
X142475000Y-132525000D03*
X115025000Y-135000000D03*
X153400000Y-75950000D03*
X144100000Y-89530000D03*
X172050000Y-80300000D03*
X171550000Y-56775000D03*
X106025000Y-103075000D03*
X162525000Y-137475000D03*
X159900000Y-114830000D03*
X137500000Y-108325000D03*
X132100000Y-57500000D03*
X106050000Y-106875000D03*
X134925000Y-127700000D03*
X106050000Y-101950000D03*
X169925000Y-73825000D03*
X167100000Y-56300000D03*
X172650000Y-107725000D03*
X140900000Y-118530000D03*
X142500000Y-110330000D03*
X147550000Y-70625000D03*
X160000000Y-119975000D03*
X143950000Y-56250000D03*
X127450000Y-129950000D03*
X147500000Y-72475000D03*
X137500000Y-127725000D03*
X149975000Y-72500000D03*
X135150000Y-79325000D03*
X110000000Y-84975000D03*
X136500000Y-94525000D03*
X172525000Y-110050000D03*
X168850000Y-95000000D03*
X130000000Y-57500000D03*
X140000000Y-139975000D03*
X150100000Y-79150000D03*
X124975000Y-112375000D03*
X147600000Y-110330000D03*
X147500000Y-132525000D03*
X107500000Y-70075000D03*
X167600000Y-85025000D03*
X154950000Y-57525000D03*
X172525000Y-105025000D03*
X170025000Y-135000000D03*
X110025000Y-80000000D03*
X106025000Y-104275000D03*
X172500000Y-97500000D03*
X147500000Y-79125000D03*
X132325000Y-105050000D03*
X147500000Y-74950000D03*
X166300000Y-140775000D03*
X127075000Y-60000000D03*
X139900000Y-129925000D03*
X164925000Y-87500000D03*
X124975000Y-122450000D03*
X165025000Y-127450000D03*
X109975000Y-132525000D03*
X172450000Y-100000000D03*
X153400000Y-71000000D03*
X172200000Y-82500000D03*
X110025000Y-87500000D03*
X124925000Y-102475000D03*
X124975000Y-129950000D03*
X112350000Y-137625000D03*
X155050000Y-103625000D03*
X110000000Y-137600000D03*
X150050000Y-70625000D03*
X125000000Y-57500000D03*
X132350000Y-120050000D03*
X146500000Y-86325000D03*
X172025000Y-72425000D03*
X139900000Y-108325000D03*
X167525000Y-127450000D03*
X106075000Y-107975000D03*
X153591384Y-134930342D03*
X137450000Y-139975000D03*
X169975000Y-79275000D03*
X126100000Y-94125000D03*
X172500000Y-52500000D03*
X112550000Y-135050000D03*
X112500000Y-87500000D03*
X107475000Y-57500000D03*
X160000000Y-137475000D03*
X162375000Y-100075000D03*
X166950000Y-105025000D03*
X150000000Y-54925000D03*
X132400000Y-129900000D03*
X148900000Y-86325000D03*
X107500000Y-72450000D03*
X155900000Y-94930000D03*
X172450000Y-92500000D03*
X106025000Y-105575000D03*
X153125000Y-83950000D03*
X124950000Y-107500000D03*
X160000000Y-127500000D03*
X169975000Y-107725000D03*
X107475000Y-52500000D03*
X159975000Y-92500000D03*
X157500000Y-79250000D03*
X152500000Y-127500000D03*
X142400000Y-74950000D03*
X107475000Y-55000000D03*
X129850000Y-129950000D03*
X169300000Y-140775000D03*
X147450000Y-139975000D03*
X172575000Y-132500000D03*
X152500000Y-52525000D03*
X137525000Y-114950000D03*
X154200000Y-110330000D03*
X112400000Y-139975000D03*
X137525000Y-120000000D03*
X139975000Y-114950000D03*
X172075000Y-77100000D03*
X133050000Y-79325000D03*
X172050000Y-74950000D03*
X107475000Y-80025000D03*
X165000000Y-119975000D03*
X168750000Y-99975000D03*
X134300000Y-52475000D03*
X124975000Y-120025000D03*
X142600000Y-135025000D03*
X139900000Y-110325000D03*
X172500000Y-95000000D03*
X167450000Y-92550000D03*
X165000000Y-74975000D03*
X127500000Y-122500000D03*
X152475000Y-54925000D03*
X107475000Y-135050000D03*
X150000000Y-52500000D03*
X127525000Y-120050000D03*
X172450000Y-89975000D03*
X132400000Y-127700000D03*
X137475000Y-110350000D03*
X152500000Y-129950000D03*
X150100000Y-75000000D03*
X114975000Y-137600000D03*
X165000000Y-77900000D03*
X155000000Y-75025000D03*
X157500000Y-114830000D03*
X135000000Y-139950000D03*
X173475000Y-114450000D03*
X132400000Y-139925000D03*
X163800000Y-114875000D03*
X142500000Y-129925000D03*
X120000000Y-72500000D03*
X124975000Y-100100000D03*
X134950000Y-125000000D03*
X143900000Y-86325000D03*
X174500000Y-51325000D03*
X147500000Y-135000000D03*
X142525000Y-114950000D03*
X117475000Y-82500000D03*
X172050000Y-70000000D03*
X158150000Y-84350000D03*
X169375000Y-102600000D03*
X141550000Y-101875000D03*
X142500000Y-140000000D03*
X153425000Y-79000000D03*
X131700000Y-92925000D03*
X148925000Y-83950000D03*
X124975000Y-127750000D03*
X144925000Y-120000000D03*
X108750000Y-105000000D03*
X135100000Y-120125000D03*
X164975000Y-92525000D03*
X168450000Y-86175000D03*
X130025000Y-60025000D03*
X143900000Y-108330000D03*
X120950000Y-56250000D03*
X174500000Y-55000000D03*
X149000000Y-89530000D03*
X132100000Y-54975000D03*
X137475000Y-125000000D03*
X107500000Y-82500000D03*
X170000000Y-132475000D03*
X107475000Y-62500000D03*
X127525000Y-117500000D03*
X157160000Y-140805000D03*
X154975000Y-54925000D03*
X130000000Y-125050000D03*
X128300000Y-90525000D03*
X139975000Y-137425000D03*
X124925000Y-105025000D03*
X147475000Y-129950000D03*
X157850000Y-102975000D03*
X107300000Y-106875000D03*
X145450000Y-127500000D03*
X132100000Y-52475000D03*
X107475000Y-75000000D03*
X131700000Y-86525000D03*
X151800000Y-94730000D03*
X123650000Y-72500000D03*
X142475000Y-127525000D03*
X172225000Y-84950000D03*
X107500000Y-77475000D03*
X114900000Y-87500000D03*
X107450000Y-85025000D03*
X154825000Y-128875000D03*
X130000000Y-52500000D03*
X152475000Y-57525000D03*
X142500000Y-77500000D03*
X172050000Y-78525000D03*
X107300000Y-103100000D03*
X167500000Y-137500000D03*
X129975000Y-54975000D03*
X155000000Y-122500000D03*
X135625000Y-74550000D03*
X124950000Y-97525000D03*
X132400000Y-125050000D03*
X162000000Y-109930000D03*
X134925000Y-129900000D03*
X133250000Y-73675000D03*
X107475000Y-120000000D03*
X107300000Y-104275000D03*
X140000000Y-132550000D03*
X134450000Y-110350000D03*
X173475000Y-126800000D03*
X107300000Y-105575000D03*
X157650000Y-72525000D03*
X137500000Y-129925000D03*
X144925000Y-122500000D03*
X167350000Y-73825000D03*
X124950000Y-125025000D03*
X172550000Y-135000000D03*
X140050000Y-125025000D03*
X127450000Y-127750000D03*
X120000000Y-75025000D03*
X110000000Y-122500000D03*
X150100000Y-77575000D03*
X107450000Y-90000000D03*
X142500000Y-137450000D03*
X110100000Y-140000000D03*
X129800000Y-120050000D03*
X158450000Y-74000000D03*
X130325000Y-107550000D03*
X144950000Y-139950000D03*
X134300000Y-92925000D03*
X150075000Y-59975000D03*
X140000000Y-105025000D03*
X127500000Y-52500000D03*
X127525000Y-125050000D03*
X153600000Y-133775000D03*
X165000000Y-100050000D03*
X147500000Y-57550000D03*
X162475000Y-122450000D03*
X172500000Y-49975000D03*
X124975000Y-117450000D03*
X145025000Y-114950000D03*
X153375000Y-73225000D03*
X128300000Y-92925000D03*
X140000000Y-134950000D03*
X169600000Y-92550000D03*
X165000000Y-137475000D03*
X145000000Y-117030000D03*
X120000000Y-77500000D03*
X115000000Y-139975000D03*
X157475000Y-117525000D03*
X154750000Y-80900000D03*
X123725000Y-79300000D03*
X133800000Y-98625000D03*
X173475000Y-119975000D03*
X152500000Y-120000000D03*
X150000000Y-82475000D03*
X110050000Y-135050000D03*
X169975000Y-70000000D03*
%TO.N,/PWM_W*%
X133597123Y-86109253D03*
%TO.N,+10V*%
X135100000Y-94325000D03*
X144050000Y-85125000D03*
X153550000Y-85125000D03*
%TO.N,+33V*%
X119941384Y-112155342D03*
X120591384Y-114555342D03*
X118900000Y-110225000D03*
X120441384Y-110330342D03*
X118200000Y-110225000D03*
X119941384Y-111455342D03*
X115750000Y-110875000D03*
X117500000Y-110225000D03*
X119941384Y-112780342D03*
X119941384Y-113530342D03*
X117150000Y-110875000D03*
X119250000Y-110875000D03*
X119941384Y-110780342D03*
X120591384Y-111805342D03*
X136020000Y-114850000D03*
X116450000Y-110875000D03*
X120591384Y-111105342D03*
X116800000Y-110225000D03*
X118550000Y-110875000D03*
X120566384Y-113080342D03*
X116100000Y-110225000D03*
X120591384Y-112430342D03*
X119600000Y-110225000D03*
X119941384Y-114205342D03*
X117850000Y-110875000D03*
X120591384Y-113855342D03*
%TO.N,/HAL_U*%
X148800000Y-108530000D03*
X152050000Y-105430000D03*
X152050000Y-108480000D03*
%TO.N,/Vbatt*%
X134300000Y-99725000D03*
X157300000Y-99125000D03*
%TO.N,/POT*%
X154200000Y-107730000D03*
X157800000Y-104330000D03*
%TO.N,/HAL_V*%
X150900000Y-110130000D03*
X146900000Y-105530000D03*
%TO.N,+5V_Fuse*%
X140540002Y-104304998D03*
X153550000Y-104375000D03*
X148300000Y-104375000D03*
%TD*%
D25*
%TO.N,/IN_U*%
X168545000Y-102230000D02*
X166900000Y-102230000D01*
X167400000Y-81210000D02*
X169400000Y-81210000D01*
X169400000Y-81210000D02*
X170430000Y-82240000D01*
X170430000Y-82240000D02*
X170430000Y-100345000D01*
X170430000Y-100345000D02*
X168545000Y-102230000D01*
X166900000Y-102230000D02*
X157000000Y-112130000D01*
%TO.N,/IN_W*%
X137230000Y-106730000D02*
X149100000Y-106730000D01*
X132851000Y-102351000D02*
X137230000Y-106730000D01*
X133900000Y-90725000D02*
X132851000Y-91774000D01*
X133900000Y-88193628D02*
X133900000Y-90725000D01*
X132851000Y-91774000D02*
X132851000Y-102351000D01*
X133934314Y-88159314D02*
X133900000Y-88193628D01*
%TO.N,/PWM_U*%
X171210000Y-101890000D02*
X171210000Y-81720000D01*
X169720000Y-80230000D02*
X167480000Y-80230000D01*
X162240000Y-110860000D02*
X171210000Y-101890000D01*
X171210000Y-81720000D02*
X169720000Y-80230000D01*
X162240000Y-112005000D02*
X162240000Y-110860000D01*
%TO.N,/IN_V*%
X145825000Y-79975000D02*
X145850000Y-79950000D01*
X163369000Y-103261000D02*
X157650000Y-108980000D01*
X145850000Y-79950000D02*
X152525000Y-79950000D01*
X157650000Y-108980000D02*
X157600000Y-108980000D01*
X163369000Y-90794000D02*
X163369000Y-103261000D01*
X152525000Y-79950000D02*
X163369000Y-90794000D01*
%TO.N,/PWM_V*%
X145225000Y-80925000D02*
X144762500Y-80462500D01*
X152300000Y-80925000D02*
X145225000Y-80925000D01*
X159540000Y-111390000D02*
X159540000Y-112165000D01*
X161000000Y-109930000D02*
X159540000Y-111390000D01*
X160829000Y-89454000D02*
X152300000Y-80925000D01*
X155600000Y-109930000D02*
X155600000Y-108930000D01*
X155600000Y-108930000D02*
X160829000Y-103701000D01*
X160829000Y-103701000D02*
X160829000Y-89454000D01*
D26*
%TO.N,+5V*%
X173652188Y-88082188D02*
X172052188Y-88082188D01*
X173930331Y-88360331D02*
X173652188Y-88082188D01*
X135500000Y-87725000D02*
X135500000Y-86025000D01*
X150475000Y-87375000D02*
X152125000Y-87375000D01*
X135500000Y-86025000D02*
X133137500Y-83662500D01*
D25*
X172052188Y-88082188D02*
X172101151Y-88082188D01*
%TO.N,/PWM_W*%
X135500000Y-109325000D02*
X142700000Y-109325000D01*
X133597123Y-86109253D02*
X130100000Y-89606376D01*
X142700000Y-109325000D02*
X144300000Y-110925000D01*
X130100000Y-89606376D02*
X130100000Y-103925000D01*
X130100000Y-103925000D02*
X135500000Y-109325000D01*
X144300000Y-110925000D02*
X144300000Y-112165000D01*
D27*
%TO.N,+10V*%
X135100000Y-93725000D02*
X143700000Y-85125000D01*
X143700000Y-85125000D02*
X153550000Y-85125000D01*
X135100000Y-94325000D02*
X135100000Y-93725000D01*
D28*
%TO.N,+33V*%
X135795000Y-114625000D02*
X121446726Y-114625000D01*
X121446726Y-114625000D02*
X121041384Y-115030342D01*
D25*
X117312755Y-96300000D02*
X117212755Y-96200000D01*
X168850000Y-60120000D02*
X168800000Y-60070000D01*
X117212755Y-95512755D02*
X117212755Y-96200000D01*
D28*
X136020000Y-114850000D02*
X135795000Y-114625000D01*
X117841384Y-115030342D02*
X117262755Y-114451713D01*
X117262755Y-114451713D02*
X117262755Y-112700000D01*
X121041384Y-115030342D02*
X117841384Y-115030342D01*
D25*
%TO.N,/HAL_U*%
X148800000Y-108530000D02*
X148800000Y-110350000D01*
X148800000Y-110350000D02*
X149380000Y-110930000D01*
X152050000Y-108480000D02*
X152050000Y-105430000D01*
X149380000Y-110930000D02*
X149380000Y-112165000D01*
%TO.N,/CWR*%
X166700000Y-116030000D02*
X168200000Y-117530000D01*
X146840000Y-113296370D02*
X149573630Y-116030000D01*
X168200000Y-120330000D02*
X170695000Y-122825000D01*
X170695000Y-122825000D02*
X171275000Y-122825000D01*
X146840000Y-112165000D02*
X146840000Y-113296370D01*
X149573630Y-116030000D02*
X166700000Y-116030000D01*
X168200000Y-117530000D02*
X168200000Y-120330000D01*
%TO.N,/Vbatt*%
X134900000Y-99125000D02*
X134300000Y-99725000D01*
X157300000Y-99125000D02*
X134900000Y-99125000D01*
%TO.N,/POT*%
X157800000Y-104330000D02*
X157400000Y-104330000D01*
X157400000Y-104330000D02*
X154200000Y-107530000D01*
X154200000Y-107530000D02*
X154200000Y-107730000D01*
%TO.N,/HAL_V*%
X150900000Y-110130000D02*
X150900000Y-106630000D01*
X149800000Y-105530000D02*
X146900000Y-105530000D01*
X150900000Y-106630000D02*
X149800000Y-105530000D01*
%TO.N,+5V_Fuse*%
X153550000Y-104375000D02*
X148300000Y-104375000D01*
X148300000Y-104375000D02*
X140610004Y-104375000D01*
X140610004Y-104375000D02*
X140540002Y-104304998D01*
%TD*%
%TA.AperFunction,Conductor*%
%TO.N,GND*%
G36*
X138550000Y-139125000D02*
G01*
X131200000Y-139125000D01*
X131200000Y-132125000D01*
X138550000Y-132125000D01*
X138550000Y-139125000D01*
G37*
%TD.AperFunction*%
%TD*%
%TA.AperFunction,Conductor*%
%TO.N,GND*%
G36*
X171504143Y-43895462D02*
G01*
X171558681Y-43950000D01*
X171578643Y-44024500D01*
X171558681Y-44099000D01*
X171508915Y-44150662D01*
X171297506Y-44283498D01*
X171297500Y-44283502D01*
X171077425Y-44459006D01*
X170878389Y-44658042D01*
X170702885Y-44878116D01*
X170553131Y-45116450D01*
X170431003Y-45370050D01*
X170431001Y-45370056D01*
X170338034Y-45635742D01*
X170338032Y-45635750D01*
X170338030Y-45635757D01*
X170275399Y-45910159D01*
X170243883Y-46189876D01*
X170243883Y-46471357D01*
X170275399Y-46751074D01*
X170338030Y-47025476D01*
X170338034Y-47025492D01*
X170392689Y-47181687D01*
X170431000Y-47291174D01*
X170431003Y-47291183D01*
X170553131Y-47544783D01*
X170702885Y-47783117D01*
X170878389Y-48003191D01*
X171077425Y-48202227D01*
X171297499Y-48377731D01*
X171456388Y-48477567D01*
X171535834Y-48527486D01*
X171789439Y-48649616D01*
X172055125Y-48742583D01*
X172201714Y-48776040D01*
X172329542Y-48805217D01*
X172329545Y-48805217D01*
X172329548Y-48805218D01*
X172609259Y-48836734D01*
X172890741Y-48836734D01*
X173170452Y-48805218D01*
X173170455Y-48805217D01*
X173170457Y-48805217D01*
X173219315Y-48794065D01*
X173444875Y-48742583D01*
X173710561Y-48649616D01*
X173964166Y-48527486D01*
X174202503Y-48377729D01*
X174422574Y-48202228D01*
X174621611Y-48003191D01*
X174797112Y-47783120D01*
X174924338Y-47580641D01*
X174980877Y-47528180D01*
X175056071Y-47511017D01*
X175129772Y-47533751D01*
X175182233Y-47590290D01*
X175199500Y-47659913D01*
X175199500Y-137768781D01*
X175179538Y-137843281D01*
X175125000Y-137897819D01*
X175050500Y-137917781D01*
X174976000Y-137897819D01*
X174934007Y-137861681D01*
X174771611Y-137658043D01*
X174572574Y-137459006D01*
X174511573Y-137410359D01*
X174352500Y-137283502D01*
X174114166Y-137133748D01*
X173860566Y-137011620D01*
X173860563Y-137011619D01*
X173860561Y-137011618D01*
X173594875Y-136918651D01*
X173594863Y-136918648D01*
X173594859Y-136918647D01*
X173320457Y-136856016D01*
X173040741Y-136824500D01*
X172759259Y-136824500D01*
X172479542Y-136856016D01*
X172205140Y-136918647D01*
X172205133Y-136918649D01*
X172205125Y-136918651D01*
X171939442Y-137011617D01*
X171939433Y-137011620D01*
X171685833Y-137133748D01*
X171447499Y-137283502D01*
X171227425Y-137459006D01*
X171028389Y-137658042D01*
X170852885Y-137878116D01*
X170703131Y-138116450D01*
X170581003Y-138370050D01*
X170581001Y-138370056D01*
X170488034Y-138635742D01*
X170488032Y-138635750D01*
X170488030Y-138635757D01*
X170425399Y-138910159D01*
X170393883Y-139189876D01*
X170393883Y-139471357D01*
X170425399Y-139751074D01*
X170478016Y-139981600D01*
X170488034Y-140025492D01*
X170546311Y-140192038D01*
X170581000Y-140291174D01*
X170581003Y-140291183D01*
X170703131Y-140544783D01*
X170852885Y-140783117D01*
X171028389Y-141003191D01*
X171227425Y-141202227D01*
X171447499Y-141377731D01*
X171566859Y-141452729D01*
X171685834Y-141527486D01*
X171922080Y-141641256D01*
X171980541Y-141691565D01*
X172006014Y-141764365D01*
X171991675Y-141840149D01*
X171941366Y-141898610D01*
X171868566Y-141924083D01*
X171857431Y-141924500D01*
X107998308Y-141924500D01*
X107923808Y-141904538D01*
X107869270Y-141850000D01*
X107849308Y-141775500D01*
X107869270Y-141701000D01*
X107923808Y-141646462D01*
X107933659Y-141641256D01*
X108014166Y-141602486D01*
X108252503Y-141452729D01*
X108472574Y-141277228D01*
X108671611Y-141078191D01*
X108847112Y-140858120D01*
X108996869Y-140619783D01*
X109118999Y-140366178D01*
X109211966Y-140100492D01*
X109274601Y-139826069D01*
X109306117Y-139546358D01*
X109306117Y-139264876D01*
X109274601Y-138985165D01*
X109257481Y-138910159D01*
X109211969Y-138710757D01*
X109211966Y-138710742D01*
X109118999Y-138445056D01*
X108996869Y-138191451D01*
X108886042Y-138015070D01*
X108847113Y-137953115D01*
X108847111Y-137953113D01*
X108803016Y-137897819D01*
X108671611Y-137733043D01*
X108472574Y-137534006D01*
X108252500Y-137358502D01*
X108014166Y-137208748D01*
X107760566Y-137086620D01*
X107760563Y-137086619D01*
X107760561Y-137086618D01*
X107494875Y-136993651D01*
X107494863Y-136993648D01*
X107494859Y-136993647D01*
X107220457Y-136931016D01*
X106940741Y-136899500D01*
X106659259Y-136899500D01*
X106379542Y-136931016D01*
X106105140Y-136993647D01*
X106105133Y-136993649D01*
X106105125Y-136993651D01*
X105839442Y-137086617D01*
X105839433Y-137086620D01*
X105585833Y-137208748D01*
X105347499Y-137358502D01*
X105127425Y-137534006D01*
X104928389Y-137733042D01*
X104752889Y-137953113D01*
X104752886Y-137953115D01*
X104603131Y-138191450D01*
X104583744Y-138231709D01*
X104533434Y-138290170D01*
X104460634Y-138315643D01*
X104384851Y-138301304D01*
X104326390Y-138250994D01*
X104300917Y-138178194D01*
X104300500Y-138167060D01*
X104300500Y-131523992D01*
X116594500Y-131523992D01*
X116594500Y-140426007D01*
X116604906Y-140505055D01*
X116604910Y-140505075D01*
X116624870Y-140579567D01*
X116624876Y-140579587D01*
X116639042Y-140619783D01*
X116640492Y-140623898D01*
X116703941Y-140716521D01*
X116758479Y-140771059D01*
X116794172Y-140801639D01*
X116895432Y-140850129D01*
X116952323Y-140865372D01*
X116969924Y-140870089D01*
X116969926Y-140870089D01*
X116969932Y-140870091D01*
X116969937Y-140870091D01*
X116969944Y-140870093D01*
X117048992Y-140880499D01*
X117049000Y-140880500D01*
X130451000Y-140880500D01*
X130467906Y-140878274D01*
X130530055Y-140870093D01*
X130530059Y-140870092D01*
X130530068Y-140870091D01*
X130604568Y-140850129D01*
X130604573Y-140850126D01*
X130604587Y-140850123D01*
X130625726Y-140842673D01*
X130648898Y-140834508D01*
X130741521Y-140771059D01*
X130796059Y-140716521D01*
X130826639Y-140680828D01*
X130875129Y-140579568D01*
X130895091Y-140505068D01*
X130905500Y-140426000D01*
X130905500Y-139125000D01*
X131200000Y-139125000D01*
X133178570Y-139125000D01*
X134000000Y-139125000D01*
X135500000Y-139125000D01*
X136321430Y-139125000D01*
X138550000Y-139125000D01*
X138550000Y-132125000D01*
X131200000Y-132125000D01*
X131200000Y-139125000D01*
X130905500Y-139125000D01*
X130905500Y-131524000D01*
X130895091Y-131444932D01*
X130875129Y-131370432D01*
X130875128Y-131370430D01*
X130875123Y-131370412D01*
X130859509Y-131326106D01*
X130859508Y-131326102D01*
X130796059Y-131233479D01*
X130741521Y-131178941D01*
X130705828Y-131148361D01*
X130637185Y-131115490D01*
X130604569Y-131099871D01*
X130530075Y-131079910D01*
X130530055Y-131079906D01*
X130451007Y-131069500D01*
X130451000Y-131069500D01*
X120420064Y-131069500D01*
X120345564Y-131049538D01*
X120291026Y-130995000D01*
X120271064Y-130920500D01*
X120291026Y-130846000D01*
X120314705Y-130815141D01*
X120419956Y-130709890D01*
X120583587Y-130496641D01*
X120717984Y-130263859D01*
X120820847Y-130015526D01*
X120890416Y-129755891D01*
X120925500Y-129489397D01*
X120925500Y-129220603D01*
X120890416Y-128954109D01*
X120820847Y-128694474D01*
X120771359Y-128575000D01*
X169810218Y-128575000D01*
X169810493Y-128577696D01*
X169865642Y-128744121D01*
X169957680Y-128893340D01*
X170081659Y-129017319D01*
X170230878Y-129109357D01*
X170397302Y-129164505D01*
X170397311Y-129164507D01*
X170500015Y-129174999D01*
X170525000Y-129174999D01*
X172025000Y-129174999D01*
X172049974Y-129174999D01*
X172152696Y-129164505D01*
X172319121Y-129109357D01*
X172468340Y-129017319D01*
X172592319Y-128893340D01*
X172684357Y-128744121D01*
X172739506Y-128577696D01*
X172739781Y-128575000D01*
X172025000Y-128575000D01*
X172025000Y-129174999D01*
X170525000Y-129174999D01*
X170525000Y-128575000D01*
X169810218Y-128575000D01*
X120771359Y-128575000D01*
X120717984Y-128446141D01*
X120583587Y-128213359D01*
X120419956Y-128000110D01*
X120229890Y-127810044D01*
X120167883Y-127762465D01*
X170800000Y-127762465D01*
X170800000Y-127887535D01*
X170832370Y-128008343D01*
X170894905Y-128116657D01*
X170983343Y-128205095D01*
X171091657Y-128267630D01*
X171212465Y-128300000D01*
X171337535Y-128300000D01*
X171458343Y-128267630D01*
X171566657Y-128205095D01*
X171655095Y-128116657D01*
X171717630Y-128008343D01*
X171750000Y-127887535D01*
X171750000Y-127762465D01*
X171717630Y-127641657D01*
X171655095Y-127533343D01*
X171566657Y-127444905D01*
X171458343Y-127382370D01*
X171337535Y-127350000D01*
X171212465Y-127350000D01*
X171091657Y-127382370D01*
X170983343Y-127444905D01*
X170894905Y-127533343D01*
X170832370Y-127641657D01*
X170800000Y-127762465D01*
X120167883Y-127762465D01*
X120165227Y-127760427D01*
X120016643Y-127646414D01*
X119783863Y-127512018D01*
X119783861Y-127512017D01*
X119783859Y-127512016D01*
X119621839Y-127444905D01*
X119535529Y-127409154D01*
X119535527Y-127409153D01*
X119535526Y-127409153D01*
X119405708Y-127374368D01*
X119275888Y-127339583D01*
X119275875Y-127339581D01*
X119009402Y-127304500D01*
X119009397Y-127304500D01*
X118740603Y-127304500D01*
X118740597Y-127304500D01*
X118474124Y-127339581D01*
X118474111Y-127339583D01*
X118214470Y-127409154D01*
X117966136Y-127512018D01*
X117733356Y-127646414D01*
X117520108Y-127810045D01*
X117330045Y-128000108D01*
X117166414Y-128213356D01*
X117032018Y-128446136D01*
X116929154Y-128694470D01*
X116859583Y-128954111D01*
X116859581Y-128954124D01*
X116824500Y-129220597D01*
X116824500Y-129489402D01*
X116859581Y-129755875D01*
X116859583Y-129755888D01*
X116929154Y-130015529D01*
X117032018Y-130263863D01*
X117166414Y-130496643D01*
X117330045Y-130709891D01*
X117435295Y-130815141D01*
X117473859Y-130881936D01*
X117473859Y-130959064D01*
X117435295Y-131025859D01*
X117368500Y-131064423D01*
X117329936Y-131069500D01*
X117048992Y-131069500D01*
X116969944Y-131079906D01*
X116969924Y-131079910D01*
X116895432Y-131099870D01*
X116895412Y-131099876D01*
X116851106Y-131115490D01*
X116851099Y-131115493D01*
X116758476Y-131178943D01*
X116703942Y-131233477D01*
X116673361Y-131269172D01*
X116624871Y-131370430D01*
X116604910Y-131444924D01*
X116604906Y-131444944D01*
X116594500Y-131523992D01*
X104300500Y-131523992D01*
X104300500Y-127074999D01*
X169810218Y-127074999D01*
X169810219Y-127075000D01*
X170525000Y-127075000D01*
X172025000Y-127075000D01*
X172739781Y-127075000D01*
X172739781Y-127074999D01*
X172739506Y-127072303D01*
X172684357Y-126905878D01*
X172592319Y-126756659D01*
X172468340Y-126632680D01*
X172468336Y-126632677D01*
X172339989Y-126553513D01*
X172287060Y-126497413D01*
X172269272Y-126422364D01*
X172291392Y-126348476D01*
X172312851Y-126321337D01*
X172429714Y-126204474D01*
X172429722Y-126204464D01*
X172523784Y-126075000D01*
X172025000Y-126075000D01*
X172025000Y-127075000D01*
X170525000Y-127075000D01*
X170525000Y-126075000D01*
X170026216Y-126075000D01*
X170120277Y-126204464D01*
X170120279Y-126204467D01*
X170237149Y-126321337D01*
X170275713Y-126388132D01*
X170275713Y-126465260D01*
X170237149Y-126532055D01*
X170210011Y-126553513D01*
X170081659Y-126632680D01*
X169957680Y-126756659D01*
X169865642Y-126905878D01*
X169810493Y-127072303D01*
X169810218Y-127074999D01*
X104300500Y-127074999D01*
X104300500Y-124140597D01*
X116824500Y-124140597D01*
X116824500Y-124409402D01*
X116859581Y-124675875D01*
X116859583Y-124675888D01*
X116859584Y-124675891D01*
X116929153Y-124935526D01*
X117014535Y-125141657D01*
X117032018Y-125183863D01*
X117166414Y-125416643D01*
X117236778Y-125508343D01*
X117330044Y-125629890D01*
X117520110Y-125819956D01*
X117733359Y-125983587D01*
X117966141Y-126117984D01*
X118214474Y-126220847D01*
X118474109Y-126290416D01*
X118740603Y-126325500D01*
X119009397Y-126325500D01*
X119275891Y-126290416D01*
X119535526Y-126220847D01*
X119783859Y-126117984D01*
X120016641Y-125983587D01*
X120229890Y-125819956D01*
X120419956Y-125629890D01*
X120583587Y-125416641D01*
X120672601Y-125262465D01*
X170800000Y-125262465D01*
X170800000Y-125387535D01*
X170832370Y-125508343D01*
X170894905Y-125616657D01*
X170983343Y-125705095D01*
X171091657Y-125767630D01*
X171212465Y-125800000D01*
X171337535Y-125800000D01*
X171458343Y-125767630D01*
X171566657Y-125705095D01*
X171655095Y-125616657D01*
X171717630Y-125508343D01*
X171750000Y-125387535D01*
X171750000Y-125262465D01*
X171717630Y-125141657D01*
X171655095Y-125033343D01*
X171566657Y-124944905D01*
X171458343Y-124882370D01*
X171337535Y-124850000D01*
X171212465Y-124850000D01*
X171091657Y-124882370D01*
X170983343Y-124944905D01*
X170894905Y-125033343D01*
X170832370Y-125141657D01*
X170800000Y-125262465D01*
X120672601Y-125262465D01*
X120717984Y-125183859D01*
X120820847Y-124935526D01*
X120890416Y-124675891D01*
X120925500Y-124409397D01*
X120925500Y-124140603D01*
X120890416Y-123874109D01*
X120820847Y-123614474D01*
X120717984Y-123366141D01*
X120583587Y-123133359D01*
X120419956Y-122920110D01*
X120229890Y-122730044D01*
X120165227Y-122680427D01*
X120016643Y-122566414D01*
X119783863Y-122432018D01*
X119783861Y-122432017D01*
X119783859Y-122432016D01*
X119638392Y-122371761D01*
X119535529Y-122329154D01*
X119535527Y-122329153D01*
X119535526Y-122329153D01*
X119405708Y-122294368D01*
X119275888Y-122259583D01*
X119275875Y-122259581D01*
X119009402Y-122224500D01*
X119009397Y-122224500D01*
X118740603Y-122224500D01*
X118740597Y-122224500D01*
X118474124Y-122259581D01*
X118474111Y-122259583D01*
X118214470Y-122329154D01*
X117966136Y-122432018D01*
X117733356Y-122566414D01*
X117520108Y-122730045D01*
X117330045Y-122920108D01*
X117166414Y-123133356D01*
X117032018Y-123366136D01*
X116929154Y-123614470D01*
X116859583Y-123874111D01*
X116859581Y-123874124D01*
X116824500Y-124140597D01*
X104300500Y-124140597D01*
X104300500Y-114736783D01*
X108961630Y-114736783D01*
X108961630Y-114736784D01*
X108965134Y-114738235D01*
X108965132Y-114738235D01*
X109180392Y-114795913D01*
X109180405Y-114795915D01*
X109401325Y-114824999D01*
X109401331Y-114825000D01*
X109624179Y-114825000D01*
X109624184Y-114824999D01*
X109845104Y-114795915D01*
X109845117Y-114795913D01*
X110060373Y-114738236D01*
X110063878Y-114736783D01*
X109512755Y-114185660D01*
X108961630Y-114736783D01*
X104300500Y-114736783D01*
X104300500Y-113013570D01*
X107812755Y-113013570D01*
X107812755Y-113236429D01*
X107841839Y-113457349D01*
X107841842Y-113457366D01*
X107899515Y-113672610D01*
X107900970Y-113676123D01*
X108452094Y-113124999D01*
X108373104Y-113046009D01*
X108912755Y-113046009D01*
X108912755Y-113203991D01*
X108953644Y-113356591D01*
X109032636Y-113493408D01*
X109144347Y-113605119D01*
X109281164Y-113684111D01*
X109433764Y-113725000D01*
X109591746Y-113725000D01*
X109744346Y-113684111D01*
X109881163Y-113605119D01*
X109992874Y-113493408D01*
X110071866Y-113356591D01*
X110112755Y-113203991D01*
X110112755Y-113124999D01*
X110573415Y-113124999D01*
X110573415Y-113125000D01*
X111124538Y-113676123D01*
X111125991Y-113672618D01*
X111183668Y-113457362D01*
X111183670Y-113457349D01*
X111212754Y-113236429D01*
X111212755Y-113236424D01*
X111212755Y-113013576D01*
X111212754Y-113013570D01*
X111183670Y-112792650D01*
X111183668Y-112792637D01*
X111125990Y-112577378D01*
X111124539Y-112573875D01*
X110573415Y-113124999D01*
X110112755Y-113124999D01*
X110112755Y-113046009D01*
X110071866Y-112893409D01*
X109992874Y-112756592D01*
X109881163Y-112644881D01*
X109744346Y-112565889D01*
X109591746Y-112525000D01*
X109433764Y-112525000D01*
X109281164Y-112565889D01*
X109144347Y-112644881D01*
X109032636Y-112756592D01*
X108953644Y-112893409D01*
X108912755Y-113046009D01*
X108373104Y-113046009D01*
X107900970Y-112573875D01*
X107899520Y-112577377D01*
X107899519Y-112577381D01*
X107841841Y-112792637D01*
X107841839Y-112792650D01*
X107812755Y-113013570D01*
X104300500Y-113013570D01*
X104300500Y-111513215D01*
X108961630Y-111513215D01*
X109512754Y-112064339D01*
X110063878Y-111513215D01*
X110060365Y-111511760D01*
X109845121Y-111454087D01*
X109845104Y-111454084D01*
X109624184Y-111425000D01*
X109401325Y-111425000D01*
X109180405Y-111454084D01*
X109180392Y-111454086D01*
X108965136Y-111511764D01*
X108965132Y-111511765D01*
X108961630Y-111513215D01*
X104300500Y-111513215D01*
X104300500Y-98136783D01*
X108961630Y-98136783D01*
X108961630Y-98136784D01*
X108965134Y-98138235D01*
X108965132Y-98138235D01*
X109180392Y-98195913D01*
X109180405Y-98195915D01*
X109401325Y-98224999D01*
X109401331Y-98225000D01*
X109624179Y-98225000D01*
X109624184Y-98224999D01*
X109845104Y-98195915D01*
X109845117Y-98195913D01*
X110060373Y-98138236D01*
X110063878Y-98136783D01*
X109512755Y-97585660D01*
X108961630Y-98136783D01*
X104300500Y-98136783D01*
X104300500Y-96413570D01*
X107812755Y-96413570D01*
X107812755Y-96636429D01*
X107841839Y-96857349D01*
X107841842Y-96857366D01*
X107899515Y-97072610D01*
X107900970Y-97076123D01*
X108452094Y-96524999D01*
X108373104Y-96446009D01*
X108912755Y-96446009D01*
X108912755Y-96603991D01*
X108953644Y-96756591D01*
X109032636Y-96893408D01*
X109144347Y-97005119D01*
X109281164Y-97084111D01*
X109433764Y-97125000D01*
X109591746Y-97125000D01*
X109744346Y-97084111D01*
X109881163Y-97005119D01*
X109992874Y-96893408D01*
X110071866Y-96756591D01*
X110112755Y-96603991D01*
X110112755Y-96524999D01*
X110573415Y-96524999D01*
X110573415Y-96525000D01*
X111124538Y-97076123D01*
X111125991Y-97072618D01*
X111183668Y-96857362D01*
X111183670Y-96857349D01*
X111212754Y-96636429D01*
X111212755Y-96636424D01*
X111212755Y-96413576D01*
X111212754Y-96413570D01*
X111183670Y-96192650D01*
X111183668Y-96192637D01*
X111125990Y-95977378D01*
X111124539Y-95973875D01*
X110573415Y-96524999D01*
X110112755Y-96524999D01*
X110112755Y-96446009D01*
X110071866Y-96293409D01*
X109992874Y-96156592D01*
X109881163Y-96044881D01*
X109744346Y-95965889D01*
X109591746Y-95925000D01*
X109433764Y-95925000D01*
X109281164Y-95965889D01*
X109144347Y-96044881D01*
X109032636Y-96156592D01*
X108953644Y-96293409D01*
X108912755Y-96446009D01*
X108373104Y-96446009D01*
X107900970Y-95973875D01*
X107899520Y-95977377D01*
X107899519Y-95977381D01*
X107841841Y-96192637D01*
X107841839Y-96192650D01*
X107812755Y-96413570D01*
X104300500Y-96413570D01*
X104300500Y-94913215D01*
X108961630Y-94913215D01*
X109512755Y-95464340D01*
X109681407Y-95295688D01*
X114441263Y-95295688D01*
X114443394Y-96446575D01*
X114443467Y-96486227D01*
X114445851Y-97773410D01*
X114445957Y-97830500D01*
X114460064Y-105450943D01*
X114471852Y-111818191D01*
X114471917Y-111853139D01*
X114471963Y-111877725D01*
X114471963Y-111877728D01*
X114474127Y-113046575D01*
X114474127Y-113046577D01*
X114474200Y-113086226D01*
X114476583Y-114373408D01*
X114476689Y-114430500D01*
X114476689Y-114430501D01*
X114478013Y-115145612D01*
X114485030Y-115210145D01*
X114496202Y-115261360D01*
X114507041Y-115299165D01*
X114507043Y-115299171D01*
X114563651Y-115396126D01*
X114569755Y-115403181D01*
X114609369Y-115448967D01*
X114654069Y-115491176D01*
X114754112Y-115542138D01*
X114821132Y-115561870D01*
X114821133Y-115561870D01*
X114821136Y-115561871D01*
X114907196Y-115574309D01*
X117732779Y-115576386D01*
X117759187Y-115579874D01*
X117759228Y-115579567D01*
X117768907Y-115580841D01*
X117768909Y-115580842D01*
X117768910Y-115580842D01*
X117768911Y-115580842D01*
X121113855Y-115580842D01*
X121113858Y-115580842D01*
X121113859Y-115580842D01*
X121113862Y-115580840D01*
X121118980Y-115580167D01*
X121138536Y-115578891D01*
X122696503Y-115580037D01*
X122700956Y-115580041D01*
X122700956Y-115580040D01*
X122700959Y-115580041D01*
X122766249Y-115573032D01*
X122818029Y-115561745D01*
X122856563Y-115550652D01*
X122953387Y-115493820D01*
X123006119Y-115447982D01*
X123048228Y-115403181D01*
X123098956Y-115303024D01*
X123104876Y-115282745D01*
X123144916Y-115216824D01*
X123212552Y-115179755D01*
X123247906Y-115175500D01*
X135434547Y-115175500D01*
X135509047Y-115195462D01*
X135539906Y-115219142D01*
X135651280Y-115330517D01*
X135651282Y-115330518D01*
X135651284Y-115330520D01*
X135788216Y-115409577D01*
X135940943Y-115450500D01*
X136099057Y-115450500D01*
X136251784Y-115409577D01*
X136388716Y-115330520D01*
X136500520Y-115218716D01*
X136579577Y-115081784D01*
X136620500Y-114929057D01*
X136620500Y-114770943D01*
X136579577Y-114618216D01*
X136500520Y-114481284D01*
X136388716Y-114369480D01*
X136388715Y-114369479D01*
X136243328Y-114285541D01*
X136244225Y-114283985D01*
X136208915Y-114260390D01*
X136133015Y-114184490D01*
X136007485Y-114112016D01*
X135867475Y-114074500D01*
X123277848Y-114074500D01*
X123203348Y-114054538D01*
X123148810Y-114000000D01*
X123128848Y-113925735D01*
X123127558Y-113106228D01*
X123124747Y-111320135D01*
X130499500Y-111320135D01*
X130499500Y-111320136D01*
X130499500Y-111320140D01*
X130499500Y-113009866D01*
X130502414Y-113034989D01*
X130502415Y-113034992D01*
X130547793Y-113137764D01*
X130547794Y-113137765D01*
X130627235Y-113217206D01*
X130730009Y-113262585D01*
X130755135Y-113265500D01*
X132444864Y-113265499D01*
X132444866Y-113265499D01*
X132457427Y-113264042D01*
X132469991Y-113262585D01*
X132572765Y-113217206D01*
X132652206Y-113137765D01*
X132697585Y-113034991D01*
X132700500Y-113009865D01*
X132700499Y-112078389D01*
X133039500Y-112078389D01*
X133039500Y-112251611D01*
X133051137Y-112325086D01*
X133066597Y-112422700D01*
X133085507Y-112480896D01*
X133120127Y-112587445D01*
X133120130Y-112587450D01*
X133198771Y-112741793D01*
X133274740Y-112846354D01*
X133300586Y-112881928D01*
X133423072Y-113004414D01*
X133465159Y-113034992D01*
X133535677Y-113086227D01*
X133563212Y-113106232D01*
X133717555Y-113184873D01*
X133882299Y-113238402D01*
X134053389Y-113265500D01*
X134053393Y-113265500D01*
X134226607Y-113265500D01*
X134226611Y-113265500D01*
X134397701Y-113238402D01*
X134562445Y-113184873D01*
X134716788Y-113106232D01*
X134856928Y-113004414D01*
X134979414Y-112881928D01*
X135081232Y-112741788D01*
X135159873Y-112587445D01*
X135213402Y-112422701D01*
X135240500Y-112251611D01*
X135240500Y-112078389D01*
X135579500Y-112078389D01*
X135579500Y-112251611D01*
X135591137Y-112325086D01*
X135606597Y-112422700D01*
X135625507Y-112480896D01*
X135660127Y-112587445D01*
X135660130Y-112587450D01*
X135738771Y-112741793D01*
X135814740Y-112846354D01*
X135840586Y-112881928D01*
X135963072Y-113004414D01*
X136005159Y-113034992D01*
X136075677Y-113086227D01*
X136103212Y-113106232D01*
X136257555Y-113184873D01*
X136422299Y-113238402D01*
X136593389Y-113265500D01*
X136593393Y-113265500D01*
X136766607Y-113265500D01*
X136766611Y-113265500D01*
X136937701Y-113238402D01*
X137102445Y-113184873D01*
X137256788Y-113106232D01*
X137396928Y-113004414D01*
X137519414Y-112881928D01*
X137621232Y-112741788D01*
X137699873Y-112587445D01*
X137703409Y-112576561D01*
X137745412Y-112511879D01*
X137814133Y-112476861D01*
X137891155Y-112480895D01*
X137955841Y-112522900D01*
X137986823Y-112576560D01*
X138015241Y-112664020D01*
X138015246Y-112664032D01*
X138108143Y-112846354D01*
X138228412Y-113011889D01*
X138373110Y-113156587D01*
X138469999Y-113226981D01*
X138470000Y-113226981D01*
X138470000Y-112099174D01*
X138720000Y-112099174D01*
X138720000Y-112230826D01*
X138754075Y-112357993D01*
X138819901Y-112472007D01*
X138912993Y-112565099D01*
X139027007Y-112630925D01*
X139154174Y-112665000D01*
X139285826Y-112665000D01*
X139412993Y-112630925D01*
X139527007Y-112565099D01*
X139620099Y-112472007D01*
X139685925Y-112357993D01*
X139720000Y-112230826D01*
X139720000Y-112099174D01*
X139685925Y-111972007D01*
X139620099Y-111857993D01*
X139527007Y-111764901D01*
X139412993Y-111699075D01*
X139285826Y-111665000D01*
X139154174Y-111665000D01*
X139027007Y-111699075D01*
X138912993Y-111764901D01*
X138819901Y-111857993D01*
X138754075Y-111972007D01*
X138720000Y-112099174D01*
X138470000Y-112099174D01*
X138470000Y-111103016D01*
X139970000Y-111103016D01*
X139970000Y-113226981D01*
X140066889Y-113156587D01*
X140211587Y-113011889D01*
X140331856Y-112846354D01*
X140424753Y-112664032D01*
X140424755Y-112664028D01*
X140453175Y-112576561D01*
X140495182Y-112511876D01*
X140563903Y-112476860D01*
X140640926Y-112480896D01*
X140705611Y-112522903D01*
X140736589Y-112576557D01*
X140736856Y-112577378D01*
X140740127Y-112587445D01*
X140740130Y-112587450D01*
X140818771Y-112741793D01*
X140894740Y-112846354D01*
X140920586Y-112881928D01*
X141043072Y-113004414D01*
X141085159Y-113034992D01*
X141155677Y-113086227D01*
X141183212Y-113106232D01*
X141337555Y-113184873D01*
X141502299Y-113238402D01*
X141673389Y-113265500D01*
X141673393Y-113265500D01*
X141846607Y-113265500D01*
X141846611Y-113265500D01*
X142017701Y-113238402D01*
X142182445Y-113184873D01*
X142336788Y-113106232D01*
X142476928Y-113004414D01*
X142599414Y-112881928D01*
X142701232Y-112741788D01*
X142779873Y-112587445D01*
X142833402Y-112422701D01*
X142860500Y-112251611D01*
X142860500Y-112078389D01*
X142833402Y-111907299D01*
X142779873Y-111742555D01*
X142701232Y-111588212D01*
X142599414Y-111448072D01*
X142476928Y-111325586D01*
X142469427Y-111320136D01*
X142336793Y-111223771D01*
X142336790Y-111223769D01*
X142336788Y-111223768D01*
X142182445Y-111145127D01*
X142114463Y-111123038D01*
X142017700Y-111091597D01*
X141920086Y-111076137D01*
X141846611Y-111064500D01*
X141673389Y-111064500D01*
X141607037Y-111075009D01*
X141502299Y-111091597D01*
X141348305Y-111141634D01*
X141337555Y-111145127D01*
X141337549Y-111145129D01*
X141337549Y-111145130D01*
X141183206Y-111223771D01*
X141043075Y-111325583D01*
X140920583Y-111448075D01*
X140818771Y-111588206D01*
X140740130Y-111742549D01*
X140740126Y-111742556D01*
X140736589Y-111753444D01*
X140694579Y-111818128D01*
X140625856Y-111853140D01*
X140548834Y-111849101D01*
X140484150Y-111807091D01*
X140453175Y-111753438D01*
X140424755Y-111665971D01*
X140424753Y-111665967D01*
X140331856Y-111483645D01*
X140211587Y-111318110D01*
X140211581Y-111318104D01*
X140066895Y-111173417D01*
X140066889Y-111173412D01*
X139970000Y-111103016D01*
X138470000Y-111103016D01*
X138373110Y-111173412D01*
X138373104Y-111173417D01*
X138228418Y-111318104D01*
X138228412Y-111318110D01*
X138108143Y-111483645D01*
X138015246Y-111665967D01*
X138015242Y-111665976D01*
X137986823Y-111753440D01*
X137944816Y-111818124D01*
X137876094Y-111853139D01*
X137799071Y-111849102D01*
X137734387Y-111807095D01*
X137703409Y-111753438D01*
X137699873Y-111742555D01*
X137621232Y-111588212D01*
X137519414Y-111448072D01*
X137396928Y-111325586D01*
X137389427Y-111320136D01*
X137256793Y-111223771D01*
X137256790Y-111223769D01*
X137256788Y-111223768D01*
X137102445Y-111145127D01*
X137034463Y-111123038D01*
X136937700Y-111091597D01*
X136840086Y-111076137D01*
X136766611Y-111064500D01*
X136593389Y-111064500D01*
X136527037Y-111075009D01*
X136422299Y-111091597D01*
X136268305Y-111141634D01*
X136257555Y-111145127D01*
X136257549Y-111145129D01*
X136257549Y-111145130D01*
X136103206Y-111223771D01*
X135963075Y-111325583D01*
X135840583Y-111448075D01*
X135738771Y-111588206D01*
X135660130Y-111742549D01*
X135660125Y-111742561D01*
X135606597Y-111907299D01*
X135596349Y-111972007D01*
X135579500Y-112078389D01*
X135240500Y-112078389D01*
X135213402Y-111907299D01*
X135159873Y-111742555D01*
X135081232Y-111588212D01*
X134979414Y-111448072D01*
X134856928Y-111325586D01*
X134849427Y-111320136D01*
X134716793Y-111223771D01*
X134716790Y-111223769D01*
X134716788Y-111223768D01*
X134562445Y-111145127D01*
X134494463Y-111123038D01*
X134397700Y-111091597D01*
X134300086Y-111076137D01*
X134226611Y-111064500D01*
X134053389Y-111064500D01*
X133987037Y-111075009D01*
X133882299Y-111091597D01*
X133728305Y-111141634D01*
X133717555Y-111145127D01*
X133717549Y-111145129D01*
X133717549Y-111145130D01*
X133563206Y-111223771D01*
X133423075Y-111325583D01*
X133300583Y-111448075D01*
X133198771Y-111588206D01*
X133120130Y-111742549D01*
X133120125Y-111742561D01*
X133066597Y-111907299D01*
X133056349Y-111972007D01*
X133039500Y-112078389D01*
X132700499Y-112078389D01*
X132700499Y-111320136D01*
X132700263Y-111318104D01*
X132697585Y-111295010D01*
X132697584Y-111295008D01*
X132652206Y-111192235D01*
X132572765Y-111112794D01*
X132572764Y-111112793D01*
X132469994Y-111067416D01*
X132469991Y-111067415D01*
X132469982Y-111067414D01*
X132444865Y-111064500D01*
X132444859Y-111064500D01*
X130755133Y-111064500D01*
X130730010Y-111067414D01*
X130730007Y-111067415D01*
X130627235Y-111112793D01*
X130547793Y-111192235D01*
X130502416Y-111295005D01*
X130502415Y-111295008D01*
X130502415Y-111295009D01*
X130499500Y-111320135D01*
X123124747Y-111320135D01*
X123101011Y-96240018D01*
X123120856Y-96165489D01*
X123124956Y-96158778D01*
X127409519Y-89547067D01*
X129649500Y-89547067D01*
X129649500Y-103984309D01*
X129673321Y-104073212D01*
X129673322Y-104073213D01*
X129680202Y-104098891D01*
X129739506Y-104201607D01*
X129739509Y-104201611D01*
X129739511Y-104201614D01*
X135223386Y-109685489D01*
X135223388Y-109685490D01*
X135223389Y-109685491D01*
X135326115Y-109744800D01*
X135340424Y-109748633D01*
X135350317Y-109751283D01*
X135350324Y-109751287D01*
X135350325Y-109751286D01*
X135374539Y-109757774D01*
X135440691Y-109775500D01*
X142451679Y-109775500D01*
X142526179Y-109795462D01*
X142557038Y-109819141D01*
X143737962Y-111000065D01*
X143776526Y-111066860D01*
X143776526Y-111143988D01*
X143737962Y-111210783D01*
X143720184Y-111225967D01*
X143583076Y-111325583D01*
X143583070Y-111325588D01*
X143460583Y-111448075D01*
X143358771Y-111588206D01*
X143280130Y-111742549D01*
X143280125Y-111742561D01*
X143226597Y-111907299D01*
X143216349Y-111972007D01*
X143199500Y-112078389D01*
X143199500Y-112251611D01*
X143211137Y-112325086D01*
X143226597Y-112422700D01*
X143245507Y-112480896D01*
X143280127Y-112587445D01*
X143280130Y-112587450D01*
X143358771Y-112741793D01*
X143434740Y-112846354D01*
X143460586Y-112881928D01*
X143583072Y-113004414D01*
X143625159Y-113034992D01*
X143695677Y-113086227D01*
X143723212Y-113106232D01*
X143877555Y-113184873D01*
X144042299Y-113238402D01*
X144213389Y-113265500D01*
X144213393Y-113265500D01*
X144386607Y-113265500D01*
X144386611Y-113265500D01*
X144557701Y-113238402D01*
X144722445Y-113184873D01*
X144876788Y-113106232D01*
X145016928Y-113004414D01*
X145139414Y-112881928D01*
X145241232Y-112741788D01*
X145319873Y-112587445D01*
X145373402Y-112422701D01*
X145400500Y-112251611D01*
X145400500Y-112078389D01*
X145739500Y-112078389D01*
X145739500Y-112251611D01*
X145751137Y-112325086D01*
X145766597Y-112422700D01*
X145785507Y-112480896D01*
X145820127Y-112587445D01*
X145820130Y-112587450D01*
X145898771Y-112741793D01*
X145974740Y-112846354D01*
X146000586Y-112881928D01*
X146123072Y-113004414D01*
X146263212Y-113106232D01*
X146300045Y-113124999D01*
X146308143Y-113129125D01*
X146333583Y-113152031D01*
X146360352Y-113173362D01*
X146361648Y-113177300D01*
X146365461Y-113180733D01*
X146388557Y-113245148D01*
X146389500Y-113253489D01*
X146389500Y-113355679D01*
X146406601Y-113419500D01*
X146409482Y-113430254D01*
X146409483Y-113430258D01*
X146420202Y-113470260D01*
X146479506Y-113572977D01*
X146479509Y-113572981D01*
X146479511Y-113572984D01*
X149297016Y-116390490D01*
X149399740Y-116449797D01*
X149399744Y-116449799D01*
X149514321Y-116480500D01*
X166451679Y-116480500D01*
X166526179Y-116500462D01*
X166557038Y-116524141D01*
X167705859Y-117672962D01*
X167744423Y-117739757D01*
X167749500Y-117778321D01*
X167749500Y-120389310D01*
X167773713Y-120479672D01*
X167780202Y-120503891D01*
X167839506Y-120606607D01*
X167839509Y-120606611D01*
X167839511Y-120606614D01*
X169955860Y-122722963D01*
X169994423Y-122789756D01*
X169999500Y-122828320D01*
X169999500Y-122915546D01*
X170027829Y-123094409D01*
X170083789Y-123266639D01*
X170166004Y-123427994D01*
X170272447Y-123574501D01*
X170400499Y-123702553D01*
X170547006Y-123808996D01*
X170588794Y-123830288D01*
X170646111Y-123881897D01*
X170669945Y-123955251D01*
X170653909Y-124030693D01*
X170602300Y-124088010D01*
X170588794Y-124095808D01*
X170442444Y-124170377D01*
X170442443Y-124170378D01*
X170270535Y-124295277D01*
X170270532Y-124295279D01*
X170120279Y-124445532D01*
X170120277Y-124445535D01*
X170026216Y-124575000D01*
X172523783Y-124575000D01*
X172429722Y-124445535D01*
X172429720Y-124445532D01*
X172279467Y-124295279D01*
X172279464Y-124295277D01*
X172107555Y-124170378D01*
X171961205Y-124095808D01*
X171903888Y-124044199D01*
X171880054Y-123970845D01*
X171896090Y-123895403D01*
X171947699Y-123838086D01*
X171961206Y-123830288D01*
X172002994Y-123808996D01*
X172149501Y-123702553D01*
X172277553Y-123574501D01*
X172383996Y-123427994D01*
X172466211Y-123266639D01*
X172522171Y-123094409D01*
X172550500Y-122915546D01*
X172550500Y-122734454D01*
X172522171Y-122555591D01*
X172466211Y-122383361D01*
X172383996Y-122222006D01*
X172277553Y-122075499D01*
X172149501Y-121947447D01*
X172002994Y-121841004D01*
X171922316Y-121799896D01*
X171841638Y-121758788D01*
X171712125Y-121716708D01*
X171647439Y-121674701D01*
X171612423Y-121605980D01*
X171616459Y-121528958D01*
X171658466Y-121464272D01*
X171712125Y-121433292D01*
X171726870Y-121428500D01*
X171841639Y-121391211D01*
X172002994Y-121308996D01*
X172149501Y-121202553D01*
X172277553Y-121074501D01*
X172383996Y-120927994D01*
X172466211Y-120766639D01*
X172522171Y-120594409D01*
X172550500Y-120415546D01*
X172550500Y-120234454D01*
X172522171Y-120055591D01*
X172466211Y-119883361D01*
X172383996Y-119722006D01*
X172277553Y-119575499D01*
X172149501Y-119447447D01*
X172002994Y-119341004D01*
X171922316Y-119299896D01*
X171841638Y-119258788D01*
X171712125Y-119216708D01*
X171647439Y-119174701D01*
X171612423Y-119105980D01*
X171616459Y-119028958D01*
X171658466Y-118964272D01*
X171712125Y-118933292D01*
X171726870Y-118928500D01*
X171841639Y-118891211D01*
X172002994Y-118808996D01*
X172149501Y-118702553D01*
X172277553Y-118574501D01*
X172383996Y-118427994D01*
X172466211Y-118266639D01*
X172522171Y-118094409D01*
X172550500Y-117915546D01*
X172550500Y-117734454D01*
X172522171Y-117555591D01*
X172466211Y-117383361D01*
X172383996Y-117222006D01*
X172277553Y-117075499D01*
X172149501Y-116947447D01*
X172002994Y-116841004D01*
X171841639Y-116758789D01*
X171669409Y-116702829D01*
X171490546Y-116674500D01*
X171059454Y-116674500D01*
X170880591Y-116702829D01*
X170708360Y-116758789D01*
X170547004Y-116841005D01*
X170547003Y-116841005D01*
X170400500Y-116947446D01*
X170400497Y-116947448D01*
X170272448Y-117075497D01*
X170272446Y-117075500D01*
X170166005Y-117222003D01*
X170166005Y-117222004D01*
X170083789Y-117383360D01*
X170083789Y-117383361D01*
X170027829Y-117555591D01*
X169999500Y-117734454D01*
X169999500Y-117915546D01*
X170027829Y-118094409D01*
X170083789Y-118266639D01*
X170166004Y-118427994D01*
X170272447Y-118574501D01*
X170400499Y-118702553D01*
X170547006Y-118808996D01*
X170708361Y-118891211D01*
X170830332Y-118930841D01*
X170837875Y-118933292D01*
X170902560Y-118975299D01*
X170937576Y-119044020D01*
X170933540Y-119121043D01*
X170891533Y-119185728D01*
X170837875Y-119216708D01*
X170708360Y-119258789D01*
X170547004Y-119341005D01*
X170547003Y-119341005D01*
X170400500Y-119447446D01*
X170400497Y-119447448D01*
X170272448Y-119575497D01*
X170272446Y-119575500D01*
X170166005Y-119722003D01*
X170166005Y-119722004D01*
X170083789Y-119883360D01*
X170083789Y-119883361D01*
X170027829Y-120055591D01*
X169999500Y-120234454D01*
X169999500Y-120415546D01*
X170027829Y-120594409D01*
X170083789Y-120766639D01*
X170166004Y-120927994D01*
X170272447Y-121074501D01*
X170400499Y-121202553D01*
X170547006Y-121308996D01*
X170708361Y-121391211D01*
X170830332Y-121430841D01*
X170837875Y-121433292D01*
X170902560Y-121475299D01*
X170937576Y-121544020D01*
X170933540Y-121621043D01*
X170891533Y-121685728D01*
X170837875Y-121716708D01*
X170708360Y-121758789D01*
X170547005Y-121841004D01*
X170534752Y-121849906D01*
X170462745Y-121877542D01*
X170386567Y-121865472D01*
X170341820Y-121834716D01*
X168694141Y-120187037D01*
X168655577Y-120120242D01*
X168650500Y-120081678D01*
X168650500Y-117470691D01*
X168650499Y-117470689D01*
X168619799Y-117356114D01*
X168594731Y-117312696D01*
X168560489Y-117253386D01*
X166976614Y-115669511D01*
X166976611Y-115669509D01*
X166976607Y-115669506D01*
X166873890Y-115610202D01*
X166873887Y-115610201D01*
X166849673Y-115603713D01*
X166759309Y-115579500D01*
X149821952Y-115579500D01*
X149747452Y-115559538D01*
X149716593Y-115535859D01*
X148611234Y-114430500D01*
X147464953Y-113284220D01*
X147426390Y-113217426D01*
X147426390Y-113140298D01*
X147464954Y-113073503D01*
X147482724Y-113058326D01*
X147556928Y-113004414D01*
X147679414Y-112881928D01*
X147781232Y-112741788D01*
X147859873Y-112587445D01*
X147913402Y-112422701D01*
X147940500Y-112251611D01*
X147940500Y-112078389D01*
X147913402Y-111907299D01*
X147859873Y-111742555D01*
X147781232Y-111588212D01*
X147679414Y-111448072D01*
X147556928Y-111325586D01*
X147549427Y-111320136D01*
X147416793Y-111223771D01*
X147416790Y-111223769D01*
X147416788Y-111223768D01*
X147262445Y-111145127D01*
X147194463Y-111123038D01*
X147097700Y-111091597D01*
X147000086Y-111076137D01*
X146926611Y-111064500D01*
X146753389Y-111064500D01*
X146687037Y-111075009D01*
X146582299Y-111091597D01*
X146428305Y-111141634D01*
X146417555Y-111145127D01*
X146417549Y-111145129D01*
X146417549Y-111145130D01*
X146263206Y-111223771D01*
X146123075Y-111325583D01*
X146000583Y-111448075D01*
X145898771Y-111588206D01*
X145820130Y-111742549D01*
X145820125Y-111742561D01*
X145766597Y-111907299D01*
X145756349Y-111972007D01*
X145739500Y-112078389D01*
X145400500Y-112078389D01*
X145373402Y-111907299D01*
X145319873Y-111742555D01*
X145241232Y-111588212D01*
X145139414Y-111448072D01*
X145016928Y-111325586D01*
X144876788Y-111223768D01*
X144876787Y-111223767D01*
X144876784Y-111223765D01*
X144831854Y-111200872D01*
X144774537Y-111149263D01*
X144750704Y-111075909D01*
X144750500Y-111068113D01*
X144750500Y-110865691D01*
X144750499Y-110865687D01*
X144721140Y-110756118D01*
X144721138Y-110756111D01*
X144719799Y-110751113D01*
X144660490Y-110648386D01*
X142976614Y-108964511D01*
X142976611Y-108964509D01*
X142976607Y-108964506D01*
X142873890Y-108905202D01*
X142873887Y-108905201D01*
X142849673Y-108898713D01*
X142759309Y-108874500D01*
X135748321Y-108874500D01*
X135673821Y-108854538D01*
X135642962Y-108830859D01*
X135263044Y-108450941D01*
X148199500Y-108450941D01*
X148199500Y-108609058D01*
X148210465Y-108649981D01*
X148240423Y-108761784D01*
X148319480Y-108898716D01*
X148324363Y-108907173D01*
X148322962Y-108907981D01*
X148348225Y-108968967D01*
X148349500Y-108988417D01*
X148349500Y-110409310D01*
X148357777Y-110440196D01*
X148357777Y-110440202D01*
X148357778Y-110440202D01*
X148370724Y-110488519D01*
X148380201Y-110523889D01*
X148439506Y-110626607D01*
X148439509Y-110626611D01*
X148439511Y-110626614D01*
X148815068Y-111002171D01*
X148853631Y-111068964D01*
X148853631Y-111146092D01*
X148815067Y-111212887D01*
X148797289Y-111228071D01*
X148663075Y-111325583D01*
X148540583Y-111448075D01*
X148438771Y-111588206D01*
X148360130Y-111742549D01*
X148360125Y-111742561D01*
X148306597Y-111907299D01*
X148296349Y-111972007D01*
X148279500Y-112078389D01*
X148279500Y-112251611D01*
X148291137Y-112325086D01*
X148306597Y-112422700D01*
X148325507Y-112480896D01*
X148360127Y-112587445D01*
X148360130Y-112587450D01*
X148438771Y-112741793D01*
X148514740Y-112846354D01*
X148540586Y-112881928D01*
X148663072Y-113004414D01*
X148705159Y-113034992D01*
X148775677Y-113086227D01*
X148803212Y-113106232D01*
X148957555Y-113184873D01*
X149122299Y-113238402D01*
X149293389Y-113265500D01*
X149293393Y-113265500D01*
X149466607Y-113265500D01*
X149466611Y-113265500D01*
X149637701Y-113238402D01*
X149802445Y-113184873D01*
X149956788Y-113106232D01*
X150096928Y-113004414D01*
X150219414Y-112881928D01*
X150321232Y-112741788D01*
X150399873Y-112587445D01*
X150453402Y-112422701D01*
X150480500Y-112251611D01*
X150480500Y-112078389D01*
X150819500Y-112078389D01*
X150819500Y-112251611D01*
X150831137Y-112325086D01*
X150846597Y-112422700D01*
X150865507Y-112480896D01*
X150900127Y-112587445D01*
X150900130Y-112587450D01*
X150978771Y-112741793D01*
X151054740Y-112846354D01*
X151080586Y-112881928D01*
X151203072Y-113004414D01*
X151245159Y-113034992D01*
X151315677Y-113086227D01*
X151343212Y-113106232D01*
X151497555Y-113184873D01*
X151662299Y-113238402D01*
X151833389Y-113265500D01*
X151833393Y-113265500D01*
X152006607Y-113265500D01*
X152006611Y-113265500D01*
X152177701Y-113238402D01*
X152342445Y-113184873D01*
X152496788Y-113106232D01*
X152636928Y-113004414D01*
X152759414Y-112881928D01*
X152861232Y-112741788D01*
X152939873Y-112587445D01*
X152993402Y-112422701D01*
X153020500Y-112251611D01*
X153020500Y-112078389D01*
X153359500Y-112078389D01*
X153359500Y-112251611D01*
X153371137Y-112325086D01*
X153386597Y-112422700D01*
X153405507Y-112480896D01*
X153440127Y-112587445D01*
X153440130Y-112587450D01*
X153518771Y-112741793D01*
X153594740Y-112846354D01*
X153620586Y-112881928D01*
X153743072Y-113004414D01*
X153785159Y-113034992D01*
X153855677Y-113086227D01*
X153883212Y-113106232D01*
X154037555Y-113184873D01*
X154202299Y-113238402D01*
X154373389Y-113265500D01*
X154373393Y-113265500D01*
X154546607Y-113265500D01*
X154546611Y-113265500D01*
X154717701Y-113238402D01*
X154882445Y-113184873D01*
X155036788Y-113106232D01*
X155176928Y-113004414D01*
X155299414Y-112881928D01*
X155401232Y-112741788D01*
X155479873Y-112587445D01*
X155533402Y-112422701D01*
X155560500Y-112251611D01*
X155560500Y-112078389D01*
X155899500Y-112078389D01*
X155899500Y-112251611D01*
X155911137Y-112325086D01*
X155926597Y-112422700D01*
X155945507Y-112480896D01*
X155980127Y-112587445D01*
X155980130Y-112587450D01*
X156058771Y-112741793D01*
X156134740Y-112846354D01*
X156160586Y-112881928D01*
X156283072Y-113004414D01*
X156325159Y-113034992D01*
X156395677Y-113086227D01*
X156423212Y-113106232D01*
X156577555Y-113184873D01*
X156742299Y-113238402D01*
X156913389Y-113265500D01*
X156913393Y-113265500D01*
X157086607Y-113265500D01*
X157086611Y-113265500D01*
X157257701Y-113238402D01*
X157422445Y-113184873D01*
X157576788Y-113106232D01*
X157716928Y-113004414D01*
X157839414Y-112881928D01*
X157941232Y-112741788D01*
X158019873Y-112587445D01*
X158073402Y-112422701D01*
X158100500Y-112251611D01*
X158100500Y-112078389D01*
X158073402Y-111907299D01*
X158063793Y-111877725D01*
X158049235Y-111832920D01*
X158045198Y-111755898D01*
X158080213Y-111687177D01*
X158085564Y-111681537D01*
X158375619Y-111391482D01*
X158442412Y-111352920D01*
X158519540Y-111352920D01*
X158586335Y-111391484D01*
X158624899Y-111458279D01*
X158624899Y-111535407D01*
X158601525Y-111584416D01*
X158598772Y-111588205D01*
X158520130Y-111742549D01*
X158520125Y-111742561D01*
X158466597Y-111907299D01*
X158456349Y-111972007D01*
X158439500Y-112078389D01*
X158439500Y-112251611D01*
X158451137Y-112325086D01*
X158466597Y-112422700D01*
X158485507Y-112480896D01*
X158520127Y-112587445D01*
X158520130Y-112587450D01*
X158598771Y-112741793D01*
X158674740Y-112846354D01*
X158700586Y-112881928D01*
X158823072Y-113004414D01*
X158865159Y-113034992D01*
X158935677Y-113086227D01*
X158963212Y-113106232D01*
X159117555Y-113184873D01*
X159282299Y-113238402D01*
X159453389Y-113265500D01*
X159453393Y-113265500D01*
X159626607Y-113265500D01*
X159626611Y-113265500D01*
X159797701Y-113238402D01*
X159962445Y-113184873D01*
X160116788Y-113106232D01*
X160256928Y-113004414D01*
X160379414Y-112881928D01*
X160481232Y-112741788D01*
X160559873Y-112587445D01*
X160613402Y-112422701D01*
X160640500Y-112251611D01*
X160640500Y-112078389D01*
X160613402Y-111907299D01*
X160559873Y-111742555D01*
X160481232Y-111588212D01*
X160379414Y-111448072D01*
X160354579Y-111423237D01*
X160316016Y-111356442D01*
X160316018Y-111279313D01*
X160354579Y-111212523D01*
X160994404Y-110572699D01*
X161061197Y-110534137D01*
X161077825Y-110530830D01*
X161079057Y-110530500D01*
X161231784Y-110489577D01*
X161368716Y-110410520D01*
X161480520Y-110298716D01*
X161559577Y-110161784D01*
X161600500Y-110009057D01*
X161600500Y-109850943D01*
X161559577Y-109698216D01*
X161480520Y-109561284D01*
X161368716Y-109449480D01*
X161231784Y-109370423D01*
X161079057Y-109329500D01*
X160920943Y-109329500D01*
X160920939Y-109329500D01*
X160797815Y-109362492D01*
X160720687Y-109362492D01*
X160653892Y-109323928D01*
X160615328Y-109257133D01*
X160615328Y-109180005D01*
X160653892Y-109113210D01*
X162556583Y-107210520D01*
X167042962Y-102724141D01*
X167109757Y-102685577D01*
X167148321Y-102680500D01*
X168604306Y-102680500D01*
X168604309Y-102680500D01*
X168694673Y-102656286D01*
X168718887Y-102649799D01*
X168821614Y-102590489D01*
X170505143Y-100906959D01*
X170571936Y-100868397D01*
X170649064Y-100868397D01*
X170715859Y-100906961D01*
X170754423Y-100973756D01*
X170759500Y-101012320D01*
X170759500Y-101641678D01*
X170739538Y-101716178D01*
X170715859Y-101747037D01*
X161879509Y-110583388D01*
X161879508Y-110583389D01*
X161820201Y-110686111D01*
X161820202Y-110686111D01*
X161820201Y-110686115D01*
X161789500Y-110800689D01*
X161789500Y-110994000D01*
X161769538Y-111068500D01*
X161715000Y-111123038D01*
X161686548Y-111135706D01*
X161657559Y-111145125D01*
X161657549Y-111145130D01*
X161503206Y-111223771D01*
X161363075Y-111325583D01*
X161240583Y-111448075D01*
X161138771Y-111588206D01*
X161060130Y-111742549D01*
X161060125Y-111742561D01*
X161006597Y-111907299D01*
X160996349Y-111972007D01*
X160979500Y-112078389D01*
X160979500Y-112251611D01*
X160991137Y-112325086D01*
X161006597Y-112422700D01*
X161025507Y-112480896D01*
X161060127Y-112587445D01*
X161060130Y-112587450D01*
X161138771Y-112741793D01*
X161214740Y-112846354D01*
X161240586Y-112881928D01*
X161363072Y-113004414D01*
X161405159Y-113034992D01*
X161475677Y-113086227D01*
X161503212Y-113106232D01*
X161657555Y-113184873D01*
X161822299Y-113238402D01*
X161993389Y-113265500D01*
X161993393Y-113265500D01*
X162166607Y-113265500D01*
X162166611Y-113265500D01*
X162337701Y-113238402D01*
X162502445Y-113184873D01*
X162656788Y-113106232D01*
X162796928Y-113004414D01*
X162919414Y-112881928D01*
X163021232Y-112741788D01*
X163099873Y-112587445D01*
X163153402Y-112422701D01*
X163180500Y-112251611D01*
X163180500Y-112078389D01*
X163519500Y-112078389D01*
X163519500Y-112251611D01*
X163531137Y-112325086D01*
X163546597Y-112422700D01*
X163565507Y-112480896D01*
X163600127Y-112587445D01*
X163600130Y-112587450D01*
X163678771Y-112741793D01*
X163754740Y-112846354D01*
X163780586Y-112881928D01*
X163903072Y-113004414D01*
X163945159Y-113034992D01*
X164015677Y-113086227D01*
X164043212Y-113106232D01*
X164197555Y-113184873D01*
X164362299Y-113238402D01*
X164533389Y-113265500D01*
X164533393Y-113265500D01*
X164706607Y-113265500D01*
X164706611Y-113265500D01*
X164877701Y-113238402D01*
X165042445Y-113184873D01*
X165196788Y-113106232D01*
X165336928Y-113004414D01*
X165459414Y-112881928D01*
X165561232Y-112741788D01*
X165639873Y-112587445D01*
X165693402Y-112422701D01*
X165720500Y-112251611D01*
X165720500Y-112078389D01*
X166059500Y-112078389D01*
X166059500Y-112251611D01*
X166071137Y-112325086D01*
X166086597Y-112422700D01*
X166105507Y-112480896D01*
X166140127Y-112587445D01*
X166140130Y-112587450D01*
X166218771Y-112741793D01*
X166294740Y-112846354D01*
X166320586Y-112881928D01*
X166443072Y-113004414D01*
X166485159Y-113034992D01*
X166555677Y-113086227D01*
X166583212Y-113106232D01*
X166737555Y-113184873D01*
X166902299Y-113238402D01*
X167073389Y-113265500D01*
X167073393Y-113265500D01*
X167246607Y-113265500D01*
X167246611Y-113265500D01*
X167417701Y-113238402D01*
X167582445Y-113184873D01*
X167736788Y-113106232D01*
X167876928Y-113004414D01*
X167999414Y-112881928D01*
X168101232Y-112741788D01*
X168179873Y-112587445D01*
X168233402Y-112422701D01*
X168260500Y-112251611D01*
X168260500Y-112078389D01*
X168233402Y-111907299D01*
X168179873Y-111742555D01*
X168101232Y-111588212D01*
X167999414Y-111448072D01*
X167876928Y-111325586D01*
X167869427Y-111320136D01*
X167736793Y-111223771D01*
X167736790Y-111223769D01*
X167736788Y-111223768D01*
X167582445Y-111145127D01*
X167514463Y-111123038D01*
X167417700Y-111091597D01*
X167320086Y-111076137D01*
X167246611Y-111064500D01*
X167073389Y-111064500D01*
X167007037Y-111075009D01*
X166902299Y-111091597D01*
X166748305Y-111141634D01*
X166737555Y-111145127D01*
X166737549Y-111145129D01*
X166737549Y-111145130D01*
X166583206Y-111223771D01*
X166443075Y-111325583D01*
X166320583Y-111448075D01*
X166218771Y-111588206D01*
X166140130Y-111742549D01*
X166140125Y-111742561D01*
X166086597Y-111907299D01*
X166076349Y-111972007D01*
X166059500Y-112078389D01*
X165720500Y-112078389D01*
X165693402Y-111907299D01*
X165639873Y-111742555D01*
X165561232Y-111588212D01*
X165459414Y-111448072D01*
X165336928Y-111325586D01*
X165329427Y-111320136D01*
X165196793Y-111223771D01*
X165196790Y-111223769D01*
X165196788Y-111223768D01*
X165042445Y-111145127D01*
X164974463Y-111123038D01*
X164877700Y-111091597D01*
X164780086Y-111076137D01*
X164706611Y-111064500D01*
X164533389Y-111064500D01*
X164467037Y-111075009D01*
X164362299Y-111091597D01*
X164208305Y-111141634D01*
X164197555Y-111145127D01*
X164197549Y-111145129D01*
X164197549Y-111145130D01*
X164043206Y-111223771D01*
X163903075Y-111325583D01*
X163780583Y-111448075D01*
X163678771Y-111588206D01*
X163600130Y-111742549D01*
X163600125Y-111742561D01*
X163546597Y-111907299D01*
X163536349Y-111972007D01*
X163519500Y-112078389D01*
X163180500Y-112078389D01*
X163153402Y-111907299D01*
X163099873Y-111742555D01*
X163021232Y-111588212D01*
X162919414Y-111448072D01*
X162796928Y-111325586D01*
X162751918Y-111292884D01*
X162732398Y-111268778D01*
X162710462Y-111246842D01*
X162708398Y-111239139D01*
X162703381Y-111232944D01*
X162690500Y-111172342D01*
X162690500Y-111108321D01*
X162710462Y-111033821D01*
X162734141Y-111002962D01*
X167086162Y-106650941D01*
X171570490Y-102166614D01*
X171629799Y-102063887D01*
X171631784Y-102056477D01*
X171636285Y-102039679D01*
X171636286Y-102039675D01*
X171644734Y-102008144D01*
X171660500Y-101949309D01*
X171660500Y-88793099D01*
X171680462Y-88718599D01*
X171735000Y-88664061D01*
X171809500Y-88644099D01*
X171848059Y-88649175D01*
X171973131Y-88682688D01*
X172131245Y-88682688D01*
X172283972Y-88641765D01*
X172351722Y-88602649D01*
X172426221Y-88582688D01*
X173279286Y-88582688D01*
X173353786Y-88602650D01*
X173408324Y-88657188D01*
X173408324Y-88657189D01*
X173412291Y-88664061D01*
X173449811Y-88729047D01*
X173561615Y-88840851D01*
X173698547Y-88919908D01*
X173851274Y-88960831D01*
X174009388Y-88960831D01*
X174162115Y-88919908D01*
X174299047Y-88840851D01*
X174410851Y-88729047D01*
X174489908Y-88592115D01*
X174530831Y-88439388D01*
X174530831Y-88281274D01*
X174489908Y-88128547D01*
X174410851Y-87991615D01*
X174299047Y-87879811D01*
X174162115Y-87800754D01*
X174086548Y-87780505D01*
X174019757Y-87741943D01*
X173959502Y-87681688D01*
X173959499Y-87681686D01*
X173959498Y-87681685D01*
X173860692Y-87624640D01*
X173845374Y-87615796D01*
X173718080Y-87581688D01*
X172426221Y-87581688D01*
X172351722Y-87561726D01*
X172283972Y-87522611D01*
X172131245Y-87481688D01*
X171973131Y-87481688D01*
X171973127Y-87481688D01*
X171848064Y-87515199D01*
X171770936Y-87515199D01*
X171704141Y-87476635D01*
X171665577Y-87409840D01*
X171660500Y-87371276D01*
X171660500Y-81660691D01*
X171660499Y-81660689D01*
X171660448Y-81660500D01*
X171629799Y-81546114D01*
X171629799Y-81546113D01*
X171570489Y-81443386D01*
X169996614Y-79869511D01*
X169996611Y-79869509D01*
X169996607Y-79869506D01*
X169893888Y-79810201D01*
X169893889Y-79810201D01*
X169875713Y-79805331D01*
X169859969Y-79801113D01*
X169859968Y-79801112D01*
X169779309Y-79779500D01*
X167938417Y-79779500D01*
X167863917Y-79759538D01*
X167849817Y-79750116D01*
X167848716Y-79749480D01*
X167711784Y-79670423D01*
X167559057Y-79629500D01*
X167400943Y-79629500D01*
X167248216Y-79670423D01*
X167248214Y-79670423D01*
X167248214Y-79670424D01*
X167111283Y-79749480D01*
X166999480Y-79861283D01*
X166956984Y-79934890D01*
X166920423Y-79998216D01*
X166901431Y-80069095D01*
X166879500Y-80150941D01*
X166879500Y-80150943D01*
X166879500Y-80309057D01*
X166920423Y-80461784D01*
X166920424Y-80461785D01*
X167001818Y-80602765D01*
X167021780Y-80677265D01*
X167001818Y-80751765D01*
X166978140Y-80782623D01*
X166919481Y-80841282D01*
X166840424Y-80978214D01*
X166799500Y-81130941D01*
X166799500Y-81130943D01*
X166799500Y-81289057D01*
X166840423Y-81441784D01*
X166919480Y-81578716D01*
X167031284Y-81690520D01*
X167168216Y-81769577D01*
X167320943Y-81810500D01*
X167479057Y-81810500D01*
X167631784Y-81769577D01*
X167768716Y-81690520D01*
X167768717Y-81690518D01*
X167777173Y-81685637D01*
X167777981Y-81687037D01*
X167838967Y-81661775D01*
X167858417Y-81660500D01*
X169151679Y-81660500D01*
X169226179Y-81680462D01*
X169257038Y-81704141D01*
X169935859Y-82382962D01*
X169974423Y-82449757D01*
X169979500Y-82488321D01*
X169979500Y-100096678D01*
X169959538Y-100171178D01*
X169935859Y-100202037D01*
X168402038Y-101735859D01*
X168335243Y-101774423D01*
X168296679Y-101779500D01*
X166840687Y-101779500D01*
X166750326Y-101803712D01*
X166750326Y-101803713D01*
X166726113Y-101810201D01*
X166623389Y-101869508D01*
X166623388Y-101869509D01*
X157430646Y-111062249D01*
X157363851Y-111100813D01*
X157286723Y-111100813D01*
X157279243Y-111098597D01*
X157257704Y-111091598D01*
X157184376Y-111079984D01*
X157086611Y-111064500D01*
X156913389Y-111064500D01*
X156847037Y-111075009D01*
X156742299Y-111091597D01*
X156588305Y-111141634D01*
X156577555Y-111145127D01*
X156577549Y-111145129D01*
X156577549Y-111145130D01*
X156423206Y-111223771D01*
X156283075Y-111325583D01*
X156160583Y-111448075D01*
X156058771Y-111588206D01*
X155980130Y-111742549D01*
X155980125Y-111742561D01*
X155926597Y-111907299D01*
X155916349Y-111972007D01*
X155899500Y-112078389D01*
X155560500Y-112078389D01*
X155533402Y-111907299D01*
X155479873Y-111742555D01*
X155401232Y-111588212D01*
X155299414Y-111448072D01*
X155176928Y-111325586D01*
X155169427Y-111320136D01*
X155036793Y-111223771D01*
X155036790Y-111223769D01*
X155036788Y-111223768D01*
X154882445Y-111145127D01*
X154814463Y-111123038D01*
X154717700Y-111091597D01*
X154620086Y-111076137D01*
X154546611Y-111064500D01*
X154373389Y-111064500D01*
X154307037Y-111075009D01*
X154202299Y-111091597D01*
X154048305Y-111141634D01*
X154037555Y-111145127D01*
X154037549Y-111145129D01*
X154037549Y-111145130D01*
X153883206Y-111223771D01*
X153743075Y-111325583D01*
X153620583Y-111448075D01*
X153518771Y-111588206D01*
X153440130Y-111742549D01*
X153440125Y-111742561D01*
X153386597Y-111907299D01*
X153376349Y-111972007D01*
X153359500Y-112078389D01*
X153020500Y-112078389D01*
X152993402Y-111907299D01*
X152939873Y-111742555D01*
X152861232Y-111588212D01*
X152759414Y-111448072D01*
X152636928Y-111325586D01*
X152629427Y-111320136D01*
X152496793Y-111223771D01*
X152496790Y-111223769D01*
X152496788Y-111223768D01*
X152342445Y-111145127D01*
X152274463Y-111123038D01*
X152177700Y-111091597D01*
X152080086Y-111076137D01*
X152006611Y-111064500D01*
X151833389Y-111064500D01*
X151767037Y-111075009D01*
X151662299Y-111091597D01*
X151508305Y-111141634D01*
X151497555Y-111145127D01*
X151497549Y-111145129D01*
X151497549Y-111145130D01*
X151343206Y-111223771D01*
X151203075Y-111325583D01*
X151080583Y-111448075D01*
X150978771Y-111588206D01*
X150900130Y-111742549D01*
X150900125Y-111742561D01*
X150846597Y-111907299D01*
X150836349Y-111972007D01*
X150819500Y-112078389D01*
X150480500Y-112078389D01*
X150453402Y-111907299D01*
X150399873Y-111742555D01*
X150321232Y-111588212D01*
X150219414Y-111448072D01*
X150096928Y-111325586D01*
X149956788Y-111223768D01*
X149956787Y-111223767D01*
X149956784Y-111223765D01*
X149911854Y-111200872D01*
X149854537Y-111149263D01*
X149830704Y-111075909D01*
X149830500Y-111068113D01*
X149830500Y-110870691D01*
X149830499Y-110870689D01*
X149799799Y-110756115D01*
X149799798Y-110756111D01*
X149740491Y-110653389D01*
X149740490Y-110653388D01*
X149740489Y-110653386D01*
X149294141Y-110207038D01*
X149255577Y-110140243D01*
X149250500Y-110101679D01*
X149250500Y-108988417D01*
X149270462Y-108913917D01*
X149279883Y-108899817D01*
X149280516Y-108898719D01*
X149280520Y-108898716D01*
X149359577Y-108761784D01*
X149400500Y-108609057D01*
X149400500Y-108450943D01*
X149359577Y-108298216D01*
X149280520Y-108161284D01*
X149168716Y-108049480D01*
X149031784Y-107970423D01*
X148879057Y-107929500D01*
X148720943Y-107929500D01*
X148568216Y-107970423D01*
X148568214Y-107970423D01*
X148568214Y-107970424D01*
X148431283Y-108049480D01*
X148319480Y-108161283D01*
X148240424Y-108298214D01*
X148199500Y-108450941D01*
X135263044Y-108450941D01*
X130594141Y-103782038D01*
X130555577Y-103715243D01*
X130550500Y-103676679D01*
X130550500Y-97791559D01*
X130570462Y-97717059D01*
X130625000Y-97662521D01*
X130699500Y-97642559D01*
X130774000Y-97662521D01*
X130804854Y-97686196D01*
X130883072Y-97764414D01*
X130895453Y-97773409D01*
X131019553Y-97863574D01*
X131023212Y-97866232D01*
X131177555Y-97944873D01*
X131342299Y-97998402D01*
X131513389Y-98025500D01*
X131513393Y-98025500D01*
X131686607Y-98025500D01*
X131686611Y-98025500D01*
X131857701Y-97998402D01*
X132022445Y-97944873D01*
X132176788Y-97866232D01*
X132176794Y-97866228D01*
X132182003Y-97863574D01*
X132182935Y-97865404D01*
X132247594Y-97846250D01*
X132322592Y-97864253D01*
X132378541Y-97917342D01*
X132400449Y-97991293D01*
X132400500Y-97995199D01*
X132400500Y-102410310D01*
X132424713Y-102500672D01*
X132431202Y-102524891D01*
X132490506Y-102627607D01*
X132490509Y-102627611D01*
X132490511Y-102627614D01*
X136953386Y-107090489D01*
X136953388Y-107090490D01*
X136953389Y-107090491D01*
X137056115Y-107149800D01*
X137070424Y-107153633D01*
X137080317Y-107156283D01*
X137080324Y-107156287D01*
X137080325Y-107156286D01*
X137104539Y-107162774D01*
X137170691Y-107180500D01*
X148641583Y-107180500D01*
X148716083Y-107200462D01*
X148730182Y-107209883D01*
X148731282Y-107210518D01*
X148731284Y-107210520D01*
X148868216Y-107289577D01*
X149020943Y-107330500D01*
X149179057Y-107330500D01*
X149331784Y-107289577D01*
X149468716Y-107210520D01*
X149580520Y-107098716D01*
X149659577Y-106961784D01*
X149700500Y-106809057D01*
X149700500Y-106650943D01*
X149659577Y-106498216D01*
X149581330Y-106362687D01*
X149561369Y-106288190D01*
X149581331Y-106213690D01*
X149635869Y-106159152D01*
X149710369Y-106139190D01*
X149784869Y-106159152D01*
X149815728Y-106182831D01*
X150405859Y-106772962D01*
X150444423Y-106839757D01*
X150449500Y-106878321D01*
X150449500Y-109671582D01*
X150429538Y-109746082D01*
X150420111Y-109760190D01*
X150340424Y-109898214D01*
X150299500Y-110050941D01*
X150299500Y-110050943D01*
X150299500Y-110209057D01*
X150340423Y-110361784D01*
X150419480Y-110498716D01*
X150531284Y-110610520D01*
X150668216Y-110689577D01*
X150820943Y-110730500D01*
X150979057Y-110730500D01*
X151131784Y-110689577D01*
X151268716Y-110610520D01*
X151380520Y-110498716D01*
X151459577Y-110361784D01*
X151500500Y-110209057D01*
X151500500Y-110050943D01*
X151459577Y-109898216D01*
X151380520Y-109761284D01*
X151380519Y-109761283D01*
X151375637Y-109752827D01*
X151377035Y-109752019D01*
X151351774Y-109691022D01*
X151350500Y-109671582D01*
X151350500Y-108989454D01*
X151370462Y-108914954D01*
X151425000Y-108860416D01*
X151499500Y-108840454D01*
X151574000Y-108860416D01*
X151604859Y-108884095D01*
X151681284Y-108960520D01*
X151818216Y-109039577D01*
X151970943Y-109080500D01*
X152129057Y-109080500D01*
X152281784Y-109039577D01*
X152418716Y-108960520D01*
X152530520Y-108848716D01*
X152609577Y-108711784D01*
X152650500Y-108559057D01*
X152650500Y-108400943D01*
X152609577Y-108248216D01*
X152530520Y-108111284D01*
X152530519Y-108111283D01*
X152525637Y-108102827D01*
X152527035Y-108102019D01*
X152501774Y-108041022D01*
X152500500Y-108021582D01*
X152500500Y-107650941D01*
X153599500Y-107650941D01*
X153599500Y-107650943D01*
X153599500Y-107809057D01*
X153640423Y-107961784D01*
X153719480Y-108098716D01*
X153831284Y-108210520D01*
X153968216Y-108289577D01*
X154120943Y-108330500D01*
X154279057Y-108330500D01*
X154431784Y-108289577D01*
X154568716Y-108210520D01*
X154680520Y-108098716D01*
X154759577Y-107961784D01*
X154800500Y-107809057D01*
X154800500Y-107650943D01*
X154800499Y-107650942D01*
X154800279Y-107649266D01*
X154800500Y-107647587D01*
X154800500Y-107641177D01*
X154801344Y-107641177D01*
X154810345Y-107572797D01*
X154842642Y-107524459D01*
X157435863Y-104931238D01*
X157502656Y-104892676D01*
X157579782Y-104892676D01*
X157720943Y-104930500D01*
X157879057Y-104930500D01*
X158031784Y-104889577D01*
X158168716Y-104810520D01*
X158280520Y-104698716D01*
X158359577Y-104561784D01*
X158400500Y-104409057D01*
X158400500Y-104250943D01*
X158359577Y-104098216D01*
X158280520Y-103961284D01*
X158168716Y-103849480D01*
X158031784Y-103770423D01*
X157879057Y-103729500D01*
X157720943Y-103729500D01*
X157568216Y-103770423D01*
X157431284Y-103849480D01*
X157431283Y-103849480D01*
X157422827Y-103854363D01*
X157422471Y-103853746D01*
X157384728Y-103873117D01*
X157363629Y-103879500D01*
X157340691Y-103879500D01*
X157226114Y-103910201D01*
X157201348Y-103924500D01*
X157186455Y-103933098D01*
X157186453Y-103933099D01*
X157123385Y-103969511D01*
X153873860Y-107219035D01*
X153843008Y-107242710D01*
X153831287Y-107249477D01*
X153831282Y-107249481D01*
X153719480Y-107361283D01*
X153640424Y-107498214D01*
X153599500Y-107650941D01*
X152500500Y-107650941D01*
X152500500Y-105888417D01*
X152520462Y-105813917D01*
X152529883Y-105799817D01*
X152530516Y-105798719D01*
X152530520Y-105798716D01*
X152609577Y-105661784D01*
X152650500Y-105509057D01*
X152650500Y-105350943D01*
X152609577Y-105198216D01*
X152530520Y-105061284D01*
X152530519Y-105061283D01*
X152525637Y-105052827D01*
X152527866Y-105051539D01*
X152504012Y-104993935D01*
X152514086Y-104917467D01*
X152561044Y-104856282D01*
X152632304Y-104826773D01*
X152651739Y-104825500D01*
X153091583Y-104825500D01*
X153166083Y-104845462D01*
X153180182Y-104854883D01*
X153181282Y-104855518D01*
X153181284Y-104855520D01*
X153318216Y-104934577D01*
X153470943Y-104975500D01*
X153629057Y-104975500D01*
X153781784Y-104934577D01*
X153918716Y-104855520D01*
X154030520Y-104743716D01*
X154109577Y-104606784D01*
X154150500Y-104454057D01*
X154150500Y-104295943D01*
X154109577Y-104143216D01*
X154030520Y-104006284D01*
X153918716Y-103894480D01*
X153781784Y-103815423D01*
X153629057Y-103774500D01*
X153470943Y-103774500D01*
X153318216Y-103815423D01*
X153181284Y-103894480D01*
X153181283Y-103894480D01*
X153172827Y-103899363D01*
X153172018Y-103897962D01*
X153111033Y-103923225D01*
X153091583Y-103924500D01*
X148758417Y-103924500D01*
X148683917Y-103904538D01*
X148669817Y-103895116D01*
X148668716Y-103894480D01*
X148531784Y-103815423D01*
X148379057Y-103774500D01*
X148220943Y-103774500D01*
X148068216Y-103815423D01*
X147931284Y-103894480D01*
X147931283Y-103894480D01*
X147922827Y-103899363D01*
X147922018Y-103897962D01*
X147861033Y-103923225D01*
X147841583Y-103924500D01*
X141070458Y-103924500D01*
X140995958Y-103904538D01*
X140965099Y-103880859D01*
X140908718Y-103824478D01*
X140835209Y-103782038D01*
X140771786Y-103745421D01*
X140619059Y-103704498D01*
X140460945Y-103704498D01*
X140308218Y-103745421D01*
X140308216Y-103745421D01*
X140308216Y-103745422D01*
X140171285Y-103824478D01*
X140059482Y-103936281D01*
X139980426Y-104073212D01*
X139980425Y-104073214D01*
X139973726Y-104098216D01*
X139939502Y-104225939D01*
X139939502Y-104384056D01*
X139950467Y-104424979D01*
X139980425Y-104536782D01*
X140059482Y-104673714D01*
X140171286Y-104785518D01*
X140308218Y-104864575D01*
X140460945Y-104905498D01*
X140619059Y-104905498D01*
X140771786Y-104864575D01*
X140788573Y-104854883D01*
X140804892Y-104845462D01*
X140879391Y-104825500D01*
X146395546Y-104825500D01*
X146470046Y-104845462D01*
X146524584Y-104900000D01*
X146544546Y-104974500D01*
X146524584Y-105049000D01*
X146500905Y-105079859D01*
X146419480Y-105161283D01*
X146398157Y-105198216D01*
X146340423Y-105298216D01*
X146326295Y-105350943D01*
X146299500Y-105450941D01*
X146299500Y-105450943D01*
X146299500Y-105609057D01*
X146340423Y-105761784D01*
X146402305Y-105868967D01*
X146419480Y-105898716D01*
X146531284Y-106010520D01*
X146533588Y-106012288D01*
X146535356Y-106014592D01*
X146538190Y-106017426D01*
X146537816Y-106017799D01*
X146580542Y-106073476D01*
X146590612Y-106149944D01*
X146561098Y-106221202D01*
X146499910Y-106268156D01*
X146442886Y-106279500D01*
X137478321Y-106279500D01*
X137403821Y-106259538D01*
X137372962Y-106235859D01*
X133345141Y-102208038D01*
X133306577Y-102141243D01*
X133301500Y-102102679D01*
X133301500Y-99645941D01*
X133699500Y-99645941D01*
X133699500Y-99645943D01*
X133699500Y-99804057D01*
X133740423Y-99956784D01*
X133819480Y-100093716D01*
X133931284Y-100205520D01*
X134068216Y-100284577D01*
X134220943Y-100325500D01*
X134379057Y-100325500D01*
X134531784Y-100284577D01*
X134668716Y-100205520D01*
X134780520Y-100093716D01*
X134859577Y-99956784D01*
X134900500Y-99804057D01*
X134903028Y-99794623D01*
X134904137Y-99794920D01*
X134904137Y-99786195D01*
X134918698Y-99760975D01*
X134929844Y-99734062D01*
X134942702Y-99719401D01*
X135042963Y-99619141D01*
X135109758Y-99580577D01*
X135148321Y-99575500D01*
X156841583Y-99575500D01*
X156916083Y-99595462D01*
X156930182Y-99604883D01*
X156931282Y-99605518D01*
X156931284Y-99605520D01*
X157068216Y-99684577D01*
X157220943Y-99725500D01*
X157379057Y-99725500D01*
X157531784Y-99684577D01*
X157668716Y-99605520D01*
X157780520Y-99493716D01*
X157859577Y-99356784D01*
X157900500Y-99204057D01*
X157900500Y-99045943D01*
X157859577Y-98893216D01*
X157780520Y-98756284D01*
X157668716Y-98644480D01*
X157531784Y-98565423D01*
X157379057Y-98524500D01*
X157220943Y-98524500D01*
X157068216Y-98565423D01*
X156931284Y-98644480D01*
X156931283Y-98644480D01*
X156922827Y-98649363D01*
X156922018Y-98647962D01*
X156861033Y-98673225D01*
X156841583Y-98674500D01*
X134840687Y-98674500D01*
X134750326Y-98698712D01*
X134750326Y-98698713D01*
X134726113Y-98705201D01*
X134623389Y-98764508D01*
X134623388Y-98764509D01*
X134305598Y-99082298D01*
X134238803Y-99120862D01*
X134222171Y-99124170D01*
X134118422Y-99151970D01*
X134068216Y-99165423D01*
X134068214Y-99165423D01*
X134068214Y-99165424D01*
X133931283Y-99244480D01*
X133819480Y-99356283D01*
X133740424Y-99493214D01*
X133699500Y-99645941D01*
X133301500Y-99645941D01*
X133301500Y-98123382D01*
X133321462Y-98048882D01*
X133376000Y-97994344D01*
X133382857Y-97990621D01*
X133390000Y-97986981D01*
X133390000Y-96859174D01*
X133640000Y-96859174D01*
X133640000Y-96990826D01*
X133674075Y-97117993D01*
X133739901Y-97232007D01*
X133832993Y-97325099D01*
X133947007Y-97390925D01*
X134074174Y-97425000D01*
X134205826Y-97425000D01*
X134332993Y-97390925D01*
X134447007Y-97325099D01*
X134540099Y-97232007D01*
X134605925Y-97117993D01*
X134640000Y-96990826D01*
X134640000Y-96859174D01*
X134605925Y-96732007D01*
X134540099Y-96617993D01*
X134447007Y-96524901D01*
X134332993Y-96459075D01*
X134205826Y-96425000D01*
X134074174Y-96425000D01*
X133947007Y-96459075D01*
X133832993Y-96524901D01*
X133739901Y-96617993D01*
X133674075Y-96732007D01*
X133640000Y-96859174D01*
X133390000Y-96859174D01*
X133390000Y-95863016D01*
X134890000Y-95863016D01*
X134890000Y-97986981D01*
X134986889Y-97916587D01*
X135131587Y-97771889D01*
X135251856Y-97606354D01*
X135344753Y-97424032D01*
X135344755Y-97424028D01*
X135373175Y-97336561D01*
X135415182Y-97271876D01*
X135483903Y-97236860D01*
X135560926Y-97240896D01*
X135625611Y-97282903D01*
X135656589Y-97336557D01*
X135660124Y-97347436D01*
X135660127Y-97347445D01*
X135660130Y-97347450D01*
X135738771Y-97501793D01*
X135814740Y-97606354D01*
X135840586Y-97641928D01*
X135963072Y-97764414D01*
X135975453Y-97773409D01*
X136099553Y-97863574D01*
X136103212Y-97866232D01*
X136257555Y-97944873D01*
X136422299Y-97998402D01*
X136593389Y-98025500D01*
X136593393Y-98025500D01*
X136766607Y-98025500D01*
X136766611Y-98025500D01*
X136937701Y-97998402D01*
X137102445Y-97944873D01*
X137256788Y-97866232D01*
X137396928Y-97764414D01*
X137519414Y-97641928D01*
X137621232Y-97501788D01*
X137699873Y-97347445D01*
X137753402Y-97182701D01*
X137780500Y-97011611D01*
X137780500Y-96838389D01*
X138119500Y-96838389D01*
X138119500Y-97011611D01*
X138129161Y-97072610D01*
X138146597Y-97182700D01*
X138164195Y-97236860D01*
X138200127Y-97347445D01*
X138200130Y-97347450D01*
X138278771Y-97501793D01*
X138354740Y-97606354D01*
X138380586Y-97641928D01*
X138503072Y-97764414D01*
X138515453Y-97773409D01*
X138639553Y-97863574D01*
X138643212Y-97866232D01*
X138797555Y-97944873D01*
X138962299Y-97998402D01*
X139133389Y-98025500D01*
X139133393Y-98025500D01*
X139306607Y-98025500D01*
X139306611Y-98025500D01*
X139477701Y-97998402D01*
X139642445Y-97944873D01*
X139796788Y-97866232D01*
X139936928Y-97764414D01*
X140059414Y-97641928D01*
X140161232Y-97501788D01*
X140239873Y-97347445D01*
X140293402Y-97182701D01*
X140320500Y-97011611D01*
X140320500Y-96838389D01*
X140659500Y-96838389D01*
X140659500Y-97011611D01*
X140669161Y-97072610D01*
X140686597Y-97182700D01*
X140704195Y-97236860D01*
X140740127Y-97347445D01*
X140740130Y-97347450D01*
X140818771Y-97501793D01*
X140894740Y-97606354D01*
X140920586Y-97641928D01*
X141043072Y-97764414D01*
X141055453Y-97773409D01*
X141179553Y-97863574D01*
X141183212Y-97866232D01*
X141337555Y-97944873D01*
X141502299Y-97998402D01*
X141673389Y-98025500D01*
X141673393Y-98025500D01*
X141846607Y-98025500D01*
X141846611Y-98025500D01*
X142017701Y-97998402D01*
X142182445Y-97944873D01*
X142336788Y-97866232D01*
X142476928Y-97764414D01*
X142599414Y-97641928D01*
X142701232Y-97501788D01*
X142779873Y-97347445D01*
X142833402Y-97182701D01*
X142860500Y-97011611D01*
X142860500Y-96838389D01*
X143199500Y-96838389D01*
X143199500Y-97011611D01*
X143209161Y-97072610D01*
X143226597Y-97182700D01*
X143244195Y-97236860D01*
X143280127Y-97347445D01*
X143280130Y-97347450D01*
X143358771Y-97501793D01*
X143434740Y-97606354D01*
X143460586Y-97641928D01*
X143583072Y-97764414D01*
X143595453Y-97773409D01*
X143719553Y-97863574D01*
X143723212Y-97866232D01*
X143877555Y-97944873D01*
X144042299Y-97998402D01*
X144213389Y-98025500D01*
X144213393Y-98025500D01*
X144386607Y-98025500D01*
X144386611Y-98025500D01*
X144557701Y-97998402D01*
X144722445Y-97944873D01*
X144876788Y-97866232D01*
X145016928Y-97764414D01*
X145139414Y-97641928D01*
X145241232Y-97501788D01*
X145319873Y-97347445D01*
X145373402Y-97182701D01*
X145400500Y-97011611D01*
X145400500Y-96838389D01*
X145739500Y-96838389D01*
X145739500Y-97011611D01*
X145749161Y-97072610D01*
X145766597Y-97182700D01*
X145784195Y-97236860D01*
X145820127Y-97347445D01*
X145820130Y-97347450D01*
X145898771Y-97501793D01*
X145974740Y-97606354D01*
X146000586Y-97641928D01*
X146123072Y-97764414D01*
X146135453Y-97773409D01*
X146259553Y-97863574D01*
X146263212Y-97866232D01*
X146417555Y-97944873D01*
X146582299Y-97998402D01*
X146753389Y-98025500D01*
X146753393Y-98025500D01*
X146926607Y-98025500D01*
X146926611Y-98025500D01*
X147097701Y-97998402D01*
X147262445Y-97944873D01*
X147416788Y-97866232D01*
X147556928Y-97764414D01*
X147679414Y-97641928D01*
X147781232Y-97501788D01*
X147859873Y-97347445D01*
X147913402Y-97182701D01*
X147940500Y-97011611D01*
X147940500Y-96838389D01*
X148279500Y-96838389D01*
X148279500Y-97011611D01*
X148289161Y-97072610D01*
X148306597Y-97182700D01*
X148324195Y-97236860D01*
X148360127Y-97347445D01*
X148360130Y-97347450D01*
X148438771Y-97501793D01*
X148514740Y-97606354D01*
X148540586Y-97641928D01*
X148663072Y-97764414D01*
X148675453Y-97773409D01*
X148799553Y-97863574D01*
X148803212Y-97866232D01*
X148957555Y-97944873D01*
X149122299Y-97998402D01*
X149293389Y-98025500D01*
X149293393Y-98025500D01*
X149466607Y-98025500D01*
X149466611Y-98025500D01*
X149637701Y-97998402D01*
X149802445Y-97944873D01*
X149956788Y-97866232D01*
X150096928Y-97764414D01*
X150219414Y-97641928D01*
X150321232Y-97501788D01*
X150399873Y-97347445D01*
X150453402Y-97182701D01*
X150480500Y-97011611D01*
X150480500Y-96838389D01*
X150819500Y-96838389D01*
X150819500Y-97011611D01*
X150829161Y-97072610D01*
X150846597Y-97182700D01*
X150864195Y-97236860D01*
X150900127Y-97347445D01*
X150900130Y-97347450D01*
X150978771Y-97501793D01*
X151054740Y-97606354D01*
X151080586Y-97641928D01*
X151203072Y-97764414D01*
X151215453Y-97773409D01*
X151339553Y-97863574D01*
X151343212Y-97866232D01*
X151497555Y-97944873D01*
X151662299Y-97998402D01*
X151833389Y-98025500D01*
X151833393Y-98025500D01*
X152006607Y-98025500D01*
X152006611Y-98025500D01*
X152177701Y-97998402D01*
X152342445Y-97944873D01*
X152496788Y-97866232D01*
X152636928Y-97764414D01*
X152759414Y-97641928D01*
X152861232Y-97501788D01*
X152939873Y-97347445D01*
X152993402Y-97182701D01*
X153020500Y-97011611D01*
X153020500Y-96838389D01*
X153359500Y-96838389D01*
X153359500Y-97011611D01*
X153369161Y-97072610D01*
X153386597Y-97182700D01*
X153404195Y-97236860D01*
X153440127Y-97347445D01*
X153440130Y-97347450D01*
X153518771Y-97501793D01*
X153594740Y-97606354D01*
X153620586Y-97641928D01*
X153743072Y-97764414D01*
X153755453Y-97773409D01*
X153879553Y-97863574D01*
X153883212Y-97866232D01*
X154037555Y-97944873D01*
X154202299Y-97998402D01*
X154373389Y-98025500D01*
X154373393Y-98025500D01*
X154546607Y-98025500D01*
X154546611Y-98025500D01*
X154717701Y-97998402D01*
X154882445Y-97944873D01*
X155036788Y-97866232D01*
X155176928Y-97764414D01*
X155299414Y-97641928D01*
X155401232Y-97501788D01*
X155479873Y-97347445D01*
X155533402Y-97182701D01*
X155560500Y-97011611D01*
X155560500Y-96838389D01*
X155899500Y-96838389D01*
X155899500Y-97011611D01*
X155909161Y-97072610D01*
X155926597Y-97182700D01*
X155944195Y-97236860D01*
X155980127Y-97347445D01*
X155980130Y-97347450D01*
X156058771Y-97501793D01*
X156134740Y-97606354D01*
X156160586Y-97641928D01*
X156283072Y-97764414D01*
X156295453Y-97773409D01*
X156419553Y-97863574D01*
X156423212Y-97866232D01*
X156577555Y-97944873D01*
X156742299Y-97998402D01*
X156913389Y-98025500D01*
X156913393Y-98025500D01*
X157086607Y-98025500D01*
X157086611Y-98025500D01*
X157257701Y-97998402D01*
X157422445Y-97944873D01*
X157576788Y-97866232D01*
X157716928Y-97764414D01*
X157839414Y-97641928D01*
X157941232Y-97501788D01*
X158019873Y-97347445D01*
X158073402Y-97182701D01*
X158100500Y-97011611D01*
X158100500Y-96838389D01*
X158073402Y-96667299D01*
X158019873Y-96502555D01*
X157941232Y-96348212D01*
X157839414Y-96208072D01*
X157716928Y-96085586D01*
X157706630Y-96078104D01*
X157576793Y-95983771D01*
X157576790Y-95983769D01*
X157576788Y-95983768D01*
X157422445Y-95905127D01*
X157349677Y-95881483D01*
X157257700Y-95851597D01*
X157160086Y-95836137D01*
X157086611Y-95824500D01*
X156913389Y-95824500D01*
X156847037Y-95835009D01*
X156742299Y-95851597D01*
X156577561Y-95905125D01*
X156577555Y-95905127D01*
X156577549Y-95905129D01*
X156577549Y-95905130D01*
X156423206Y-95983771D01*
X156283075Y-96085583D01*
X156160583Y-96208075D01*
X156058771Y-96348206D01*
X155980130Y-96502549D01*
X155980125Y-96502561D01*
X155926597Y-96667299D01*
X155908228Y-96783282D01*
X155899500Y-96838389D01*
X155560500Y-96838389D01*
X155533402Y-96667299D01*
X155479873Y-96502555D01*
X155401232Y-96348212D01*
X155299414Y-96208072D01*
X155176928Y-96085586D01*
X155166630Y-96078104D01*
X155036793Y-95983771D01*
X155036790Y-95983769D01*
X155036788Y-95983768D01*
X154882445Y-95905127D01*
X154809677Y-95881483D01*
X154717700Y-95851597D01*
X154620086Y-95836137D01*
X154546611Y-95824500D01*
X154373389Y-95824500D01*
X154307037Y-95835009D01*
X154202299Y-95851597D01*
X154037561Y-95905125D01*
X154037555Y-95905127D01*
X154037549Y-95905129D01*
X154037549Y-95905130D01*
X153883206Y-95983771D01*
X153743075Y-96085583D01*
X153620583Y-96208075D01*
X153518771Y-96348206D01*
X153440130Y-96502549D01*
X153440125Y-96502561D01*
X153386597Y-96667299D01*
X153368228Y-96783282D01*
X153359500Y-96838389D01*
X153020500Y-96838389D01*
X152993402Y-96667299D01*
X152939873Y-96502555D01*
X152861232Y-96348212D01*
X152759414Y-96208072D01*
X152636928Y-96085586D01*
X152626630Y-96078104D01*
X152496793Y-95983771D01*
X152496790Y-95983769D01*
X152496788Y-95983768D01*
X152342445Y-95905127D01*
X152269677Y-95881483D01*
X152177700Y-95851597D01*
X152080086Y-95836137D01*
X152006611Y-95824500D01*
X151833389Y-95824500D01*
X151767037Y-95835009D01*
X151662299Y-95851597D01*
X151497561Y-95905125D01*
X151497555Y-95905127D01*
X151497549Y-95905129D01*
X151497549Y-95905130D01*
X151343206Y-95983771D01*
X151203075Y-96085583D01*
X151080583Y-96208075D01*
X150978771Y-96348206D01*
X150900130Y-96502549D01*
X150900125Y-96502561D01*
X150846597Y-96667299D01*
X150828228Y-96783282D01*
X150819500Y-96838389D01*
X150480500Y-96838389D01*
X150453402Y-96667299D01*
X150399873Y-96502555D01*
X150321232Y-96348212D01*
X150219414Y-96208072D01*
X150096928Y-96085586D01*
X150086630Y-96078104D01*
X149956793Y-95983771D01*
X149956790Y-95983769D01*
X149956788Y-95983768D01*
X149802445Y-95905127D01*
X149729677Y-95881483D01*
X149637700Y-95851597D01*
X149540086Y-95836137D01*
X149466611Y-95824500D01*
X149293389Y-95824500D01*
X149227037Y-95835009D01*
X149122299Y-95851597D01*
X148957561Y-95905125D01*
X148957555Y-95905127D01*
X148957549Y-95905129D01*
X148957549Y-95905130D01*
X148803206Y-95983771D01*
X148663075Y-96085583D01*
X148540583Y-96208075D01*
X148438771Y-96348206D01*
X148360130Y-96502549D01*
X148360125Y-96502561D01*
X148306597Y-96667299D01*
X148288228Y-96783282D01*
X148279500Y-96838389D01*
X147940500Y-96838389D01*
X147913402Y-96667299D01*
X147859873Y-96502555D01*
X147781232Y-96348212D01*
X147679414Y-96208072D01*
X147556928Y-96085586D01*
X147546630Y-96078104D01*
X147416793Y-95983771D01*
X147416790Y-95983769D01*
X147416788Y-95983768D01*
X147262445Y-95905127D01*
X147189677Y-95881483D01*
X147097700Y-95851597D01*
X147000086Y-95836137D01*
X146926611Y-95824500D01*
X146753389Y-95824500D01*
X146687037Y-95835009D01*
X146582299Y-95851597D01*
X146417561Y-95905125D01*
X146417555Y-95905127D01*
X146417549Y-95905129D01*
X146417549Y-95905130D01*
X146263206Y-95983771D01*
X146123075Y-96085583D01*
X146000583Y-96208075D01*
X145898771Y-96348206D01*
X145820130Y-96502549D01*
X145820125Y-96502561D01*
X145766597Y-96667299D01*
X145748228Y-96783282D01*
X145739500Y-96838389D01*
X145400500Y-96838389D01*
X145373402Y-96667299D01*
X145319873Y-96502555D01*
X145241232Y-96348212D01*
X145139414Y-96208072D01*
X145016928Y-96085586D01*
X145006630Y-96078104D01*
X144876793Y-95983771D01*
X144876790Y-95983769D01*
X144876788Y-95983768D01*
X144722445Y-95905127D01*
X144649677Y-95881483D01*
X144557700Y-95851597D01*
X144460086Y-95836137D01*
X144386611Y-95824500D01*
X144213389Y-95824500D01*
X144147037Y-95835009D01*
X144042299Y-95851597D01*
X143877561Y-95905125D01*
X143877555Y-95905127D01*
X143877549Y-95905129D01*
X143877549Y-95905130D01*
X143723206Y-95983771D01*
X143583075Y-96085583D01*
X143460583Y-96208075D01*
X143358771Y-96348206D01*
X143280130Y-96502549D01*
X143280125Y-96502561D01*
X143226597Y-96667299D01*
X143208228Y-96783282D01*
X143199500Y-96838389D01*
X142860500Y-96838389D01*
X142833402Y-96667299D01*
X142779873Y-96502555D01*
X142701232Y-96348212D01*
X142599414Y-96208072D01*
X142476928Y-96085586D01*
X142466630Y-96078104D01*
X142336793Y-95983771D01*
X142336790Y-95983769D01*
X142336788Y-95983768D01*
X142182445Y-95905127D01*
X142109677Y-95881483D01*
X142017700Y-95851597D01*
X141920086Y-95836137D01*
X141846611Y-95824500D01*
X141673389Y-95824500D01*
X141607037Y-95835009D01*
X141502299Y-95851597D01*
X141337561Y-95905125D01*
X141337555Y-95905127D01*
X141337549Y-95905129D01*
X141337549Y-95905130D01*
X141183206Y-95983771D01*
X141043075Y-96085583D01*
X140920583Y-96208075D01*
X140818771Y-96348206D01*
X140740130Y-96502549D01*
X140740125Y-96502561D01*
X140686597Y-96667299D01*
X140668228Y-96783282D01*
X140659500Y-96838389D01*
X140320500Y-96838389D01*
X140293402Y-96667299D01*
X140239873Y-96502555D01*
X140161232Y-96348212D01*
X140059414Y-96208072D01*
X139936928Y-96085586D01*
X139926630Y-96078104D01*
X139796793Y-95983771D01*
X139796790Y-95983769D01*
X139796788Y-95983768D01*
X139642445Y-95905127D01*
X139569677Y-95881483D01*
X139477700Y-95851597D01*
X139380086Y-95836137D01*
X139306611Y-95824500D01*
X139133389Y-95824500D01*
X139067037Y-95835009D01*
X138962299Y-95851597D01*
X138797561Y-95905125D01*
X138797555Y-95905127D01*
X138797549Y-95905129D01*
X138797549Y-95905130D01*
X138643206Y-95983771D01*
X138503075Y-96085583D01*
X138380583Y-96208075D01*
X138278771Y-96348206D01*
X138200130Y-96502549D01*
X138200125Y-96502561D01*
X138146597Y-96667299D01*
X138128228Y-96783282D01*
X138119500Y-96838389D01*
X137780500Y-96838389D01*
X137753402Y-96667299D01*
X137699873Y-96502555D01*
X137621232Y-96348212D01*
X137519414Y-96208072D01*
X137396928Y-96085586D01*
X137386630Y-96078104D01*
X137256793Y-95983771D01*
X137256790Y-95983769D01*
X137256788Y-95983768D01*
X137102445Y-95905127D01*
X137029677Y-95881483D01*
X136937700Y-95851597D01*
X136840086Y-95836137D01*
X136766611Y-95824500D01*
X136593389Y-95824500D01*
X136527037Y-95835009D01*
X136422299Y-95851597D01*
X136257561Y-95905125D01*
X136257555Y-95905127D01*
X136257549Y-95905129D01*
X136257549Y-95905130D01*
X136103206Y-95983771D01*
X135963075Y-96085583D01*
X135840583Y-96208075D01*
X135738771Y-96348206D01*
X135660130Y-96502549D01*
X135660126Y-96502556D01*
X135656589Y-96513444D01*
X135614579Y-96578128D01*
X135545856Y-96613140D01*
X135468834Y-96609101D01*
X135404150Y-96567091D01*
X135373175Y-96513438D01*
X135344755Y-96425971D01*
X135344753Y-96425967D01*
X135251856Y-96243645D01*
X135131587Y-96078110D01*
X135131581Y-96078104D01*
X134986895Y-95933417D01*
X134986889Y-95933412D01*
X134890000Y-95863016D01*
X133390000Y-95863016D01*
X133382855Y-95859376D01*
X133325538Y-95807767D01*
X133301704Y-95734414D01*
X133301500Y-95726616D01*
X133301500Y-93660927D01*
X134449500Y-93660927D01*
X134449500Y-94389072D01*
X134474498Y-94514743D01*
X134474499Y-94514745D01*
X134523531Y-94633119D01*
X134523533Y-94633123D01*
X134523535Y-94633127D01*
X134594724Y-94739669D01*
X134685331Y-94830276D01*
X134791873Y-94901465D01*
X134910256Y-94950501D01*
X135035931Y-94975500D01*
X135035935Y-94975500D01*
X135164065Y-94975500D01*
X135164069Y-94975500D01*
X135289744Y-94950501D01*
X135408127Y-94901465D01*
X135514669Y-94830276D01*
X135605276Y-94739669D01*
X135676465Y-94633127D01*
X135725501Y-94514744D01*
X135750500Y-94389069D01*
X135750500Y-94056164D01*
X135770462Y-93981664D01*
X135794141Y-93950805D01*
X138585492Y-91159454D01*
X141649500Y-91159454D01*
X141649500Y-91590546D01*
X141677829Y-91769409D01*
X141733789Y-91941639D01*
X141816004Y-92102994D01*
X141922447Y-92249501D01*
X142050499Y-92377553D01*
X142197006Y-92483996D01*
X142358361Y-92566211D01*
X142530591Y-92622171D01*
X142709454Y-92650500D01*
X142709458Y-92650500D01*
X142890542Y-92650500D01*
X142890546Y-92650500D01*
X143069409Y-92622171D01*
X143241639Y-92566211D01*
X143402994Y-92483996D01*
X143549501Y-92377553D01*
X143677553Y-92249501D01*
X143783996Y-92102994D01*
X143866211Y-91941639D01*
X143908292Y-91812125D01*
X143950299Y-91747439D01*
X144019020Y-91712423D01*
X144096042Y-91716459D01*
X144160728Y-91758466D01*
X144191708Y-91812125D01*
X144233788Y-91941638D01*
X144274896Y-92022316D01*
X144316004Y-92102994D01*
X144422447Y-92249501D01*
X144550499Y-92377553D01*
X144697006Y-92483996D01*
X144858361Y-92566211D01*
X145030591Y-92622171D01*
X145209454Y-92650500D01*
X145209458Y-92650500D01*
X145390542Y-92650500D01*
X145390546Y-92650500D01*
X145569409Y-92622171D01*
X145741639Y-92566211D01*
X145902994Y-92483996D01*
X146049501Y-92377553D01*
X146177553Y-92249501D01*
X146283996Y-92102994D01*
X146366211Y-91941639D01*
X146408292Y-91812125D01*
X146450299Y-91747439D01*
X146519020Y-91712423D01*
X146596042Y-91716459D01*
X146660728Y-91758466D01*
X146691708Y-91812125D01*
X146733788Y-91941638D01*
X146774896Y-92022316D01*
X146816004Y-92102994D01*
X146922447Y-92249501D01*
X147050499Y-92377553D01*
X147197006Y-92483996D01*
X147358361Y-92566211D01*
X147530591Y-92622171D01*
X147709454Y-92650500D01*
X147709458Y-92650500D01*
X147890542Y-92650500D01*
X147890546Y-92650500D01*
X148069409Y-92622171D01*
X148241639Y-92566211D01*
X148402994Y-92483996D01*
X148549501Y-92377553D01*
X148677553Y-92249501D01*
X148783996Y-92102994D01*
X148866211Y-91941639D01*
X148908292Y-91812125D01*
X148950299Y-91747439D01*
X149019020Y-91712423D01*
X149096042Y-91716459D01*
X149160728Y-91758466D01*
X149191708Y-91812125D01*
X149233788Y-91941638D01*
X149274896Y-92022316D01*
X149316004Y-92102994D01*
X149422447Y-92249501D01*
X149550499Y-92377553D01*
X149697006Y-92483996D01*
X149858361Y-92566211D01*
X150030591Y-92622171D01*
X150209454Y-92650500D01*
X150209458Y-92650500D01*
X150390542Y-92650500D01*
X150390546Y-92650500D01*
X150569409Y-92622171D01*
X150741639Y-92566211D01*
X150902994Y-92483996D01*
X151049501Y-92377553D01*
X151177553Y-92249501D01*
X151200484Y-92217938D01*
X151260422Y-92169399D01*
X151336600Y-92157332D01*
X151408606Y-92184971D01*
X151457146Y-92244909D01*
X151462466Y-92258648D01*
X151515642Y-92419121D01*
X151607680Y-92568340D01*
X151731659Y-92692319D01*
X151880878Y-92784357D01*
X152047303Y-92839506D01*
X152049999Y-92839781D01*
X153550000Y-92839781D01*
X153552696Y-92839506D01*
X153719121Y-92784357D01*
X153868340Y-92692319D01*
X153992319Y-92568340D01*
X154084357Y-92419121D01*
X154139505Y-92252697D01*
X154139507Y-92252688D01*
X154149999Y-92149989D01*
X154150000Y-92149979D01*
X154150000Y-92125000D01*
X153550000Y-92125000D01*
X153550000Y-92839781D01*
X152049999Y-92839781D01*
X152050000Y-92839780D01*
X152050000Y-91312465D01*
X152325000Y-91312465D01*
X152325000Y-91437535D01*
X152357370Y-91558343D01*
X152419905Y-91666657D01*
X152508343Y-91755095D01*
X152616657Y-91817630D01*
X152737465Y-91850000D01*
X152862535Y-91850000D01*
X152983343Y-91817630D01*
X153091657Y-91755095D01*
X153180095Y-91666657D01*
X153242630Y-91558343D01*
X153275000Y-91437535D01*
X153275000Y-91312465D01*
X153242630Y-91191657D01*
X153180095Y-91083343D01*
X153091657Y-90994905D01*
X152983343Y-90932370D01*
X152862535Y-90900000D01*
X152737465Y-90900000D01*
X152616657Y-90932370D01*
X152508343Y-90994905D01*
X152419905Y-91083343D01*
X152357370Y-91191657D01*
X152325000Y-91312465D01*
X152050000Y-91312465D01*
X152050000Y-90625000D01*
X153550000Y-90625000D01*
X154149999Y-90625000D01*
X154149999Y-90600026D01*
X154139505Y-90497303D01*
X154084357Y-90330878D01*
X153992319Y-90181659D01*
X153868340Y-90057680D01*
X153719121Y-89965642D01*
X153552689Y-89910492D01*
X153552691Y-89910492D01*
X153550000Y-89910217D01*
X153550000Y-90625000D01*
X152050000Y-90625000D01*
X152050000Y-89910218D01*
X152049999Y-89910217D01*
X152047309Y-89910492D01*
X151880878Y-89965642D01*
X151731659Y-90057680D01*
X151607680Y-90181659D01*
X151515642Y-90330878D01*
X151462466Y-90491351D01*
X151420083Y-90555791D01*
X151351158Y-90590405D01*
X151274161Y-90585920D01*
X151209721Y-90543537D01*
X151200485Y-90532062D01*
X151177558Y-90500505D01*
X151177551Y-90500497D01*
X151049502Y-90372448D01*
X151049501Y-90372447D01*
X150902994Y-90266004D01*
X150741639Y-90183789D01*
X150569409Y-90127829D01*
X150390546Y-90099500D01*
X150209454Y-90099500D01*
X150030591Y-90127829D01*
X149858360Y-90183789D01*
X149697004Y-90266005D01*
X149697003Y-90266005D01*
X149550500Y-90372446D01*
X149550497Y-90372448D01*
X149422448Y-90500497D01*
X149422446Y-90500500D01*
X149316005Y-90647003D01*
X149316005Y-90647004D01*
X149233789Y-90808360D01*
X149191708Y-90937875D01*
X149149701Y-91002560D01*
X149080980Y-91037576D01*
X149003957Y-91033540D01*
X148939272Y-90991533D01*
X148908292Y-90937875D01*
X148895624Y-90898887D01*
X148866211Y-90808361D01*
X148783996Y-90647006D01*
X148677553Y-90500499D01*
X148549501Y-90372447D01*
X148402994Y-90266004D01*
X148241639Y-90183789D01*
X148069409Y-90127829D01*
X147890546Y-90099500D01*
X147709454Y-90099500D01*
X147530591Y-90127829D01*
X147358360Y-90183789D01*
X147197004Y-90266005D01*
X147197003Y-90266005D01*
X147050500Y-90372446D01*
X147050497Y-90372448D01*
X146922448Y-90500497D01*
X146922446Y-90500500D01*
X146816005Y-90647003D01*
X146816005Y-90647004D01*
X146733789Y-90808360D01*
X146691708Y-90937875D01*
X146649701Y-91002560D01*
X146580980Y-91037576D01*
X146503957Y-91033540D01*
X146439272Y-90991533D01*
X146408292Y-90937875D01*
X146395624Y-90898887D01*
X146366211Y-90808361D01*
X146283996Y-90647006D01*
X146177553Y-90500499D01*
X146049501Y-90372447D01*
X145902994Y-90266004D01*
X145741639Y-90183789D01*
X145569409Y-90127829D01*
X145390546Y-90099500D01*
X145209454Y-90099500D01*
X145030591Y-90127829D01*
X144858360Y-90183789D01*
X144697004Y-90266005D01*
X144697003Y-90266005D01*
X144550500Y-90372446D01*
X144550497Y-90372448D01*
X144422448Y-90500497D01*
X144422446Y-90500500D01*
X144316005Y-90647003D01*
X144316005Y-90647004D01*
X144233789Y-90808360D01*
X144191708Y-90937875D01*
X144149701Y-91002560D01*
X144080980Y-91037576D01*
X144003957Y-91033540D01*
X143939272Y-90991533D01*
X143908292Y-90937875D01*
X143895624Y-90898887D01*
X143866211Y-90808361D01*
X143783996Y-90647006D01*
X143677553Y-90500499D01*
X143549501Y-90372447D01*
X143402994Y-90266004D01*
X143241639Y-90183789D01*
X143069409Y-90127829D01*
X142890546Y-90099500D01*
X142709454Y-90099500D01*
X142530591Y-90127829D01*
X142358360Y-90183789D01*
X142197004Y-90266005D01*
X142197003Y-90266005D01*
X142050500Y-90372446D01*
X142050497Y-90372448D01*
X141922448Y-90500497D01*
X141922446Y-90500500D01*
X141816005Y-90647003D01*
X141816005Y-90647004D01*
X141733789Y-90808360D01*
X141733789Y-90808361D01*
X141677829Y-90980591D01*
X141649500Y-91159454D01*
X138585492Y-91159454D01*
X142449005Y-87295941D01*
X149874500Y-87295941D01*
X149874500Y-87295943D01*
X149874500Y-87454057D01*
X149915423Y-87606784D01*
X149994480Y-87743716D01*
X150106284Y-87855520D01*
X150243216Y-87934577D01*
X150395943Y-87975500D01*
X150554057Y-87975500D01*
X150706784Y-87934577D01*
X150774534Y-87895461D01*
X150849033Y-87875500D01*
X151750967Y-87875500D01*
X151825465Y-87895461D01*
X151893216Y-87934577D01*
X152045943Y-87975500D01*
X152204057Y-87975500D01*
X152356784Y-87934577D01*
X152493716Y-87855520D01*
X152605520Y-87743716D01*
X152684577Y-87606784D01*
X152725500Y-87454057D01*
X152725500Y-87295943D01*
X152684577Y-87143216D01*
X152605520Y-87006284D01*
X152493716Y-86894480D01*
X152356784Y-86815423D01*
X152204057Y-86774500D01*
X152045943Y-86774500D01*
X151893216Y-86815423D01*
X151825465Y-86854538D01*
X151750967Y-86874500D01*
X150849033Y-86874500D01*
X150774534Y-86854538D01*
X150706784Y-86815423D01*
X150554057Y-86774500D01*
X150395943Y-86774500D01*
X150243216Y-86815423D01*
X150243214Y-86815423D01*
X150243214Y-86815424D01*
X150106283Y-86894480D01*
X149994480Y-87006283D01*
X149915424Y-87143214D01*
X149874500Y-87295941D01*
X142449005Y-87295941D01*
X143925805Y-85819141D01*
X143992600Y-85780577D01*
X144031164Y-85775500D01*
X153614065Y-85775500D01*
X153614069Y-85775500D01*
X153739744Y-85750501D01*
X153858127Y-85701465D01*
X153964669Y-85630276D01*
X154055276Y-85539669D01*
X154126465Y-85433127D01*
X154175501Y-85314744D01*
X154200500Y-85189069D01*
X154200500Y-85060931D01*
X154175501Y-84935256D01*
X154126465Y-84816873D01*
X154055276Y-84710331D01*
X153964669Y-84619724D01*
X153858127Y-84548535D01*
X153858123Y-84548533D01*
X153858119Y-84548531D01*
X153739745Y-84499499D01*
X153739743Y-84499498D01*
X153614072Y-84474500D01*
X153614069Y-84474500D01*
X143635931Y-84474500D01*
X143635927Y-84474500D01*
X143510256Y-84499498D01*
X143510254Y-84499499D01*
X143461220Y-84519810D01*
X143391882Y-84548530D01*
X143391876Y-84548532D01*
X143391874Y-84548534D01*
X143391871Y-84548535D01*
X143391871Y-84548536D01*
X143285332Y-84619722D01*
X143285330Y-84619723D01*
X134594723Y-93310330D01*
X134594722Y-93310332D01*
X134523537Y-93416870D01*
X134523532Y-93416878D01*
X134474498Y-93535257D01*
X134449500Y-93660927D01*
X133301500Y-93660927D01*
X133301500Y-92022320D01*
X133321462Y-91947820D01*
X133345137Y-91916965D01*
X134260489Y-91001614D01*
X134319799Y-90898887D01*
X134344055Y-90808361D01*
X134350500Y-90784309D01*
X134350500Y-88654082D01*
X134370462Y-88579582D01*
X134394141Y-88548723D01*
X134403128Y-88539736D01*
X134414834Y-88528030D01*
X134493891Y-88391098D01*
X134534814Y-88238371D01*
X134534814Y-88080257D01*
X134493891Y-87927530D01*
X134414834Y-87790598D01*
X134303030Y-87678794D01*
X134166098Y-87599737D01*
X134013371Y-87558814D01*
X133855257Y-87558814D01*
X133702530Y-87599737D01*
X133702528Y-87599737D01*
X133702528Y-87599738D01*
X133565597Y-87678794D01*
X133453794Y-87790597D01*
X133404776Y-87875500D01*
X133374737Y-87927530D01*
X133366898Y-87956785D01*
X133333814Y-88080255D01*
X133333814Y-88080257D01*
X133333814Y-88238371D01*
X133374737Y-88391098D01*
X133374738Y-88391099D01*
X133429538Y-88486016D01*
X133449500Y-88560516D01*
X133449500Y-90476679D01*
X133429538Y-90551179D01*
X133405859Y-90582038D01*
X132490508Y-91497389D01*
X132431201Y-91600113D01*
X132431201Y-91600114D01*
X132424713Y-91624327D01*
X132400500Y-91714687D01*
X132400500Y-95854800D01*
X132380538Y-95929300D01*
X132326000Y-95983838D01*
X132251500Y-96003800D01*
X132182562Y-95985328D01*
X132182003Y-95986426D01*
X132176791Y-95983770D01*
X132176788Y-95983768D01*
X132022445Y-95905127D01*
X131949677Y-95881483D01*
X131857700Y-95851597D01*
X131760086Y-95836137D01*
X131686611Y-95824500D01*
X131513389Y-95824500D01*
X131447037Y-95835009D01*
X131342299Y-95851597D01*
X131177561Y-95905125D01*
X131177555Y-95905127D01*
X131177549Y-95905129D01*
X131177549Y-95905130D01*
X131023206Y-95983771D01*
X130883075Y-96085583D01*
X130883072Y-96085586D01*
X130804856Y-96163801D01*
X130738064Y-96202364D01*
X130660936Y-96202364D01*
X130594141Y-96163800D01*
X130555577Y-96097005D01*
X130550500Y-96058441D01*
X130550500Y-89854697D01*
X130570462Y-89780197D01*
X130594141Y-89749338D01*
X132062207Y-88281272D01*
X133591527Y-86751952D01*
X133658320Y-86713390D01*
X133674948Y-86710083D01*
X133676180Y-86709753D01*
X133828907Y-86668830D01*
X133965839Y-86589773D01*
X134077643Y-86477969D01*
X134156700Y-86341037D01*
X134197623Y-86188310D01*
X134197623Y-86030196D01*
X134156700Y-85877469D01*
X134077643Y-85740537D01*
X133965839Y-85628733D01*
X133828907Y-85549676D01*
X133676180Y-85508753D01*
X133518066Y-85508753D01*
X133365339Y-85549676D01*
X133365337Y-85549676D01*
X133365337Y-85549677D01*
X133228406Y-85628733D01*
X133116603Y-85740536D01*
X133037547Y-85877467D01*
X133037546Y-85877469D01*
X133015671Y-85959108D01*
X132994095Y-86039630D01*
X132992534Y-86039211D01*
X132967264Y-86100206D01*
X132954421Y-86114850D01*
X129739509Y-89329764D01*
X129739508Y-89329765D01*
X129680241Y-89432418D01*
X129680240Y-89432421D01*
X129680201Y-89432489D01*
X129680201Y-89432490D01*
X129649500Y-89547067D01*
X127409519Y-89547067D01*
X131274106Y-83583441D01*
X132537000Y-83583441D01*
X132537000Y-83583443D01*
X132537000Y-83741557D01*
X132577923Y-83894284D01*
X132656980Y-84031216D01*
X132768784Y-84143020D01*
X132905716Y-84222077D01*
X132981278Y-84242323D01*
X133048073Y-84280887D01*
X134955859Y-86188673D01*
X134994423Y-86255468D01*
X134999500Y-86294032D01*
X134999500Y-87350966D01*
X134979538Y-87425465D01*
X134940424Y-87493212D01*
X134899500Y-87645941D01*
X134899500Y-87645943D01*
X134899500Y-87804057D01*
X134940423Y-87956784D01*
X135019480Y-88093716D01*
X135131284Y-88205520D01*
X135268216Y-88284577D01*
X135420943Y-88325500D01*
X135579057Y-88325500D01*
X135731784Y-88284577D01*
X135868716Y-88205520D01*
X135980520Y-88093716D01*
X136059577Y-87956784D01*
X136100500Y-87804057D01*
X136100500Y-87645943D01*
X136059577Y-87493216D01*
X136059575Y-87493212D01*
X136020462Y-87425465D01*
X136000500Y-87350966D01*
X136000500Y-85959108D01*
X136000499Y-85959106D01*
X135966392Y-85831814D01*
X135913693Y-85740537D01*
X135900502Y-85717689D01*
X135900497Y-85717683D01*
X135807314Y-85624499D01*
X135807314Y-85624500D01*
X133755887Y-83573073D01*
X133717324Y-83506280D01*
X133697077Y-83430716D01*
X133618020Y-83293784D01*
X133506216Y-83181980D01*
X133369284Y-83102923D01*
X133216557Y-83062000D01*
X133058443Y-83062000D01*
X132905716Y-83102923D01*
X132905714Y-83102923D01*
X132905714Y-83102924D01*
X132768783Y-83181980D01*
X132656980Y-83293783D01*
X132577924Y-83430714D01*
X132537000Y-83583441D01*
X131274106Y-83583441D01*
X132336436Y-81944110D01*
X132337020Y-81943206D01*
X132337274Y-81942811D01*
X132373439Y-81863649D01*
X132393124Y-81796610D01*
X132397011Y-81769577D01*
X132405499Y-81710548D01*
X132405500Y-81710535D01*
X132405500Y-80383441D01*
X144162000Y-80383441D01*
X144162000Y-80383443D01*
X144162000Y-80541557D01*
X144202923Y-80694284D01*
X144281980Y-80831216D01*
X144393784Y-80943020D01*
X144530716Y-81022077D01*
X144683443Y-81063000D01*
X144692877Y-81065528D01*
X144692458Y-81067090D01*
X144753439Y-81092347D01*
X144768097Y-81105201D01*
X144948386Y-81285490D01*
X145051113Y-81344799D01*
X145075317Y-81351283D01*
X145075324Y-81351287D01*
X145075325Y-81351286D01*
X145099539Y-81357774D01*
X145165691Y-81375500D01*
X152051679Y-81375500D01*
X152126179Y-81395462D01*
X152157038Y-81419141D01*
X160334859Y-89596962D01*
X160373423Y-89663757D01*
X160378500Y-89702321D01*
X160378500Y-95881483D01*
X160358538Y-95955983D01*
X160304000Y-96010521D01*
X160229500Y-96030483D01*
X160155000Y-96010521D01*
X160141921Y-96002027D01*
X160116795Y-95983772D01*
X160116789Y-95983769D01*
X160116788Y-95983768D01*
X159962445Y-95905127D01*
X159889677Y-95881483D01*
X159797700Y-95851597D01*
X159700086Y-95836137D01*
X159626611Y-95824500D01*
X159453389Y-95824500D01*
X159387037Y-95835009D01*
X159282299Y-95851597D01*
X159117561Y-95905125D01*
X159117555Y-95905127D01*
X159117549Y-95905129D01*
X159117549Y-95905130D01*
X158963206Y-95983771D01*
X158823075Y-96085583D01*
X158700583Y-96208075D01*
X158598771Y-96348206D01*
X158520130Y-96502549D01*
X158520125Y-96502561D01*
X158466597Y-96667299D01*
X158448228Y-96783282D01*
X158439500Y-96838389D01*
X158439500Y-97011611D01*
X158449161Y-97072610D01*
X158466597Y-97182700D01*
X158484195Y-97236860D01*
X158520127Y-97347445D01*
X158520130Y-97347450D01*
X158598771Y-97501793D01*
X158674740Y-97606354D01*
X158700586Y-97641928D01*
X158823072Y-97764414D01*
X158835453Y-97773409D01*
X158959553Y-97863574D01*
X158963212Y-97866232D01*
X159117555Y-97944873D01*
X159282299Y-97998402D01*
X159453389Y-98025500D01*
X159453393Y-98025500D01*
X159626607Y-98025500D01*
X159626611Y-98025500D01*
X159797701Y-97998402D01*
X159962445Y-97944873D01*
X160116788Y-97866232D01*
X160141918Y-97847974D01*
X160213923Y-97820332D01*
X160290102Y-97832397D01*
X160350042Y-97880934D01*
X160377684Y-97952939D01*
X160378500Y-97968516D01*
X160378500Y-103452678D01*
X160358538Y-103527178D01*
X160334859Y-103558037D01*
X155239509Y-108653388D01*
X155239508Y-108653389D01*
X155180201Y-108756111D01*
X155180202Y-108756111D01*
X155180201Y-108756113D01*
X155180201Y-108756114D01*
X155169967Y-108794306D01*
X155149500Y-108870689D01*
X155149500Y-109471582D01*
X155129538Y-109546082D01*
X155120111Y-109560190D01*
X155055800Y-109671582D01*
X155040423Y-109698216D01*
X155026204Y-109751283D01*
X154999500Y-109850941D01*
X154999500Y-109850943D01*
X154999500Y-110009057D01*
X155040423Y-110161784D01*
X155119480Y-110298716D01*
X155231284Y-110410520D01*
X155368216Y-110489577D01*
X155520943Y-110530500D01*
X155679057Y-110530500D01*
X155831784Y-110489577D01*
X155968716Y-110410520D01*
X156080520Y-110298716D01*
X156159577Y-110161784D01*
X156200500Y-110009057D01*
X156200500Y-109850943D01*
X156159577Y-109698216D01*
X156080520Y-109561284D01*
X156080519Y-109561283D01*
X156075637Y-109552827D01*
X156077035Y-109552019D01*
X156051774Y-109491022D01*
X156050500Y-109471582D01*
X156050500Y-109178321D01*
X156070462Y-109103821D01*
X156094141Y-109072962D01*
X158596412Y-106570691D01*
X161189490Y-103977614D01*
X161248799Y-103874887D01*
X161264732Y-103815423D01*
X161279500Y-103760309D01*
X161279500Y-97995199D01*
X161299462Y-97920699D01*
X161354000Y-97866161D01*
X161428500Y-97846199D01*
X161497438Y-97864670D01*
X161497997Y-97863574D01*
X161503206Y-97866228D01*
X161503212Y-97866232D01*
X161657555Y-97944873D01*
X161822299Y-97998402D01*
X161993389Y-98025500D01*
X161993393Y-98025500D01*
X162166607Y-98025500D01*
X162166611Y-98025500D01*
X162337701Y-97998402D01*
X162502445Y-97944873D01*
X162656788Y-97866232D01*
X162681918Y-97847974D01*
X162753923Y-97820332D01*
X162830102Y-97832397D01*
X162890042Y-97880934D01*
X162917684Y-97952939D01*
X162918500Y-97968516D01*
X162918500Y-103012679D01*
X162898538Y-103087179D01*
X162874859Y-103118038D01*
X157657038Y-108335859D01*
X157590243Y-108374423D01*
X157551679Y-108379500D01*
X157520943Y-108379500D01*
X157368216Y-108420423D01*
X157368214Y-108420423D01*
X157368214Y-108420424D01*
X157231283Y-108499480D01*
X157119480Y-108611283D01*
X157061457Y-108711784D01*
X157040423Y-108748216D01*
X157021431Y-108819095D01*
X156999500Y-108900941D01*
X156999500Y-109059058D01*
X157010465Y-109099981D01*
X157040423Y-109211784D01*
X157119480Y-109348716D01*
X157231284Y-109460520D01*
X157368216Y-109539577D01*
X157520943Y-109580500D01*
X157679057Y-109580500D01*
X157831784Y-109539577D01*
X157968716Y-109460520D01*
X158080520Y-109348716D01*
X158159577Y-109211784D01*
X158187404Y-109107927D01*
X158225963Y-109041138D01*
X163729489Y-103537614D01*
X163788798Y-103434887D01*
X163788799Y-103434886D01*
X163819500Y-103320309D01*
X163819500Y-97995199D01*
X163839462Y-97920699D01*
X163894000Y-97866161D01*
X163968500Y-97846199D01*
X164037438Y-97864670D01*
X164037997Y-97863574D01*
X164043206Y-97866228D01*
X164043212Y-97866232D01*
X164197555Y-97944873D01*
X164362299Y-97998402D01*
X164533389Y-98025500D01*
X164533393Y-98025500D01*
X164706607Y-98025500D01*
X164706611Y-98025500D01*
X164877701Y-97998402D01*
X165042445Y-97944873D01*
X165196788Y-97866232D01*
X165336928Y-97764414D01*
X165459414Y-97641928D01*
X165561232Y-97501788D01*
X165639873Y-97347445D01*
X165693402Y-97182701D01*
X165720500Y-97011611D01*
X165720500Y-96838389D01*
X166059500Y-96838389D01*
X166059500Y-97011611D01*
X166069161Y-97072610D01*
X166086597Y-97182700D01*
X166104195Y-97236860D01*
X166140127Y-97347445D01*
X166140130Y-97347450D01*
X166218771Y-97501793D01*
X166294740Y-97606354D01*
X166320586Y-97641928D01*
X166443072Y-97764414D01*
X166455453Y-97773409D01*
X166579553Y-97863574D01*
X166583212Y-97866232D01*
X166737555Y-97944873D01*
X166902299Y-97998402D01*
X167073389Y-98025500D01*
X167073393Y-98025500D01*
X167246607Y-98025500D01*
X167246611Y-98025500D01*
X167417701Y-97998402D01*
X167582445Y-97944873D01*
X167736788Y-97866232D01*
X167876928Y-97764414D01*
X167999414Y-97641928D01*
X168101232Y-97501788D01*
X168179873Y-97347445D01*
X168233402Y-97182701D01*
X168260500Y-97011611D01*
X168260500Y-96838389D01*
X168233402Y-96667299D01*
X168179873Y-96502555D01*
X168101232Y-96348212D01*
X167999414Y-96208072D01*
X167876928Y-96085586D01*
X167866630Y-96078104D01*
X167736793Y-95983771D01*
X167736790Y-95983769D01*
X167736788Y-95983768D01*
X167582445Y-95905127D01*
X167509677Y-95881483D01*
X167417700Y-95851597D01*
X167320086Y-95836137D01*
X167246611Y-95824500D01*
X167073389Y-95824500D01*
X167007037Y-95835009D01*
X166902299Y-95851597D01*
X166737561Y-95905125D01*
X166737555Y-95905127D01*
X166737549Y-95905129D01*
X166737549Y-95905130D01*
X166583206Y-95983771D01*
X166443075Y-96085583D01*
X166320583Y-96208075D01*
X166218771Y-96348206D01*
X166140130Y-96502549D01*
X166140125Y-96502561D01*
X166086597Y-96667299D01*
X166068228Y-96783282D01*
X166059500Y-96838389D01*
X165720500Y-96838389D01*
X165693402Y-96667299D01*
X165639873Y-96502555D01*
X165561232Y-96348212D01*
X165459414Y-96208072D01*
X165336928Y-96085586D01*
X165326630Y-96078104D01*
X165196793Y-95983771D01*
X165196790Y-95983769D01*
X165196788Y-95983768D01*
X165042445Y-95905127D01*
X164969677Y-95881483D01*
X164877700Y-95851597D01*
X164780086Y-95836137D01*
X164706611Y-95824500D01*
X164533389Y-95824500D01*
X164467037Y-95835009D01*
X164362299Y-95851597D01*
X164197561Y-95905125D01*
X164197555Y-95905127D01*
X164043212Y-95983768D01*
X164043208Y-95983770D01*
X164037997Y-95986426D01*
X164037068Y-95984603D01*
X163972347Y-96003750D01*
X163897357Y-95985718D01*
X163841429Y-95932607D01*
X163819550Y-95858647D01*
X163819500Y-95854800D01*
X163819500Y-90734691D01*
X163819499Y-90734689D01*
X163796004Y-90647006D01*
X163788799Y-90620114D01*
X163788799Y-90620113D01*
X163771647Y-90590405D01*
X163729491Y-90517389D01*
X163729490Y-90517388D01*
X163729489Y-90517386D01*
X152801614Y-79589511D01*
X152801611Y-79589509D01*
X152801607Y-79589506D01*
X152698890Y-79530202D01*
X152698887Y-79530201D01*
X152674673Y-79523713D01*
X152584309Y-79499500D01*
X146242335Y-79499500D01*
X146167835Y-79479538D01*
X146056784Y-79415423D01*
X145904057Y-79374500D01*
X145745943Y-79374500D01*
X145593216Y-79415423D01*
X145593214Y-79415423D01*
X145593214Y-79415424D01*
X145456283Y-79494480D01*
X145344480Y-79606283D01*
X145265422Y-79743217D01*
X145242293Y-79829533D01*
X145203728Y-79896327D01*
X145136933Y-79934890D01*
X145059805Y-79934889D01*
X145023872Y-79920005D01*
X144994287Y-79902924D01*
X144994284Y-79902923D01*
X144841557Y-79862000D01*
X144683443Y-79862000D01*
X144530716Y-79902923D01*
X144530714Y-79902923D01*
X144530714Y-79902924D01*
X144393783Y-79981980D01*
X144281980Y-80093783D01*
X144202924Y-80230714D01*
X144162000Y-80383441D01*
X132405500Y-80383441D01*
X132405500Y-78174351D01*
X132425462Y-78099851D01*
X132480000Y-78045313D01*
X132554500Y-78025351D01*
X132629000Y-78045313D01*
X132659859Y-78068992D01*
X132828151Y-78237284D01*
X133036193Y-78396921D01*
X133036197Y-78396924D01*
X133263303Y-78528043D01*
X133467809Y-78612752D01*
X133505583Y-78628399D01*
X133593332Y-78651910D01*
X133758884Y-78696270D01*
X133758890Y-78696270D01*
X133758891Y-78696271D01*
X133795834Y-78701134D01*
X134018877Y-78730499D01*
X134018878Y-78730500D01*
X134018880Y-78730500D01*
X134281122Y-78730500D01*
X134281122Y-78730499D01*
X134541108Y-78696271D01*
X134541110Y-78696271D01*
X134541111Y-78696270D01*
X134541116Y-78696270D01*
X134794415Y-78628399D01*
X134794416Y-78628399D01*
X134794417Y-78628398D01*
X134794419Y-78628398D01*
X135036697Y-78528043D01*
X135263803Y-78396924D01*
X135471848Y-78237284D01*
X135471849Y-78237284D01*
X135657284Y-78051849D01*
X135657284Y-78051848D01*
X135816921Y-77843807D01*
X135816921Y-77843806D01*
X135816924Y-77843803D01*
X135948043Y-77616697D01*
X136048398Y-77374419D01*
X136116270Y-77121116D01*
X136150500Y-76861120D01*
X136150500Y-76598880D01*
X136150499Y-76598876D01*
X143699500Y-76598876D01*
X143699500Y-76861123D01*
X143733728Y-77121107D01*
X143733728Y-77121110D01*
X143801600Y-77374415D01*
X143801600Y-77374416D01*
X143901959Y-77616701D01*
X144033078Y-77843806D01*
X144033078Y-77843807D01*
X144192715Y-78051848D01*
X144378151Y-78237284D01*
X144586193Y-78396921D01*
X144586197Y-78396924D01*
X144813303Y-78528043D01*
X145017809Y-78612752D01*
X145055583Y-78628399D01*
X145143332Y-78651910D01*
X145308884Y-78696270D01*
X145308890Y-78696270D01*
X145308891Y-78696271D01*
X145345834Y-78701134D01*
X145568877Y-78730499D01*
X145568878Y-78730500D01*
X145568880Y-78730500D01*
X145831122Y-78730500D01*
X145831122Y-78730499D01*
X146091108Y-78696271D01*
X146091110Y-78696271D01*
X146091111Y-78696270D01*
X146091116Y-78696270D01*
X146344415Y-78628399D01*
X146344416Y-78628399D01*
X146344417Y-78628398D01*
X146344419Y-78628398D01*
X146586697Y-78528043D01*
X146813803Y-78396924D01*
X147021848Y-78237284D01*
X147021849Y-78237284D01*
X147207284Y-78051849D01*
X147207284Y-78051848D01*
X147366921Y-77843807D01*
X147366921Y-77843806D01*
X147366924Y-77843803D01*
X147498043Y-77616697D01*
X147598398Y-77374419D01*
X147666270Y-77121116D01*
X147700500Y-76861120D01*
X147700500Y-76598880D01*
X147700499Y-76598876D01*
X155249500Y-76598876D01*
X155249500Y-76861123D01*
X155283728Y-77121107D01*
X155283728Y-77121110D01*
X155351600Y-77374415D01*
X155351600Y-77374416D01*
X155451959Y-77616701D01*
X155583078Y-77843806D01*
X155583078Y-77843807D01*
X155742715Y-78051848D01*
X155928151Y-78237284D01*
X156136193Y-78396921D01*
X156136197Y-78396924D01*
X156363303Y-78528043D01*
X156567809Y-78612752D01*
X156605583Y-78628399D01*
X156693332Y-78651910D01*
X156858884Y-78696270D01*
X156858890Y-78696270D01*
X156858891Y-78696271D01*
X156895834Y-78701134D01*
X157118877Y-78730499D01*
X157118878Y-78730500D01*
X157118880Y-78730500D01*
X157381122Y-78730500D01*
X157381122Y-78730499D01*
X157641108Y-78696271D01*
X157641110Y-78696271D01*
X157641111Y-78696270D01*
X157641116Y-78696270D01*
X157894415Y-78628399D01*
X157894416Y-78628399D01*
X157894417Y-78628398D01*
X157894419Y-78628398D01*
X158136697Y-78528043D01*
X158363803Y-78396924D01*
X158571848Y-78237284D01*
X158571849Y-78237284D01*
X158757284Y-78051849D01*
X158757284Y-78051848D01*
X158916921Y-77843807D01*
X158916921Y-77843806D01*
X158916924Y-77843803D01*
X159048043Y-77616697D01*
X159148398Y-77374419D01*
X159216270Y-77121116D01*
X159250500Y-76861120D01*
X159250500Y-76598880D01*
X159250499Y-76598876D01*
X166799500Y-76598876D01*
X166799500Y-76861123D01*
X166833728Y-77121107D01*
X166833728Y-77121110D01*
X166901600Y-77374415D01*
X166901600Y-77374416D01*
X167001959Y-77616701D01*
X167133078Y-77843806D01*
X167133078Y-77843807D01*
X167292715Y-78051848D01*
X167478151Y-78237284D01*
X167686193Y-78396921D01*
X167686197Y-78396924D01*
X167913303Y-78528043D01*
X168117809Y-78612752D01*
X168155583Y-78628399D01*
X168243332Y-78651910D01*
X168408884Y-78696270D01*
X168408890Y-78696270D01*
X168408891Y-78696271D01*
X168445834Y-78701134D01*
X168668877Y-78730499D01*
X168668878Y-78730500D01*
X168668880Y-78730500D01*
X168931122Y-78730500D01*
X168931122Y-78730499D01*
X169191108Y-78696271D01*
X169191110Y-78696271D01*
X169191111Y-78696270D01*
X169191116Y-78696270D01*
X169444415Y-78628399D01*
X169444416Y-78628399D01*
X169444417Y-78628398D01*
X169444419Y-78628398D01*
X169686697Y-78528043D01*
X169913803Y-78396924D01*
X170121848Y-78237284D01*
X170121849Y-78237284D01*
X170307284Y-78051849D01*
X170307284Y-78051848D01*
X170466921Y-77843807D01*
X170466921Y-77843806D01*
X170466924Y-77843803D01*
X170598043Y-77616697D01*
X170698398Y-77374419D01*
X170766270Y-77121116D01*
X170800500Y-76861120D01*
X170800500Y-76598880D01*
X170766270Y-76338884D01*
X170698398Y-76085581D01*
X170598043Y-75843303D01*
X170466924Y-75616197D01*
X170466921Y-75616193D01*
X170466921Y-75616192D01*
X170307284Y-75408151D01*
X170121848Y-75222715D01*
X169913806Y-75063078D01*
X169686701Y-74931959D01*
X169686699Y-74931958D01*
X169686697Y-74931957D01*
X169611154Y-74900666D01*
X169444416Y-74831600D01*
X169218255Y-74771002D01*
X169191116Y-74763730D01*
X169191114Y-74763729D01*
X169191108Y-74763728D01*
X168931123Y-74729500D01*
X168931120Y-74729500D01*
X168668880Y-74729500D01*
X168668876Y-74729500D01*
X168408892Y-74763728D01*
X168408889Y-74763728D01*
X168155584Y-74831600D01*
X168155583Y-74831600D01*
X167913298Y-74931959D01*
X167686193Y-75063078D01*
X167686192Y-75063078D01*
X167478151Y-75222715D01*
X167478151Y-75222716D01*
X167478149Y-75222718D01*
X167292718Y-75408149D01*
X167292716Y-75408151D01*
X167292715Y-75408151D01*
X167133078Y-75616192D01*
X167133078Y-75616193D01*
X167001959Y-75843298D01*
X166901600Y-76085583D01*
X166901600Y-76085584D01*
X166833728Y-76338889D01*
X166833728Y-76338892D01*
X166799500Y-76598876D01*
X159250499Y-76598876D01*
X159216270Y-76338884D01*
X159148398Y-76085581D01*
X159048043Y-75843303D01*
X158916924Y-75616197D01*
X158916921Y-75616193D01*
X158916921Y-75616192D01*
X158757284Y-75408151D01*
X158571848Y-75222715D01*
X158363806Y-75063078D01*
X158136701Y-74931959D01*
X158136699Y-74931958D01*
X158136697Y-74931957D01*
X158061154Y-74900666D01*
X157894416Y-74831600D01*
X157668255Y-74771002D01*
X157641116Y-74763730D01*
X157641114Y-74763729D01*
X157641108Y-74763728D01*
X157381123Y-74729500D01*
X157381120Y-74729500D01*
X157118880Y-74729500D01*
X157118876Y-74729500D01*
X156858892Y-74763728D01*
X156858889Y-74763728D01*
X156605584Y-74831600D01*
X156605583Y-74831600D01*
X156363298Y-74931959D01*
X156136193Y-75063078D01*
X156136192Y-75063078D01*
X155928151Y-75222715D01*
X155928151Y-75222716D01*
X155928149Y-75222718D01*
X155742718Y-75408149D01*
X155742716Y-75408151D01*
X155742715Y-75408151D01*
X155583078Y-75616192D01*
X155583078Y-75616193D01*
X155451959Y-75843298D01*
X155351600Y-76085583D01*
X155351600Y-76085584D01*
X155283728Y-76338889D01*
X155283728Y-76338892D01*
X155249500Y-76598876D01*
X147700499Y-76598876D01*
X147666270Y-76338884D01*
X147598398Y-76085581D01*
X147498043Y-75843303D01*
X147366924Y-75616197D01*
X147366921Y-75616193D01*
X147366921Y-75616192D01*
X147207284Y-75408151D01*
X147021848Y-75222715D01*
X146813806Y-75063078D01*
X146586701Y-74931959D01*
X146586699Y-74931958D01*
X146586697Y-74931957D01*
X146511154Y-74900666D01*
X146344416Y-74831600D01*
X146118255Y-74771002D01*
X146091116Y-74763730D01*
X146091114Y-74763729D01*
X146091108Y-74763728D01*
X145831123Y-74729500D01*
X145831120Y-74729500D01*
X145568880Y-74729500D01*
X145568876Y-74729500D01*
X145308892Y-74763728D01*
X145308889Y-74763728D01*
X145055584Y-74831600D01*
X145055583Y-74831600D01*
X144813298Y-74931959D01*
X144586193Y-75063078D01*
X144586192Y-75063078D01*
X144378151Y-75222715D01*
X144378151Y-75222716D01*
X144378149Y-75222718D01*
X144192718Y-75408149D01*
X144192716Y-75408151D01*
X144192715Y-75408151D01*
X144033078Y-75616192D01*
X144033078Y-75616193D01*
X143901959Y-75843298D01*
X143801600Y-76085583D01*
X143801600Y-76085584D01*
X143733728Y-76338889D01*
X143733728Y-76338892D01*
X143699500Y-76598876D01*
X136150499Y-76598876D01*
X136116270Y-76338884D01*
X136048398Y-76085581D01*
X135948043Y-75843303D01*
X135816924Y-75616197D01*
X135816921Y-75616193D01*
X135816921Y-75616192D01*
X135657284Y-75408151D01*
X135471848Y-75222715D01*
X135263806Y-75063078D01*
X135036701Y-74931959D01*
X135036699Y-74931958D01*
X135036697Y-74931957D01*
X134961154Y-74900666D01*
X134794416Y-74831600D01*
X134568255Y-74771002D01*
X134541116Y-74763730D01*
X134541114Y-74763729D01*
X134541108Y-74763728D01*
X134281123Y-74729500D01*
X134281120Y-74729500D01*
X134018880Y-74729500D01*
X134018876Y-74729500D01*
X133758892Y-74763728D01*
X133758889Y-74763728D01*
X133505584Y-74831600D01*
X133505583Y-74831600D01*
X133263298Y-74931959D01*
X133036193Y-75063078D01*
X133036192Y-75063078D01*
X132828151Y-75222715D01*
X132828151Y-75222716D01*
X132659859Y-75391008D01*
X132593064Y-75429572D01*
X132515936Y-75429572D01*
X132449141Y-75391008D01*
X132410577Y-75324213D01*
X132405500Y-75285649D01*
X132405500Y-69863176D01*
X132425462Y-69788676D01*
X132480000Y-69734138D01*
X132554497Y-69714176D01*
X161865325Y-69734978D01*
X161877900Y-69734728D01*
X161888101Y-69734315D01*
X161985433Y-69714194D01*
X162050644Y-69689107D01*
X162126530Y-69646654D01*
X169923279Y-63684433D01*
X169963235Y-63647829D01*
X169992791Y-63615482D01*
X170011066Y-63593497D01*
X170061103Y-63492993D01*
X170080219Y-63425789D01*
X170091864Y-63339617D01*
X170076196Y-61490959D01*
X170095526Y-61416296D01*
X170149600Y-61361298D01*
X170223928Y-61340705D01*
X170285375Y-61353396D01*
X170317509Y-61367585D01*
X170342635Y-61370500D01*
X172337364Y-61370499D01*
X172337366Y-61370499D01*
X172349927Y-61369042D01*
X172362491Y-61367585D01*
X172465265Y-61322206D01*
X172544706Y-61242765D01*
X172590085Y-61139991D01*
X172593000Y-61114865D01*
X172592999Y-59025136D01*
X172590085Y-59000009D01*
X172544706Y-58897235D01*
X172465265Y-58817794D01*
X172465264Y-58817793D01*
X172362494Y-58772416D01*
X172362491Y-58772415D01*
X172362482Y-58772414D01*
X172337365Y-58769500D01*
X172337359Y-58769500D01*
X170342633Y-58769500D01*
X170317510Y-58772414D01*
X170317507Y-58772415D01*
X170214735Y-58817793D01*
X170135293Y-58897235D01*
X170089916Y-59000005D01*
X170089915Y-59000008D01*
X170089915Y-59000009D01*
X170087000Y-59025135D01*
X170087000Y-59025136D01*
X170087000Y-59025140D01*
X170087000Y-59203596D01*
X170067038Y-59278096D01*
X170012500Y-59332634D01*
X169938000Y-59352596D01*
X169863500Y-59332634D01*
X169817457Y-59291177D01*
X169755738Y-59206229D01*
X169755737Y-59206228D01*
X169755735Y-59206225D01*
X169616275Y-59066765D01*
X169456715Y-58950838D01*
X169373690Y-58908534D01*
X169280990Y-58861301D01*
X169280986Y-58861299D01*
X169280985Y-58861299D01*
X169223724Y-58842693D01*
X169093417Y-58800354D01*
X169093417Y-58800353D01*
X168985190Y-58783212D01*
X168898613Y-58769500D01*
X168701387Y-58769500D01*
X168623467Y-58781841D01*
X168506582Y-58800353D01*
X168506582Y-58800354D01*
X168319021Y-58861297D01*
X168319009Y-58861301D01*
X168143283Y-58950839D01*
X167983728Y-59066762D01*
X167844262Y-59206228D01*
X167728339Y-59365783D01*
X167662760Y-59494489D01*
X167611151Y-59551806D01*
X167537798Y-59575640D01*
X167462355Y-59559604D01*
X167405038Y-59507995D01*
X167397240Y-59494489D01*
X167331662Y-59365785D01*
X167215735Y-59206225D01*
X167076275Y-59066765D01*
X166916715Y-58950838D01*
X166833690Y-58908534D01*
X166740990Y-58861301D01*
X166740986Y-58861299D01*
X166740985Y-58861299D01*
X166683724Y-58842693D01*
X166553417Y-58800354D01*
X166553417Y-58800353D01*
X166445190Y-58783212D01*
X166358613Y-58769500D01*
X166161387Y-58769500D01*
X166083467Y-58781841D01*
X165966582Y-58800353D01*
X165966582Y-58800354D01*
X165779021Y-58861297D01*
X165779009Y-58861301D01*
X165603283Y-58950839D01*
X165443728Y-59066762D01*
X165304262Y-59206228D01*
X165188339Y-59365783D01*
X165098801Y-59541509D01*
X165098797Y-59541521D01*
X165037854Y-59729082D01*
X165037853Y-59729082D01*
X165017482Y-59857708D01*
X165007000Y-59923887D01*
X165007000Y-60216113D01*
X165017482Y-60282292D01*
X165037853Y-60410917D01*
X165098797Y-60598478D01*
X165098801Y-60598490D01*
X165109761Y-60620000D01*
X165188338Y-60774215D01*
X165304265Y-60933775D01*
X165443725Y-61073235D01*
X165603285Y-61189162D01*
X165779015Y-61278701D01*
X165966582Y-61339645D01*
X165966582Y-61339646D01*
X165966587Y-61339646D01*
X165966588Y-61339647D01*
X166161387Y-61370500D01*
X166161391Y-61370500D01*
X166358609Y-61370500D01*
X166358613Y-61370500D01*
X166553412Y-61339647D01*
X166553413Y-61339646D01*
X166553417Y-61339646D01*
X166553417Y-61339645D01*
X166740985Y-61278701D01*
X166916715Y-61189162D01*
X167076275Y-61073235D01*
X167215735Y-60933775D01*
X167272456Y-60855704D01*
X167332396Y-60807167D01*
X167408575Y-60795101D01*
X167480580Y-60822741D01*
X167529118Y-60882681D01*
X167542000Y-60943285D01*
X167542000Y-61282440D01*
X167542070Y-61289045D01*
X167557034Y-61992330D01*
X167538661Y-62067238D01*
X167485296Y-62122924D01*
X167411238Y-62144466D01*
X167408068Y-62144500D01*
X147154500Y-62144500D01*
X147080000Y-62124538D01*
X147025462Y-62070000D01*
X147005500Y-61995500D01*
X147005500Y-61502641D01*
X147025462Y-61428141D01*
X147080000Y-61373603D01*
X147154500Y-61353641D01*
X147206695Y-61364652D01*
X147206698Y-61364643D01*
X147206869Y-61364689D01*
X147214686Y-61366338D01*
X147217509Y-61367585D01*
X147242635Y-61370500D01*
X149237364Y-61370499D01*
X149237366Y-61370499D01*
X149249927Y-61369042D01*
X149262491Y-61367585D01*
X149365265Y-61322206D01*
X149444706Y-61242765D01*
X149490085Y-61139991D01*
X149493000Y-61114865D01*
X149493000Y-60820000D01*
X153437763Y-60820000D01*
X153467712Y-60878777D01*
X153602092Y-61063736D01*
X153763763Y-61225407D01*
X153948726Y-61359790D01*
X153960000Y-61365534D01*
X153960000Y-60820000D01*
X153437763Y-60820000D01*
X149493000Y-60820000D01*
X149492999Y-59997591D01*
X154160000Y-59997591D01*
X154160000Y-60142409D01*
X154197482Y-60282292D01*
X154269890Y-60407708D01*
X154372292Y-60510110D01*
X154497708Y-60582518D01*
X154637591Y-60620000D01*
X154782409Y-60620000D01*
X154922292Y-60582518D01*
X155047708Y-60510110D01*
X155150110Y-60407708D01*
X155222518Y-60282292D01*
X155260000Y-60142409D01*
X155260000Y-59997591D01*
X155222518Y-59857708D01*
X155150110Y-59732292D01*
X155047708Y-59629890D01*
X154922292Y-59557482D01*
X154782409Y-59520000D01*
X154637591Y-59520000D01*
X154497708Y-59557482D01*
X154372292Y-59629890D01*
X154269890Y-59732292D01*
X154197482Y-59857708D01*
X154160000Y-59997591D01*
X149492999Y-59997591D01*
X149492999Y-59320000D01*
X153437763Y-59320000D01*
X153960000Y-59320000D01*
X153960000Y-58774465D01*
X153959999Y-58774464D01*
X155460000Y-58774464D01*
X155460000Y-61365533D01*
X155471273Y-61359790D01*
X155656236Y-61225407D01*
X155817907Y-61063736D01*
X155952287Y-60878778D01*
X155966396Y-60851087D01*
X156018004Y-60793768D01*
X156091356Y-60769932D01*
X156166799Y-60785966D01*
X156219701Y-60831148D01*
X156294258Y-60933767D01*
X156294262Y-60933771D01*
X156294265Y-60933775D01*
X156433725Y-61073235D01*
X156593285Y-61189162D01*
X156769015Y-61278701D01*
X156956582Y-61339645D01*
X156956582Y-61339646D01*
X156956587Y-61339646D01*
X156956588Y-61339647D01*
X157151387Y-61370500D01*
X157151391Y-61370500D01*
X157348609Y-61370500D01*
X157348613Y-61370500D01*
X157543412Y-61339647D01*
X157543413Y-61339646D01*
X157543417Y-61339646D01*
X157543417Y-61339645D01*
X157730985Y-61278701D01*
X157906715Y-61189162D01*
X158066275Y-61073235D01*
X158205735Y-60933775D01*
X158267459Y-60848818D01*
X158327395Y-60800283D01*
X158403573Y-60788217D01*
X158475579Y-60815856D01*
X158524118Y-60875796D01*
X158537000Y-60936400D01*
X158537000Y-61114866D01*
X158539914Y-61139989D01*
X158539915Y-61139992D01*
X158585293Y-61242764D01*
X158585294Y-61242765D01*
X158664735Y-61322206D01*
X158767509Y-61367585D01*
X158792635Y-61370500D01*
X160787364Y-61370499D01*
X160787366Y-61370499D01*
X160799927Y-61369042D01*
X160812491Y-61367585D01*
X160915265Y-61322206D01*
X160994706Y-61242765D01*
X161040085Y-61139991D01*
X161043000Y-61114865D01*
X161042999Y-59025136D01*
X161040085Y-59000009D01*
X160994706Y-58897235D01*
X160915265Y-58817794D01*
X160915264Y-58817793D01*
X160812494Y-58772416D01*
X160812491Y-58772415D01*
X160812482Y-58772414D01*
X160787365Y-58769500D01*
X160787359Y-58769500D01*
X158792633Y-58769500D01*
X158767510Y-58772414D01*
X158767507Y-58772415D01*
X158664735Y-58817793D01*
X158585293Y-58897235D01*
X158539916Y-59000005D01*
X158539915Y-59000008D01*
X158539915Y-59000009D01*
X158537000Y-59025135D01*
X158537000Y-59025136D01*
X158537000Y-59025140D01*
X158537000Y-59203596D01*
X158517038Y-59278096D01*
X158462500Y-59332634D01*
X158388000Y-59352596D01*
X158313500Y-59332634D01*
X158267457Y-59291177D01*
X158205738Y-59206229D01*
X158205737Y-59206228D01*
X158205735Y-59206225D01*
X158066275Y-59066765D01*
X157906715Y-58950838D01*
X157823690Y-58908534D01*
X157730990Y-58861301D01*
X157730986Y-58861299D01*
X157730985Y-58861299D01*
X157673724Y-58842693D01*
X157543417Y-58800354D01*
X157543417Y-58800353D01*
X157435190Y-58783212D01*
X157348613Y-58769500D01*
X157151387Y-58769500D01*
X157073467Y-58781841D01*
X156956582Y-58800353D01*
X156956582Y-58800354D01*
X156769021Y-58861297D01*
X156769009Y-58861301D01*
X156593283Y-58950839D01*
X156433728Y-59066762D01*
X156294261Y-59206229D01*
X156219701Y-59308852D01*
X156159761Y-59357390D01*
X156083582Y-59369455D01*
X156011577Y-59341814D01*
X155966397Y-59288914D01*
X155952287Y-59261221D01*
X155817907Y-59076263D01*
X155656236Y-58914592D01*
X155471274Y-58780210D01*
X155471271Y-58780208D01*
X155460000Y-58774464D01*
X153959999Y-58774464D01*
X153948728Y-58780208D01*
X153948725Y-58780210D01*
X153763763Y-58914592D01*
X153602092Y-59076263D01*
X153467712Y-59261222D01*
X153437763Y-59320000D01*
X149492999Y-59320000D01*
X149492999Y-59025136D01*
X149490085Y-59000009D01*
X149444706Y-58897235D01*
X149365265Y-58817794D01*
X149365264Y-58817793D01*
X149262494Y-58772416D01*
X149262491Y-58772415D01*
X149262482Y-58772414D01*
X149237365Y-58769500D01*
X149237359Y-58769500D01*
X147242633Y-58769500D01*
X147217510Y-58772414D01*
X147217507Y-58772415D01*
X147114735Y-58817793D01*
X147035293Y-58897235D01*
X146989916Y-59000005D01*
X146989915Y-59000008D01*
X146989915Y-59000009D01*
X146987000Y-59025135D01*
X146987000Y-59025136D01*
X146987000Y-59025140D01*
X146987000Y-59203596D01*
X146967038Y-59278096D01*
X146912500Y-59332634D01*
X146838000Y-59352596D01*
X146763500Y-59332634D01*
X146717457Y-59291177D01*
X146655738Y-59206229D01*
X146655737Y-59206228D01*
X146655735Y-59206225D01*
X146516275Y-59066765D01*
X146356715Y-58950838D01*
X146273690Y-58908534D01*
X146180990Y-58861301D01*
X146180986Y-58861299D01*
X146180985Y-58861299D01*
X146123724Y-58842693D01*
X145993417Y-58800354D01*
X145993417Y-58800353D01*
X145885190Y-58783212D01*
X145798613Y-58769500D01*
X145601387Y-58769500D01*
X145523467Y-58781841D01*
X145406582Y-58800353D01*
X145406582Y-58800354D01*
X145219021Y-58861297D01*
X145219009Y-58861301D01*
X145043283Y-58950839D01*
X144883728Y-59066762D01*
X144744262Y-59206228D01*
X144628339Y-59365783D01*
X144562760Y-59494489D01*
X144511151Y-59551806D01*
X144437798Y-59575640D01*
X144362355Y-59559604D01*
X144305038Y-59507995D01*
X144297240Y-59494489D01*
X144231662Y-59365785D01*
X144115735Y-59206225D01*
X143976275Y-59066765D01*
X143816715Y-58950838D01*
X143733690Y-58908534D01*
X143640990Y-58861301D01*
X143640986Y-58861299D01*
X143640985Y-58861299D01*
X143583724Y-58842693D01*
X143453417Y-58800354D01*
X143453417Y-58800353D01*
X143345190Y-58783212D01*
X143258613Y-58769500D01*
X143061387Y-58769500D01*
X142983467Y-58781841D01*
X142866582Y-58800353D01*
X142866582Y-58800354D01*
X142679021Y-58861297D01*
X142679009Y-58861301D01*
X142503283Y-58950839D01*
X142343728Y-59066762D01*
X142204262Y-59206228D01*
X142088339Y-59365783D01*
X141998801Y-59541509D01*
X141998797Y-59541521D01*
X141937854Y-59729082D01*
X141937853Y-59729082D01*
X141917482Y-59857708D01*
X141907000Y-59923887D01*
X141907000Y-60216113D01*
X141917482Y-60282292D01*
X141937853Y-60410917D01*
X141998797Y-60598478D01*
X141998801Y-60598490D01*
X142009761Y-60620000D01*
X142088338Y-60774215D01*
X142204265Y-60933775D01*
X142343725Y-61073235D01*
X142503285Y-61189162D01*
X142679015Y-61278701D01*
X142866582Y-61339645D01*
X142866582Y-61339646D01*
X142866587Y-61339646D01*
X142866588Y-61339647D01*
X143061387Y-61370500D01*
X143061391Y-61370500D01*
X143258609Y-61370500D01*
X143258613Y-61370500D01*
X143453412Y-61339647D01*
X143453413Y-61339646D01*
X143453417Y-61339646D01*
X143453417Y-61339645D01*
X143640985Y-61278701D01*
X143816715Y-61189162D01*
X143976275Y-61073235D01*
X144115735Y-60933775D01*
X144174956Y-60852263D01*
X144234896Y-60803726D01*
X144311075Y-60791660D01*
X144383080Y-60819300D01*
X144431618Y-60879240D01*
X144444500Y-60939844D01*
X144444500Y-61995500D01*
X144424538Y-62070000D01*
X144370000Y-62124538D01*
X144295500Y-62144500D01*
X124054500Y-62144500D01*
X123980000Y-62124538D01*
X123925462Y-62070000D01*
X123905500Y-61995500D01*
X123905500Y-61502641D01*
X123925462Y-61428141D01*
X123980000Y-61373603D01*
X124054500Y-61353641D01*
X124106695Y-61364652D01*
X124106698Y-61364643D01*
X124106869Y-61364689D01*
X124114686Y-61366338D01*
X124117509Y-61367585D01*
X124142635Y-61370500D01*
X126137364Y-61370499D01*
X126137366Y-61370499D01*
X126149927Y-61369042D01*
X126162491Y-61367585D01*
X126265265Y-61322206D01*
X126344706Y-61242765D01*
X126390085Y-61139991D01*
X126393000Y-61114865D01*
X126393000Y-60820000D01*
X130337763Y-60820000D01*
X130367712Y-60878777D01*
X130502092Y-61063736D01*
X130663763Y-61225407D01*
X130848726Y-61359790D01*
X130860000Y-61365534D01*
X130860000Y-60820000D01*
X130337763Y-60820000D01*
X126393000Y-60820000D01*
X126392999Y-59997591D01*
X131060000Y-59997591D01*
X131060000Y-60142409D01*
X131097482Y-60282292D01*
X131169890Y-60407708D01*
X131272292Y-60510110D01*
X131397708Y-60582518D01*
X131537591Y-60620000D01*
X131682409Y-60620000D01*
X131822292Y-60582518D01*
X131947708Y-60510110D01*
X132050110Y-60407708D01*
X132122518Y-60282292D01*
X132160000Y-60142409D01*
X132160000Y-59997591D01*
X132122518Y-59857708D01*
X132050110Y-59732292D01*
X131947708Y-59629890D01*
X131822292Y-59557482D01*
X131682409Y-59520000D01*
X131537591Y-59520000D01*
X131397708Y-59557482D01*
X131272292Y-59629890D01*
X131169890Y-59732292D01*
X131097482Y-59857708D01*
X131060000Y-59997591D01*
X126392999Y-59997591D01*
X126392999Y-59320000D01*
X130337763Y-59320000D01*
X130860000Y-59320000D01*
X130860000Y-58774465D01*
X130859999Y-58774464D01*
X132360000Y-58774464D01*
X132360000Y-61365533D01*
X132371273Y-61359790D01*
X132556236Y-61225407D01*
X132717907Y-61063736D01*
X132852287Y-60878778D01*
X132866396Y-60851087D01*
X132918004Y-60793768D01*
X132991356Y-60769932D01*
X133066799Y-60785966D01*
X133119701Y-60831148D01*
X133194258Y-60933767D01*
X133194262Y-60933771D01*
X133194265Y-60933775D01*
X133333725Y-61073235D01*
X133493285Y-61189162D01*
X133669015Y-61278701D01*
X133856582Y-61339645D01*
X133856582Y-61339646D01*
X133856587Y-61339646D01*
X133856588Y-61339647D01*
X134051387Y-61370500D01*
X134051391Y-61370500D01*
X134248609Y-61370500D01*
X134248613Y-61370500D01*
X134443412Y-61339647D01*
X134443413Y-61339646D01*
X134443417Y-61339646D01*
X134443417Y-61339645D01*
X134630985Y-61278701D01*
X134806715Y-61189162D01*
X134966275Y-61073235D01*
X135105735Y-60933775D01*
X135167459Y-60848818D01*
X135227395Y-60800283D01*
X135303573Y-60788217D01*
X135375579Y-60815856D01*
X135424118Y-60875796D01*
X135437000Y-60936400D01*
X135437000Y-61114866D01*
X135439914Y-61139989D01*
X135439915Y-61139992D01*
X135485293Y-61242764D01*
X135485294Y-61242765D01*
X135564735Y-61322206D01*
X135667509Y-61367585D01*
X135692635Y-61370500D01*
X137687364Y-61370499D01*
X137687366Y-61370499D01*
X137699927Y-61369042D01*
X137712491Y-61367585D01*
X137815265Y-61322206D01*
X137894706Y-61242765D01*
X137940085Y-61139991D01*
X137943000Y-61114865D01*
X137942999Y-59025136D01*
X137940085Y-59000009D01*
X137894706Y-58897235D01*
X137815265Y-58817794D01*
X137815264Y-58817793D01*
X137712494Y-58772416D01*
X137712491Y-58772415D01*
X137712482Y-58772414D01*
X137687365Y-58769500D01*
X137687359Y-58769500D01*
X135692633Y-58769500D01*
X135667510Y-58772414D01*
X135667507Y-58772415D01*
X135564735Y-58817793D01*
X135485293Y-58897235D01*
X135439916Y-59000005D01*
X135439915Y-59000008D01*
X135439915Y-59000009D01*
X135437000Y-59025135D01*
X135437000Y-59025136D01*
X135437000Y-59025140D01*
X135437000Y-59203596D01*
X135417038Y-59278096D01*
X135362500Y-59332634D01*
X135288000Y-59352596D01*
X135213500Y-59332634D01*
X135167457Y-59291177D01*
X135105738Y-59206229D01*
X135105737Y-59206228D01*
X135105735Y-59206225D01*
X134966275Y-59066765D01*
X134806715Y-58950838D01*
X134723690Y-58908534D01*
X134630990Y-58861301D01*
X134630986Y-58861299D01*
X134630985Y-58861299D01*
X134573724Y-58842693D01*
X134443417Y-58800354D01*
X134443417Y-58800353D01*
X134335190Y-58783212D01*
X134248613Y-58769500D01*
X134051387Y-58769500D01*
X133973467Y-58781841D01*
X133856582Y-58800353D01*
X133856582Y-58800354D01*
X133669021Y-58861297D01*
X133669009Y-58861301D01*
X133493283Y-58950839D01*
X133333728Y-59066762D01*
X133194261Y-59206229D01*
X133119701Y-59308852D01*
X133059761Y-59357390D01*
X132983582Y-59369455D01*
X132911577Y-59341814D01*
X132866397Y-59288914D01*
X132852287Y-59261221D01*
X132717907Y-59076263D01*
X132556236Y-58914592D01*
X132371274Y-58780210D01*
X132371271Y-58780208D01*
X132360000Y-58774464D01*
X130859999Y-58774464D01*
X130848728Y-58780208D01*
X130848725Y-58780210D01*
X130663763Y-58914592D01*
X130502092Y-59076263D01*
X130367712Y-59261222D01*
X130337763Y-59320000D01*
X126392999Y-59320000D01*
X126392999Y-59025136D01*
X126390085Y-59000009D01*
X126344706Y-58897235D01*
X126265265Y-58817794D01*
X126265264Y-58817793D01*
X126162494Y-58772416D01*
X126162491Y-58772415D01*
X126162482Y-58772414D01*
X126137365Y-58769500D01*
X126137359Y-58769500D01*
X124142633Y-58769500D01*
X124117510Y-58772414D01*
X124117507Y-58772415D01*
X124014735Y-58817793D01*
X123935293Y-58897235D01*
X123889916Y-59000005D01*
X123889915Y-59000008D01*
X123889915Y-59000009D01*
X123887000Y-59025135D01*
X123887000Y-59025136D01*
X123887000Y-59025140D01*
X123887000Y-59203596D01*
X123867038Y-59278096D01*
X123812500Y-59332634D01*
X123738000Y-59352596D01*
X123663500Y-59332634D01*
X123617457Y-59291177D01*
X123555738Y-59206229D01*
X123555737Y-59206228D01*
X123555735Y-59206225D01*
X123416275Y-59066765D01*
X123256715Y-58950838D01*
X123173690Y-58908534D01*
X123080990Y-58861301D01*
X123080986Y-58861299D01*
X123080985Y-58861299D01*
X123023724Y-58842693D01*
X122893417Y-58800354D01*
X122893417Y-58800353D01*
X122785190Y-58783212D01*
X122698613Y-58769500D01*
X122501387Y-58769500D01*
X122423467Y-58781841D01*
X122306582Y-58800353D01*
X122306582Y-58800354D01*
X122119021Y-58861297D01*
X122119009Y-58861301D01*
X121943283Y-58950839D01*
X121783728Y-59066762D01*
X121644262Y-59206228D01*
X121528339Y-59365783D01*
X121462760Y-59494489D01*
X121411151Y-59551806D01*
X121337798Y-59575640D01*
X121262355Y-59559604D01*
X121205038Y-59507995D01*
X121197240Y-59494489D01*
X121131662Y-59365785D01*
X121015735Y-59206225D01*
X120876275Y-59066765D01*
X120716715Y-58950838D01*
X120633690Y-58908534D01*
X120540990Y-58861301D01*
X120540986Y-58861299D01*
X120540985Y-58861299D01*
X120483724Y-58842693D01*
X120353417Y-58800354D01*
X120353417Y-58800353D01*
X120245190Y-58783212D01*
X120158613Y-58769500D01*
X119961387Y-58769500D01*
X119883467Y-58781841D01*
X119766582Y-58800353D01*
X119766582Y-58800354D01*
X119579021Y-58861297D01*
X119579009Y-58861301D01*
X119403283Y-58950839D01*
X119243728Y-59066762D01*
X119104262Y-59206228D01*
X118988339Y-59365783D01*
X118898801Y-59541509D01*
X118898797Y-59541521D01*
X118837854Y-59729082D01*
X118837853Y-59729082D01*
X118817482Y-59857708D01*
X118807000Y-59923887D01*
X118807000Y-60216113D01*
X118817482Y-60282292D01*
X118837853Y-60410917D01*
X118898797Y-60598478D01*
X118898801Y-60598490D01*
X118909761Y-60620000D01*
X118988338Y-60774215D01*
X119104265Y-60933775D01*
X119243725Y-61073235D01*
X119403285Y-61189162D01*
X119579015Y-61278701D01*
X119766582Y-61339645D01*
X119766582Y-61339646D01*
X119766587Y-61339646D01*
X119766588Y-61339647D01*
X119961387Y-61370500D01*
X119961391Y-61370500D01*
X120158609Y-61370500D01*
X120158613Y-61370500D01*
X120353412Y-61339647D01*
X120353413Y-61339646D01*
X120353417Y-61339646D01*
X120353417Y-61339645D01*
X120540985Y-61278701D01*
X120716715Y-61189162D01*
X120876275Y-61073235D01*
X121015735Y-60933775D01*
X121074956Y-60852263D01*
X121134896Y-60803726D01*
X121211075Y-60791660D01*
X121283080Y-60819300D01*
X121331618Y-60879240D01*
X121344500Y-60939844D01*
X121344500Y-64669371D01*
X121356546Y-64754308D01*
X121375722Y-64820552D01*
X121375724Y-64820557D01*
X121410911Y-64898793D01*
X121410914Y-64898798D01*
X123104359Y-67578766D01*
X124221460Y-69346640D01*
X124244381Y-69420283D01*
X124244500Y-69426232D01*
X124244500Y-75185649D01*
X124224538Y-75260149D01*
X124170000Y-75314687D01*
X124095500Y-75334649D01*
X124021000Y-75314687D01*
X123990141Y-75291008D01*
X123921848Y-75222715D01*
X123713806Y-75063078D01*
X123486701Y-74931959D01*
X123486699Y-74931958D01*
X123486697Y-74931957D01*
X123411154Y-74900666D01*
X123244416Y-74831600D01*
X123018255Y-74771002D01*
X122991116Y-74763730D01*
X122991114Y-74763729D01*
X122991108Y-74763728D01*
X122731123Y-74729500D01*
X122731120Y-74729500D01*
X122468880Y-74729500D01*
X122468876Y-74729500D01*
X122208892Y-74763728D01*
X122208889Y-74763728D01*
X121955584Y-74831600D01*
X121955583Y-74831600D01*
X121713298Y-74931959D01*
X121486193Y-75063078D01*
X121486192Y-75063078D01*
X121278151Y-75222715D01*
X121278151Y-75222716D01*
X121278149Y-75222718D01*
X121092718Y-75408149D01*
X121092716Y-75408151D01*
X121092715Y-75408151D01*
X120933078Y-75616192D01*
X120933078Y-75616193D01*
X120801959Y-75843298D01*
X120701600Y-76085583D01*
X120701600Y-76085584D01*
X120633728Y-76338889D01*
X120633728Y-76338892D01*
X120599500Y-76598876D01*
X120599500Y-76861123D01*
X120633728Y-77121107D01*
X120633728Y-77121110D01*
X120701600Y-77374415D01*
X120701600Y-77374416D01*
X120801959Y-77616701D01*
X120933078Y-77843806D01*
X120933078Y-77843807D01*
X121092715Y-78051848D01*
X121278151Y-78237284D01*
X121486193Y-78396921D01*
X121486197Y-78396924D01*
X121713303Y-78528043D01*
X121917809Y-78612752D01*
X121955583Y-78628399D01*
X122043332Y-78651910D01*
X122208884Y-78696270D01*
X122208890Y-78696270D01*
X122208891Y-78696271D01*
X122245834Y-78701134D01*
X122468877Y-78730499D01*
X122468878Y-78730500D01*
X122468880Y-78730500D01*
X122731122Y-78730500D01*
X122731122Y-78730499D01*
X122991108Y-78696271D01*
X122991110Y-78696271D01*
X122991111Y-78696270D01*
X122991116Y-78696270D01*
X123244415Y-78628399D01*
X123244416Y-78628399D01*
X123244417Y-78628398D01*
X123244419Y-78628398D01*
X123486697Y-78528043D01*
X123713803Y-78396924D01*
X123921848Y-78237284D01*
X123921849Y-78237284D01*
X123990141Y-78168992D01*
X124056936Y-78130428D01*
X124134064Y-78130428D01*
X124200859Y-78168992D01*
X124239423Y-78235787D01*
X124244500Y-78274351D01*
X124244500Y-79213390D01*
X124224538Y-79287890D01*
X124222369Y-79291525D01*
X114505059Y-95069654D01*
X114505049Y-95069671D01*
X114484893Y-95108330D01*
X114470872Y-95140662D01*
X114470863Y-95140683D01*
X114470858Y-95140696D01*
X114464203Y-95157369D01*
X114459730Y-95184120D01*
X114456171Y-95200011D01*
X114452746Y-95212144D01*
X114451810Y-95218955D01*
X114451795Y-95219068D01*
X114451736Y-95219500D01*
X114441263Y-95295688D01*
X109681407Y-95295688D01*
X109791650Y-95185445D01*
X110063878Y-94913215D01*
X110060365Y-94911760D01*
X109845121Y-94854087D01*
X109845104Y-94854084D01*
X109624184Y-94825000D01*
X109401325Y-94825000D01*
X109180405Y-94854084D01*
X109180392Y-94854086D01*
X108965136Y-94911764D01*
X108965132Y-94911765D01*
X108961630Y-94913215D01*
X104300500Y-94913215D01*
X104300500Y-76598876D01*
X109049500Y-76598876D01*
X109049500Y-76861123D01*
X109083728Y-77121107D01*
X109083728Y-77121110D01*
X109151600Y-77374415D01*
X109151600Y-77374416D01*
X109251959Y-77616701D01*
X109383078Y-77843806D01*
X109383078Y-77843807D01*
X109542715Y-78051848D01*
X109728151Y-78237284D01*
X109936193Y-78396921D01*
X109936197Y-78396924D01*
X110163303Y-78528043D01*
X110367809Y-78612752D01*
X110405583Y-78628399D01*
X110493332Y-78651910D01*
X110658884Y-78696270D01*
X110658890Y-78696270D01*
X110658891Y-78696271D01*
X110695834Y-78701134D01*
X110918877Y-78730499D01*
X110918878Y-78730500D01*
X110918880Y-78730500D01*
X111181122Y-78730500D01*
X111181122Y-78730499D01*
X111441108Y-78696271D01*
X111441110Y-78696271D01*
X111441111Y-78696270D01*
X111441116Y-78696270D01*
X111694415Y-78628399D01*
X111694416Y-78628399D01*
X111694417Y-78628398D01*
X111694419Y-78628398D01*
X111936697Y-78528043D01*
X112163803Y-78396924D01*
X112371848Y-78237284D01*
X112371849Y-78237284D01*
X112557284Y-78051849D01*
X112557284Y-78051848D01*
X112716921Y-77843807D01*
X112716921Y-77843806D01*
X112716924Y-77843803D01*
X112848043Y-77616697D01*
X112948398Y-77374419D01*
X113016270Y-77121116D01*
X113050500Y-76861120D01*
X113050500Y-76598880D01*
X113016270Y-76338884D01*
X112948398Y-76085581D01*
X112848043Y-75843303D01*
X112716924Y-75616197D01*
X112716921Y-75616193D01*
X112716921Y-75616192D01*
X112557284Y-75408151D01*
X112371848Y-75222715D01*
X112163806Y-75063078D01*
X111936701Y-74931959D01*
X111936699Y-74931958D01*
X111936697Y-74931957D01*
X111861154Y-74900666D01*
X111694416Y-74831600D01*
X111468255Y-74771002D01*
X111441116Y-74763730D01*
X111441114Y-74763729D01*
X111441108Y-74763728D01*
X111181123Y-74729500D01*
X111181120Y-74729500D01*
X110918880Y-74729500D01*
X110918876Y-74729500D01*
X110658892Y-74763728D01*
X110658889Y-74763728D01*
X110405584Y-74831600D01*
X110405583Y-74831600D01*
X110163298Y-74931959D01*
X109936193Y-75063078D01*
X109936192Y-75063078D01*
X109728151Y-75222715D01*
X109728151Y-75222716D01*
X109728149Y-75222718D01*
X109542718Y-75408149D01*
X109542716Y-75408151D01*
X109542715Y-75408151D01*
X109383078Y-75616192D01*
X109383078Y-75616193D01*
X109251959Y-75843298D01*
X109151600Y-76085583D01*
X109151600Y-76085584D01*
X109083728Y-76338889D01*
X109083728Y-76338892D01*
X109049500Y-76598876D01*
X104300500Y-76598876D01*
X104300500Y-60820000D01*
X107237763Y-60820000D01*
X107267712Y-60878777D01*
X107402092Y-61063736D01*
X107563763Y-61225407D01*
X107748726Y-61359790D01*
X107760000Y-61365534D01*
X107760000Y-60820000D01*
X107237763Y-60820000D01*
X104300500Y-60820000D01*
X104300500Y-59997591D01*
X107960000Y-59997591D01*
X107960000Y-60142409D01*
X107997482Y-60282292D01*
X108069890Y-60407708D01*
X108172292Y-60510110D01*
X108297708Y-60582518D01*
X108437591Y-60620000D01*
X108582409Y-60620000D01*
X108722292Y-60582518D01*
X108847708Y-60510110D01*
X108950110Y-60407708D01*
X109022518Y-60282292D01*
X109060000Y-60142409D01*
X109060000Y-59997591D01*
X109022518Y-59857708D01*
X108950110Y-59732292D01*
X108847708Y-59629890D01*
X108722292Y-59557482D01*
X108582409Y-59520000D01*
X108437591Y-59520000D01*
X108297708Y-59557482D01*
X108172292Y-59629890D01*
X108069890Y-59732292D01*
X107997482Y-59857708D01*
X107960000Y-59997591D01*
X104300500Y-59997591D01*
X104300500Y-59320000D01*
X107237763Y-59320000D01*
X107760000Y-59320000D01*
X107760000Y-58774465D01*
X107759999Y-58774464D01*
X109260000Y-58774464D01*
X109260000Y-61365533D01*
X109271273Y-61359790D01*
X109456236Y-61225407D01*
X109617907Y-61063736D01*
X109752287Y-60878778D01*
X109766396Y-60851087D01*
X109818004Y-60793768D01*
X109891356Y-60769932D01*
X109966799Y-60785966D01*
X110019701Y-60831148D01*
X110094258Y-60933767D01*
X110094262Y-60933771D01*
X110094265Y-60933775D01*
X110233725Y-61073235D01*
X110393285Y-61189162D01*
X110569015Y-61278701D01*
X110756582Y-61339645D01*
X110756582Y-61339646D01*
X110756587Y-61339646D01*
X110756588Y-61339647D01*
X110951387Y-61370500D01*
X110951391Y-61370500D01*
X111148609Y-61370500D01*
X111148613Y-61370500D01*
X111343412Y-61339647D01*
X111343413Y-61339646D01*
X111343417Y-61339646D01*
X111343417Y-61339645D01*
X111530985Y-61278701D01*
X111706715Y-61189162D01*
X111866275Y-61073235D01*
X112005735Y-60933775D01*
X112067459Y-60848818D01*
X112127395Y-60800283D01*
X112203573Y-60788217D01*
X112275579Y-60815856D01*
X112324118Y-60875796D01*
X112337000Y-60936400D01*
X112337000Y-61114866D01*
X112339914Y-61139989D01*
X112339915Y-61139992D01*
X112385293Y-61242764D01*
X112385294Y-61242765D01*
X112464735Y-61322206D01*
X112567509Y-61367585D01*
X112592635Y-61370500D01*
X114587364Y-61370499D01*
X114587366Y-61370499D01*
X114599927Y-61369042D01*
X114612491Y-61367585D01*
X114715265Y-61322206D01*
X114794706Y-61242765D01*
X114840085Y-61139991D01*
X114843000Y-61114865D01*
X114842999Y-59025136D01*
X114840085Y-59000009D01*
X114794706Y-58897235D01*
X114715265Y-58817794D01*
X114715264Y-58817793D01*
X114612494Y-58772416D01*
X114612491Y-58772415D01*
X114612482Y-58772414D01*
X114587365Y-58769500D01*
X114587359Y-58769500D01*
X112592633Y-58769500D01*
X112567510Y-58772414D01*
X112567507Y-58772415D01*
X112464735Y-58817793D01*
X112385293Y-58897235D01*
X112339916Y-59000005D01*
X112339915Y-59000008D01*
X112339915Y-59000009D01*
X112337000Y-59025135D01*
X112337000Y-59025136D01*
X112337000Y-59025140D01*
X112337000Y-59203596D01*
X112317038Y-59278096D01*
X112262500Y-59332634D01*
X112188000Y-59352596D01*
X112113500Y-59332634D01*
X112067457Y-59291177D01*
X112005738Y-59206229D01*
X112005737Y-59206228D01*
X112005735Y-59206225D01*
X111866275Y-59066765D01*
X111706715Y-58950838D01*
X111623690Y-58908534D01*
X111530990Y-58861301D01*
X111530986Y-58861299D01*
X111530985Y-58861299D01*
X111473724Y-58842693D01*
X111343417Y-58800354D01*
X111343417Y-58800353D01*
X111235190Y-58783212D01*
X111148613Y-58769500D01*
X110951387Y-58769500D01*
X110873467Y-58781841D01*
X110756582Y-58800353D01*
X110756582Y-58800354D01*
X110569021Y-58861297D01*
X110569009Y-58861301D01*
X110393283Y-58950839D01*
X110233728Y-59066762D01*
X110094261Y-59206229D01*
X110019701Y-59308852D01*
X109959761Y-59357390D01*
X109883582Y-59369455D01*
X109811577Y-59341814D01*
X109766397Y-59288914D01*
X109752287Y-59261221D01*
X109617907Y-59076263D01*
X109456236Y-58914592D01*
X109271274Y-58780210D01*
X109271271Y-58780208D01*
X109260000Y-58774464D01*
X107759999Y-58774464D01*
X107748728Y-58780208D01*
X107748725Y-58780210D01*
X107563763Y-58914592D01*
X107402092Y-59076263D01*
X107267712Y-59261222D01*
X107237763Y-59320000D01*
X104300500Y-59320000D01*
X104300500Y-47569173D01*
X104320462Y-47494673D01*
X104375000Y-47440135D01*
X104449500Y-47420173D01*
X104524000Y-47440135D01*
X104578538Y-47494673D01*
X104583730Y-47504497D01*
X104603131Y-47544783D01*
X104603133Y-47544787D01*
X104752885Y-47783117D01*
X104928389Y-48003191D01*
X105127425Y-48202227D01*
X105347499Y-48377731D01*
X105506388Y-48477567D01*
X105585834Y-48527486D01*
X105839439Y-48649616D01*
X106105125Y-48742583D01*
X106251714Y-48776040D01*
X106379542Y-48805217D01*
X106379545Y-48805217D01*
X106379548Y-48805218D01*
X106659259Y-48836734D01*
X106940741Y-48836734D01*
X107220452Y-48805218D01*
X107220455Y-48805217D01*
X107220457Y-48805217D01*
X107269315Y-48794065D01*
X107494875Y-48742583D01*
X107760561Y-48649616D01*
X108014166Y-48527486D01*
X108252503Y-48377729D01*
X108472574Y-48202228D01*
X108671611Y-48003191D01*
X108847112Y-47783120D01*
X108877615Y-47734575D01*
X129299500Y-47734575D01*
X129299500Y-48015424D01*
X129330945Y-48294513D01*
X129393438Y-48568312D01*
X129393439Y-48568314D01*
X129393440Y-48568318D01*
X129454418Y-48742581D01*
X129486198Y-48833404D01*
X129486198Y-48833405D01*
X129608051Y-49086438D01*
X129608055Y-49086445D01*
X129757474Y-49324245D01*
X129832522Y-49418352D01*
X129932584Y-49543825D01*
X130131175Y-49742416D01*
X130288015Y-49867492D01*
X130350754Y-49917525D01*
X130509287Y-50017137D01*
X130588555Y-50066945D01*
X130841592Y-50188801D01*
X131106682Y-50281560D01*
X131243586Y-50312807D01*
X131380486Y-50344054D01*
X131380487Y-50344054D01*
X131380491Y-50344055D01*
X131659575Y-50375500D01*
X131940425Y-50375500D01*
X132219509Y-50344055D01*
X132493318Y-50281560D01*
X132758408Y-50188801D01*
X133011445Y-50066945D01*
X133249248Y-49917523D01*
X133468825Y-49742416D01*
X133667416Y-49543825D01*
X133842523Y-49324248D01*
X133991945Y-49086445D01*
X134113801Y-48833408D01*
X134206560Y-48568318D01*
X134269055Y-48294509D01*
X134300500Y-48015425D01*
X134300500Y-47734575D01*
X137299500Y-47734575D01*
X137299500Y-48015424D01*
X137330945Y-48294513D01*
X137393438Y-48568312D01*
X137393439Y-48568314D01*
X137393440Y-48568318D01*
X137454418Y-48742581D01*
X137486198Y-48833404D01*
X137486198Y-48833405D01*
X137608051Y-49086438D01*
X137608055Y-49086445D01*
X137757474Y-49324245D01*
X137832522Y-49418352D01*
X137932584Y-49543825D01*
X138131175Y-49742416D01*
X138288015Y-49867492D01*
X138350754Y-49917525D01*
X138509287Y-50017137D01*
X138588555Y-50066945D01*
X138841592Y-50188801D01*
X139106682Y-50281560D01*
X139243586Y-50312807D01*
X139380486Y-50344054D01*
X139380487Y-50344054D01*
X139380491Y-50344055D01*
X139659575Y-50375500D01*
X139940425Y-50375500D01*
X140219509Y-50344055D01*
X140493318Y-50281560D01*
X140758408Y-50188801D01*
X141011445Y-50066945D01*
X141249248Y-49917523D01*
X141468825Y-49742416D01*
X141667416Y-49543825D01*
X141842523Y-49324248D01*
X141991945Y-49086445D01*
X142113801Y-48833408D01*
X142206560Y-48568318D01*
X142269055Y-48294509D01*
X142300500Y-48015425D01*
X142300500Y-47734575D01*
X145299500Y-47734575D01*
X145299500Y-48015424D01*
X145330945Y-48294513D01*
X145393438Y-48568312D01*
X145393439Y-48568314D01*
X145393440Y-48568318D01*
X145454418Y-48742581D01*
X145486198Y-48833404D01*
X145486198Y-48833405D01*
X145608051Y-49086438D01*
X145608055Y-49086445D01*
X145757474Y-49324245D01*
X145832522Y-49418352D01*
X145932584Y-49543825D01*
X146131175Y-49742416D01*
X146288015Y-49867492D01*
X146350754Y-49917525D01*
X146509287Y-50017137D01*
X146588555Y-50066945D01*
X146841592Y-50188801D01*
X147106682Y-50281560D01*
X147243586Y-50312807D01*
X147380486Y-50344054D01*
X147380487Y-50344054D01*
X147380491Y-50344055D01*
X147659575Y-50375500D01*
X147940425Y-50375500D01*
X148219509Y-50344055D01*
X148493318Y-50281560D01*
X148758408Y-50188801D01*
X149011445Y-50066945D01*
X149249248Y-49917523D01*
X149468825Y-49742416D01*
X149667416Y-49543825D01*
X149842523Y-49324248D01*
X149991945Y-49086445D01*
X150113801Y-48833408D01*
X150206560Y-48568318D01*
X150269055Y-48294509D01*
X150300500Y-48015425D01*
X150300500Y-47734575D01*
X150269055Y-47455491D01*
X150206560Y-47181682D01*
X150113801Y-46916592D01*
X149991945Y-46663555D01*
X149908080Y-46530085D01*
X149842525Y-46425754D01*
X149792492Y-46363015D01*
X149667416Y-46206175D01*
X149468825Y-46007584D01*
X149343352Y-45907522D01*
X149249245Y-45832474D01*
X149011445Y-45683055D01*
X149011438Y-45683051D01*
X148863209Y-45611668D01*
X148758408Y-45561199D01*
X148493318Y-45468440D01*
X148493314Y-45468439D01*
X148493312Y-45468438D01*
X148219513Y-45405945D01*
X147940425Y-45374500D01*
X147659575Y-45374500D01*
X147380486Y-45405945D01*
X147106687Y-45468438D01*
X147106685Y-45468439D01*
X146841595Y-45561198D01*
X146841594Y-45561198D01*
X146588561Y-45683051D01*
X146588554Y-45683055D01*
X146350754Y-45832474D01*
X146131170Y-46007588D01*
X145932588Y-46206170D01*
X145757474Y-46425754D01*
X145608055Y-46663554D01*
X145608051Y-46663561D01*
X145486198Y-46916594D01*
X145486198Y-46916595D01*
X145393439Y-47181685D01*
X145393438Y-47181687D01*
X145330945Y-47455486D01*
X145299500Y-47734575D01*
X142300500Y-47734575D01*
X142269055Y-47455491D01*
X142206560Y-47181682D01*
X142113801Y-46916592D01*
X141991945Y-46663555D01*
X141908080Y-46530085D01*
X141842525Y-46425754D01*
X141792492Y-46363015D01*
X141667416Y-46206175D01*
X141468825Y-46007584D01*
X141343352Y-45907522D01*
X141249245Y-45832474D01*
X141011445Y-45683055D01*
X141011438Y-45683051D01*
X140863209Y-45611668D01*
X140758408Y-45561199D01*
X140493318Y-45468440D01*
X140493314Y-45468439D01*
X140493312Y-45468438D01*
X140219513Y-45405945D01*
X139940425Y-45374500D01*
X139659575Y-45374500D01*
X139380486Y-45405945D01*
X139106687Y-45468438D01*
X139106685Y-45468439D01*
X138841595Y-45561198D01*
X138841594Y-45561198D01*
X138588561Y-45683051D01*
X138588554Y-45683055D01*
X138350754Y-45832474D01*
X138131170Y-46007588D01*
X137932588Y-46206170D01*
X137757474Y-46425754D01*
X137608055Y-46663554D01*
X137608051Y-46663561D01*
X137486198Y-46916594D01*
X137486198Y-46916595D01*
X137393439Y-47181685D01*
X137393438Y-47181687D01*
X137330945Y-47455486D01*
X137299500Y-47734575D01*
X134300500Y-47734575D01*
X134269055Y-47455491D01*
X134206560Y-47181682D01*
X134113801Y-46916592D01*
X133991945Y-46663555D01*
X133908080Y-46530085D01*
X133842525Y-46425754D01*
X133792492Y-46363015D01*
X133667416Y-46206175D01*
X133468825Y-46007584D01*
X133343352Y-45907522D01*
X133249245Y-45832474D01*
X133011445Y-45683055D01*
X133011438Y-45683051D01*
X132863209Y-45611668D01*
X132758408Y-45561199D01*
X132493318Y-45468440D01*
X132493314Y-45468439D01*
X132493312Y-45468438D01*
X132219513Y-45405945D01*
X131940425Y-45374500D01*
X131659575Y-45374500D01*
X131380486Y-45405945D01*
X131106687Y-45468438D01*
X131106685Y-45468439D01*
X130841595Y-45561198D01*
X130841594Y-45561198D01*
X130588561Y-45683051D01*
X130588554Y-45683055D01*
X130350754Y-45832474D01*
X130131170Y-46007588D01*
X129932588Y-46206170D01*
X129757474Y-46425754D01*
X129608055Y-46663554D01*
X129608051Y-46663561D01*
X129486198Y-46916594D01*
X129486198Y-46916595D01*
X129393439Y-47181685D01*
X129393438Y-47181687D01*
X129330945Y-47455486D01*
X129299500Y-47734575D01*
X108877615Y-47734575D01*
X108996869Y-47544783D01*
X109118999Y-47291178D01*
X109211966Y-47025492D01*
X109274601Y-46751069D01*
X109306117Y-46471358D01*
X109306117Y-46189876D01*
X109274601Y-45910165D01*
X109211966Y-45635742D01*
X109118999Y-45370056D01*
X108996869Y-45116451D01*
X108946950Y-45037005D01*
X108847114Y-44878116D01*
X108671610Y-44658042D01*
X108472574Y-44459006D01*
X108252499Y-44283502D01*
X108252493Y-44283498D01*
X108041085Y-44150662D01*
X107988624Y-44094123D01*
X107971461Y-44018929D01*
X107994195Y-43945228D01*
X108050734Y-43892767D01*
X108120357Y-43875500D01*
X171429643Y-43875500D01*
X171504143Y-43895462D01*
G37*
%TD.AperFunction*%
%TD*%
%TA.AperFunction,Conductor*%
%TO.N,+33V*%
G36*
X122050000Y-60142409D02*
G01*
X122087482Y-60282292D01*
X122159890Y-60407708D01*
X122262292Y-60510110D01*
X122387708Y-60582518D01*
X122527591Y-60620000D01*
X122672409Y-60620000D01*
X122812292Y-60582518D01*
X122937708Y-60510110D01*
X123040110Y-60407708D01*
X123112518Y-60282292D01*
X123150000Y-60142409D01*
X123150000Y-60070000D01*
X123428500Y-60070000D01*
X123495539Y-60089685D01*
X123541294Y-60142489D01*
X123552500Y-60194000D01*
X123552500Y-61230521D01*
X123577856Y-61250954D01*
X123599921Y-61317248D01*
X123600000Y-61321674D01*
X123600000Y-62450000D01*
X144750000Y-62450000D01*
X144750000Y-60185486D01*
X144767185Y-60126961D01*
X144819989Y-60081206D01*
X144871500Y-60070000D01*
X145150000Y-60070000D01*
X145150000Y-60142409D01*
X145187482Y-60282292D01*
X145259890Y-60407708D01*
X145362292Y-60510110D01*
X145487708Y-60582518D01*
X145627591Y-60620000D01*
X145772409Y-60620000D01*
X145912292Y-60582518D01*
X146037708Y-60510110D01*
X146140110Y-60407708D01*
X146212518Y-60282292D01*
X146250000Y-60142409D01*
X146250000Y-60070000D01*
X146528500Y-60070000D01*
X146595539Y-60089685D01*
X146641294Y-60142489D01*
X146652500Y-60194000D01*
X146652500Y-61230521D01*
X146677856Y-61250954D01*
X146699921Y-61317248D01*
X146700000Y-61321674D01*
X146700000Y-62450000D01*
X167872340Y-62450000D01*
X167872341Y-62450000D01*
X167847500Y-61282482D01*
X167847500Y-60194000D01*
X167867185Y-60126961D01*
X167919989Y-60081206D01*
X167971500Y-60070000D01*
X168250000Y-60070000D01*
X168250000Y-60142409D01*
X168287482Y-60282292D01*
X168359890Y-60407708D01*
X168462292Y-60510110D01*
X168587708Y-60582518D01*
X168727591Y-60620000D01*
X168872409Y-60620000D01*
X169012292Y-60582518D01*
X169137708Y-60510110D01*
X169240110Y-60407708D01*
X169312518Y-60282292D01*
X169350000Y-60142409D01*
X169350000Y-60070000D01*
X169628500Y-60070000D01*
X169695539Y-60089685D01*
X169741294Y-60142489D01*
X169752500Y-60194000D01*
X169752500Y-61254712D01*
X169769059Y-61304459D01*
X169769134Y-61307838D01*
X169786375Y-63342206D01*
X169767259Y-63409410D01*
X169737703Y-63441757D01*
X161940954Y-69403978D01*
X161875743Y-69429065D01*
X161865542Y-69429478D01*
X132100000Y-69408355D01*
X132100000Y-81710538D01*
X132080315Y-81777577D01*
X132080061Y-81777972D01*
X122795300Y-96105726D01*
X122825275Y-115150346D01*
X122805696Y-115217416D01*
X122752964Y-115263254D01*
X122701184Y-115274541D01*
X114907421Y-115268809D01*
X114840396Y-115249075D01*
X114794680Y-115196237D01*
X114783512Y-115145039D01*
X114782082Y-114372844D01*
X115312755Y-114372844D01*
X115319156Y-114432372D01*
X115319158Y-114432379D01*
X115369400Y-114567086D01*
X115369404Y-114567093D01*
X115455564Y-114682187D01*
X115455567Y-114682190D01*
X115570661Y-114768350D01*
X115570668Y-114768354D01*
X115705375Y-114818596D01*
X115705382Y-114818598D01*
X115764910Y-114824999D01*
X115764927Y-114825000D01*
X116012755Y-114825000D01*
X118012755Y-114825000D01*
X118260583Y-114825000D01*
X118260599Y-114824999D01*
X118320127Y-114818598D01*
X118320134Y-114818596D01*
X118454841Y-114768354D01*
X118454848Y-114768350D01*
X118569942Y-114682190D01*
X118569945Y-114682187D01*
X118656105Y-114567093D01*
X118656109Y-114567086D01*
X118706351Y-114432379D01*
X118706353Y-114432372D01*
X118712754Y-114372844D01*
X118712755Y-114372827D01*
X118712755Y-114125000D01*
X118012755Y-114125000D01*
X118012755Y-114825000D01*
X116012755Y-114825000D01*
X116012755Y-114125000D01*
X115312755Y-114125000D01*
X115312755Y-114372844D01*
X114782082Y-114372844D01*
X114781529Y-114073868D01*
X114779626Y-113046009D01*
X116412755Y-113046009D01*
X116412755Y-113203991D01*
X116453644Y-113356591D01*
X116532636Y-113493408D01*
X116644347Y-113605119D01*
X116781164Y-113684111D01*
X116933764Y-113725000D01*
X117091746Y-113725000D01*
X117244346Y-113684111D01*
X117381163Y-113605119D01*
X117492874Y-113493408D01*
X117571866Y-113356591D01*
X117612755Y-113203991D01*
X117612755Y-113046009D01*
X117571866Y-112893409D01*
X117492874Y-112756592D01*
X117381163Y-112644881D01*
X117244346Y-112565889D01*
X117091746Y-112525000D01*
X116933764Y-112525000D01*
X116781164Y-112565889D01*
X116644347Y-112644881D01*
X116532636Y-112756592D01*
X116453644Y-112893409D01*
X116412755Y-113046009D01*
X114779626Y-113046009D01*
X114777462Y-111877155D01*
X115312755Y-111877155D01*
X115312755Y-112125000D01*
X116012755Y-112125000D01*
X118012755Y-112125000D01*
X118712755Y-112125000D01*
X118712755Y-111877172D01*
X118712754Y-111877155D01*
X118706353Y-111817627D01*
X118706351Y-111817620D01*
X118656109Y-111682913D01*
X118656105Y-111682906D01*
X118569945Y-111567812D01*
X118569942Y-111567809D01*
X118454848Y-111481649D01*
X118454841Y-111481645D01*
X118320134Y-111431403D01*
X118320127Y-111431401D01*
X118260599Y-111425000D01*
X118012755Y-111425000D01*
X118012755Y-112125000D01*
X116012755Y-112125000D01*
X116012755Y-111425000D01*
X115764910Y-111425000D01*
X115705382Y-111431401D01*
X115705375Y-111431403D01*
X115570668Y-111481645D01*
X115570661Y-111481649D01*
X115455567Y-111567809D01*
X115455564Y-111567812D01*
X115369404Y-111682906D01*
X115369400Y-111682913D01*
X115319158Y-111817620D01*
X115319156Y-111817627D01*
X115312755Y-111877155D01*
X114777462Y-111877155D01*
X114777456Y-111874081D01*
X114777351Y-111817627D01*
X114751460Y-97832372D01*
X114751350Y-97772844D01*
X115312755Y-97772844D01*
X115319156Y-97832372D01*
X115319158Y-97832379D01*
X115369400Y-97967086D01*
X115369404Y-97967093D01*
X115455564Y-98082187D01*
X115455567Y-98082190D01*
X115570661Y-98168350D01*
X115570668Y-98168354D01*
X115705375Y-98218596D01*
X115705382Y-98218598D01*
X115764910Y-98224999D01*
X115764927Y-98225000D01*
X116012755Y-98225000D01*
X118012755Y-98225000D01*
X118260583Y-98225000D01*
X118260599Y-98224999D01*
X118320127Y-98218598D01*
X118320134Y-98218596D01*
X118454841Y-98168354D01*
X118454848Y-98168350D01*
X118569942Y-98082190D01*
X118569945Y-98082187D01*
X118656105Y-97967093D01*
X118656109Y-97967086D01*
X118706351Y-97832379D01*
X118706353Y-97832372D01*
X118712754Y-97772844D01*
X118712755Y-97772827D01*
X118712755Y-97525000D01*
X118012755Y-97525000D01*
X118012755Y-98225000D01*
X116012755Y-98225000D01*
X116012755Y-97525000D01*
X115312755Y-97525000D01*
X115312755Y-97772844D01*
X114751350Y-97772844D01*
X114750796Y-97473868D01*
X114748893Y-96446009D01*
X116412755Y-96446009D01*
X116412755Y-96603991D01*
X116453644Y-96756591D01*
X116532636Y-96893408D01*
X116644347Y-97005119D01*
X116781164Y-97084111D01*
X116933764Y-97125000D01*
X117091746Y-97125000D01*
X117244346Y-97084111D01*
X117381163Y-97005119D01*
X117492874Y-96893408D01*
X117571866Y-96756591D01*
X117612755Y-96603991D01*
X117612755Y-96446009D01*
X117571866Y-96293409D01*
X117492874Y-96156592D01*
X117381163Y-96044881D01*
X117244346Y-95965889D01*
X117091746Y-95925000D01*
X116933764Y-95925000D01*
X116781164Y-95965889D01*
X116644347Y-96044881D01*
X116532636Y-96156592D01*
X116453644Y-96293409D01*
X116412755Y-96446009D01*
X114748893Y-96446009D01*
X114746762Y-95295122D01*
X114751449Y-95278515D01*
X114751423Y-95277155D01*
X115312755Y-95277155D01*
X115312755Y-95525000D01*
X116012755Y-95525000D01*
X118012755Y-95525000D01*
X118712755Y-95525000D01*
X118712755Y-95277172D01*
X118712754Y-95277155D01*
X118706353Y-95217627D01*
X118706351Y-95217620D01*
X118656109Y-95082913D01*
X118656105Y-95082906D01*
X118569945Y-94967812D01*
X118569942Y-94967809D01*
X118454848Y-94881649D01*
X118454841Y-94881645D01*
X118320134Y-94831403D01*
X118320127Y-94831401D01*
X118260599Y-94825000D01*
X118012755Y-94825000D01*
X118012755Y-95525000D01*
X116012755Y-95525000D01*
X116012755Y-94825000D01*
X115764910Y-94825000D01*
X115705382Y-94831401D01*
X115705375Y-94831403D01*
X115570668Y-94881645D01*
X115570661Y-94881649D01*
X115455567Y-94967809D01*
X115455564Y-94967812D01*
X115369404Y-95082906D01*
X115369400Y-95082913D01*
X115319158Y-95217620D01*
X115319156Y-95217627D01*
X115312755Y-95277155D01*
X114751423Y-95277155D01*
X114751137Y-95262245D01*
X114765178Y-95229868D01*
X124550000Y-79342119D01*
X124550000Y-77198161D01*
X124554225Y-77166068D01*
X124566270Y-77121116D01*
X124600500Y-76861120D01*
X124600500Y-76598880D01*
X124566270Y-76338884D01*
X124554225Y-76293930D01*
X124550000Y-76261838D01*
X124550000Y-69294669D01*
X124549999Y-69294668D01*
X121669174Y-64735603D01*
X121650000Y-64669365D01*
X121650000Y-61669389D01*
X121650000Y-61400000D01*
X121650000Y-60185486D01*
X121667185Y-60126961D01*
X121719989Y-60081206D01*
X121771500Y-60070000D01*
X122050000Y-60070000D01*
X122050000Y-60142409D01*
G37*
%TD.AperFunction*%
%TD*%
%TA.AperFunction,Conductor*%
%TO.N,/Vin*%
G36*
X118518612Y-131376274D02*
G01*
X118740603Y-131405500D01*
X119009397Y-131405500D01*
X119231387Y-131376274D01*
X119250834Y-131375000D01*
X130451000Y-131375000D01*
X130525500Y-131394962D01*
X130580038Y-131449500D01*
X130600000Y-131524000D01*
X130600000Y-140426000D01*
X130580038Y-140500500D01*
X130525500Y-140555038D01*
X130451000Y-140575000D01*
X117049000Y-140575000D01*
X116974500Y-140555038D01*
X116919962Y-140500500D01*
X116900000Y-140426000D01*
X116900000Y-131524000D01*
X116919962Y-131449500D01*
X116974500Y-131394962D01*
X117049000Y-131375000D01*
X118499166Y-131375000D01*
X118518612Y-131376274D01*
G37*
%TD.AperFunction*%
%TD*%
M02*
