%TF.GenerationSoftware,KiCad,Pcbnew,9.0.0*%
%TF.CreationDate,2025-05-24T01:38:51+03:00*%
%TF.ProjectId,Inverter,496e7665-7274-4657-922e-6b696361645f,rev?*%
%TF.SameCoordinates,Original*%
%TF.FileFunction,Legend,Top*%
%TF.FilePolarity,Positive*%
%FSLAX46Y46*%
G04 Gerber Fmt 4.6, Leading zero omitted, Abs format (unit mm)*
G04 Created by KiCad (PCBNEW 9.0.0) date 2025-05-24 01:38:51*
%MOMM*%
%LPD*%
G01*
G04 APERTURE LIST*
%ADD10C,0.300000*%
%ADD11C,0.150000*%
%ADD12C,0.120000*%
%ADD13C,0.127000*%
G04 APERTURE END LIST*
D10*
G36*
X129069485Y-47436756D02*
G01*
X126610965Y-47436756D01*
X126610965Y-45070245D01*
X126833187Y-45070245D01*
X126837161Y-45099381D01*
X127313351Y-47099381D01*
X127316812Y-47109424D01*
X127317291Y-47113024D01*
X127319174Y-47116277D01*
X127322933Y-47127182D01*
X127335704Y-47144829D01*
X127346614Y-47163674D01*
X127352729Y-47168355D01*
X127357246Y-47174596D01*
X127375796Y-47186011D01*
X127393089Y-47199248D01*
X127400530Y-47201232D01*
X127407090Y-47205269D01*
X127428597Y-47208717D01*
X127449641Y-47214329D01*
X127457273Y-47213314D01*
X127464879Y-47214534D01*
X127486074Y-47209487D01*
X127507658Y-47206619D01*
X127514320Y-47202761D01*
X127521816Y-47200977D01*
X127539463Y-47188205D01*
X127558308Y-47177296D01*
X127562989Y-47171180D01*
X127569230Y-47166664D01*
X127580645Y-47148113D01*
X127593882Y-47130821D01*
X127597929Y-47120026D01*
X127599903Y-47116820D01*
X127600478Y-47113229D01*
X127604207Y-47103287D01*
X127840224Y-46218221D01*
X128076242Y-47103287D01*
X128079970Y-47113229D01*
X128080546Y-47116820D01*
X128082519Y-47120027D01*
X128086567Y-47130820D01*
X128099801Y-47148110D01*
X128111219Y-47166664D01*
X128117460Y-47171180D01*
X128122141Y-47177296D01*
X128140987Y-47188206D01*
X128158633Y-47200977D01*
X128166126Y-47202761D01*
X128172790Y-47206619D01*
X128194381Y-47209488D01*
X128215570Y-47214533D01*
X128223172Y-47213314D01*
X128230808Y-47214329D01*
X128251855Y-47208716D01*
X128273359Y-47205269D01*
X128279918Y-47201232D01*
X128287360Y-47199248D01*
X128304652Y-47186011D01*
X128323203Y-47174596D01*
X128327719Y-47168355D01*
X128333835Y-47163674D01*
X128344744Y-47144829D01*
X128357516Y-47127182D01*
X128361274Y-47116277D01*
X128363158Y-47113024D01*
X128363636Y-47109424D01*
X128367098Y-47099381D01*
X128843289Y-45099381D01*
X128847263Y-45070245D01*
X128837999Y-45012456D01*
X128807326Y-44962612D01*
X128759912Y-44928299D01*
X128702975Y-44914743D01*
X128645186Y-44924007D01*
X128595342Y-44954681D01*
X128561029Y-45002094D01*
X128551447Y-45029895D01*
X128212943Y-46451606D01*
X127985160Y-45597417D01*
X127982590Y-45590564D01*
X127982207Y-45587679D01*
X127980223Y-45584253D01*
X127974835Y-45569883D01*
X127962804Y-45554166D01*
X127952883Y-45537029D01*
X127945165Y-45531121D01*
X127939261Y-45523408D01*
X127922134Y-45513492D01*
X127906408Y-45501455D01*
X127897016Y-45498950D01*
X127888612Y-45494085D01*
X127868991Y-45491477D01*
X127849856Y-45486375D01*
X127840224Y-45487654D01*
X127830594Y-45486375D01*
X127811465Y-45491476D01*
X127791839Y-45494084D01*
X127783429Y-45498952D01*
X127774042Y-45501456D01*
X127758321Y-45513488D01*
X127741189Y-45523408D01*
X127735282Y-45531123D01*
X127727567Y-45537030D01*
X127717648Y-45554162D01*
X127705615Y-45569883D01*
X127700223Y-45584259D01*
X127698244Y-45587679D01*
X127697861Y-45590559D01*
X127695290Y-45597416D01*
X127467505Y-46451607D01*
X127129003Y-45029895D01*
X127119421Y-45002094D01*
X127085108Y-44954681D01*
X127035264Y-44924007D01*
X126977475Y-44914743D01*
X126920538Y-44928299D01*
X126873125Y-44962612D01*
X126842451Y-45012456D01*
X126833187Y-45070245D01*
X126610965Y-45070245D01*
X126610965Y-44692521D01*
X129069485Y-44692521D01*
X129069485Y-47436756D01*
G37*
G36*
X136992221Y-47435683D02*
G01*
X134916800Y-47435683D01*
X134916800Y-45083398D01*
X135139022Y-45083398D01*
X135145541Y-45112072D01*
X135812208Y-47112072D01*
X135824196Y-47138923D01*
X135831218Y-47147019D01*
X135836011Y-47156605D01*
X135850219Y-47168928D01*
X135862543Y-47183137D01*
X135872128Y-47187929D01*
X135880225Y-47194952D01*
X135898066Y-47200899D01*
X135914890Y-47209311D01*
X135925582Y-47210071D01*
X135935749Y-47213460D01*
X135954505Y-47212127D01*
X135973271Y-47213461D01*
X135983441Y-47210070D01*
X135994130Y-47209311D01*
X136010951Y-47200900D01*
X136028795Y-47194952D01*
X136036891Y-47187929D01*
X136046477Y-47183137D01*
X136058800Y-47168928D01*
X136073009Y-47156605D01*
X136077801Y-47147019D01*
X136084824Y-47138923D01*
X136096812Y-47112072D01*
X136763479Y-45112072D01*
X136769999Y-45083399D01*
X136765850Y-45025019D01*
X136739676Y-44972672D01*
X136695462Y-44934324D01*
X136639937Y-44915816D01*
X136581557Y-44919965D01*
X136529210Y-44946139D01*
X136490863Y-44990353D01*
X136478874Y-45017204D01*
X135954510Y-46590296D01*
X135430147Y-45017204D01*
X135418158Y-44990353D01*
X135379811Y-44946139D01*
X135327464Y-44919965D01*
X135269084Y-44915816D01*
X135213559Y-44934324D01*
X135169345Y-44972671D01*
X135143171Y-45025018D01*
X135139022Y-45083398D01*
X134916800Y-45083398D01*
X134916800Y-44693594D01*
X136992221Y-44693594D01*
X136992221Y-47435683D01*
G37*
G36*
X144888637Y-47436860D02*
G01*
X143001336Y-47436860D01*
X143001336Y-45064638D01*
X143223558Y-45064638D01*
X143223558Y-46683685D01*
X143226440Y-46712949D01*
X143228501Y-46717926D01*
X143228884Y-46723304D01*
X143239394Y-46750767D01*
X143334632Y-46941243D01*
X143342559Y-46953836D01*
X143344075Y-46957496D01*
X143347456Y-46961616D01*
X143350297Y-46966129D01*
X143353290Y-46968725D01*
X143362729Y-46980226D01*
X143457968Y-47075466D01*
X143469470Y-47084906D01*
X143472066Y-47087899D01*
X143476575Y-47090737D01*
X143480698Y-47094121D01*
X143484360Y-47095637D01*
X143496952Y-47103564D01*
X143687428Y-47198802D01*
X143714892Y-47209312D01*
X143720267Y-47209693D01*
X143725246Y-47211756D01*
X143754510Y-47214638D01*
X144135463Y-47214638D01*
X144164727Y-47211756D01*
X144169704Y-47209694D01*
X144175082Y-47209312D01*
X144202545Y-47198802D01*
X144393021Y-47103564D01*
X144405616Y-47095635D01*
X144409275Y-47094120D01*
X144413392Y-47090740D01*
X144417907Y-47087899D01*
X144420504Y-47084904D01*
X144432006Y-47075465D01*
X144527244Y-46980226D01*
X144536682Y-46968724D01*
X144539676Y-46966129D01*
X144542516Y-46961616D01*
X144545899Y-46957495D01*
X144547415Y-46953833D01*
X144555341Y-46941243D01*
X144650579Y-46750767D01*
X144661089Y-46723303D01*
X144661470Y-46717927D01*
X144663533Y-46712949D01*
X144666415Y-46683685D01*
X144666415Y-45064638D01*
X144663533Y-45035374D01*
X144641135Y-44981302D01*
X144599751Y-44939918D01*
X144545679Y-44917520D01*
X144487151Y-44917520D01*
X144433079Y-44939918D01*
X144391695Y-44981302D01*
X144369297Y-45035374D01*
X144366415Y-45064638D01*
X144366415Y-46648275D01*
X144297898Y-46785307D01*
X144237084Y-46846122D01*
X144100053Y-46914638D01*
X143789920Y-46914638D01*
X143652888Y-46846122D01*
X143592074Y-46785307D01*
X143523558Y-46648275D01*
X143523558Y-45064638D01*
X143520676Y-45035374D01*
X143498278Y-44981302D01*
X143456894Y-44939918D01*
X143402822Y-44917520D01*
X143344294Y-44917520D01*
X143290222Y-44939918D01*
X143248838Y-44981302D01*
X143226440Y-45035374D01*
X143223558Y-45064638D01*
X143001336Y-45064638D01*
X143001336Y-44695298D01*
X144888637Y-44695298D01*
X144888637Y-47436860D01*
G37*
D11*
X156466666Y-90804819D02*
X156466666Y-91519104D01*
X156466666Y-91519104D02*
X156419047Y-91661961D01*
X156419047Y-91661961D02*
X156323809Y-91757200D01*
X156323809Y-91757200D02*
X156180952Y-91804819D01*
X156180952Y-91804819D02*
X156085714Y-91804819D01*
X156847619Y-90804819D02*
X157466666Y-90804819D01*
X157466666Y-90804819D02*
X157133333Y-91185771D01*
X157133333Y-91185771D02*
X157276190Y-91185771D01*
X157276190Y-91185771D02*
X157371428Y-91233390D01*
X157371428Y-91233390D02*
X157419047Y-91281009D01*
X157419047Y-91281009D02*
X157466666Y-91376247D01*
X157466666Y-91376247D02*
X157466666Y-91614342D01*
X157466666Y-91614342D02*
X157419047Y-91709580D01*
X157419047Y-91709580D02*
X157371428Y-91757200D01*
X157371428Y-91757200D02*
X157276190Y-91804819D01*
X157276190Y-91804819D02*
X156990476Y-91804819D01*
X156990476Y-91804819D02*
X156895238Y-91757200D01*
X156895238Y-91757200D02*
X156847619Y-91709580D01*
X105261905Y-135779819D02*
X105261905Y-134779819D01*
X105261905Y-134779819D02*
X105500000Y-134779819D01*
X105500000Y-134779819D02*
X105642857Y-134827438D01*
X105642857Y-134827438D02*
X105738095Y-134922676D01*
X105738095Y-134922676D02*
X105785714Y-135017914D01*
X105785714Y-135017914D02*
X105833333Y-135208390D01*
X105833333Y-135208390D02*
X105833333Y-135351247D01*
X105833333Y-135351247D02*
X105785714Y-135541723D01*
X105785714Y-135541723D02*
X105738095Y-135636961D01*
X105738095Y-135636961D02*
X105642857Y-135732200D01*
X105642857Y-135732200D02*
X105500000Y-135779819D01*
X105500000Y-135779819D02*
X105261905Y-135779819D01*
X106738095Y-134779819D02*
X106261905Y-134779819D01*
X106261905Y-134779819D02*
X106214286Y-135256009D01*
X106214286Y-135256009D02*
X106261905Y-135208390D01*
X106261905Y-135208390D02*
X106357143Y-135160771D01*
X106357143Y-135160771D02*
X106595238Y-135160771D01*
X106595238Y-135160771D02*
X106690476Y-135208390D01*
X106690476Y-135208390D02*
X106738095Y-135256009D01*
X106738095Y-135256009D02*
X106785714Y-135351247D01*
X106785714Y-135351247D02*
X106785714Y-135589342D01*
X106785714Y-135589342D02*
X106738095Y-135684580D01*
X106738095Y-135684580D02*
X106690476Y-135732200D01*
X106690476Y-135732200D02*
X106595238Y-135779819D01*
X106595238Y-135779819D02*
X106357143Y-135779819D01*
X106357143Y-135779819D02*
X106261905Y-135732200D01*
X106261905Y-135732200D02*
X106214286Y-135684580D01*
X147759580Y-116572857D02*
X147807200Y-116620476D01*
X147807200Y-116620476D02*
X147854819Y-116763333D01*
X147854819Y-116763333D02*
X147854819Y-116858571D01*
X147854819Y-116858571D02*
X147807200Y-117001428D01*
X147807200Y-117001428D02*
X147711961Y-117096666D01*
X147711961Y-117096666D02*
X147616723Y-117144285D01*
X147616723Y-117144285D02*
X147426247Y-117191904D01*
X147426247Y-117191904D02*
X147283390Y-117191904D01*
X147283390Y-117191904D02*
X147092914Y-117144285D01*
X147092914Y-117144285D02*
X146997676Y-117096666D01*
X146997676Y-117096666D02*
X146902438Y-117001428D01*
X146902438Y-117001428D02*
X146854819Y-116858571D01*
X146854819Y-116858571D02*
X146854819Y-116763333D01*
X146854819Y-116763333D02*
X146902438Y-116620476D01*
X146902438Y-116620476D02*
X146950057Y-116572857D01*
X146950057Y-116191904D02*
X146902438Y-116144285D01*
X146902438Y-116144285D02*
X146854819Y-116049047D01*
X146854819Y-116049047D02*
X146854819Y-115810952D01*
X146854819Y-115810952D02*
X146902438Y-115715714D01*
X146902438Y-115715714D02*
X146950057Y-115668095D01*
X146950057Y-115668095D02*
X147045295Y-115620476D01*
X147045295Y-115620476D02*
X147140533Y-115620476D01*
X147140533Y-115620476D02*
X147283390Y-115668095D01*
X147283390Y-115668095D02*
X147854819Y-116239523D01*
X147854819Y-116239523D02*
X147854819Y-115620476D01*
X147854819Y-114668095D02*
X147854819Y-115239523D01*
X147854819Y-114953809D02*
X146854819Y-114953809D01*
X146854819Y-114953809D02*
X146997676Y-115049047D01*
X146997676Y-115049047D02*
X147092914Y-115144285D01*
X147092914Y-115144285D02*
X147140533Y-115239523D01*
X105286905Y-120954819D02*
X105286905Y-119954819D01*
X105286905Y-119954819D02*
X105525000Y-119954819D01*
X105525000Y-119954819D02*
X105667857Y-120002438D01*
X105667857Y-120002438D02*
X105763095Y-120097676D01*
X105763095Y-120097676D02*
X105810714Y-120192914D01*
X105810714Y-120192914D02*
X105858333Y-120383390D01*
X105858333Y-120383390D02*
X105858333Y-120526247D01*
X105858333Y-120526247D02*
X105810714Y-120716723D01*
X105810714Y-120716723D02*
X105763095Y-120811961D01*
X105763095Y-120811961D02*
X105667857Y-120907200D01*
X105667857Y-120907200D02*
X105525000Y-120954819D01*
X105525000Y-120954819D02*
X105286905Y-120954819D01*
X106715476Y-120288152D02*
X106715476Y-120954819D01*
X106477381Y-119907200D02*
X106239286Y-120621485D01*
X106239286Y-120621485D02*
X106858333Y-120621485D01*
X137261905Y-87554819D02*
X137261905Y-86554819D01*
X137261905Y-86554819D02*
X137500000Y-86554819D01*
X137500000Y-86554819D02*
X137642857Y-86602438D01*
X137642857Y-86602438D02*
X137738095Y-86697676D01*
X137738095Y-86697676D02*
X137785714Y-86792914D01*
X137785714Y-86792914D02*
X137833333Y-86983390D01*
X137833333Y-86983390D02*
X137833333Y-87126247D01*
X137833333Y-87126247D02*
X137785714Y-87316723D01*
X137785714Y-87316723D02*
X137738095Y-87411961D01*
X137738095Y-87411961D02*
X137642857Y-87507200D01*
X137642857Y-87507200D02*
X137500000Y-87554819D01*
X137500000Y-87554819D02*
X137261905Y-87554819D01*
X138166667Y-86554819D02*
X138833333Y-86554819D01*
X138833333Y-86554819D02*
X138404762Y-87554819D01*
X145507142Y-84839580D02*
X145459523Y-84887200D01*
X145459523Y-84887200D02*
X145316666Y-84934819D01*
X145316666Y-84934819D02*
X145221428Y-84934819D01*
X145221428Y-84934819D02*
X145078571Y-84887200D01*
X145078571Y-84887200D02*
X144983333Y-84791961D01*
X144983333Y-84791961D02*
X144935714Y-84696723D01*
X144935714Y-84696723D02*
X144888095Y-84506247D01*
X144888095Y-84506247D02*
X144888095Y-84363390D01*
X144888095Y-84363390D02*
X144935714Y-84172914D01*
X144935714Y-84172914D02*
X144983333Y-84077676D01*
X144983333Y-84077676D02*
X145078571Y-83982438D01*
X145078571Y-83982438D02*
X145221428Y-83934819D01*
X145221428Y-83934819D02*
X145316666Y-83934819D01*
X145316666Y-83934819D02*
X145459523Y-83982438D01*
X145459523Y-83982438D02*
X145507142Y-84030057D01*
X146459523Y-84934819D02*
X145888095Y-84934819D01*
X146173809Y-84934819D02*
X146173809Y-83934819D01*
X146173809Y-83934819D02*
X146078571Y-84077676D01*
X146078571Y-84077676D02*
X145983333Y-84172914D01*
X145983333Y-84172914D02*
X145888095Y-84220533D01*
X147364285Y-83934819D02*
X146888095Y-83934819D01*
X146888095Y-83934819D02*
X146840476Y-84411009D01*
X146840476Y-84411009D02*
X146888095Y-84363390D01*
X146888095Y-84363390D02*
X146983333Y-84315771D01*
X146983333Y-84315771D02*
X147221428Y-84315771D01*
X147221428Y-84315771D02*
X147316666Y-84363390D01*
X147316666Y-84363390D02*
X147364285Y-84411009D01*
X147364285Y-84411009D02*
X147411904Y-84506247D01*
X147411904Y-84506247D02*
X147411904Y-84744342D01*
X147411904Y-84744342D02*
X147364285Y-84839580D01*
X147364285Y-84839580D02*
X147316666Y-84887200D01*
X147316666Y-84887200D02*
X147221428Y-84934819D01*
X147221428Y-84934819D02*
X146983333Y-84934819D01*
X146983333Y-84934819D02*
X146888095Y-84887200D01*
X146888095Y-84887200D02*
X146840476Y-84839580D01*
X139285714Y-61454819D02*
X139285714Y-60454819D01*
X139285714Y-60454819D02*
X139523809Y-60454819D01*
X139523809Y-60454819D02*
X139666666Y-60502438D01*
X139666666Y-60502438D02*
X139761904Y-60597676D01*
X139761904Y-60597676D02*
X139809523Y-60692914D01*
X139809523Y-60692914D02*
X139857142Y-60883390D01*
X139857142Y-60883390D02*
X139857142Y-61026247D01*
X139857142Y-61026247D02*
X139809523Y-61216723D01*
X139809523Y-61216723D02*
X139761904Y-61311961D01*
X139761904Y-61311961D02*
X139666666Y-61407200D01*
X139666666Y-61407200D02*
X139523809Y-61454819D01*
X139523809Y-61454819D02*
X139285714Y-61454819D01*
X140809523Y-61454819D02*
X140238095Y-61454819D01*
X140523809Y-61454819D02*
X140523809Y-60454819D01*
X140523809Y-60454819D02*
X140428571Y-60597676D01*
X140428571Y-60597676D02*
X140333333Y-60692914D01*
X140333333Y-60692914D02*
X140238095Y-60740533D01*
X141142857Y-60454819D02*
X141809523Y-60454819D01*
X141809523Y-60454819D02*
X141380952Y-61454819D01*
X134854819Y-105091666D02*
X134378628Y-105424999D01*
X134854819Y-105663094D02*
X133854819Y-105663094D01*
X133854819Y-105663094D02*
X133854819Y-105282142D01*
X133854819Y-105282142D02*
X133902438Y-105186904D01*
X133902438Y-105186904D02*
X133950057Y-105139285D01*
X133950057Y-105139285D02*
X134045295Y-105091666D01*
X134045295Y-105091666D02*
X134188152Y-105091666D01*
X134188152Y-105091666D02*
X134283390Y-105139285D01*
X134283390Y-105139285D02*
X134331009Y-105186904D01*
X134331009Y-105186904D02*
X134378628Y-105282142D01*
X134378628Y-105282142D02*
X134378628Y-105663094D01*
X134854819Y-104139285D02*
X134854819Y-104710713D01*
X134854819Y-104424999D02*
X133854819Y-104424999D01*
X133854819Y-104424999D02*
X133997676Y-104520237D01*
X133997676Y-104520237D02*
X134092914Y-104615475D01*
X134092914Y-104615475D02*
X134140533Y-104710713D01*
X139188095Y-77104819D02*
X139188095Y-77914342D01*
X139188095Y-77914342D02*
X139235714Y-78009580D01*
X139235714Y-78009580D02*
X139283333Y-78057200D01*
X139283333Y-78057200D02*
X139378571Y-78104819D01*
X139378571Y-78104819D02*
X139569047Y-78104819D01*
X139569047Y-78104819D02*
X139664285Y-78057200D01*
X139664285Y-78057200D02*
X139711904Y-78009580D01*
X139711904Y-78009580D02*
X139759523Y-77914342D01*
X139759523Y-77914342D02*
X139759523Y-77104819D01*
X140140476Y-77104819D02*
X140807142Y-77104819D01*
X140807142Y-77104819D02*
X140378571Y-78104819D01*
X146229819Y-105241666D02*
X145753628Y-105574999D01*
X146229819Y-105813094D02*
X145229819Y-105813094D01*
X145229819Y-105813094D02*
X145229819Y-105432142D01*
X145229819Y-105432142D02*
X145277438Y-105336904D01*
X145277438Y-105336904D02*
X145325057Y-105289285D01*
X145325057Y-105289285D02*
X145420295Y-105241666D01*
X145420295Y-105241666D02*
X145563152Y-105241666D01*
X145563152Y-105241666D02*
X145658390Y-105289285D01*
X145658390Y-105289285D02*
X145706009Y-105336904D01*
X145706009Y-105336904D02*
X145753628Y-105432142D01*
X145753628Y-105432142D02*
X145753628Y-105813094D01*
X146229819Y-104765475D02*
X146229819Y-104574999D01*
X146229819Y-104574999D02*
X146182200Y-104479761D01*
X146182200Y-104479761D02*
X146134580Y-104432142D01*
X146134580Y-104432142D02*
X145991723Y-104336904D01*
X145991723Y-104336904D02*
X145801247Y-104289285D01*
X145801247Y-104289285D02*
X145420295Y-104289285D01*
X145420295Y-104289285D02*
X145325057Y-104336904D01*
X145325057Y-104336904D02*
X145277438Y-104384523D01*
X145277438Y-104384523D02*
X145229819Y-104479761D01*
X145229819Y-104479761D02*
X145229819Y-104670237D01*
X145229819Y-104670237D02*
X145277438Y-104765475D01*
X145277438Y-104765475D02*
X145325057Y-104813094D01*
X145325057Y-104813094D02*
X145420295Y-104860713D01*
X145420295Y-104860713D02*
X145658390Y-104860713D01*
X145658390Y-104860713D02*
X145753628Y-104813094D01*
X145753628Y-104813094D02*
X145801247Y-104765475D01*
X145801247Y-104765475D02*
X145848866Y-104670237D01*
X145848866Y-104670237D02*
X145848866Y-104479761D01*
X145848866Y-104479761D02*
X145801247Y-104384523D01*
X145801247Y-104384523D02*
X145753628Y-104336904D01*
X145753628Y-104336904D02*
X145658390Y-104289285D01*
X120058333Y-119934580D02*
X120010714Y-119982200D01*
X120010714Y-119982200D02*
X119867857Y-120029819D01*
X119867857Y-120029819D02*
X119772619Y-120029819D01*
X119772619Y-120029819D02*
X119629762Y-119982200D01*
X119629762Y-119982200D02*
X119534524Y-119886961D01*
X119534524Y-119886961D02*
X119486905Y-119791723D01*
X119486905Y-119791723D02*
X119439286Y-119601247D01*
X119439286Y-119601247D02*
X119439286Y-119458390D01*
X119439286Y-119458390D02*
X119486905Y-119267914D01*
X119486905Y-119267914D02*
X119534524Y-119172676D01*
X119534524Y-119172676D02*
X119629762Y-119077438D01*
X119629762Y-119077438D02*
X119772619Y-119029819D01*
X119772619Y-119029819D02*
X119867857Y-119029819D01*
X119867857Y-119029819D02*
X120010714Y-119077438D01*
X120010714Y-119077438D02*
X120058333Y-119125057D01*
X120915476Y-119029819D02*
X120725000Y-119029819D01*
X120725000Y-119029819D02*
X120629762Y-119077438D01*
X120629762Y-119077438D02*
X120582143Y-119125057D01*
X120582143Y-119125057D02*
X120486905Y-119267914D01*
X120486905Y-119267914D02*
X120439286Y-119458390D01*
X120439286Y-119458390D02*
X120439286Y-119839342D01*
X120439286Y-119839342D02*
X120486905Y-119934580D01*
X120486905Y-119934580D02*
X120534524Y-119982200D01*
X120534524Y-119982200D02*
X120629762Y-120029819D01*
X120629762Y-120029819D02*
X120820238Y-120029819D01*
X120820238Y-120029819D02*
X120915476Y-119982200D01*
X120915476Y-119982200D02*
X120963095Y-119934580D01*
X120963095Y-119934580D02*
X121010714Y-119839342D01*
X121010714Y-119839342D02*
X121010714Y-119601247D01*
X121010714Y-119601247D02*
X120963095Y-119506009D01*
X120963095Y-119506009D02*
X120915476Y-119458390D01*
X120915476Y-119458390D02*
X120820238Y-119410771D01*
X120820238Y-119410771D02*
X120629762Y-119410771D01*
X120629762Y-119410771D02*
X120534524Y-119458390D01*
X120534524Y-119458390D02*
X120486905Y-119506009D01*
X120486905Y-119506009D02*
X120439286Y-119601247D01*
X156754819Y-106017857D02*
X156278628Y-106351190D01*
X156754819Y-106589285D02*
X155754819Y-106589285D01*
X155754819Y-106589285D02*
X155754819Y-106208333D01*
X155754819Y-106208333D02*
X155802438Y-106113095D01*
X155802438Y-106113095D02*
X155850057Y-106065476D01*
X155850057Y-106065476D02*
X155945295Y-106017857D01*
X155945295Y-106017857D02*
X156088152Y-106017857D01*
X156088152Y-106017857D02*
X156183390Y-106065476D01*
X156183390Y-106065476D02*
X156231009Y-106113095D01*
X156231009Y-106113095D02*
X156278628Y-106208333D01*
X156278628Y-106208333D02*
X156278628Y-106589285D01*
X156754819Y-105065476D02*
X156754819Y-105636904D01*
X156754819Y-105351190D02*
X155754819Y-105351190D01*
X155754819Y-105351190D02*
X155897676Y-105446428D01*
X155897676Y-105446428D02*
X155992914Y-105541666D01*
X155992914Y-105541666D02*
X156040533Y-105636904D01*
X155850057Y-104684523D02*
X155802438Y-104636904D01*
X155802438Y-104636904D02*
X155754819Y-104541666D01*
X155754819Y-104541666D02*
X155754819Y-104303571D01*
X155754819Y-104303571D02*
X155802438Y-104208333D01*
X155802438Y-104208333D02*
X155850057Y-104160714D01*
X155850057Y-104160714D02*
X155945295Y-104113095D01*
X155945295Y-104113095D02*
X156040533Y-104113095D01*
X156040533Y-104113095D02*
X156183390Y-104160714D01*
X156183390Y-104160714D02*
X156754819Y-104732142D01*
X156754819Y-104732142D02*
X156754819Y-104113095D01*
X144099819Y-130521666D02*
X144099819Y-130997856D01*
X144099819Y-130997856D02*
X143099819Y-130997856D01*
X144099819Y-129664523D02*
X144099819Y-130235951D01*
X144099819Y-129950237D02*
X143099819Y-129950237D01*
X143099819Y-129950237D02*
X143242676Y-130045475D01*
X143242676Y-130045475D02*
X143337914Y-130140713D01*
X143337914Y-130140713D02*
X143385533Y-130235951D01*
X125333333Y-96484580D02*
X125285714Y-96532200D01*
X125285714Y-96532200D02*
X125142857Y-96579819D01*
X125142857Y-96579819D02*
X125047619Y-96579819D01*
X125047619Y-96579819D02*
X124904762Y-96532200D01*
X124904762Y-96532200D02*
X124809524Y-96436961D01*
X124809524Y-96436961D02*
X124761905Y-96341723D01*
X124761905Y-96341723D02*
X124714286Y-96151247D01*
X124714286Y-96151247D02*
X124714286Y-96008390D01*
X124714286Y-96008390D02*
X124761905Y-95817914D01*
X124761905Y-95817914D02*
X124809524Y-95722676D01*
X124809524Y-95722676D02*
X124904762Y-95627438D01*
X124904762Y-95627438D02*
X125047619Y-95579819D01*
X125047619Y-95579819D02*
X125142857Y-95579819D01*
X125142857Y-95579819D02*
X125285714Y-95627438D01*
X125285714Y-95627438D02*
X125333333Y-95675057D01*
X125714286Y-95675057D02*
X125761905Y-95627438D01*
X125761905Y-95627438D02*
X125857143Y-95579819D01*
X125857143Y-95579819D02*
X126095238Y-95579819D01*
X126095238Y-95579819D02*
X126190476Y-95627438D01*
X126190476Y-95627438D02*
X126238095Y-95675057D01*
X126238095Y-95675057D02*
X126285714Y-95770295D01*
X126285714Y-95770295D02*
X126285714Y-95865533D01*
X126285714Y-95865533D02*
X126238095Y-96008390D01*
X126238095Y-96008390D02*
X125666667Y-96579819D01*
X125666667Y-96579819D02*
X126285714Y-96579819D01*
X136954819Y-105517857D02*
X136478628Y-105851190D01*
X136954819Y-106089285D02*
X135954819Y-106089285D01*
X135954819Y-106089285D02*
X135954819Y-105708333D01*
X135954819Y-105708333D02*
X136002438Y-105613095D01*
X136002438Y-105613095D02*
X136050057Y-105565476D01*
X136050057Y-105565476D02*
X136145295Y-105517857D01*
X136145295Y-105517857D02*
X136288152Y-105517857D01*
X136288152Y-105517857D02*
X136383390Y-105565476D01*
X136383390Y-105565476D02*
X136431009Y-105613095D01*
X136431009Y-105613095D02*
X136478628Y-105708333D01*
X136478628Y-105708333D02*
X136478628Y-106089285D01*
X136954819Y-104565476D02*
X136954819Y-105136904D01*
X136954819Y-104851190D02*
X135954819Y-104851190D01*
X135954819Y-104851190D02*
X136097676Y-104946428D01*
X136097676Y-104946428D02*
X136192914Y-105041666D01*
X136192914Y-105041666D02*
X136240533Y-105136904D01*
X136954819Y-103613095D02*
X136954819Y-104184523D01*
X136954819Y-103898809D02*
X135954819Y-103898809D01*
X135954819Y-103898809D02*
X136097676Y-103994047D01*
X136097676Y-103994047D02*
X136192914Y-104089285D01*
X136192914Y-104089285D02*
X136240533Y-104184523D01*
X122206009Y-131733333D02*
X122206009Y-132066666D01*
X122729819Y-132066666D02*
X121729819Y-132066666D01*
X121729819Y-132066666D02*
X121729819Y-131590476D01*
X121825057Y-131257142D02*
X121777438Y-131209523D01*
X121777438Y-131209523D02*
X121729819Y-131114285D01*
X121729819Y-131114285D02*
X121729819Y-130876190D01*
X121729819Y-130876190D02*
X121777438Y-130780952D01*
X121777438Y-130780952D02*
X121825057Y-130733333D01*
X121825057Y-130733333D02*
X121920295Y-130685714D01*
X121920295Y-130685714D02*
X122015533Y-130685714D01*
X122015533Y-130685714D02*
X122158390Y-130733333D01*
X122158390Y-130733333D02*
X122729819Y-131304761D01*
X122729819Y-131304761D02*
X122729819Y-130685714D01*
X127985714Y-61554819D02*
X127985714Y-60554819D01*
X127985714Y-60554819D02*
X128223809Y-60554819D01*
X128223809Y-60554819D02*
X128366666Y-60602438D01*
X128366666Y-60602438D02*
X128461904Y-60697676D01*
X128461904Y-60697676D02*
X128509523Y-60792914D01*
X128509523Y-60792914D02*
X128557142Y-60983390D01*
X128557142Y-60983390D02*
X128557142Y-61126247D01*
X128557142Y-61126247D02*
X128509523Y-61316723D01*
X128509523Y-61316723D02*
X128461904Y-61411961D01*
X128461904Y-61411961D02*
X128366666Y-61507200D01*
X128366666Y-61507200D02*
X128223809Y-61554819D01*
X128223809Y-61554819D02*
X127985714Y-61554819D01*
X129509523Y-61554819D02*
X128938095Y-61554819D01*
X129223809Y-61554819D02*
X129223809Y-60554819D01*
X129223809Y-60554819D02*
X129128571Y-60697676D01*
X129128571Y-60697676D02*
X129033333Y-60792914D01*
X129033333Y-60792914D02*
X128938095Y-60840533D01*
X130080952Y-60983390D02*
X129985714Y-60935771D01*
X129985714Y-60935771D02*
X129938095Y-60888152D01*
X129938095Y-60888152D02*
X129890476Y-60792914D01*
X129890476Y-60792914D02*
X129890476Y-60745295D01*
X129890476Y-60745295D02*
X129938095Y-60650057D01*
X129938095Y-60650057D02*
X129985714Y-60602438D01*
X129985714Y-60602438D02*
X130080952Y-60554819D01*
X130080952Y-60554819D02*
X130271428Y-60554819D01*
X130271428Y-60554819D02*
X130366666Y-60602438D01*
X130366666Y-60602438D02*
X130414285Y-60650057D01*
X130414285Y-60650057D02*
X130461904Y-60745295D01*
X130461904Y-60745295D02*
X130461904Y-60792914D01*
X130461904Y-60792914D02*
X130414285Y-60888152D01*
X130414285Y-60888152D02*
X130366666Y-60935771D01*
X130366666Y-60935771D02*
X130271428Y-60983390D01*
X130271428Y-60983390D02*
X130080952Y-60983390D01*
X130080952Y-60983390D02*
X129985714Y-61031009D01*
X129985714Y-61031009D02*
X129938095Y-61078628D01*
X129938095Y-61078628D02*
X129890476Y-61173866D01*
X129890476Y-61173866D02*
X129890476Y-61364342D01*
X129890476Y-61364342D02*
X129938095Y-61459580D01*
X129938095Y-61459580D02*
X129985714Y-61507200D01*
X129985714Y-61507200D02*
X130080952Y-61554819D01*
X130080952Y-61554819D02*
X130271428Y-61554819D01*
X130271428Y-61554819D02*
X130366666Y-61507200D01*
X130366666Y-61507200D02*
X130414285Y-61459580D01*
X130414285Y-61459580D02*
X130461904Y-61364342D01*
X130461904Y-61364342D02*
X130461904Y-61173866D01*
X130461904Y-61173866D02*
X130414285Y-61078628D01*
X130414285Y-61078628D02*
X130366666Y-61031009D01*
X130366666Y-61031009D02*
X130271428Y-60983390D01*
X117204819Y-71217857D02*
X116728628Y-71551190D01*
X117204819Y-71789285D02*
X116204819Y-71789285D01*
X116204819Y-71789285D02*
X116204819Y-71408333D01*
X116204819Y-71408333D02*
X116252438Y-71313095D01*
X116252438Y-71313095D02*
X116300057Y-71265476D01*
X116300057Y-71265476D02*
X116395295Y-71217857D01*
X116395295Y-71217857D02*
X116538152Y-71217857D01*
X116538152Y-71217857D02*
X116633390Y-71265476D01*
X116633390Y-71265476D02*
X116681009Y-71313095D01*
X116681009Y-71313095D02*
X116728628Y-71408333D01*
X116728628Y-71408333D02*
X116728628Y-71789285D01*
X117204819Y-70265476D02*
X117204819Y-70836904D01*
X117204819Y-70551190D02*
X116204819Y-70551190D01*
X116204819Y-70551190D02*
X116347676Y-70646428D01*
X116347676Y-70646428D02*
X116442914Y-70741666D01*
X116442914Y-70741666D02*
X116490533Y-70836904D01*
X116204819Y-69932142D02*
X116204819Y-69265476D01*
X116204819Y-69265476D02*
X117204819Y-69694047D01*
X123979819Y-71739285D02*
X122979819Y-71739285D01*
X122979819Y-71739285D02*
X122979819Y-71501190D01*
X122979819Y-71501190D02*
X123027438Y-71358333D01*
X123027438Y-71358333D02*
X123122676Y-71263095D01*
X123122676Y-71263095D02*
X123217914Y-71215476D01*
X123217914Y-71215476D02*
X123408390Y-71167857D01*
X123408390Y-71167857D02*
X123551247Y-71167857D01*
X123551247Y-71167857D02*
X123741723Y-71215476D01*
X123741723Y-71215476D02*
X123836961Y-71263095D01*
X123836961Y-71263095D02*
X123932200Y-71358333D01*
X123932200Y-71358333D02*
X123979819Y-71501190D01*
X123979819Y-71501190D02*
X123979819Y-71739285D01*
X123979819Y-70215476D02*
X123979819Y-70786904D01*
X123979819Y-70501190D02*
X122979819Y-70501190D01*
X122979819Y-70501190D02*
X123122676Y-70596428D01*
X123122676Y-70596428D02*
X123217914Y-70691666D01*
X123217914Y-70691666D02*
X123265533Y-70786904D01*
X122979819Y-69882142D02*
X122979819Y-69263095D01*
X122979819Y-69263095D02*
X123360771Y-69596428D01*
X123360771Y-69596428D02*
X123360771Y-69453571D01*
X123360771Y-69453571D02*
X123408390Y-69358333D01*
X123408390Y-69358333D02*
X123456009Y-69310714D01*
X123456009Y-69310714D02*
X123551247Y-69263095D01*
X123551247Y-69263095D02*
X123789342Y-69263095D01*
X123789342Y-69263095D02*
X123884580Y-69310714D01*
X123884580Y-69310714D02*
X123932200Y-69358333D01*
X123932200Y-69358333D02*
X123979819Y-69453571D01*
X123979819Y-69453571D02*
X123979819Y-69739285D01*
X123979819Y-69739285D02*
X123932200Y-69834523D01*
X123932200Y-69834523D02*
X123884580Y-69882142D01*
X172685714Y-61454819D02*
X172685714Y-60454819D01*
X172685714Y-60454819D02*
X172923809Y-60454819D01*
X172923809Y-60454819D02*
X173066666Y-60502438D01*
X173066666Y-60502438D02*
X173161904Y-60597676D01*
X173161904Y-60597676D02*
X173209523Y-60692914D01*
X173209523Y-60692914D02*
X173257142Y-60883390D01*
X173257142Y-60883390D02*
X173257142Y-61026247D01*
X173257142Y-61026247D02*
X173209523Y-61216723D01*
X173209523Y-61216723D02*
X173161904Y-61311961D01*
X173161904Y-61311961D02*
X173066666Y-61407200D01*
X173066666Y-61407200D02*
X172923809Y-61454819D01*
X172923809Y-61454819D02*
X172685714Y-61454819D01*
X174209523Y-61454819D02*
X173638095Y-61454819D01*
X173923809Y-61454819D02*
X173923809Y-60454819D01*
X173923809Y-60454819D02*
X173828571Y-60597676D01*
X173828571Y-60597676D02*
X173733333Y-60692914D01*
X173733333Y-60692914D02*
X173638095Y-60740533D01*
X175114285Y-60454819D02*
X174638095Y-60454819D01*
X174638095Y-60454819D02*
X174590476Y-60931009D01*
X174590476Y-60931009D02*
X174638095Y-60883390D01*
X174638095Y-60883390D02*
X174733333Y-60835771D01*
X174733333Y-60835771D02*
X174971428Y-60835771D01*
X174971428Y-60835771D02*
X175066666Y-60883390D01*
X175066666Y-60883390D02*
X175114285Y-60931009D01*
X175114285Y-60931009D02*
X175161904Y-61026247D01*
X175161904Y-61026247D02*
X175161904Y-61264342D01*
X175161904Y-61264342D02*
X175114285Y-61359580D01*
X175114285Y-61359580D02*
X175066666Y-61407200D01*
X175066666Y-61407200D02*
X174971428Y-61454819D01*
X174971428Y-61454819D02*
X174733333Y-61454819D01*
X174733333Y-61454819D02*
X174638095Y-61407200D01*
X174638095Y-61407200D02*
X174590476Y-61359580D01*
X166614819Y-105806904D02*
X167424342Y-105806904D01*
X167424342Y-105806904D02*
X167519580Y-105759285D01*
X167519580Y-105759285D02*
X167567200Y-105711666D01*
X167567200Y-105711666D02*
X167614819Y-105616428D01*
X167614819Y-105616428D02*
X167614819Y-105425952D01*
X167614819Y-105425952D02*
X167567200Y-105330714D01*
X167567200Y-105330714D02*
X167519580Y-105283095D01*
X167519580Y-105283095D02*
X167424342Y-105235476D01*
X167424342Y-105235476D02*
X166614819Y-105235476D01*
X167567200Y-104806904D02*
X167614819Y-104664047D01*
X167614819Y-104664047D02*
X167614819Y-104425952D01*
X167614819Y-104425952D02*
X167567200Y-104330714D01*
X167567200Y-104330714D02*
X167519580Y-104283095D01*
X167519580Y-104283095D02*
X167424342Y-104235476D01*
X167424342Y-104235476D02*
X167329104Y-104235476D01*
X167329104Y-104235476D02*
X167233866Y-104283095D01*
X167233866Y-104283095D02*
X167186247Y-104330714D01*
X167186247Y-104330714D02*
X167138628Y-104425952D01*
X167138628Y-104425952D02*
X167091009Y-104616428D01*
X167091009Y-104616428D02*
X167043390Y-104711666D01*
X167043390Y-104711666D02*
X166995771Y-104759285D01*
X166995771Y-104759285D02*
X166900533Y-104806904D01*
X166900533Y-104806904D02*
X166805295Y-104806904D01*
X166805295Y-104806904D02*
X166710057Y-104759285D01*
X166710057Y-104759285D02*
X166662438Y-104711666D01*
X166662438Y-104711666D02*
X166614819Y-104616428D01*
X166614819Y-104616428D02*
X166614819Y-104378333D01*
X166614819Y-104378333D02*
X166662438Y-104235476D01*
X167091009Y-103473571D02*
X167138628Y-103330714D01*
X167138628Y-103330714D02*
X167186247Y-103283095D01*
X167186247Y-103283095D02*
X167281485Y-103235476D01*
X167281485Y-103235476D02*
X167424342Y-103235476D01*
X167424342Y-103235476D02*
X167519580Y-103283095D01*
X167519580Y-103283095D02*
X167567200Y-103330714D01*
X167567200Y-103330714D02*
X167614819Y-103425952D01*
X167614819Y-103425952D02*
X167614819Y-103806904D01*
X167614819Y-103806904D02*
X166614819Y-103806904D01*
X166614819Y-103806904D02*
X166614819Y-103473571D01*
X166614819Y-103473571D02*
X166662438Y-103378333D01*
X166662438Y-103378333D02*
X166710057Y-103330714D01*
X166710057Y-103330714D02*
X166805295Y-103283095D01*
X166805295Y-103283095D02*
X166900533Y-103283095D01*
X166900533Y-103283095D02*
X166995771Y-103330714D01*
X166995771Y-103330714D02*
X167043390Y-103378333D01*
X167043390Y-103378333D02*
X167091009Y-103473571D01*
X167091009Y-103473571D02*
X167091009Y-103806904D01*
X139604819Y-105241666D02*
X139128628Y-105574999D01*
X139604819Y-105813094D02*
X138604819Y-105813094D01*
X138604819Y-105813094D02*
X138604819Y-105432142D01*
X138604819Y-105432142D02*
X138652438Y-105336904D01*
X138652438Y-105336904D02*
X138700057Y-105289285D01*
X138700057Y-105289285D02*
X138795295Y-105241666D01*
X138795295Y-105241666D02*
X138938152Y-105241666D01*
X138938152Y-105241666D02*
X139033390Y-105289285D01*
X139033390Y-105289285D02*
X139081009Y-105336904D01*
X139081009Y-105336904D02*
X139128628Y-105432142D01*
X139128628Y-105432142D02*
X139128628Y-105813094D01*
X138604819Y-104908332D02*
X138604819Y-104241666D01*
X138604819Y-104241666D02*
X139604819Y-104670237D01*
X116061905Y-87704819D02*
X116061905Y-86704819D01*
X116061905Y-86704819D02*
X116300000Y-86704819D01*
X116300000Y-86704819D02*
X116442857Y-86752438D01*
X116442857Y-86752438D02*
X116538095Y-86847676D01*
X116538095Y-86847676D02*
X116585714Y-86942914D01*
X116585714Y-86942914D02*
X116633333Y-87133390D01*
X116633333Y-87133390D02*
X116633333Y-87276247D01*
X116633333Y-87276247D02*
X116585714Y-87466723D01*
X116585714Y-87466723D02*
X116538095Y-87561961D01*
X116538095Y-87561961D02*
X116442857Y-87657200D01*
X116442857Y-87657200D02*
X116300000Y-87704819D01*
X116300000Y-87704819D02*
X116061905Y-87704819D01*
X117204762Y-87133390D02*
X117109524Y-87085771D01*
X117109524Y-87085771D02*
X117061905Y-87038152D01*
X117061905Y-87038152D02*
X117014286Y-86942914D01*
X117014286Y-86942914D02*
X117014286Y-86895295D01*
X117014286Y-86895295D02*
X117061905Y-86800057D01*
X117061905Y-86800057D02*
X117109524Y-86752438D01*
X117109524Y-86752438D02*
X117204762Y-86704819D01*
X117204762Y-86704819D02*
X117395238Y-86704819D01*
X117395238Y-86704819D02*
X117490476Y-86752438D01*
X117490476Y-86752438D02*
X117538095Y-86800057D01*
X117538095Y-86800057D02*
X117585714Y-86895295D01*
X117585714Y-86895295D02*
X117585714Y-86942914D01*
X117585714Y-86942914D02*
X117538095Y-87038152D01*
X117538095Y-87038152D02*
X117490476Y-87085771D01*
X117490476Y-87085771D02*
X117395238Y-87133390D01*
X117395238Y-87133390D02*
X117204762Y-87133390D01*
X117204762Y-87133390D02*
X117109524Y-87181009D01*
X117109524Y-87181009D02*
X117061905Y-87228628D01*
X117061905Y-87228628D02*
X117014286Y-87323866D01*
X117014286Y-87323866D02*
X117014286Y-87514342D01*
X117014286Y-87514342D02*
X117061905Y-87609580D01*
X117061905Y-87609580D02*
X117109524Y-87657200D01*
X117109524Y-87657200D02*
X117204762Y-87704819D01*
X117204762Y-87704819D02*
X117395238Y-87704819D01*
X117395238Y-87704819D02*
X117490476Y-87657200D01*
X117490476Y-87657200D02*
X117538095Y-87609580D01*
X117538095Y-87609580D02*
X117585714Y-87514342D01*
X117585714Y-87514342D02*
X117585714Y-87323866D01*
X117585714Y-87323866D02*
X117538095Y-87228628D01*
X117538095Y-87228628D02*
X117490476Y-87181009D01*
X117490476Y-87181009D02*
X117395238Y-87133390D01*
X159954819Y-105441666D02*
X159478628Y-105774999D01*
X159954819Y-106013094D02*
X158954819Y-106013094D01*
X158954819Y-106013094D02*
X158954819Y-105632142D01*
X158954819Y-105632142D02*
X159002438Y-105536904D01*
X159002438Y-105536904D02*
X159050057Y-105489285D01*
X159050057Y-105489285D02*
X159145295Y-105441666D01*
X159145295Y-105441666D02*
X159288152Y-105441666D01*
X159288152Y-105441666D02*
X159383390Y-105489285D01*
X159383390Y-105489285D02*
X159431009Y-105536904D01*
X159431009Y-105536904D02*
X159478628Y-105632142D01*
X159478628Y-105632142D02*
X159478628Y-106013094D01*
X159050057Y-105060713D02*
X159002438Y-105013094D01*
X159002438Y-105013094D02*
X158954819Y-104917856D01*
X158954819Y-104917856D02*
X158954819Y-104679761D01*
X158954819Y-104679761D02*
X159002438Y-104584523D01*
X159002438Y-104584523D02*
X159050057Y-104536904D01*
X159050057Y-104536904D02*
X159145295Y-104489285D01*
X159145295Y-104489285D02*
X159240533Y-104489285D01*
X159240533Y-104489285D02*
X159383390Y-104536904D01*
X159383390Y-104536904D02*
X159954819Y-105108332D01*
X159954819Y-105108332D02*
X159954819Y-104489285D01*
X131954819Y-105813094D02*
X130954819Y-105813094D01*
X130954819Y-105813094D02*
X130954819Y-105574999D01*
X130954819Y-105574999D02*
X131002438Y-105432142D01*
X131002438Y-105432142D02*
X131097676Y-105336904D01*
X131097676Y-105336904D02*
X131192914Y-105289285D01*
X131192914Y-105289285D02*
X131383390Y-105241666D01*
X131383390Y-105241666D02*
X131526247Y-105241666D01*
X131526247Y-105241666D02*
X131716723Y-105289285D01*
X131716723Y-105289285D02*
X131811961Y-105336904D01*
X131811961Y-105336904D02*
X131907200Y-105432142D01*
X131907200Y-105432142D02*
X131954819Y-105574999D01*
X131954819Y-105574999D02*
X131954819Y-105813094D01*
X131050057Y-104860713D02*
X131002438Y-104813094D01*
X131002438Y-104813094D02*
X130954819Y-104717856D01*
X130954819Y-104717856D02*
X130954819Y-104479761D01*
X130954819Y-104479761D02*
X131002438Y-104384523D01*
X131002438Y-104384523D02*
X131050057Y-104336904D01*
X131050057Y-104336904D02*
X131145295Y-104289285D01*
X131145295Y-104289285D02*
X131240533Y-104289285D01*
X131240533Y-104289285D02*
X131383390Y-104336904D01*
X131383390Y-104336904D02*
X131954819Y-104908332D01*
X131954819Y-104908332D02*
X131954819Y-104289285D01*
X168957142Y-50479580D02*
X168909523Y-50527200D01*
X168909523Y-50527200D02*
X168766666Y-50574819D01*
X168766666Y-50574819D02*
X168671428Y-50574819D01*
X168671428Y-50574819D02*
X168528571Y-50527200D01*
X168528571Y-50527200D02*
X168433333Y-50431961D01*
X168433333Y-50431961D02*
X168385714Y-50336723D01*
X168385714Y-50336723D02*
X168338095Y-50146247D01*
X168338095Y-50146247D02*
X168338095Y-50003390D01*
X168338095Y-50003390D02*
X168385714Y-49812914D01*
X168385714Y-49812914D02*
X168433333Y-49717676D01*
X168433333Y-49717676D02*
X168528571Y-49622438D01*
X168528571Y-49622438D02*
X168671428Y-49574819D01*
X168671428Y-49574819D02*
X168766666Y-49574819D01*
X168766666Y-49574819D02*
X168909523Y-49622438D01*
X168909523Y-49622438D02*
X168957142Y-49670057D01*
X169909523Y-50574819D02*
X169338095Y-50574819D01*
X169623809Y-50574819D02*
X169623809Y-49574819D01*
X169623809Y-49574819D02*
X169528571Y-49717676D01*
X169528571Y-49717676D02*
X169433333Y-49812914D01*
X169433333Y-49812914D02*
X169338095Y-49860533D01*
X170528571Y-49574819D02*
X170623809Y-49574819D01*
X170623809Y-49574819D02*
X170719047Y-49622438D01*
X170719047Y-49622438D02*
X170766666Y-49670057D01*
X170766666Y-49670057D02*
X170814285Y-49765295D01*
X170814285Y-49765295D02*
X170861904Y-49955771D01*
X170861904Y-49955771D02*
X170861904Y-50193866D01*
X170861904Y-50193866D02*
X170814285Y-50384342D01*
X170814285Y-50384342D02*
X170766666Y-50479580D01*
X170766666Y-50479580D02*
X170719047Y-50527200D01*
X170719047Y-50527200D02*
X170623809Y-50574819D01*
X170623809Y-50574819D02*
X170528571Y-50574819D01*
X170528571Y-50574819D02*
X170433333Y-50527200D01*
X170433333Y-50527200D02*
X170385714Y-50479580D01*
X170385714Y-50479580D02*
X170338095Y-50384342D01*
X170338095Y-50384342D02*
X170290476Y-50193866D01*
X170290476Y-50193866D02*
X170290476Y-49955771D01*
X170290476Y-49955771D02*
X170338095Y-49765295D01*
X170338095Y-49765295D02*
X170385714Y-49670057D01*
X170385714Y-49670057D02*
X170433333Y-49622438D01*
X170433333Y-49622438D02*
X170528571Y-49574819D01*
X146979819Y-71739285D02*
X145979819Y-71739285D01*
X145979819Y-71739285D02*
X145979819Y-71501190D01*
X145979819Y-71501190D02*
X146027438Y-71358333D01*
X146027438Y-71358333D02*
X146122676Y-71263095D01*
X146122676Y-71263095D02*
X146217914Y-71215476D01*
X146217914Y-71215476D02*
X146408390Y-71167857D01*
X146408390Y-71167857D02*
X146551247Y-71167857D01*
X146551247Y-71167857D02*
X146741723Y-71215476D01*
X146741723Y-71215476D02*
X146836961Y-71263095D01*
X146836961Y-71263095D02*
X146932200Y-71358333D01*
X146932200Y-71358333D02*
X146979819Y-71501190D01*
X146979819Y-71501190D02*
X146979819Y-71739285D01*
X146979819Y-70215476D02*
X146979819Y-70786904D01*
X146979819Y-70501190D02*
X145979819Y-70501190D01*
X145979819Y-70501190D02*
X146122676Y-70596428D01*
X146122676Y-70596428D02*
X146217914Y-70691666D01*
X146217914Y-70691666D02*
X146265533Y-70786904D01*
X146979819Y-69263095D02*
X146979819Y-69834523D01*
X146979819Y-69548809D02*
X145979819Y-69548809D01*
X145979819Y-69548809D02*
X146122676Y-69644047D01*
X146122676Y-69644047D02*
X146217914Y-69739285D01*
X146217914Y-69739285D02*
X146265533Y-69834523D01*
X112009580Y-85817857D02*
X112057200Y-85865476D01*
X112057200Y-85865476D02*
X112104819Y-86008333D01*
X112104819Y-86008333D02*
X112104819Y-86103571D01*
X112104819Y-86103571D02*
X112057200Y-86246428D01*
X112057200Y-86246428D02*
X111961961Y-86341666D01*
X111961961Y-86341666D02*
X111866723Y-86389285D01*
X111866723Y-86389285D02*
X111676247Y-86436904D01*
X111676247Y-86436904D02*
X111533390Y-86436904D01*
X111533390Y-86436904D02*
X111342914Y-86389285D01*
X111342914Y-86389285D02*
X111247676Y-86341666D01*
X111247676Y-86341666D02*
X111152438Y-86246428D01*
X111152438Y-86246428D02*
X111104819Y-86103571D01*
X111104819Y-86103571D02*
X111104819Y-86008333D01*
X111104819Y-86008333D02*
X111152438Y-85865476D01*
X111152438Y-85865476D02*
X111200057Y-85817857D01*
X112104819Y-84865476D02*
X112104819Y-85436904D01*
X112104819Y-85151190D02*
X111104819Y-85151190D01*
X111104819Y-85151190D02*
X111247676Y-85246428D01*
X111247676Y-85246428D02*
X111342914Y-85341666D01*
X111342914Y-85341666D02*
X111390533Y-85436904D01*
X111533390Y-84294047D02*
X111485771Y-84389285D01*
X111485771Y-84389285D02*
X111438152Y-84436904D01*
X111438152Y-84436904D02*
X111342914Y-84484523D01*
X111342914Y-84484523D02*
X111295295Y-84484523D01*
X111295295Y-84484523D02*
X111200057Y-84436904D01*
X111200057Y-84436904D02*
X111152438Y-84389285D01*
X111152438Y-84389285D02*
X111104819Y-84294047D01*
X111104819Y-84294047D02*
X111104819Y-84103571D01*
X111104819Y-84103571D02*
X111152438Y-84008333D01*
X111152438Y-84008333D02*
X111200057Y-83960714D01*
X111200057Y-83960714D02*
X111295295Y-83913095D01*
X111295295Y-83913095D02*
X111342914Y-83913095D01*
X111342914Y-83913095D02*
X111438152Y-83960714D01*
X111438152Y-83960714D02*
X111485771Y-84008333D01*
X111485771Y-84008333D02*
X111533390Y-84103571D01*
X111533390Y-84103571D02*
X111533390Y-84294047D01*
X111533390Y-84294047D02*
X111581009Y-84389285D01*
X111581009Y-84389285D02*
X111628628Y-84436904D01*
X111628628Y-84436904D02*
X111723866Y-84484523D01*
X111723866Y-84484523D02*
X111914342Y-84484523D01*
X111914342Y-84484523D02*
X112009580Y-84436904D01*
X112009580Y-84436904D02*
X112057200Y-84389285D01*
X112057200Y-84389285D02*
X112104819Y-84294047D01*
X112104819Y-84294047D02*
X112104819Y-84103571D01*
X112104819Y-84103571D02*
X112057200Y-84008333D01*
X112057200Y-84008333D02*
X112009580Y-83960714D01*
X112009580Y-83960714D02*
X111914342Y-83913095D01*
X111914342Y-83913095D02*
X111723866Y-83913095D01*
X111723866Y-83913095D02*
X111628628Y-83960714D01*
X111628628Y-83960714D02*
X111581009Y-84008333D01*
X111581009Y-84008333D02*
X111533390Y-84103571D01*
X116038095Y-77054819D02*
X116038095Y-77864342D01*
X116038095Y-77864342D02*
X116085714Y-77959580D01*
X116085714Y-77959580D02*
X116133333Y-78007200D01*
X116133333Y-78007200D02*
X116228571Y-78054819D01*
X116228571Y-78054819D02*
X116419047Y-78054819D01*
X116419047Y-78054819D02*
X116514285Y-78007200D01*
X116514285Y-78007200D02*
X116561904Y-77959580D01*
X116561904Y-77959580D02*
X116609523Y-77864342D01*
X116609523Y-77864342D02*
X116609523Y-77054819D01*
X117228571Y-77483390D02*
X117133333Y-77435771D01*
X117133333Y-77435771D02*
X117085714Y-77388152D01*
X117085714Y-77388152D02*
X117038095Y-77292914D01*
X117038095Y-77292914D02*
X117038095Y-77245295D01*
X117038095Y-77245295D02*
X117085714Y-77150057D01*
X117085714Y-77150057D02*
X117133333Y-77102438D01*
X117133333Y-77102438D02*
X117228571Y-77054819D01*
X117228571Y-77054819D02*
X117419047Y-77054819D01*
X117419047Y-77054819D02*
X117514285Y-77102438D01*
X117514285Y-77102438D02*
X117561904Y-77150057D01*
X117561904Y-77150057D02*
X117609523Y-77245295D01*
X117609523Y-77245295D02*
X117609523Y-77292914D01*
X117609523Y-77292914D02*
X117561904Y-77388152D01*
X117561904Y-77388152D02*
X117514285Y-77435771D01*
X117514285Y-77435771D02*
X117419047Y-77483390D01*
X117419047Y-77483390D02*
X117228571Y-77483390D01*
X117228571Y-77483390D02*
X117133333Y-77531009D01*
X117133333Y-77531009D02*
X117085714Y-77578628D01*
X117085714Y-77578628D02*
X117038095Y-77673866D01*
X117038095Y-77673866D02*
X117038095Y-77864342D01*
X117038095Y-77864342D02*
X117085714Y-77959580D01*
X117085714Y-77959580D02*
X117133333Y-78007200D01*
X117133333Y-78007200D02*
X117228571Y-78054819D01*
X117228571Y-78054819D02*
X117419047Y-78054819D01*
X117419047Y-78054819D02*
X117514285Y-78007200D01*
X117514285Y-78007200D02*
X117561904Y-77959580D01*
X117561904Y-77959580D02*
X117609523Y-77864342D01*
X117609523Y-77864342D02*
X117609523Y-77673866D01*
X117609523Y-77673866D02*
X117561904Y-77578628D01*
X117561904Y-77578628D02*
X117514285Y-77531009D01*
X117514285Y-77531009D02*
X117419047Y-77483390D01*
X104785714Y-61504819D02*
X104785714Y-60504819D01*
X104785714Y-60504819D02*
X105023809Y-60504819D01*
X105023809Y-60504819D02*
X105166666Y-60552438D01*
X105166666Y-60552438D02*
X105261904Y-60647676D01*
X105261904Y-60647676D02*
X105309523Y-60742914D01*
X105309523Y-60742914D02*
X105357142Y-60933390D01*
X105357142Y-60933390D02*
X105357142Y-61076247D01*
X105357142Y-61076247D02*
X105309523Y-61266723D01*
X105309523Y-61266723D02*
X105261904Y-61361961D01*
X105261904Y-61361961D02*
X105166666Y-61457200D01*
X105166666Y-61457200D02*
X105023809Y-61504819D01*
X105023809Y-61504819D02*
X104785714Y-61504819D01*
X105738095Y-60600057D02*
X105785714Y-60552438D01*
X105785714Y-60552438D02*
X105880952Y-60504819D01*
X105880952Y-60504819D02*
X106119047Y-60504819D01*
X106119047Y-60504819D02*
X106214285Y-60552438D01*
X106214285Y-60552438D02*
X106261904Y-60600057D01*
X106261904Y-60600057D02*
X106309523Y-60695295D01*
X106309523Y-60695295D02*
X106309523Y-60790533D01*
X106309523Y-60790533D02*
X106261904Y-60933390D01*
X106261904Y-60933390D02*
X105690476Y-61504819D01*
X105690476Y-61504819D02*
X106309523Y-61504819D01*
X106928571Y-60504819D02*
X107023809Y-60504819D01*
X107023809Y-60504819D02*
X107119047Y-60552438D01*
X107119047Y-60552438D02*
X107166666Y-60600057D01*
X107166666Y-60600057D02*
X107214285Y-60695295D01*
X107214285Y-60695295D02*
X107261904Y-60885771D01*
X107261904Y-60885771D02*
X107261904Y-61123866D01*
X107261904Y-61123866D02*
X107214285Y-61314342D01*
X107214285Y-61314342D02*
X107166666Y-61409580D01*
X107166666Y-61409580D02*
X107119047Y-61457200D01*
X107119047Y-61457200D02*
X107023809Y-61504819D01*
X107023809Y-61504819D02*
X106928571Y-61504819D01*
X106928571Y-61504819D02*
X106833333Y-61457200D01*
X106833333Y-61457200D02*
X106785714Y-61409580D01*
X106785714Y-61409580D02*
X106738095Y-61314342D01*
X106738095Y-61314342D02*
X106690476Y-61123866D01*
X106690476Y-61123866D02*
X106690476Y-60885771D01*
X106690476Y-60885771D02*
X106738095Y-60695295D01*
X106738095Y-60695295D02*
X106785714Y-60600057D01*
X106785714Y-60600057D02*
X106833333Y-60552438D01*
X106833333Y-60552438D02*
X106928571Y-60504819D01*
X149193333Y-140634819D02*
X148860000Y-140158628D01*
X148621905Y-140634819D02*
X148621905Y-139634819D01*
X148621905Y-139634819D02*
X149002857Y-139634819D01*
X149002857Y-139634819D02*
X149098095Y-139682438D01*
X149098095Y-139682438D02*
X149145714Y-139730057D01*
X149145714Y-139730057D02*
X149193333Y-139825295D01*
X149193333Y-139825295D02*
X149193333Y-139968152D01*
X149193333Y-139968152D02*
X149145714Y-140063390D01*
X149145714Y-140063390D02*
X149098095Y-140111009D01*
X149098095Y-140111009D02*
X149002857Y-140158628D01*
X149002857Y-140158628D02*
X148621905Y-140158628D01*
X150050476Y-139968152D02*
X150050476Y-140634819D01*
X149812381Y-139587200D02*
X149574286Y-140301485D01*
X149574286Y-140301485D02*
X150193333Y-140301485D01*
X170739580Y-55816666D02*
X170787200Y-55864285D01*
X170787200Y-55864285D02*
X170834819Y-56007142D01*
X170834819Y-56007142D02*
X170834819Y-56102380D01*
X170834819Y-56102380D02*
X170787200Y-56245237D01*
X170787200Y-56245237D02*
X170691961Y-56340475D01*
X170691961Y-56340475D02*
X170596723Y-56388094D01*
X170596723Y-56388094D02*
X170406247Y-56435713D01*
X170406247Y-56435713D02*
X170263390Y-56435713D01*
X170263390Y-56435713D02*
X170072914Y-56388094D01*
X170072914Y-56388094D02*
X169977676Y-56340475D01*
X169977676Y-56340475D02*
X169882438Y-56245237D01*
X169882438Y-56245237D02*
X169834819Y-56102380D01*
X169834819Y-56102380D02*
X169834819Y-56007142D01*
X169834819Y-56007142D02*
X169882438Y-55864285D01*
X169882438Y-55864285D02*
X169930057Y-55816666D01*
X169834819Y-55483332D02*
X169834819Y-54816666D01*
X169834819Y-54816666D02*
X170834819Y-55245237D01*
X122432142Y-81409580D02*
X122384523Y-81457200D01*
X122384523Y-81457200D02*
X122241666Y-81504819D01*
X122241666Y-81504819D02*
X122146428Y-81504819D01*
X122146428Y-81504819D02*
X122003571Y-81457200D01*
X122003571Y-81457200D02*
X121908333Y-81361961D01*
X121908333Y-81361961D02*
X121860714Y-81266723D01*
X121860714Y-81266723D02*
X121813095Y-81076247D01*
X121813095Y-81076247D02*
X121813095Y-80933390D01*
X121813095Y-80933390D02*
X121860714Y-80742914D01*
X121860714Y-80742914D02*
X121908333Y-80647676D01*
X121908333Y-80647676D02*
X122003571Y-80552438D01*
X122003571Y-80552438D02*
X122146428Y-80504819D01*
X122146428Y-80504819D02*
X122241666Y-80504819D01*
X122241666Y-80504819D02*
X122384523Y-80552438D01*
X122384523Y-80552438D02*
X122432142Y-80600057D01*
X123384523Y-81504819D02*
X122813095Y-81504819D01*
X123098809Y-81504819D02*
X123098809Y-80504819D01*
X123098809Y-80504819D02*
X123003571Y-80647676D01*
X123003571Y-80647676D02*
X122908333Y-80742914D01*
X122908333Y-80742914D02*
X122813095Y-80790533D01*
X124241666Y-80838152D02*
X124241666Y-81504819D01*
X124003571Y-80457200D02*
X123765476Y-81171485D01*
X123765476Y-81171485D02*
X124384523Y-81171485D01*
X133284580Y-82492857D02*
X133332200Y-82540476D01*
X133332200Y-82540476D02*
X133379819Y-82683333D01*
X133379819Y-82683333D02*
X133379819Y-82778571D01*
X133379819Y-82778571D02*
X133332200Y-82921428D01*
X133332200Y-82921428D02*
X133236961Y-83016666D01*
X133236961Y-83016666D02*
X133141723Y-83064285D01*
X133141723Y-83064285D02*
X132951247Y-83111904D01*
X132951247Y-83111904D02*
X132808390Y-83111904D01*
X132808390Y-83111904D02*
X132617914Y-83064285D01*
X132617914Y-83064285D02*
X132522676Y-83016666D01*
X132522676Y-83016666D02*
X132427438Y-82921428D01*
X132427438Y-82921428D02*
X132379819Y-82778571D01*
X132379819Y-82778571D02*
X132379819Y-82683333D01*
X132379819Y-82683333D02*
X132427438Y-82540476D01*
X132427438Y-82540476D02*
X132475057Y-82492857D01*
X133379819Y-81540476D02*
X133379819Y-82111904D01*
X133379819Y-81826190D02*
X132379819Y-81826190D01*
X132379819Y-81826190D02*
X132522676Y-81921428D01*
X132522676Y-81921428D02*
X132617914Y-82016666D01*
X132617914Y-82016666D02*
X132665533Y-82111904D01*
X132379819Y-81207142D02*
X132379819Y-80540476D01*
X132379819Y-80540476D02*
X133379819Y-80969047D01*
X153859580Y-119672857D02*
X153907200Y-119720476D01*
X153907200Y-119720476D02*
X153954819Y-119863333D01*
X153954819Y-119863333D02*
X153954819Y-119958571D01*
X153954819Y-119958571D02*
X153907200Y-120101428D01*
X153907200Y-120101428D02*
X153811961Y-120196666D01*
X153811961Y-120196666D02*
X153716723Y-120244285D01*
X153716723Y-120244285D02*
X153526247Y-120291904D01*
X153526247Y-120291904D02*
X153383390Y-120291904D01*
X153383390Y-120291904D02*
X153192914Y-120244285D01*
X153192914Y-120244285D02*
X153097676Y-120196666D01*
X153097676Y-120196666D02*
X153002438Y-120101428D01*
X153002438Y-120101428D02*
X152954819Y-119958571D01*
X152954819Y-119958571D02*
X152954819Y-119863333D01*
X152954819Y-119863333D02*
X153002438Y-119720476D01*
X153002438Y-119720476D02*
X153050057Y-119672857D01*
X153050057Y-119291904D02*
X153002438Y-119244285D01*
X153002438Y-119244285D02*
X152954819Y-119149047D01*
X152954819Y-119149047D02*
X152954819Y-118910952D01*
X152954819Y-118910952D02*
X153002438Y-118815714D01*
X153002438Y-118815714D02*
X153050057Y-118768095D01*
X153050057Y-118768095D02*
X153145295Y-118720476D01*
X153145295Y-118720476D02*
X153240533Y-118720476D01*
X153240533Y-118720476D02*
X153383390Y-118768095D01*
X153383390Y-118768095D02*
X153954819Y-119339523D01*
X153954819Y-119339523D02*
X153954819Y-118720476D01*
X152954819Y-118101428D02*
X152954819Y-118006190D01*
X152954819Y-118006190D02*
X153002438Y-117910952D01*
X153002438Y-117910952D02*
X153050057Y-117863333D01*
X153050057Y-117863333D02*
X153145295Y-117815714D01*
X153145295Y-117815714D02*
X153335771Y-117768095D01*
X153335771Y-117768095D02*
X153573866Y-117768095D01*
X153573866Y-117768095D02*
X153764342Y-117815714D01*
X153764342Y-117815714D02*
X153859580Y-117863333D01*
X153859580Y-117863333D02*
X153907200Y-117910952D01*
X153907200Y-117910952D02*
X153954819Y-118006190D01*
X153954819Y-118006190D02*
X153954819Y-118101428D01*
X153954819Y-118101428D02*
X153907200Y-118196666D01*
X153907200Y-118196666D02*
X153859580Y-118244285D01*
X153859580Y-118244285D02*
X153764342Y-118291904D01*
X153764342Y-118291904D02*
X153573866Y-118339523D01*
X153573866Y-118339523D02*
X153335771Y-118339523D01*
X153335771Y-118339523D02*
X153145295Y-118291904D01*
X153145295Y-118291904D02*
X153050057Y-118244285D01*
X153050057Y-118244285D02*
X153002438Y-118196666D01*
X153002438Y-118196666D02*
X152954819Y-118101428D01*
X168354819Y-134386904D02*
X169164342Y-134386904D01*
X169164342Y-134386904D02*
X169259580Y-134339285D01*
X169259580Y-134339285D02*
X169307200Y-134291666D01*
X169307200Y-134291666D02*
X169354819Y-134196428D01*
X169354819Y-134196428D02*
X169354819Y-134005952D01*
X169354819Y-134005952D02*
X169307200Y-133910714D01*
X169307200Y-133910714D02*
X169259580Y-133863095D01*
X169259580Y-133863095D02*
X169164342Y-133815476D01*
X169164342Y-133815476D02*
X168354819Y-133815476D01*
X169354819Y-132815476D02*
X169354819Y-133386904D01*
X169354819Y-133101190D02*
X168354819Y-133101190D01*
X168354819Y-133101190D02*
X168497676Y-133196428D01*
X168497676Y-133196428D02*
X168592914Y-133291666D01*
X168592914Y-133291666D02*
X168640533Y-133386904D01*
X162338095Y-49554819D02*
X162338095Y-50364342D01*
X162338095Y-50364342D02*
X162385714Y-50459580D01*
X162385714Y-50459580D02*
X162433333Y-50507200D01*
X162433333Y-50507200D02*
X162528571Y-50554819D01*
X162528571Y-50554819D02*
X162719047Y-50554819D01*
X162719047Y-50554819D02*
X162814285Y-50507200D01*
X162814285Y-50507200D02*
X162861904Y-50459580D01*
X162861904Y-50459580D02*
X162909523Y-50364342D01*
X162909523Y-50364342D02*
X162909523Y-49554819D01*
X163290476Y-49554819D02*
X163909523Y-49554819D01*
X163909523Y-49554819D02*
X163576190Y-49935771D01*
X163576190Y-49935771D02*
X163719047Y-49935771D01*
X163719047Y-49935771D02*
X163814285Y-49983390D01*
X163814285Y-49983390D02*
X163861904Y-50031009D01*
X163861904Y-50031009D02*
X163909523Y-50126247D01*
X163909523Y-50126247D02*
X163909523Y-50364342D01*
X163909523Y-50364342D02*
X163861904Y-50459580D01*
X163861904Y-50459580D02*
X163814285Y-50507200D01*
X163814285Y-50507200D02*
X163719047Y-50554819D01*
X163719047Y-50554819D02*
X163433333Y-50554819D01*
X163433333Y-50554819D02*
X163338095Y-50507200D01*
X163338095Y-50507200D02*
X163290476Y-50459580D01*
X124539580Y-55816666D02*
X124587200Y-55864285D01*
X124587200Y-55864285D02*
X124634819Y-56007142D01*
X124634819Y-56007142D02*
X124634819Y-56102380D01*
X124634819Y-56102380D02*
X124587200Y-56245237D01*
X124587200Y-56245237D02*
X124491961Y-56340475D01*
X124491961Y-56340475D02*
X124396723Y-56388094D01*
X124396723Y-56388094D02*
X124206247Y-56435713D01*
X124206247Y-56435713D02*
X124063390Y-56435713D01*
X124063390Y-56435713D02*
X123872914Y-56388094D01*
X123872914Y-56388094D02*
X123777676Y-56340475D01*
X123777676Y-56340475D02*
X123682438Y-56245237D01*
X123682438Y-56245237D02*
X123634819Y-56102380D01*
X123634819Y-56102380D02*
X123634819Y-56007142D01*
X123634819Y-56007142D02*
X123682438Y-55864285D01*
X123682438Y-55864285D02*
X123730057Y-55816666D01*
X124634819Y-55340475D02*
X124634819Y-55149999D01*
X124634819Y-55149999D02*
X124587200Y-55054761D01*
X124587200Y-55054761D02*
X124539580Y-55007142D01*
X124539580Y-55007142D02*
X124396723Y-54911904D01*
X124396723Y-54911904D02*
X124206247Y-54864285D01*
X124206247Y-54864285D02*
X123825295Y-54864285D01*
X123825295Y-54864285D02*
X123730057Y-54911904D01*
X123730057Y-54911904D02*
X123682438Y-54959523D01*
X123682438Y-54959523D02*
X123634819Y-55054761D01*
X123634819Y-55054761D02*
X123634819Y-55245237D01*
X123634819Y-55245237D02*
X123682438Y-55340475D01*
X123682438Y-55340475D02*
X123730057Y-55388094D01*
X123730057Y-55388094D02*
X123825295Y-55435713D01*
X123825295Y-55435713D02*
X124063390Y-55435713D01*
X124063390Y-55435713D02*
X124158628Y-55388094D01*
X124158628Y-55388094D02*
X124206247Y-55340475D01*
X124206247Y-55340475D02*
X124253866Y-55245237D01*
X124253866Y-55245237D02*
X124253866Y-55054761D01*
X124253866Y-55054761D02*
X124206247Y-54959523D01*
X124206247Y-54959523D02*
X124158628Y-54911904D01*
X124158628Y-54911904D02*
X124063390Y-54864285D01*
X122707142Y-50479580D02*
X122659523Y-50527200D01*
X122659523Y-50527200D02*
X122516666Y-50574819D01*
X122516666Y-50574819D02*
X122421428Y-50574819D01*
X122421428Y-50574819D02*
X122278571Y-50527200D01*
X122278571Y-50527200D02*
X122183333Y-50431961D01*
X122183333Y-50431961D02*
X122135714Y-50336723D01*
X122135714Y-50336723D02*
X122088095Y-50146247D01*
X122088095Y-50146247D02*
X122088095Y-50003390D01*
X122088095Y-50003390D02*
X122135714Y-49812914D01*
X122135714Y-49812914D02*
X122183333Y-49717676D01*
X122183333Y-49717676D02*
X122278571Y-49622438D01*
X122278571Y-49622438D02*
X122421428Y-49574819D01*
X122421428Y-49574819D02*
X122516666Y-49574819D01*
X122516666Y-49574819D02*
X122659523Y-49622438D01*
X122659523Y-49622438D02*
X122707142Y-49670057D01*
X123659523Y-50574819D02*
X123088095Y-50574819D01*
X123373809Y-50574819D02*
X123373809Y-49574819D01*
X123373809Y-49574819D02*
X123278571Y-49717676D01*
X123278571Y-49717676D02*
X123183333Y-49812914D01*
X123183333Y-49812914D02*
X123088095Y-49860533D01*
X124040476Y-49670057D02*
X124088095Y-49622438D01*
X124088095Y-49622438D02*
X124183333Y-49574819D01*
X124183333Y-49574819D02*
X124421428Y-49574819D01*
X124421428Y-49574819D02*
X124516666Y-49622438D01*
X124516666Y-49622438D02*
X124564285Y-49670057D01*
X124564285Y-49670057D02*
X124611904Y-49765295D01*
X124611904Y-49765295D02*
X124611904Y-49860533D01*
X124611904Y-49860533D02*
X124564285Y-50003390D01*
X124564285Y-50003390D02*
X123992857Y-50574819D01*
X123992857Y-50574819D02*
X124611904Y-50574819D01*
X150935714Y-61504819D02*
X150935714Y-60504819D01*
X150935714Y-60504819D02*
X151173809Y-60504819D01*
X151173809Y-60504819D02*
X151316666Y-60552438D01*
X151316666Y-60552438D02*
X151411904Y-60647676D01*
X151411904Y-60647676D02*
X151459523Y-60742914D01*
X151459523Y-60742914D02*
X151507142Y-60933390D01*
X151507142Y-60933390D02*
X151507142Y-61076247D01*
X151507142Y-61076247D02*
X151459523Y-61266723D01*
X151459523Y-61266723D02*
X151411904Y-61361961D01*
X151411904Y-61361961D02*
X151316666Y-61457200D01*
X151316666Y-61457200D02*
X151173809Y-61504819D01*
X151173809Y-61504819D02*
X150935714Y-61504819D01*
X152459523Y-61504819D02*
X151888095Y-61504819D01*
X152173809Y-61504819D02*
X152173809Y-60504819D01*
X152173809Y-60504819D02*
X152078571Y-60647676D01*
X152078571Y-60647676D02*
X151983333Y-60742914D01*
X151983333Y-60742914D02*
X151888095Y-60790533D01*
X153316666Y-60504819D02*
X153126190Y-60504819D01*
X153126190Y-60504819D02*
X153030952Y-60552438D01*
X153030952Y-60552438D02*
X152983333Y-60600057D01*
X152983333Y-60600057D02*
X152888095Y-60742914D01*
X152888095Y-60742914D02*
X152840476Y-60933390D01*
X152840476Y-60933390D02*
X152840476Y-61314342D01*
X152840476Y-61314342D02*
X152888095Y-61409580D01*
X152888095Y-61409580D02*
X152935714Y-61457200D01*
X152935714Y-61457200D02*
X153030952Y-61504819D01*
X153030952Y-61504819D02*
X153221428Y-61504819D01*
X153221428Y-61504819D02*
X153316666Y-61457200D01*
X153316666Y-61457200D02*
X153364285Y-61409580D01*
X153364285Y-61409580D02*
X153411904Y-61314342D01*
X153411904Y-61314342D02*
X153411904Y-61076247D01*
X153411904Y-61076247D02*
X153364285Y-60981009D01*
X153364285Y-60981009D02*
X153316666Y-60933390D01*
X153316666Y-60933390D02*
X153221428Y-60885771D01*
X153221428Y-60885771D02*
X153030952Y-60885771D01*
X153030952Y-60885771D02*
X152935714Y-60933390D01*
X152935714Y-60933390D02*
X152888095Y-60981009D01*
X152888095Y-60981009D02*
X152840476Y-61076247D01*
X149082142Y-51984580D02*
X149034523Y-52032200D01*
X149034523Y-52032200D02*
X148891666Y-52079819D01*
X148891666Y-52079819D02*
X148796428Y-52079819D01*
X148796428Y-52079819D02*
X148653571Y-52032200D01*
X148653571Y-52032200D02*
X148558333Y-51936961D01*
X148558333Y-51936961D02*
X148510714Y-51841723D01*
X148510714Y-51841723D02*
X148463095Y-51651247D01*
X148463095Y-51651247D02*
X148463095Y-51508390D01*
X148463095Y-51508390D02*
X148510714Y-51317914D01*
X148510714Y-51317914D02*
X148558333Y-51222676D01*
X148558333Y-51222676D02*
X148653571Y-51127438D01*
X148653571Y-51127438D02*
X148796428Y-51079819D01*
X148796428Y-51079819D02*
X148891666Y-51079819D01*
X148891666Y-51079819D02*
X149034523Y-51127438D01*
X149034523Y-51127438D02*
X149082142Y-51175057D01*
X150034523Y-52079819D02*
X149463095Y-52079819D01*
X149748809Y-52079819D02*
X149748809Y-51079819D01*
X149748809Y-51079819D02*
X149653571Y-51222676D01*
X149653571Y-51222676D02*
X149558333Y-51317914D01*
X149558333Y-51317914D02*
X149463095Y-51365533D01*
X150986904Y-52079819D02*
X150415476Y-52079819D01*
X150701190Y-52079819D02*
X150701190Y-51079819D01*
X150701190Y-51079819D02*
X150605952Y-51222676D01*
X150605952Y-51222676D02*
X150510714Y-51317914D01*
X150510714Y-51317914D02*
X150415476Y-51365533D01*
X128061905Y-116079819D02*
X128061905Y-115079819D01*
X128061905Y-115079819D02*
X128300000Y-115079819D01*
X128300000Y-115079819D02*
X128442857Y-115127438D01*
X128442857Y-115127438D02*
X128538095Y-115222676D01*
X128538095Y-115222676D02*
X128585714Y-115317914D01*
X128585714Y-115317914D02*
X128633333Y-115508390D01*
X128633333Y-115508390D02*
X128633333Y-115651247D01*
X128633333Y-115651247D02*
X128585714Y-115841723D01*
X128585714Y-115841723D02*
X128538095Y-115936961D01*
X128538095Y-115936961D02*
X128442857Y-116032200D01*
X128442857Y-116032200D02*
X128300000Y-116079819D01*
X128300000Y-116079819D02*
X128061905Y-116079819D01*
X129585714Y-116079819D02*
X129014286Y-116079819D01*
X129300000Y-116079819D02*
X129300000Y-115079819D01*
X129300000Y-115079819D02*
X129204762Y-115222676D01*
X129204762Y-115222676D02*
X129109524Y-115317914D01*
X129109524Y-115317914D02*
X129014286Y-115365533D01*
X156334580Y-82492857D02*
X156382200Y-82540476D01*
X156382200Y-82540476D02*
X156429819Y-82683333D01*
X156429819Y-82683333D02*
X156429819Y-82778571D01*
X156429819Y-82778571D02*
X156382200Y-82921428D01*
X156382200Y-82921428D02*
X156286961Y-83016666D01*
X156286961Y-83016666D02*
X156191723Y-83064285D01*
X156191723Y-83064285D02*
X156001247Y-83111904D01*
X156001247Y-83111904D02*
X155858390Y-83111904D01*
X155858390Y-83111904D02*
X155667914Y-83064285D01*
X155667914Y-83064285D02*
X155572676Y-83016666D01*
X155572676Y-83016666D02*
X155477438Y-82921428D01*
X155477438Y-82921428D02*
X155429819Y-82778571D01*
X155429819Y-82778571D02*
X155429819Y-82683333D01*
X155429819Y-82683333D02*
X155477438Y-82540476D01*
X155477438Y-82540476D02*
X155525057Y-82492857D01*
X156429819Y-81540476D02*
X156429819Y-82111904D01*
X156429819Y-81826190D02*
X155429819Y-81826190D01*
X155429819Y-81826190D02*
X155572676Y-81921428D01*
X155572676Y-81921428D02*
X155667914Y-82016666D01*
X155667914Y-82016666D02*
X155715533Y-82111904D01*
X155429819Y-80683333D02*
X155429819Y-80873809D01*
X155429819Y-80873809D02*
X155477438Y-80969047D01*
X155477438Y-80969047D02*
X155525057Y-81016666D01*
X155525057Y-81016666D02*
X155667914Y-81111904D01*
X155667914Y-81111904D02*
X155858390Y-81159523D01*
X155858390Y-81159523D02*
X156239342Y-81159523D01*
X156239342Y-81159523D02*
X156334580Y-81111904D01*
X156334580Y-81111904D02*
X156382200Y-81064285D01*
X156382200Y-81064285D02*
X156429819Y-80969047D01*
X156429819Y-80969047D02*
X156429819Y-80778571D01*
X156429819Y-80778571D02*
X156382200Y-80683333D01*
X156382200Y-80683333D02*
X156334580Y-80635714D01*
X156334580Y-80635714D02*
X156239342Y-80588095D01*
X156239342Y-80588095D02*
X156001247Y-80588095D01*
X156001247Y-80588095D02*
X155906009Y-80635714D01*
X155906009Y-80635714D02*
X155858390Y-80683333D01*
X155858390Y-80683333D02*
X155810771Y-80778571D01*
X155810771Y-80778571D02*
X155810771Y-80969047D01*
X155810771Y-80969047D02*
X155858390Y-81064285D01*
X155858390Y-81064285D02*
X155906009Y-81111904D01*
X155906009Y-81111904D02*
X156001247Y-81159523D01*
X151029819Y-105917857D02*
X150553628Y-106251190D01*
X151029819Y-106489285D02*
X150029819Y-106489285D01*
X150029819Y-106489285D02*
X150029819Y-106108333D01*
X150029819Y-106108333D02*
X150077438Y-106013095D01*
X150077438Y-106013095D02*
X150125057Y-105965476D01*
X150125057Y-105965476D02*
X150220295Y-105917857D01*
X150220295Y-105917857D02*
X150363152Y-105917857D01*
X150363152Y-105917857D02*
X150458390Y-105965476D01*
X150458390Y-105965476D02*
X150506009Y-106013095D01*
X150506009Y-106013095D02*
X150553628Y-106108333D01*
X150553628Y-106108333D02*
X150553628Y-106489285D01*
X151029819Y-104965476D02*
X151029819Y-105536904D01*
X151029819Y-105251190D02*
X150029819Y-105251190D01*
X150029819Y-105251190D02*
X150172676Y-105346428D01*
X150172676Y-105346428D02*
X150267914Y-105441666D01*
X150267914Y-105441666D02*
X150315533Y-105536904D01*
X150029819Y-104346428D02*
X150029819Y-104251190D01*
X150029819Y-104251190D02*
X150077438Y-104155952D01*
X150077438Y-104155952D02*
X150125057Y-104108333D01*
X150125057Y-104108333D02*
X150220295Y-104060714D01*
X150220295Y-104060714D02*
X150410771Y-104013095D01*
X150410771Y-104013095D02*
X150648866Y-104013095D01*
X150648866Y-104013095D02*
X150839342Y-104060714D01*
X150839342Y-104060714D02*
X150934580Y-104108333D01*
X150934580Y-104108333D02*
X150982200Y-104155952D01*
X150982200Y-104155952D02*
X151029819Y-104251190D01*
X151029819Y-104251190D02*
X151029819Y-104346428D01*
X151029819Y-104346428D02*
X150982200Y-104441666D01*
X150982200Y-104441666D02*
X150934580Y-104489285D01*
X150934580Y-104489285D02*
X150839342Y-104536904D01*
X150839342Y-104536904D02*
X150648866Y-104584523D01*
X150648866Y-104584523D02*
X150410771Y-104584523D01*
X150410771Y-104584523D02*
X150220295Y-104536904D01*
X150220295Y-104536904D02*
X150125057Y-104489285D01*
X150125057Y-104489285D02*
X150077438Y-104441666D01*
X150077438Y-104441666D02*
X150029819Y-104346428D01*
X143304819Y-105241666D02*
X142828628Y-105574999D01*
X143304819Y-105813094D02*
X142304819Y-105813094D01*
X142304819Y-105813094D02*
X142304819Y-105432142D01*
X142304819Y-105432142D02*
X142352438Y-105336904D01*
X142352438Y-105336904D02*
X142400057Y-105289285D01*
X142400057Y-105289285D02*
X142495295Y-105241666D01*
X142495295Y-105241666D02*
X142638152Y-105241666D01*
X142638152Y-105241666D02*
X142733390Y-105289285D01*
X142733390Y-105289285D02*
X142781009Y-105336904D01*
X142781009Y-105336904D02*
X142828628Y-105432142D01*
X142828628Y-105432142D02*
X142828628Y-105813094D01*
X142733390Y-104670237D02*
X142685771Y-104765475D01*
X142685771Y-104765475D02*
X142638152Y-104813094D01*
X142638152Y-104813094D02*
X142542914Y-104860713D01*
X142542914Y-104860713D02*
X142495295Y-104860713D01*
X142495295Y-104860713D02*
X142400057Y-104813094D01*
X142400057Y-104813094D02*
X142352438Y-104765475D01*
X142352438Y-104765475D02*
X142304819Y-104670237D01*
X142304819Y-104670237D02*
X142304819Y-104479761D01*
X142304819Y-104479761D02*
X142352438Y-104384523D01*
X142352438Y-104384523D02*
X142400057Y-104336904D01*
X142400057Y-104336904D02*
X142495295Y-104289285D01*
X142495295Y-104289285D02*
X142542914Y-104289285D01*
X142542914Y-104289285D02*
X142638152Y-104336904D01*
X142638152Y-104336904D02*
X142685771Y-104384523D01*
X142685771Y-104384523D02*
X142733390Y-104479761D01*
X142733390Y-104479761D02*
X142733390Y-104670237D01*
X142733390Y-104670237D02*
X142781009Y-104765475D01*
X142781009Y-104765475D02*
X142828628Y-104813094D01*
X142828628Y-104813094D02*
X142923866Y-104860713D01*
X142923866Y-104860713D02*
X143114342Y-104860713D01*
X143114342Y-104860713D02*
X143209580Y-104813094D01*
X143209580Y-104813094D02*
X143257200Y-104765475D01*
X143257200Y-104765475D02*
X143304819Y-104670237D01*
X143304819Y-104670237D02*
X143304819Y-104479761D01*
X143304819Y-104479761D02*
X143257200Y-104384523D01*
X143257200Y-104384523D02*
X143209580Y-104336904D01*
X143209580Y-104336904D02*
X143114342Y-104289285D01*
X143114342Y-104289285D02*
X142923866Y-104289285D01*
X142923866Y-104289285D02*
X142828628Y-104336904D01*
X142828628Y-104336904D02*
X142781009Y-104384523D01*
X142781009Y-104384523D02*
X142733390Y-104479761D01*
X162311905Y-87654819D02*
X162311905Y-86654819D01*
X162311905Y-86654819D02*
X162550000Y-86654819D01*
X162550000Y-86654819D02*
X162692857Y-86702438D01*
X162692857Y-86702438D02*
X162788095Y-86797676D01*
X162788095Y-86797676D02*
X162835714Y-86892914D01*
X162835714Y-86892914D02*
X162883333Y-87083390D01*
X162883333Y-87083390D02*
X162883333Y-87226247D01*
X162883333Y-87226247D02*
X162835714Y-87416723D01*
X162835714Y-87416723D02*
X162788095Y-87511961D01*
X162788095Y-87511961D02*
X162692857Y-87607200D01*
X162692857Y-87607200D02*
X162550000Y-87654819D01*
X162550000Y-87654819D02*
X162311905Y-87654819D01*
X163740476Y-86654819D02*
X163550000Y-86654819D01*
X163550000Y-86654819D02*
X163454762Y-86702438D01*
X163454762Y-86702438D02*
X163407143Y-86750057D01*
X163407143Y-86750057D02*
X163311905Y-86892914D01*
X163311905Y-86892914D02*
X163264286Y-87083390D01*
X163264286Y-87083390D02*
X163264286Y-87464342D01*
X163264286Y-87464342D02*
X163311905Y-87559580D01*
X163311905Y-87559580D02*
X163359524Y-87607200D01*
X163359524Y-87607200D02*
X163454762Y-87654819D01*
X163454762Y-87654819D02*
X163645238Y-87654819D01*
X163645238Y-87654819D02*
X163740476Y-87607200D01*
X163740476Y-87607200D02*
X163788095Y-87559580D01*
X163788095Y-87559580D02*
X163835714Y-87464342D01*
X163835714Y-87464342D02*
X163835714Y-87226247D01*
X163835714Y-87226247D02*
X163788095Y-87131009D01*
X163788095Y-87131009D02*
X163740476Y-87083390D01*
X163740476Y-87083390D02*
X163645238Y-87035771D01*
X163645238Y-87035771D02*
X163454762Y-87035771D01*
X163454762Y-87035771D02*
X163359524Y-87083390D01*
X163359524Y-87083390D02*
X163311905Y-87131009D01*
X163311905Y-87131009D02*
X163264286Y-87226247D01*
X168607142Y-84789580D02*
X168559523Y-84837200D01*
X168559523Y-84837200D02*
X168416666Y-84884819D01*
X168416666Y-84884819D02*
X168321428Y-84884819D01*
X168321428Y-84884819D02*
X168178571Y-84837200D01*
X168178571Y-84837200D02*
X168083333Y-84741961D01*
X168083333Y-84741961D02*
X168035714Y-84646723D01*
X168035714Y-84646723D02*
X167988095Y-84456247D01*
X167988095Y-84456247D02*
X167988095Y-84313390D01*
X167988095Y-84313390D02*
X168035714Y-84122914D01*
X168035714Y-84122914D02*
X168083333Y-84027676D01*
X168083333Y-84027676D02*
X168178571Y-83932438D01*
X168178571Y-83932438D02*
X168321428Y-83884819D01*
X168321428Y-83884819D02*
X168416666Y-83884819D01*
X168416666Y-83884819D02*
X168559523Y-83932438D01*
X168559523Y-83932438D02*
X168607142Y-83980057D01*
X169559523Y-84884819D02*
X168988095Y-84884819D01*
X169273809Y-84884819D02*
X169273809Y-83884819D01*
X169273809Y-83884819D02*
X169178571Y-84027676D01*
X169178571Y-84027676D02*
X169083333Y-84122914D01*
X169083333Y-84122914D02*
X168988095Y-84170533D01*
X169892857Y-83884819D02*
X170511904Y-83884819D01*
X170511904Y-83884819D02*
X170178571Y-84265771D01*
X170178571Y-84265771D02*
X170321428Y-84265771D01*
X170321428Y-84265771D02*
X170416666Y-84313390D01*
X170416666Y-84313390D02*
X170464285Y-84361009D01*
X170464285Y-84361009D02*
X170511904Y-84456247D01*
X170511904Y-84456247D02*
X170511904Y-84694342D01*
X170511904Y-84694342D02*
X170464285Y-84789580D01*
X170464285Y-84789580D02*
X170416666Y-84837200D01*
X170416666Y-84837200D02*
X170321428Y-84884819D01*
X170321428Y-84884819D02*
X170035714Y-84884819D01*
X170035714Y-84884819D02*
X169940476Y-84837200D01*
X169940476Y-84837200D02*
X169892857Y-84789580D01*
X140054819Y-71192857D02*
X139578628Y-71526190D01*
X140054819Y-71764285D02*
X139054819Y-71764285D01*
X139054819Y-71764285D02*
X139054819Y-71383333D01*
X139054819Y-71383333D02*
X139102438Y-71288095D01*
X139102438Y-71288095D02*
X139150057Y-71240476D01*
X139150057Y-71240476D02*
X139245295Y-71192857D01*
X139245295Y-71192857D02*
X139388152Y-71192857D01*
X139388152Y-71192857D02*
X139483390Y-71240476D01*
X139483390Y-71240476D02*
X139531009Y-71288095D01*
X139531009Y-71288095D02*
X139578628Y-71383333D01*
X139578628Y-71383333D02*
X139578628Y-71764285D01*
X140054819Y-70240476D02*
X140054819Y-70811904D01*
X140054819Y-70526190D02*
X139054819Y-70526190D01*
X139054819Y-70526190D02*
X139197676Y-70621428D01*
X139197676Y-70621428D02*
X139292914Y-70716666D01*
X139292914Y-70716666D02*
X139340533Y-70811904D01*
X139054819Y-69335714D02*
X139054819Y-69811904D01*
X139054819Y-69811904D02*
X139531009Y-69859523D01*
X139531009Y-69859523D02*
X139483390Y-69811904D01*
X139483390Y-69811904D02*
X139435771Y-69716666D01*
X139435771Y-69716666D02*
X139435771Y-69478571D01*
X139435771Y-69478571D02*
X139483390Y-69383333D01*
X139483390Y-69383333D02*
X139531009Y-69335714D01*
X139531009Y-69335714D02*
X139626247Y-69288095D01*
X139626247Y-69288095D02*
X139864342Y-69288095D01*
X139864342Y-69288095D02*
X139959580Y-69335714D01*
X139959580Y-69335714D02*
X140007200Y-69383333D01*
X140007200Y-69383333D02*
X140054819Y-69478571D01*
X140054819Y-69478571D02*
X140054819Y-69716666D01*
X140054819Y-69716666D02*
X140007200Y-69811904D01*
X140007200Y-69811904D02*
X139959580Y-69859523D01*
X162288095Y-77204819D02*
X162288095Y-78014342D01*
X162288095Y-78014342D02*
X162335714Y-78109580D01*
X162335714Y-78109580D02*
X162383333Y-78157200D01*
X162383333Y-78157200D02*
X162478571Y-78204819D01*
X162478571Y-78204819D02*
X162669047Y-78204819D01*
X162669047Y-78204819D02*
X162764285Y-78157200D01*
X162764285Y-78157200D02*
X162811904Y-78109580D01*
X162811904Y-78109580D02*
X162859523Y-78014342D01*
X162859523Y-78014342D02*
X162859523Y-77204819D01*
X163764285Y-77204819D02*
X163573809Y-77204819D01*
X163573809Y-77204819D02*
X163478571Y-77252438D01*
X163478571Y-77252438D02*
X163430952Y-77300057D01*
X163430952Y-77300057D02*
X163335714Y-77442914D01*
X163335714Y-77442914D02*
X163288095Y-77633390D01*
X163288095Y-77633390D02*
X163288095Y-78014342D01*
X163288095Y-78014342D02*
X163335714Y-78109580D01*
X163335714Y-78109580D02*
X163383333Y-78157200D01*
X163383333Y-78157200D02*
X163478571Y-78204819D01*
X163478571Y-78204819D02*
X163669047Y-78204819D01*
X163669047Y-78204819D02*
X163764285Y-78157200D01*
X163764285Y-78157200D02*
X163811904Y-78109580D01*
X163811904Y-78109580D02*
X163859523Y-78014342D01*
X163859523Y-78014342D02*
X163859523Y-77776247D01*
X163859523Y-77776247D02*
X163811904Y-77681009D01*
X163811904Y-77681009D02*
X163764285Y-77633390D01*
X163764285Y-77633390D02*
X163669047Y-77585771D01*
X163669047Y-77585771D02*
X163478571Y-77585771D01*
X163478571Y-77585771D02*
X163383333Y-77633390D01*
X163383333Y-77633390D02*
X163335714Y-77681009D01*
X163335714Y-77681009D02*
X163288095Y-77776247D01*
X163304819Y-71192857D02*
X162828628Y-71526190D01*
X163304819Y-71764285D02*
X162304819Y-71764285D01*
X162304819Y-71764285D02*
X162304819Y-71383333D01*
X162304819Y-71383333D02*
X162352438Y-71288095D01*
X162352438Y-71288095D02*
X162400057Y-71240476D01*
X162400057Y-71240476D02*
X162495295Y-71192857D01*
X162495295Y-71192857D02*
X162638152Y-71192857D01*
X162638152Y-71192857D02*
X162733390Y-71240476D01*
X162733390Y-71240476D02*
X162781009Y-71288095D01*
X162781009Y-71288095D02*
X162828628Y-71383333D01*
X162828628Y-71383333D02*
X162828628Y-71764285D01*
X163304819Y-70240476D02*
X163304819Y-70811904D01*
X163304819Y-70526190D02*
X162304819Y-70526190D01*
X162304819Y-70526190D02*
X162447676Y-70621428D01*
X162447676Y-70621428D02*
X162542914Y-70716666D01*
X162542914Y-70716666D02*
X162590533Y-70811904D01*
X162304819Y-69907142D02*
X162304819Y-69288095D01*
X162304819Y-69288095D02*
X162685771Y-69621428D01*
X162685771Y-69621428D02*
X162685771Y-69478571D01*
X162685771Y-69478571D02*
X162733390Y-69383333D01*
X162733390Y-69383333D02*
X162781009Y-69335714D01*
X162781009Y-69335714D02*
X162876247Y-69288095D01*
X162876247Y-69288095D02*
X163114342Y-69288095D01*
X163114342Y-69288095D02*
X163209580Y-69335714D01*
X163209580Y-69335714D02*
X163257200Y-69383333D01*
X163257200Y-69383333D02*
X163304819Y-69478571D01*
X163304819Y-69478571D02*
X163304819Y-69764285D01*
X163304819Y-69764285D02*
X163257200Y-69859523D01*
X163257200Y-69859523D02*
X163209580Y-69907142D01*
X116088095Y-49554819D02*
X116088095Y-50364342D01*
X116088095Y-50364342D02*
X116135714Y-50459580D01*
X116135714Y-50459580D02*
X116183333Y-50507200D01*
X116183333Y-50507200D02*
X116278571Y-50554819D01*
X116278571Y-50554819D02*
X116469047Y-50554819D01*
X116469047Y-50554819D02*
X116564285Y-50507200D01*
X116564285Y-50507200D02*
X116611904Y-50459580D01*
X116611904Y-50459580D02*
X116659523Y-50364342D01*
X116659523Y-50364342D02*
X116659523Y-49554819D01*
X117611904Y-49554819D02*
X117135714Y-49554819D01*
X117135714Y-49554819D02*
X117088095Y-50031009D01*
X117088095Y-50031009D02*
X117135714Y-49983390D01*
X117135714Y-49983390D02*
X117230952Y-49935771D01*
X117230952Y-49935771D02*
X117469047Y-49935771D01*
X117469047Y-49935771D02*
X117564285Y-49983390D01*
X117564285Y-49983390D02*
X117611904Y-50031009D01*
X117611904Y-50031009D02*
X117659523Y-50126247D01*
X117659523Y-50126247D02*
X117659523Y-50364342D01*
X117659523Y-50364342D02*
X117611904Y-50459580D01*
X117611904Y-50459580D02*
X117564285Y-50507200D01*
X117564285Y-50507200D02*
X117469047Y-50554819D01*
X117469047Y-50554819D02*
X117230952Y-50554819D01*
X117230952Y-50554819D02*
X117135714Y-50507200D01*
X117135714Y-50507200D02*
X117088095Y-50459580D01*
X138229819Y-71167857D02*
X137753628Y-71501190D01*
X138229819Y-71739285D02*
X137229819Y-71739285D01*
X137229819Y-71739285D02*
X137229819Y-71358333D01*
X137229819Y-71358333D02*
X137277438Y-71263095D01*
X137277438Y-71263095D02*
X137325057Y-71215476D01*
X137325057Y-71215476D02*
X137420295Y-71167857D01*
X137420295Y-71167857D02*
X137563152Y-71167857D01*
X137563152Y-71167857D02*
X137658390Y-71215476D01*
X137658390Y-71215476D02*
X137706009Y-71263095D01*
X137706009Y-71263095D02*
X137753628Y-71358333D01*
X137753628Y-71358333D02*
X137753628Y-71739285D01*
X138229819Y-70215476D02*
X138229819Y-70786904D01*
X138229819Y-70501190D02*
X137229819Y-70501190D01*
X137229819Y-70501190D02*
X137372676Y-70596428D01*
X137372676Y-70596428D02*
X137467914Y-70691666D01*
X137467914Y-70691666D02*
X137515533Y-70786904D01*
X137229819Y-69358333D02*
X137229819Y-69548809D01*
X137229819Y-69548809D02*
X137277438Y-69644047D01*
X137277438Y-69644047D02*
X137325057Y-69691666D01*
X137325057Y-69691666D02*
X137467914Y-69786904D01*
X137467914Y-69786904D02*
X137658390Y-69834523D01*
X137658390Y-69834523D02*
X138039342Y-69834523D01*
X138039342Y-69834523D02*
X138134580Y-69786904D01*
X138134580Y-69786904D02*
X138182200Y-69739285D01*
X138182200Y-69739285D02*
X138229819Y-69644047D01*
X138229819Y-69644047D02*
X138229819Y-69453571D01*
X138229819Y-69453571D02*
X138182200Y-69358333D01*
X138182200Y-69358333D02*
X138134580Y-69310714D01*
X138134580Y-69310714D02*
X138039342Y-69263095D01*
X138039342Y-69263095D02*
X137801247Y-69263095D01*
X137801247Y-69263095D02*
X137706009Y-69310714D01*
X137706009Y-69310714D02*
X137658390Y-69358333D01*
X137658390Y-69358333D02*
X137610771Y-69453571D01*
X137610771Y-69453571D02*
X137610771Y-69644047D01*
X137610771Y-69644047D02*
X137658390Y-69739285D01*
X137658390Y-69739285D02*
X137706009Y-69786904D01*
X137706009Y-69786904D02*
X137801247Y-69834523D01*
X108229819Y-71739285D02*
X107229819Y-71739285D01*
X107229819Y-71739285D02*
X107229819Y-71501190D01*
X107229819Y-71501190D02*
X107277438Y-71358333D01*
X107277438Y-71358333D02*
X107372676Y-71263095D01*
X107372676Y-71263095D02*
X107467914Y-71215476D01*
X107467914Y-71215476D02*
X107658390Y-71167857D01*
X107658390Y-71167857D02*
X107801247Y-71167857D01*
X107801247Y-71167857D02*
X107991723Y-71215476D01*
X107991723Y-71215476D02*
X108086961Y-71263095D01*
X108086961Y-71263095D02*
X108182200Y-71358333D01*
X108182200Y-71358333D02*
X108229819Y-71501190D01*
X108229819Y-71501190D02*
X108229819Y-71739285D01*
X108229819Y-70215476D02*
X108229819Y-70786904D01*
X108229819Y-70501190D02*
X107229819Y-70501190D01*
X107229819Y-70501190D02*
X107372676Y-70596428D01*
X107372676Y-70596428D02*
X107467914Y-70691666D01*
X107467914Y-70691666D02*
X107515533Y-70786904D01*
X107563152Y-69358333D02*
X108229819Y-69358333D01*
X107182200Y-69596428D02*
X107896485Y-69834523D01*
X107896485Y-69834523D02*
X107896485Y-69215476D01*
X116385714Y-61554819D02*
X116385714Y-60554819D01*
X116385714Y-60554819D02*
X116623809Y-60554819D01*
X116623809Y-60554819D02*
X116766666Y-60602438D01*
X116766666Y-60602438D02*
X116861904Y-60697676D01*
X116861904Y-60697676D02*
X116909523Y-60792914D01*
X116909523Y-60792914D02*
X116957142Y-60983390D01*
X116957142Y-60983390D02*
X116957142Y-61126247D01*
X116957142Y-61126247D02*
X116909523Y-61316723D01*
X116909523Y-61316723D02*
X116861904Y-61411961D01*
X116861904Y-61411961D02*
X116766666Y-61507200D01*
X116766666Y-61507200D02*
X116623809Y-61554819D01*
X116623809Y-61554819D02*
X116385714Y-61554819D01*
X117909523Y-61554819D02*
X117338095Y-61554819D01*
X117623809Y-61554819D02*
X117623809Y-60554819D01*
X117623809Y-60554819D02*
X117528571Y-60697676D01*
X117528571Y-60697676D02*
X117433333Y-60792914D01*
X117433333Y-60792914D02*
X117338095Y-60840533D01*
X118385714Y-61554819D02*
X118576190Y-61554819D01*
X118576190Y-61554819D02*
X118671428Y-61507200D01*
X118671428Y-61507200D02*
X118719047Y-61459580D01*
X118719047Y-61459580D02*
X118814285Y-61316723D01*
X118814285Y-61316723D02*
X118861904Y-61126247D01*
X118861904Y-61126247D02*
X118861904Y-60745295D01*
X118861904Y-60745295D02*
X118814285Y-60650057D01*
X118814285Y-60650057D02*
X118766666Y-60602438D01*
X118766666Y-60602438D02*
X118671428Y-60554819D01*
X118671428Y-60554819D02*
X118480952Y-60554819D01*
X118480952Y-60554819D02*
X118385714Y-60602438D01*
X118385714Y-60602438D02*
X118338095Y-60650057D01*
X118338095Y-60650057D02*
X118290476Y-60745295D01*
X118290476Y-60745295D02*
X118290476Y-60983390D01*
X118290476Y-60983390D02*
X118338095Y-61078628D01*
X118338095Y-61078628D02*
X118385714Y-61126247D01*
X118385714Y-61126247D02*
X118480952Y-61173866D01*
X118480952Y-61173866D02*
X118671428Y-61173866D01*
X118671428Y-61173866D02*
X118766666Y-61126247D01*
X118766666Y-61126247D02*
X118814285Y-61078628D01*
X118814285Y-61078628D02*
X118861904Y-60983390D01*
X149071905Y-120104819D02*
X149071905Y-119104819D01*
X149071905Y-119104819D02*
X149310000Y-119104819D01*
X149310000Y-119104819D02*
X149452857Y-119152438D01*
X149452857Y-119152438D02*
X149548095Y-119247676D01*
X149548095Y-119247676D02*
X149595714Y-119342914D01*
X149595714Y-119342914D02*
X149643333Y-119533390D01*
X149643333Y-119533390D02*
X149643333Y-119676247D01*
X149643333Y-119676247D02*
X149595714Y-119866723D01*
X149595714Y-119866723D02*
X149548095Y-119961961D01*
X149548095Y-119961961D02*
X149452857Y-120057200D01*
X149452857Y-120057200D02*
X149310000Y-120104819D01*
X149310000Y-120104819D02*
X149071905Y-120104819D01*
X149976667Y-119104819D02*
X150595714Y-119104819D01*
X150595714Y-119104819D02*
X150262381Y-119485771D01*
X150262381Y-119485771D02*
X150405238Y-119485771D01*
X150405238Y-119485771D02*
X150500476Y-119533390D01*
X150500476Y-119533390D02*
X150548095Y-119581009D01*
X150548095Y-119581009D02*
X150595714Y-119676247D01*
X150595714Y-119676247D02*
X150595714Y-119914342D01*
X150595714Y-119914342D02*
X150548095Y-120009580D01*
X150548095Y-120009580D02*
X150500476Y-120057200D01*
X150500476Y-120057200D02*
X150405238Y-120104819D01*
X150405238Y-120104819D02*
X150119524Y-120104819D01*
X150119524Y-120104819D02*
X150024286Y-120057200D01*
X150024286Y-120057200D02*
X149976667Y-120009580D01*
X161379819Y-71192857D02*
X160903628Y-71526190D01*
X161379819Y-71764285D02*
X160379819Y-71764285D01*
X160379819Y-71764285D02*
X160379819Y-71383333D01*
X160379819Y-71383333D02*
X160427438Y-71288095D01*
X160427438Y-71288095D02*
X160475057Y-71240476D01*
X160475057Y-71240476D02*
X160570295Y-71192857D01*
X160570295Y-71192857D02*
X160713152Y-71192857D01*
X160713152Y-71192857D02*
X160808390Y-71240476D01*
X160808390Y-71240476D02*
X160856009Y-71288095D01*
X160856009Y-71288095D02*
X160903628Y-71383333D01*
X160903628Y-71383333D02*
X160903628Y-71764285D01*
X161379819Y-70240476D02*
X161379819Y-70811904D01*
X161379819Y-70526190D02*
X160379819Y-70526190D01*
X160379819Y-70526190D02*
X160522676Y-70621428D01*
X160522676Y-70621428D02*
X160617914Y-70716666D01*
X160617914Y-70716666D02*
X160665533Y-70811904D01*
X160713152Y-69383333D02*
X161379819Y-69383333D01*
X160332200Y-69621428D02*
X161046485Y-69859523D01*
X161046485Y-69859523D02*
X161046485Y-69240476D01*
X166133333Y-128684580D02*
X166085714Y-128732200D01*
X166085714Y-128732200D02*
X165942857Y-128779819D01*
X165942857Y-128779819D02*
X165847619Y-128779819D01*
X165847619Y-128779819D02*
X165704762Y-128732200D01*
X165704762Y-128732200D02*
X165609524Y-128636961D01*
X165609524Y-128636961D02*
X165561905Y-128541723D01*
X165561905Y-128541723D02*
X165514286Y-128351247D01*
X165514286Y-128351247D02*
X165514286Y-128208390D01*
X165514286Y-128208390D02*
X165561905Y-128017914D01*
X165561905Y-128017914D02*
X165609524Y-127922676D01*
X165609524Y-127922676D02*
X165704762Y-127827438D01*
X165704762Y-127827438D02*
X165847619Y-127779819D01*
X165847619Y-127779819D02*
X165942857Y-127779819D01*
X165942857Y-127779819D02*
X166085714Y-127827438D01*
X166085714Y-127827438D02*
X166133333Y-127875057D01*
X167085714Y-128779819D02*
X166514286Y-128779819D01*
X166800000Y-128779819D02*
X166800000Y-127779819D01*
X166800000Y-127779819D02*
X166704762Y-127922676D01*
X166704762Y-127922676D02*
X166609524Y-128017914D01*
X166609524Y-128017914D02*
X166514286Y-128065533D01*
X148579819Y-106016666D02*
X148103628Y-106349999D01*
X148579819Y-106588094D02*
X147579819Y-106588094D01*
X147579819Y-106588094D02*
X147579819Y-106207142D01*
X147579819Y-106207142D02*
X147627438Y-106111904D01*
X147627438Y-106111904D02*
X147675057Y-106064285D01*
X147675057Y-106064285D02*
X147770295Y-106016666D01*
X147770295Y-106016666D02*
X147913152Y-106016666D01*
X147913152Y-106016666D02*
X148008390Y-106064285D01*
X148008390Y-106064285D02*
X148056009Y-106111904D01*
X148056009Y-106111904D02*
X148103628Y-106207142D01*
X148103628Y-106207142D02*
X148103628Y-106588094D01*
X147579819Y-105159523D02*
X147579819Y-105349999D01*
X147579819Y-105349999D02*
X147627438Y-105445237D01*
X147627438Y-105445237D02*
X147675057Y-105492856D01*
X147675057Y-105492856D02*
X147817914Y-105588094D01*
X147817914Y-105588094D02*
X148008390Y-105635713D01*
X148008390Y-105635713D02*
X148389342Y-105635713D01*
X148389342Y-105635713D02*
X148484580Y-105588094D01*
X148484580Y-105588094D02*
X148532200Y-105540475D01*
X148532200Y-105540475D02*
X148579819Y-105445237D01*
X148579819Y-105445237D02*
X148579819Y-105254761D01*
X148579819Y-105254761D02*
X148532200Y-105159523D01*
X148532200Y-105159523D02*
X148484580Y-105111904D01*
X148484580Y-105111904D02*
X148389342Y-105064285D01*
X148389342Y-105064285D02*
X148151247Y-105064285D01*
X148151247Y-105064285D02*
X148056009Y-105111904D01*
X148056009Y-105111904D02*
X148008390Y-105159523D01*
X148008390Y-105159523D02*
X147960771Y-105254761D01*
X147960771Y-105254761D02*
X147960771Y-105445237D01*
X147960771Y-105445237D02*
X148008390Y-105540475D01*
X148008390Y-105540475D02*
X148056009Y-105588094D01*
X148056009Y-105588094D02*
X148151247Y-105635713D01*
X149168333Y-138164580D02*
X149120714Y-138212200D01*
X149120714Y-138212200D02*
X148977857Y-138259819D01*
X148977857Y-138259819D02*
X148882619Y-138259819D01*
X148882619Y-138259819D02*
X148739762Y-138212200D01*
X148739762Y-138212200D02*
X148644524Y-138116961D01*
X148644524Y-138116961D02*
X148596905Y-138021723D01*
X148596905Y-138021723D02*
X148549286Y-137831247D01*
X148549286Y-137831247D02*
X148549286Y-137688390D01*
X148549286Y-137688390D02*
X148596905Y-137497914D01*
X148596905Y-137497914D02*
X148644524Y-137402676D01*
X148644524Y-137402676D02*
X148739762Y-137307438D01*
X148739762Y-137307438D02*
X148882619Y-137259819D01*
X148882619Y-137259819D02*
X148977857Y-137259819D01*
X148977857Y-137259819D02*
X149120714Y-137307438D01*
X149120714Y-137307438D02*
X149168333Y-137355057D01*
X149501667Y-137259819D02*
X150120714Y-137259819D01*
X150120714Y-137259819D02*
X149787381Y-137640771D01*
X149787381Y-137640771D02*
X149930238Y-137640771D01*
X149930238Y-137640771D02*
X150025476Y-137688390D01*
X150025476Y-137688390D02*
X150073095Y-137736009D01*
X150073095Y-137736009D02*
X150120714Y-137831247D01*
X150120714Y-137831247D02*
X150120714Y-138069342D01*
X150120714Y-138069342D02*
X150073095Y-138164580D01*
X150073095Y-138164580D02*
X150025476Y-138212200D01*
X150025476Y-138212200D02*
X149930238Y-138259819D01*
X149930238Y-138259819D02*
X149644524Y-138259819D01*
X149644524Y-138259819D02*
X149549286Y-138212200D01*
X149549286Y-138212200D02*
X149501667Y-138164580D01*
X147539580Y-55816666D02*
X147587200Y-55864285D01*
X147587200Y-55864285D02*
X147634819Y-56007142D01*
X147634819Y-56007142D02*
X147634819Y-56102380D01*
X147634819Y-56102380D02*
X147587200Y-56245237D01*
X147587200Y-56245237D02*
X147491961Y-56340475D01*
X147491961Y-56340475D02*
X147396723Y-56388094D01*
X147396723Y-56388094D02*
X147206247Y-56435713D01*
X147206247Y-56435713D02*
X147063390Y-56435713D01*
X147063390Y-56435713D02*
X146872914Y-56388094D01*
X146872914Y-56388094D02*
X146777676Y-56340475D01*
X146777676Y-56340475D02*
X146682438Y-56245237D01*
X146682438Y-56245237D02*
X146634819Y-56102380D01*
X146634819Y-56102380D02*
X146634819Y-56007142D01*
X146634819Y-56007142D02*
X146682438Y-55864285D01*
X146682438Y-55864285D02*
X146730057Y-55816666D01*
X147063390Y-55245237D02*
X147015771Y-55340475D01*
X147015771Y-55340475D02*
X146968152Y-55388094D01*
X146968152Y-55388094D02*
X146872914Y-55435713D01*
X146872914Y-55435713D02*
X146825295Y-55435713D01*
X146825295Y-55435713D02*
X146730057Y-55388094D01*
X146730057Y-55388094D02*
X146682438Y-55340475D01*
X146682438Y-55340475D02*
X146634819Y-55245237D01*
X146634819Y-55245237D02*
X146634819Y-55054761D01*
X146634819Y-55054761D02*
X146682438Y-54959523D01*
X146682438Y-54959523D02*
X146730057Y-54911904D01*
X146730057Y-54911904D02*
X146825295Y-54864285D01*
X146825295Y-54864285D02*
X146872914Y-54864285D01*
X146872914Y-54864285D02*
X146968152Y-54911904D01*
X146968152Y-54911904D02*
X147015771Y-54959523D01*
X147015771Y-54959523D02*
X147063390Y-55054761D01*
X147063390Y-55054761D02*
X147063390Y-55245237D01*
X147063390Y-55245237D02*
X147111009Y-55340475D01*
X147111009Y-55340475D02*
X147158628Y-55388094D01*
X147158628Y-55388094D02*
X147253866Y-55435713D01*
X147253866Y-55435713D02*
X147444342Y-55435713D01*
X147444342Y-55435713D02*
X147539580Y-55388094D01*
X147539580Y-55388094D02*
X147587200Y-55340475D01*
X147587200Y-55340475D02*
X147634819Y-55245237D01*
X147634819Y-55245237D02*
X147634819Y-55054761D01*
X147634819Y-55054761D02*
X147587200Y-54959523D01*
X147587200Y-54959523D02*
X147539580Y-54911904D01*
X147539580Y-54911904D02*
X147444342Y-54864285D01*
X147444342Y-54864285D02*
X147253866Y-54864285D01*
X147253866Y-54864285D02*
X147158628Y-54911904D01*
X147158628Y-54911904D02*
X147111009Y-54959523D01*
X147111009Y-54959523D02*
X147063390Y-55054761D01*
X153979819Y-106241666D02*
X153503628Y-106574999D01*
X153979819Y-106813094D02*
X152979819Y-106813094D01*
X152979819Y-106813094D02*
X152979819Y-106432142D01*
X152979819Y-106432142D02*
X153027438Y-106336904D01*
X153027438Y-106336904D02*
X153075057Y-106289285D01*
X153075057Y-106289285D02*
X153170295Y-106241666D01*
X153170295Y-106241666D02*
X153313152Y-106241666D01*
X153313152Y-106241666D02*
X153408390Y-106289285D01*
X153408390Y-106289285D02*
X153456009Y-106336904D01*
X153456009Y-106336904D02*
X153503628Y-106432142D01*
X153503628Y-106432142D02*
X153503628Y-106813094D01*
X152979819Y-105336904D02*
X152979819Y-105813094D01*
X152979819Y-105813094D02*
X153456009Y-105860713D01*
X153456009Y-105860713D02*
X153408390Y-105813094D01*
X153408390Y-105813094D02*
X153360771Y-105717856D01*
X153360771Y-105717856D02*
X153360771Y-105479761D01*
X153360771Y-105479761D02*
X153408390Y-105384523D01*
X153408390Y-105384523D02*
X153456009Y-105336904D01*
X153456009Y-105336904D02*
X153551247Y-105289285D01*
X153551247Y-105289285D02*
X153789342Y-105289285D01*
X153789342Y-105289285D02*
X153884580Y-105336904D01*
X153884580Y-105336904D02*
X153932200Y-105384523D01*
X153932200Y-105384523D02*
X153979819Y-105479761D01*
X153979819Y-105479761D02*
X153979819Y-105717856D01*
X153979819Y-105717856D02*
X153932200Y-105813094D01*
X153932200Y-105813094D02*
X153884580Y-105860713D01*
X133538095Y-50979819D02*
X133538095Y-51789342D01*
X133538095Y-51789342D02*
X133585714Y-51884580D01*
X133585714Y-51884580D02*
X133633333Y-51932200D01*
X133633333Y-51932200D02*
X133728571Y-51979819D01*
X133728571Y-51979819D02*
X133919047Y-51979819D01*
X133919047Y-51979819D02*
X134014285Y-51932200D01*
X134014285Y-51932200D02*
X134061904Y-51884580D01*
X134061904Y-51884580D02*
X134109523Y-51789342D01*
X134109523Y-51789342D02*
X134109523Y-50979819D01*
X135014285Y-51313152D02*
X135014285Y-51979819D01*
X134776190Y-50932200D02*
X134538095Y-51646485D01*
X134538095Y-51646485D02*
X135157142Y-51646485D01*
X170254819Y-71263094D02*
X169254819Y-71263094D01*
X169254819Y-71263094D02*
X169254819Y-71024999D01*
X169254819Y-71024999D02*
X169302438Y-70882142D01*
X169302438Y-70882142D02*
X169397676Y-70786904D01*
X169397676Y-70786904D02*
X169492914Y-70739285D01*
X169492914Y-70739285D02*
X169683390Y-70691666D01*
X169683390Y-70691666D02*
X169826247Y-70691666D01*
X169826247Y-70691666D02*
X170016723Y-70739285D01*
X170016723Y-70739285D02*
X170111961Y-70786904D01*
X170111961Y-70786904D02*
X170207200Y-70882142D01*
X170207200Y-70882142D02*
X170254819Y-71024999D01*
X170254819Y-71024999D02*
X170254819Y-71263094D01*
X170254819Y-70215475D02*
X170254819Y-70024999D01*
X170254819Y-70024999D02*
X170207200Y-69929761D01*
X170207200Y-69929761D02*
X170159580Y-69882142D01*
X170159580Y-69882142D02*
X170016723Y-69786904D01*
X170016723Y-69786904D02*
X169826247Y-69739285D01*
X169826247Y-69739285D02*
X169445295Y-69739285D01*
X169445295Y-69739285D02*
X169350057Y-69786904D01*
X169350057Y-69786904D02*
X169302438Y-69834523D01*
X169302438Y-69834523D02*
X169254819Y-69929761D01*
X169254819Y-69929761D02*
X169254819Y-70120237D01*
X169254819Y-70120237D02*
X169302438Y-70215475D01*
X169302438Y-70215475D02*
X169350057Y-70263094D01*
X169350057Y-70263094D02*
X169445295Y-70310713D01*
X169445295Y-70310713D02*
X169683390Y-70310713D01*
X169683390Y-70310713D02*
X169778628Y-70263094D01*
X169778628Y-70263094D02*
X169826247Y-70215475D01*
X169826247Y-70215475D02*
X169873866Y-70120237D01*
X169873866Y-70120237D02*
X169873866Y-69929761D01*
X169873866Y-69929761D02*
X169826247Y-69834523D01*
X169826247Y-69834523D02*
X169778628Y-69786904D01*
X169778628Y-69786904D02*
X169683390Y-69739285D01*
X136583333Y-129534580D02*
X136535714Y-129582200D01*
X136535714Y-129582200D02*
X136392857Y-129629819D01*
X136392857Y-129629819D02*
X136297619Y-129629819D01*
X136297619Y-129629819D02*
X136154762Y-129582200D01*
X136154762Y-129582200D02*
X136059524Y-129486961D01*
X136059524Y-129486961D02*
X136011905Y-129391723D01*
X136011905Y-129391723D02*
X135964286Y-129201247D01*
X135964286Y-129201247D02*
X135964286Y-129058390D01*
X135964286Y-129058390D02*
X136011905Y-128867914D01*
X136011905Y-128867914D02*
X136059524Y-128772676D01*
X136059524Y-128772676D02*
X136154762Y-128677438D01*
X136154762Y-128677438D02*
X136297619Y-128629819D01*
X136297619Y-128629819D02*
X136392857Y-128629819D01*
X136392857Y-128629819D02*
X136535714Y-128677438D01*
X136535714Y-128677438D02*
X136583333Y-128725057D01*
X137440476Y-128963152D02*
X137440476Y-129629819D01*
X137202381Y-128582200D02*
X136964286Y-129296485D01*
X136964286Y-129296485D02*
X137583333Y-129296485D01*
X154554819Y-71739285D02*
X153554819Y-71739285D01*
X153554819Y-71739285D02*
X153554819Y-71501190D01*
X153554819Y-71501190D02*
X153602438Y-71358333D01*
X153602438Y-71358333D02*
X153697676Y-71263095D01*
X153697676Y-71263095D02*
X153792914Y-71215476D01*
X153792914Y-71215476D02*
X153983390Y-71167857D01*
X153983390Y-71167857D02*
X154126247Y-71167857D01*
X154126247Y-71167857D02*
X154316723Y-71215476D01*
X154316723Y-71215476D02*
X154411961Y-71263095D01*
X154411961Y-71263095D02*
X154507200Y-71358333D01*
X154507200Y-71358333D02*
X154554819Y-71501190D01*
X154554819Y-71501190D02*
X154554819Y-71739285D01*
X154554819Y-70215476D02*
X154554819Y-70786904D01*
X154554819Y-70501190D02*
X153554819Y-70501190D01*
X153554819Y-70501190D02*
X153697676Y-70596428D01*
X153697676Y-70596428D02*
X153792914Y-70691666D01*
X153792914Y-70691666D02*
X153840533Y-70786904D01*
X153554819Y-69596428D02*
X153554819Y-69501190D01*
X153554819Y-69501190D02*
X153602438Y-69405952D01*
X153602438Y-69405952D02*
X153650057Y-69358333D01*
X153650057Y-69358333D02*
X153745295Y-69310714D01*
X153745295Y-69310714D02*
X153935771Y-69263095D01*
X153935771Y-69263095D02*
X154173866Y-69263095D01*
X154173866Y-69263095D02*
X154364342Y-69310714D01*
X154364342Y-69310714D02*
X154459580Y-69358333D01*
X154459580Y-69358333D02*
X154507200Y-69405952D01*
X154507200Y-69405952D02*
X154554819Y-69501190D01*
X154554819Y-69501190D02*
X154554819Y-69596428D01*
X154554819Y-69596428D02*
X154507200Y-69691666D01*
X154507200Y-69691666D02*
X154459580Y-69739285D01*
X154459580Y-69739285D02*
X154364342Y-69786904D01*
X154364342Y-69786904D02*
X154173866Y-69834523D01*
X154173866Y-69834523D02*
X153935771Y-69834523D01*
X153935771Y-69834523D02*
X153745295Y-69786904D01*
X153745295Y-69786904D02*
X153650057Y-69739285D01*
X153650057Y-69739285D02*
X153602438Y-69691666D01*
X153602438Y-69691666D02*
X153554819Y-69596428D01*
X130816666Y-140379819D02*
X130816666Y-141094104D01*
X130816666Y-141094104D02*
X130769047Y-141236961D01*
X130769047Y-141236961D02*
X130673809Y-141332200D01*
X130673809Y-141332200D02*
X130530952Y-141379819D01*
X130530952Y-141379819D02*
X130435714Y-141379819D01*
X131816666Y-141379819D02*
X131245238Y-141379819D01*
X131530952Y-141379819D02*
X131530952Y-140379819D01*
X131530952Y-140379819D02*
X131435714Y-140522676D01*
X131435714Y-140522676D02*
X131340476Y-140617914D01*
X131340476Y-140617914D02*
X131245238Y-140665533D01*
X131554819Y-71764285D02*
X130554819Y-71764285D01*
X130554819Y-71764285D02*
X130554819Y-71526190D01*
X130554819Y-71526190D02*
X130602438Y-71383333D01*
X130602438Y-71383333D02*
X130697676Y-71288095D01*
X130697676Y-71288095D02*
X130792914Y-71240476D01*
X130792914Y-71240476D02*
X130983390Y-71192857D01*
X130983390Y-71192857D02*
X131126247Y-71192857D01*
X131126247Y-71192857D02*
X131316723Y-71240476D01*
X131316723Y-71240476D02*
X131411961Y-71288095D01*
X131411961Y-71288095D02*
X131507200Y-71383333D01*
X131507200Y-71383333D02*
X131554819Y-71526190D01*
X131554819Y-71526190D02*
X131554819Y-71764285D01*
X131554819Y-70240476D02*
X131554819Y-70811904D01*
X131554819Y-70526190D02*
X130554819Y-70526190D01*
X130554819Y-70526190D02*
X130697676Y-70621428D01*
X130697676Y-70621428D02*
X130792914Y-70716666D01*
X130792914Y-70716666D02*
X130840533Y-70811904D01*
X130650057Y-69859523D02*
X130602438Y-69811904D01*
X130602438Y-69811904D02*
X130554819Y-69716666D01*
X130554819Y-69716666D02*
X130554819Y-69478571D01*
X130554819Y-69478571D02*
X130602438Y-69383333D01*
X130602438Y-69383333D02*
X130650057Y-69335714D01*
X130650057Y-69335714D02*
X130745295Y-69288095D01*
X130745295Y-69288095D02*
X130840533Y-69288095D01*
X130840533Y-69288095D02*
X130983390Y-69335714D01*
X130983390Y-69335714D02*
X131554819Y-69907142D01*
X131554819Y-69907142D02*
X131554819Y-69288095D01*
X160318333Y-139509819D02*
X159985000Y-139033628D01*
X159746905Y-139509819D02*
X159746905Y-138509819D01*
X159746905Y-138509819D02*
X160127857Y-138509819D01*
X160127857Y-138509819D02*
X160223095Y-138557438D01*
X160223095Y-138557438D02*
X160270714Y-138605057D01*
X160270714Y-138605057D02*
X160318333Y-138700295D01*
X160318333Y-138700295D02*
X160318333Y-138843152D01*
X160318333Y-138843152D02*
X160270714Y-138938390D01*
X160270714Y-138938390D02*
X160223095Y-138986009D01*
X160223095Y-138986009D02*
X160127857Y-139033628D01*
X160127857Y-139033628D02*
X159746905Y-139033628D01*
X160651667Y-138509819D02*
X161270714Y-138509819D01*
X161270714Y-138509819D02*
X160937381Y-138890771D01*
X160937381Y-138890771D02*
X161080238Y-138890771D01*
X161080238Y-138890771D02*
X161175476Y-138938390D01*
X161175476Y-138938390D02*
X161223095Y-138986009D01*
X161223095Y-138986009D02*
X161270714Y-139081247D01*
X161270714Y-139081247D02*
X161270714Y-139319342D01*
X161270714Y-139319342D02*
X161223095Y-139414580D01*
X161223095Y-139414580D02*
X161175476Y-139462200D01*
X161175476Y-139462200D02*
X161080238Y-139509819D01*
X161080238Y-139509819D02*
X160794524Y-139509819D01*
X160794524Y-139509819D02*
X160699286Y-139462200D01*
X160699286Y-139462200D02*
X160651667Y-139414580D01*
X119783333Y-103534580D02*
X119735714Y-103582200D01*
X119735714Y-103582200D02*
X119592857Y-103629819D01*
X119592857Y-103629819D02*
X119497619Y-103629819D01*
X119497619Y-103629819D02*
X119354762Y-103582200D01*
X119354762Y-103582200D02*
X119259524Y-103486961D01*
X119259524Y-103486961D02*
X119211905Y-103391723D01*
X119211905Y-103391723D02*
X119164286Y-103201247D01*
X119164286Y-103201247D02*
X119164286Y-103058390D01*
X119164286Y-103058390D02*
X119211905Y-102867914D01*
X119211905Y-102867914D02*
X119259524Y-102772676D01*
X119259524Y-102772676D02*
X119354762Y-102677438D01*
X119354762Y-102677438D02*
X119497619Y-102629819D01*
X119497619Y-102629819D02*
X119592857Y-102629819D01*
X119592857Y-102629819D02*
X119735714Y-102677438D01*
X119735714Y-102677438D02*
X119783333Y-102725057D01*
X120688095Y-102629819D02*
X120211905Y-102629819D01*
X120211905Y-102629819D02*
X120164286Y-103106009D01*
X120164286Y-103106009D02*
X120211905Y-103058390D01*
X120211905Y-103058390D02*
X120307143Y-103010771D01*
X120307143Y-103010771D02*
X120545238Y-103010771D01*
X120545238Y-103010771D02*
X120640476Y-103058390D01*
X120640476Y-103058390D02*
X120688095Y-103106009D01*
X120688095Y-103106009D02*
X120735714Y-103201247D01*
X120735714Y-103201247D02*
X120735714Y-103439342D01*
X120735714Y-103439342D02*
X120688095Y-103534580D01*
X120688095Y-103534580D02*
X120640476Y-103582200D01*
X120640476Y-103582200D02*
X120545238Y-103629819D01*
X120545238Y-103629819D02*
X120307143Y-103629819D01*
X120307143Y-103629819D02*
X120211905Y-103582200D01*
X120211905Y-103582200D02*
X120164286Y-103534580D01*
X115054819Y-71192857D02*
X114578628Y-71526190D01*
X115054819Y-71764285D02*
X114054819Y-71764285D01*
X114054819Y-71764285D02*
X114054819Y-71383333D01*
X114054819Y-71383333D02*
X114102438Y-71288095D01*
X114102438Y-71288095D02*
X114150057Y-71240476D01*
X114150057Y-71240476D02*
X114245295Y-71192857D01*
X114245295Y-71192857D02*
X114388152Y-71192857D01*
X114388152Y-71192857D02*
X114483390Y-71240476D01*
X114483390Y-71240476D02*
X114531009Y-71288095D01*
X114531009Y-71288095D02*
X114578628Y-71383333D01*
X114578628Y-71383333D02*
X114578628Y-71764285D01*
X115054819Y-70240476D02*
X115054819Y-70811904D01*
X115054819Y-70526190D02*
X114054819Y-70526190D01*
X114054819Y-70526190D02*
X114197676Y-70621428D01*
X114197676Y-70621428D02*
X114292914Y-70716666D01*
X114292914Y-70716666D02*
X114340533Y-70811904D01*
X114483390Y-69669047D02*
X114435771Y-69764285D01*
X114435771Y-69764285D02*
X114388152Y-69811904D01*
X114388152Y-69811904D02*
X114292914Y-69859523D01*
X114292914Y-69859523D02*
X114245295Y-69859523D01*
X114245295Y-69859523D02*
X114150057Y-69811904D01*
X114150057Y-69811904D02*
X114102438Y-69764285D01*
X114102438Y-69764285D02*
X114054819Y-69669047D01*
X114054819Y-69669047D02*
X114054819Y-69478571D01*
X114054819Y-69478571D02*
X114102438Y-69383333D01*
X114102438Y-69383333D02*
X114150057Y-69335714D01*
X114150057Y-69335714D02*
X114245295Y-69288095D01*
X114245295Y-69288095D02*
X114292914Y-69288095D01*
X114292914Y-69288095D02*
X114388152Y-69335714D01*
X114388152Y-69335714D02*
X114435771Y-69383333D01*
X114435771Y-69383333D02*
X114483390Y-69478571D01*
X114483390Y-69478571D02*
X114483390Y-69669047D01*
X114483390Y-69669047D02*
X114531009Y-69764285D01*
X114531009Y-69764285D02*
X114578628Y-69811904D01*
X114578628Y-69811904D02*
X114673866Y-69859523D01*
X114673866Y-69859523D02*
X114864342Y-69859523D01*
X114864342Y-69859523D02*
X114959580Y-69811904D01*
X114959580Y-69811904D02*
X115007200Y-69764285D01*
X115007200Y-69764285D02*
X115054819Y-69669047D01*
X115054819Y-69669047D02*
X115054819Y-69478571D01*
X115054819Y-69478571D02*
X115007200Y-69383333D01*
X115007200Y-69383333D02*
X114959580Y-69335714D01*
X114959580Y-69335714D02*
X114864342Y-69288095D01*
X114864342Y-69288095D02*
X114673866Y-69288095D01*
X114673866Y-69288095D02*
X114578628Y-69335714D01*
X114578628Y-69335714D02*
X114531009Y-69383333D01*
X114531009Y-69383333D02*
X114483390Y-69478571D01*
X136866666Y-91406009D02*
X136533333Y-91406009D01*
X136533333Y-91929819D02*
X136533333Y-90929819D01*
X136533333Y-90929819D02*
X137009523Y-90929819D01*
X137914285Y-91929819D02*
X137342857Y-91929819D01*
X137628571Y-91929819D02*
X137628571Y-90929819D01*
X137628571Y-90929819D02*
X137533333Y-91072676D01*
X137533333Y-91072676D02*
X137438095Y-91167914D01*
X137438095Y-91167914D02*
X137342857Y-91215533D01*
X156759580Y-116472857D02*
X156807200Y-116520476D01*
X156807200Y-116520476D02*
X156854819Y-116663333D01*
X156854819Y-116663333D02*
X156854819Y-116758571D01*
X156854819Y-116758571D02*
X156807200Y-116901428D01*
X156807200Y-116901428D02*
X156711961Y-116996666D01*
X156711961Y-116996666D02*
X156616723Y-117044285D01*
X156616723Y-117044285D02*
X156426247Y-117091904D01*
X156426247Y-117091904D02*
X156283390Y-117091904D01*
X156283390Y-117091904D02*
X156092914Y-117044285D01*
X156092914Y-117044285D02*
X155997676Y-116996666D01*
X155997676Y-116996666D02*
X155902438Y-116901428D01*
X155902438Y-116901428D02*
X155854819Y-116758571D01*
X155854819Y-116758571D02*
X155854819Y-116663333D01*
X155854819Y-116663333D02*
X155902438Y-116520476D01*
X155902438Y-116520476D02*
X155950057Y-116472857D01*
X156854819Y-115520476D02*
X156854819Y-116091904D01*
X156854819Y-115806190D02*
X155854819Y-115806190D01*
X155854819Y-115806190D02*
X155997676Y-115901428D01*
X155997676Y-115901428D02*
X156092914Y-115996666D01*
X156092914Y-115996666D02*
X156140533Y-116091904D01*
X156854819Y-115044285D02*
X156854819Y-114853809D01*
X156854819Y-114853809D02*
X156807200Y-114758571D01*
X156807200Y-114758571D02*
X156759580Y-114710952D01*
X156759580Y-114710952D02*
X156616723Y-114615714D01*
X156616723Y-114615714D02*
X156426247Y-114568095D01*
X156426247Y-114568095D02*
X156045295Y-114568095D01*
X156045295Y-114568095D02*
X155950057Y-114615714D01*
X155950057Y-114615714D02*
X155902438Y-114663333D01*
X155902438Y-114663333D02*
X155854819Y-114758571D01*
X155854819Y-114758571D02*
X155854819Y-114949047D01*
X155854819Y-114949047D02*
X155902438Y-115044285D01*
X155902438Y-115044285D02*
X155950057Y-115091904D01*
X155950057Y-115091904D02*
X156045295Y-115139523D01*
X156045295Y-115139523D02*
X156283390Y-115139523D01*
X156283390Y-115139523D02*
X156378628Y-115091904D01*
X156378628Y-115091904D02*
X156426247Y-115044285D01*
X156426247Y-115044285D02*
X156473866Y-114949047D01*
X156473866Y-114949047D02*
X156473866Y-114758571D01*
X156473866Y-114758571D02*
X156426247Y-114663333D01*
X156426247Y-114663333D02*
X156378628Y-114615714D01*
X156378628Y-114615714D02*
X156283390Y-114568095D01*
X173504819Y-132433333D02*
X174219104Y-132433333D01*
X174219104Y-132433333D02*
X174361961Y-132480952D01*
X174361961Y-132480952D02*
X174457200Y-132576190D01*
X174457200Y-132576190D02*
X174504819Y-132719047D01*
X174504819Y-132719047D02*
X174504819Y-132814285D01*
X173600057Y-132004761D02*
X173552438Y-131957142D01*
X173552438Y-131957142D02*
X173504819Y-131861904D01*
X173504819Y-131861904D02*
X173504819Y-131623809D01*
X173504819Y-131623809D02*
X173552438Y-131528571D01*
X173552438Y-131528571D02*
X173600057Y-131480952D01*
X173600057Y-131480952D02*
X173695295Y-131433333D01*
X173695295Y-131433333D02*
X173790533Y-131433333D01*
X173790533Y-131433333D02*
X173933390Y-131480952D01*
X173933390Y-131480952D02*
X174504819Y-132052380D01*
X174504819Y-132052380D02*
X174504819Y-131433333D01*
D12*
%TO.C,J3*%
X140240000Y-87865000D02*
X140240000Y-93835000D01*
X140240000Y-93835000D02*
X155360000Y-93835000D01*
X140250000Y-91575000D02*
X141000000Y-91575000D01*
X140250000Y-93075000D02*
X140250000Y-93825000D01*
X140250000Y-93825000D02*
X142050000Y-93825000D01*
X141000000Y-88625000D02*
X147800000Y-88625000D01*
X141000000Y-91575000D02*
X141000000Y-88625000D01*
X142050000Y-93075000D02*
X140250000Y-93075000D01*
X142050000Y-93825000D02*
X142050000Y-93075000D01*
X143550000Y-93075000D02*
X143550000Y-93825000D01*
X143550000Y-93825000D02*
X152050000Y-93825000D01*
X152050000Y-93075000D02*
X143550000Y-93075000D01*
X152050000Y-93825000D02*
X152050000Y-93075000D01*
X153550000Y-93075000D02*
X153550000Y-93825000D01*
X153550000Y-93825000D02*
X155350000Y-93825000D01*
X154400000Y-94125000D02*
X155650000Y-94125000D01*
X154600000Y-88625000D02*
X147800000Y-88625000D01*
X154600000Y-91575000D02*
X154600000Y-88625000D01*
X155350000Y-91575000D02*
X154600000Y-91575000D01*
X155350000Y-93075000D02*
X153550000Y-93075000D01*
X155350000Y-93825000D02*
X155350000Y-93075000D01*
X155360000Y-87865000D02*
X140240000Y-87865000D01*
X155360000Y-93835000D02*
X155360000Y-87865000D01*
X155650000Y-94125000D02*
X155650000Y-92875000D01*
%TO.C,D5*%
X114735000Y-128200000D02*
X106675000Y-128200000D01*
X114735000Y-128200000D02*
X114735000Y-134400000D01*
X114735000Y-134400000D02*
X106675000Y-134400000D01*
%TO.C,C21*%
X148365000Y-115668748D02*
X148365000Y-116191252D01*
X149835000Y-115668748D02*
X149835000Y-116191252D01*
%TO.C,D4*%
X114735000Y-121625000D02*
X106675000Y-121625000D01*
X114735000Y-121625000D02*
X114735000Y-127825000D01*
X114735000Y-127825000D02*
X106675000Y-127825000D01*
%TO.C,D7*%
X137740000Y-84350000D02*
X137740000Y-86250000D01*
X137740000Y-84350000D02*
X141400000Y-84350000D01*
X137740000Y-86250000D02*
X141400000Y-86250000D01*
%TO.C,C15*%
X146411252Y-82065000D02*
X145888748Y-82065000D01*
X146411252Y-83535000D02*
X145888748Y-83535000D01*
%TO.C,D17*%
X149260000Y-61800000D02*
X141200000Y-61800000D01*
X149260000Y-61800000D02*
X149260000Y-68000000D01*
X149260000Y-68000000D02*
X141200000Y-68000000D01*
%TO.C,R1*%
X133565000Y-102102064D02*
X133565000Y-101647936D01*
X135035000Y-102102064D02*
X135035000Y-101647936D01*
%TO.C,U7*%
X139950000Y-78540000D02*
X138000000Y-78540000D01*
X139950000Y-78540000D02*
X141900000Y-78540000D01*
X139950000Y-83660000D02*
X138000000Y-83660000D01*
X139950000Y-83660000D02*
X141900000Y-83660000D01*
X142890000Y-83895000D02*
X142410000Y-83895000D01*
X142650000Y-83565000D01*
X142890000Y-83895000D01*
G36*
X142890000Y-83895000D02*
G01*
X142410000Y-83895000D01*
X142650000Y-83565000D01*
X142890000Y-83895000D01*
G37*
%TO.C,R9*%
X145040000Y-102102064D02*
X145040000Y-101647936D01*
X146510000Y-102102064D02*
X146510000Y-101647936D01*
%TO.C,C6*%
X105181755Y-113890000D02*
X105181755Y-112360000D01*
X105221755Y-114223000D02*
X105221755Y-112027000D01*
X105261755Y-114476000D02*
X105261755Y-111774000D01*
X105301755Y-114689000D02*
X105301755Y-111561000D01*
X105341755Y-114877000D02*
X105341755Y-111373000D01*
X105381755Y-115045000D02*
X105381755Y-111205000D01*
X105421755Y-115199000D02*
X105421755Y-111051000D01*
X105461755Y-115343000D02*
X105461755Y-110907000D01*
X105501755Y-115476000D02*
X105501755Y-110774000D01*
X105541755Y-115603000D02*
X105541755Y-110647000D01*
X105581755Y-115722000D02*
X105581755Y-110528000D01*
X105621755Y-115836000D02*
X105621755Y-110414000D01*
X105661755Y-115945000D02*
X105661755Y-110305000D01*
X105701755Y-116049000D02*
X105701755Y-110201000D01*
X105741755Y-116149000D02*
X105741755Y-110101000D01*
X105781755Y-116245000D02*
X105781755Y-110005000D01*
X105821755Y-116338000D02*
X105821755Y-109912000D01*
X105861755Y-116428000D02*
X105861755Y-109822000D01*
X105901755Y-116515000D02*
X105901755Y-109735000D01*
X105941755Y-116600000D02*
X105941755Y-109650000D01*
X105981755Y-116682000D02*
X105981755Y-109568000D01*
X106021755Y-116762000D02*
X106021755Y-109488000D01*
X106061755Y-116840000D02*
X106061755Y-109410000D01*
X106101755Y-116915000D02*
X106101755Y-109335000D01*
X106141755Y-116989000D02*
X106141755Y-109261000D01*
X106181755Y-117061000D02*
X106181755Y-109189000D01*
X106221755Y-117132000D02*
X106221755Y-109118000D01*
X106261755Y-117201000D02*
X106261755Y-109049000D01*
X106301755Y-117268000D02*
X106301755Y-108982000D01*
X106341755Y-117334000D02*
X106341755Y-108916000D01*
X106381755Y-117398000D02*
X106381755Y-108852000D01*
X106421755Y-117461000D02*
X106421755Y-108789000D01*
X106461755Y-117523000D02*
X106461755Y-108727000D01*
X106501755Y-117584000D02*
X106501755Y-108666000D01*
X106541755Y-117644000D02*
X106541755Y-108606000D01*
X106581755Y-117702000D02*
X106581755Y-108548000D01*
X106621755Y-117759000D02*
X106621755Y-108491000D01*
X106661755Y-117816000D02*
X106661755Y-108434000D01*
X106701755Y-117871000D02*
X106701755Y-108379000D01*
X106741755Y-117925000D02*
X106741755Y-108325000D01*
X106781755Y-117979000D02*
X106781755Y-108271000D01*
X106821755Y-118031000D02*
X106821755Y-108219000D01*
X106861755Y-118083000D02*
X106861755Y-108167000D01*
X106901755Y-118134000D02*
X106901755Y-108116000D01*
X106941755Y-118184000D02*
X106941755Y-108066000D01*
X106981755Y-118233000D02*
X106981755Y-108017000D01*
X107021755Y-118281000D02*
X107021755Y-107969000D01*
X107061755Y-118329000D02*
X107061755Y-107921000D01*
X107101755Y-118376000D02*
X107101755Y-107874000D01*
X107141755Y-118422000D02*
X107141755Y-107828000D01*
X107181755Y-118468000D02*
X107181755Y-107782000D01*
X107221755Y-118513000D02*
X107221755Y-107737000D01*
X107261755Y-118557000D02*
X107261755Y-107693000D01*
X107301755Y-118600000D02*
X107301755Y-107650000D01*
X107341755Y-118643000D02*
X107341755Y-107607000D01*
X107381755Y-118685000D02*
X107381755Y-107565000D01*
X107421755Y-118727000D02*
X107421755Y-107523000D01*
X107461755Y-118768000D02*
X107461755Y-107482000D01*
X107501755Y-118809000D02*
X107501755Y-107441000D01*
X107541755Y-118849000D02*
X107541755Y-107401000D01*
X107581755Y-118888000D02*
X107581755Y-107362000D01*
X107621755Y-118927000D02*
X107621755Y-107323000D01*
X107661755Y-118965000D02*
X107661755Y-107285000D01*
X107701755Y-119003000D02*
X107701755Y-107247000D01*
X107741755Y-119041000D02*
X107741755Y-107209000D01*
X107781755Y-119077000D02*
X107781755Y-107173000D01*
X107821755Y-119114000D02*
X107821755Y-107136000D01*
X107861755Y-119150000D02*
X107861755Y-107100000D01*
X107901755Y-119185000D02*
X107901755Y-107065000D01*
X107941755Y-119220000D02*
X107941755Y-107030000D01*
X107981755Y-119254000D02*
X107981755Y-106996000D01*
X108021755Y-119288000D02*
X108021755Y-106962000D01*
X108061755Y-119322000D02*
X108061755Y-106928000D01*
X108101755Y-111685000D02*
X108101755Y-106895000D01*
X108101755Y-119355000D02*
X108101755Y-114565000D01*
X108141755Y-111685000D02*
X108141755Y-106862000D01*
X108141755Y-119388000D02*
X108141755Y-114565000D01*
X108181755Y-111685000D02*
X108181755Y-106830000D01*
X108181755Y-119420000D02*
X108181755Y-114565000D01*
X108221755Y-111685000D02*
X108221755Y-106798000D01*
X108221755Y-119452000D02*
X108221755Y-114565000D01*
X108261755Y-111685000D02*
X108261755Y-106767000D01*
X108261755Y-119483000D02*
X108261755Y-114565000D01*
X108301755Y-111685000D02*
X108301755Y-106735000D01*
X108301755Y-119515000D02*
X108301755Y-114565000D01*
X108341755Y-111685000D02*
X108341755Y-106705000D01*
X108341755Y-119545000D02*
X108341755Y-114565000D01*
X108381755Y-111685000D02*
X108381755Y-106675000D01*
X108381755Y-119575000D02*
X108381755Y-114565000D01*
X108421755Y-111685000D02*
X108421755Y-106645000D01*
X108421755Y-119605000D02*
X108421755Y-114565000D01*
X108461755Y-111685000D02*
X108461755Y-106615000D01*
X108461755Y-119635000D02*
X108461755Y-114565000D01*
X108501755Y-111685000D02*
X108501755Y-106586000D01*
X108501755Y-119664000D02*
X108501755Y-114565000D01*
X108541755Y-111685000D02*
X108541755Y-106557000D01*
X108541755Y-119693000D02*
X108541755Y-114565000D01*
X108581755Y-111685000D02*
X108581755Y-106529000D01*
X108581755Y-119721000D02*
X108581755Y-114565000D01*
X108621755Y-111685000D02*
X108621755Y-106501000D01*
X108621755Y-119749000D02*
X108621755Y-114565000D01*
X108661755Y-111685000D02*
X108661755Y-106473000D01*
X108661755Y-119777000D02*
X108661755Y-114565000D01*
X108701755Y-111685000D02*
X108701755Y-106446000D01*
X108701755Y-119804000D02*
X108701755Y-114565000D01*
X108741755Y-111685000D02*
X108741755Y-106419000D01*
X108741755Y-119831000D02*
X108741755Y-114565000D01*
X108781755Y-111685000D02*
X108781755Y-106392000D01*
X108781755Y-119858000D02*
X108781755Y-114565000D01*
X108821755Y-111685000D02*
X108821755Y-106366000D01*
X108821755Y-119884000D02*
X108821755Y-114565000D01*
X108861755Y-111685000D02*
X108861755Y-106340000D01*
X108861755Y-119910000D02*
X108861755Y-114565000D01*
X108901755Y-111685000D02*
X108901755Y-106314000D01*
X108901755Y-119936000D02*
X108901755Y-114565000D01*
X108941755Y-111685000D02*
X108941755Y-106289000D01*
X108941755Y-119961000D02*
X108941755Y-114565000D01*
X108981755Y-111685000D02*
X108981755Y-106264000D01*
X108981755Y-119986000D02*
X108981755Y-114565000D01*
X109021755Y-111685000D02*
X109021755Y-106239000D01*
X109021755Y-120011000D02*
X109021755Y-114565000D01*
X109061755Y-111685000D02*
X109061755Y-106215000D01*
X109061755Y-120035000D02*
X109061755Y-114565000D01*
X109101755Y-111685000D02*
X109101755Y-106191000D01*
X109101755Y-120059000D02*
X109101755Y-114565000D01*
X109141755Y-111685000D02*
X109141755Y-106167000D01*
X109141755Y-120083000D02*
X109141755Y-114565000D01*
X109181755Y-111685000D02*
X109181755Y-106144000D01*
X109181755Y-120106000D02*
X109181755Y-114565000D01*
X109221755Y-111685000D02*
X109221755Y-106121000D01*
X109221755Y-120129000D02*
X109221755Y-114565000D01*
X109261755Y-111685000D02*
X109261755Y-106098000D01*
X109261755Y-120152000D02*
X109261755Y-114565000D01*
X109301755Y-111685000D02*
X109301755Y-106076000D01*
X109301755Y-120174000D02*
X109301755Y-114565000D01*
X109341755Y-111685000D02*
X109341755Y-106053000D01*
X109341755Y-120197000D02*
X109341755Y-114565000D01*
X109381755Y-111685000D02*
X109381755Y-106031000D01*
X109381755Y-120219000D02*
X109381755Y-114565000D01*
X109421755Y-111685000D02*
X109421755Y-106010000D01*
X109421755Y-120240000D02*
X109421755Y-114565000D01*
X109461755Y-111685000D02*
X109461755Y-105989000D01*
X109461755Y-120261000D02*
X109461755Y-114565000D01*
X109501755Y-111685000D02*
X109501755Y-105968000D01*
X109501755Y-120282000D02*
X109501755Y-114565000D01*
X109541755Y-111685000D02*
X109541755Y-105947000D01*
X109541755Y-120303000D02*
X109541755Y-114565000D01*
X109581755Y-111685000D02*
X109581755Y-105926000D01*
X109581755Y-120324000D02*
X109581755Y-114565000D01*
X109621755Y-111685000D02*
X109621755Y-105906000D01*
X109621755Y-120344000D02*
X109621755Y-114565000D01*
X109661755Y-111685000D02*
X109661755Y-105886000D01*
X109661755Y-120364000D02*
X109661755Y-114565000D01*
X109701755Y-111685000D02*
X109701755Y-105867000D01*
X109701755Y-120383000D02*
X109701755Y-114565000D01*
X109741755Y-111685000D02*
X109741755Y-105847000D01*
X109741755Y-120403000D02*
X109741755Y-114565000D01*
X109781755Y-111685000D02*
X109781755Y-105828000D01*
X109781755Y-120422000D02*
X109781755Y-114565000D01*
X109821755Y-111685000D02*
X109821755Y-105809000D01*
X109821755Y-120441000D02*
X109821755Y-114565000D01*
X109861755Y-111685000D02*
X109861755Y-105791000D01*
X109861755Y-120459000D02*
X109861755Y-114565000D01*
X109901755Y-111685000D02*
X109901755Y-105772000D01*
X109901755Y-120478000D02*
X109901755Y-114565000D01*
X109941755Y-111685000D02*
X109941755Y-105754000D01*
X109941755Y-120496000D02*
X109941755Y-114565000D01*
X109981755Y-111685000D02*
X109981755Y-105736000D01*
X109981755Y-120514000D02*
X109981755Y-114565000D01*
X110021755Y-111685000D02*
X110021755Y-105719000D01*
X110021755Y-120531000D02*
X110021755Y-114565000D01*
X110061755Y-111685000D02*
X110061755Y-105702000D01*
X110061755Y-120548000D02*
X110061755Y-114565000D01*
X110101755Y-111685000D02*
X110101755Y-105685000D01*
X110101755Y-120565000D02*
X110101755Y-114565000D01*
X110141755Y-111685000D02*
X110141755Y-105668000D01*
X110141755Y-120582000D02*
X110141755Y-114565000D01*
X110181755Y-111685000D02*
X110181755Y-105651000D01*
X110181755Y-120599000D02*
X110181755Y-114565000D01*
X110221755Y-111685000D02*
X110221755Y-105635000D01*
X110221755Y-120615000D02*
X110221755Y-114565000D01*
X110261755Y-111685000D02*
X110261755Y-105619000D01*
X110261755Y-120631000D02*
X110261755Y-114565000D01*
X110301755Y-111685000D02*
X110301755Y-105603000D01*
X110301755Y-120647000D02*
X110301755Y-114565000D01*
X110341755Y-111685000D02*
X110341755Y-105588000D01*
X110341755Y-120662000D02*
X110341755Y-114565000D01*
X110381755Y-111685000D02*
X110381755Y-105572000D01*
X110381755Y-120678000D02*
X110381755Y-114565000D01*
X110421755Y-111685000D02*
X110421755Y-105557000D01*
X110421755Y-120693000D02*
X110421755Y-114565000D01*
X110461755Y-111685000D02*
X110461755Y-105543000D01*
X110461755Y-120707000D02*
X110461755Y-114565000D01*
X110501755Y-111685000D02*
X110501755Y-105528000D01*
X110501755Y-120722000D02*
X110501755Y-114565000D01*
X110541755Y-111685000D02*
X110541755Y-105514000D01*
X110541755Y-120736000D02*
X110541755Y-114565000D01*
X110581755Y-111685000D02*
X110581755Y-105500000D01*
X110581755Y-120750000D02*
X110581755Y-114565000D01*
X110621755Y-111685000D02*
X110621755Y-105486000D01*
X110621755Y-120764000D02*
X110621755Y-114565000D01*
X110661755Y-111685000D02*
X110661755Y-105472000D01*
X110661755Y-120778000D02*
X110661755Y-114565000D01*
X110701755Y-111685000D02*
X110701755Y-105459000D01*
X110701755Y-120791000D02*
X110701755Y-114565000D01*
X110741755Y-111685000D02*
X110741755Y-105445000D01*
X110741755Y-120805000D02*
X110741755Y-114565000D01*
X110781755Y-111685000D02*
X110781755Y-105432000D01*
X110781755Y-120818000D02*
X110781755Y-114565000D01*
X110821755Y-111685000D02*
X110821755Y-105420000D01*
X110821755Y-120830000D02*
X110821755Y-114565000D01*
X110861755Y-111685000D02*
X110861755Y-105407000D01*
X110861755Y-120843000D02*
X110861755Y-114565000D01*
X110901755Y-111685000D02*
X110901755Y-105395000D01*
X110901755Y-120855000D02*
X110901755Y-114565000D01*
X110941755Y-111685000D02*
X110941755Y-105383000D01*
X110941755Y-120867000D02*
X110941755Y-114565000D01*
X110981755Y-120879000D02*
X110981755Y-105371000D01*
X111021755Y-120890000D02*
X111021755Y-105360000D01*
X111061755Y-120902000D02*
X111061755Y-105348000D01*
X111101755Y-120913000D02*
X111101755Y-105337000D01*
X111141755Y-120924000D02*
X111141755Y-105326000D01*
X111181755Y-120935000D02*
X111181755Y-105315000D01*
X111221755Y-120945000D02*
X111221755Y-105305000D01*
X111261755Y-120955000D02*
X111261755Y-105295000D01*
X111301755Y-120965000D02*
X111301755Y-105285000D01*
X111341755Y-120975000D02*
X111341755Y-105275000D01*
X111381755Y-120985000D02*
X111381755Y-105265000D01*
X111421755Y-120994000D02*
X111421755Y-105256000D01*
X111461755Y-121003000D02*
X111461755Y-105247000D01*
X111501755Y-121012000D02*
X111501755Y-105238000D01*
X111541755Y-121021000D02*
X111541755Y-105229000D01*
X111581755Y-121030000D02*
X111581755Y-105220000D01*
X111621755Y-121038000D02*
X111621755Y-105212000D01*
X111661755Y-121046000D02*
X111661755Y-105204000D01*
X111701755Y-121054000D02*
X111701755Y-105196000D01*
X111741755Y-121062000D02*
X111741755Y-105188000D01*
X111781755Y-121069000D02*
X111781755Y-105181000D01*
X111821755Y-121077000D02*
X111821755Y-105173000D01*
X111861755Y-121084000D02*
X111861755Y-105166000D01*
X111901755Y-121091000D02*
X111901755Y-105159000D01*
X111941755Y-121097000D02*
X111941755Y-105153000D01*
X111981755Y-121104000D02*
X111981755Y-105146000D01*
X112021755Y-121110000D02*
X112021755Y-105140000D01*
X112061755Y-121116000D02*
X112061755Y-105134000D01*
X112101755Y-121122000D02*
X112101755Y-105128000D01*
X112141755Y-121128000D02*
X112141755Y-105122000D01*
X112181755Y-121133000D02*
X112181755Y-105117000D01*
X112221755Y-121139000D02*
X112221755Y-105111000D01*
X112261755Y-121144000D02*
X112261755Y-105106000D01*
X112301755Y-121149000D02*
X112301755Y-105101000D01*
X112341755Y-121153000D02*
X112341755Y-105097000D01*
X112381755Y-121158000D02*
X112381755Y-105092000D01*
X112421755Y-121162000D02*
X112421755Y-105088000D01*
X112461755Y-121166000D02*
X112461755Y-105084000D01*
X112501755Y-121170000D02*
X112501755Y-105080000D01*
X112541755Y-121174000D02*
X112541755Y-105076000D01*
X112582755Y-121177000D02*
X112582755Y-105073000D01*
X112622755Y-121180000D02*
X112622755Y-105070000D01*
X112662755Y-121183000D02*
X112662755Y-105067000D01*
X112702755Y-121186000D02*
X112702755Y-105064000D01*
X112742755Y-121189000D02*
X112742755Y-105061000D01*
X112782755Y-121191000D02*
X112782755Y-105059000D01*
X112822755Y-121194000D02*
X112822755Y-105056000D01*
X112862755Y-121196000D02*
X112862755Y-105054000D01*
X112902755Y-121198000D02*
X112902755Y-105052000D01*
X112942755Y-121199000D02*
X112942755Y-105051000D01*
X112982755Y-121201000D02*
X112982755Y-105049000D01*
X113022755Y-121202000D02*
X113022755Y-105048000D01*
X113062755Y-121203000D02*
X113062755Y-105047000D01*
X113102755Y-121204000D02*
X113102755Y-105046000D01*
X113142755Y-121205000D02*
X113142755Y-105045000D01*
X113182755Y-121205000D02*
X113182755Y-105045000D01*
X113222755Y-121205000D02*
X113222755Y-105045000D01*
X113262755Y-121206000D02*
X113262755Y-105044000D01*
X121152246Y-118480000D02*
X121152246Y-116880000D01*
X121952246Y-117680000D02*
X120352246Y-117680000D01*
X121382755Y-113125000D02*
G75*
G02*
X105142755Y-113125000I-8120000J0D01*
G01*
X105142755Y-113125000D02*
G75*
G02*
X121382755Y-113125000I8120000J0D01*
G01*
%TO.C,R12*%
X155715000Y-101647936D02*
X155715000Y-102102064D01*
X157185000Y-101647936D02*
X157185000Y-102102064D01*
%TO.C,L1*%
X144695000Y-125055000D02*
X147895000Y-125055000D01*
X144695000Y-135655000D02*
X144695000Y-125055000D01*
X147895000Y-135655000D02*
X144695000Y-135655000D01*
X152095000Y-125055000D02*
X155295000Y-125055000D01*
X155295000Y-125055000D02*
X155295000Y-135655000D01*
X155295000Y-135655000D02*
X152095000Y-135655000D01*
%TO.C,C2*%
X121740000Y-84365000D02*
X121740000Y-88215000D01*
X121740000Y-95085000D02*
X121740000Y-91235000D01*
X131395563Y-84365000D02*
X121740000Y-84365000D01*
X131395563Y-95085000D02*
X121740000Y-95085000D01*
X132460000Y-85429437D02*
X131395563Y-84365000D01*
X132460000Y-85429437D02*
X132460000Y-88215000D01*
X132460000Y-94020563D02*
X131395563Y-95085000D01*
X132460000Y-94020563D02*
X132460000Y-91235000D01*
X133325000Y-93110000D02*
X133325000Y-91860000D01*
X133950000Y-92485000D02*
X132700000Y-92485000D01*
%TO.C,R11*%
X136365000Y-101647936D02*
X136365000Y-102102064D01*
X137835000Y-101647936D02*
X137835000Y-102102064D01*
D13*
%TO.C,F2*%
X116285000Y-121735000D02*
X116285000Y-141035000D01*
X116285000Y-141035000D02*
X120725000Y-141035000D01*
X120725000Y-121735000D02*
X116285000Y-121735000D01*
X120725000Y-122152000D02*
X120725000Y-121735000D01*
X120725000Y-141035000D02*
X120725000Y-140618000D01*
D12*
%TO.C,D18*%
X139260000Y-61800000D02*
X131200000Y-61800000D01*
X139260000Y-61800000D02*
X139260000Y-68000000D01*
X139260000Y-68000000D02*
X131200000Y-68000000D01*
%TO.C,R17*%
X117665000Y-70297936D02*
X117665000Y-70752064D01*
X119135000Y-70297936D02*
X119135000Y-70752064D01*
%TO.C,D13*%
X120600000Y-72785000D02*
X120600000Y-69125000D01*
X120600000Y-72785000D02*
X122500000Y-72785000D01*
X122500000Y-72785000D02*
X122500000Y-69125000D01*
%TO.C,D15*%
X172360000Y-61800000D02*
X164300000Y-61800000D01*
X172360000Y-61800000D02*
X172360000Y-68000000D01*
X172360000Y-68000000D02*
X164300000Y-68000000D01*
%TO.C,A1*%
X127660000Y-95525000D02*
X127660000Y-113565000D01*
X127660000Y-113565000D02*
X130330000Y-113565000D01*
X130330000Y-98195000D02*
X130330000Y-95525000D01*
X130330000Y-98195000D02*
X168430000Y-98195000D01*
X130330000Y-110895000D02*
X130330000Y-113565000D01*
X132870000Y-110895000D02*
X130330000Y-110895000D01*
X132870000Y-110895000D02*
X132870000Y-113565000D01*
X132870000Y-110895000D02*
X168430000Y-110895000D01*
X132870000Y-113565000D02*
X171100000Y-113565000D01*
X163220000Y-100605000D02*
X173640000Y-100605000D01*
X163220000Y-108485000D02*
X163220000Y-100605000D01*
X168430000Y-98195000D02*
X168430000Y-95525000D01*
X168430000Y-110895000D02*
X168430000Y-113565000D01*
X171100000Y-95525000D02*
X127660000Y-95525000D01*
X171100000Y-95525000D02*
X171100000Y-100605000D01*
X171100000Y-113565000D02*
X171100000Y-108485000D01*
X173640000Y-100605000D02*
X173640000Y-108485000D01*
X173640000Y-108485000D02*
X163220000Y-108485000D01*
%TO.C,R7*%
X139615000Y-101647936D02*
X139615000Y-102102064D01*
X141085000Y-101647936D02*
X141085000Y-102102064D01*
%TO.C,D8*%
X114540000Y-84400000D02*
X114540000Y-86300000D01*
X114540000Y-84400000D02*
X118200000Y-84400000D01*
X114540000Y-86300000D02*
X118200000Y-86300000D01*
%TO.C,R2*%
X158865000Y-102102064D02*
X158865000Y-101647936D01*
X160335000Y-102102064D02*
X160335000Y-101647936D01*
%TO.C,D2*%
X130700000Y-99615000D02*
X130700000Y-103275000D01*
X132600000Y-99615000D02*
X130700000Y-99615000D01*
X132600000Y-99615000D02*
X132600000Y-103275000D01*
%TO.C,C10*%
X169338748Y-51065000D02*
X169861252Y-51065000D01*
X169338748Y-52535000D02*
X169861252Y-52535000D01*
%TO.C,D11*%
X143600000Y-72810000D02*
X143600000Y-69150000D01*
X143600000Y-72810000D02*
X145500000Y-72810000D01*
X145500000Y-72810000D02*
X145500000Y-69150000D01*
%TO.C,C18*%
X110965000Y-81588748D02*
X110965000Y-82111252D01*
X112435000Y-81588748D02*
X112435000Y-82111252D01*
%TO.C,U8*%
X116800000Y-78590000D02*
X114850000Y-78590000D01*
X116800000Y-78590000D02*
X118750000Y-78590000D01*
X116800000Y-83710000D02*
X114850000Y-83710000D01*
X116800000Y-83710000D02*
X118750000Y-83710000D01*
X119740000Y-83945000D02*
X119260000Y-83945000D01*
X119500000Y-83615000D01*
X119740000Y-83945000D01*
G36*
X119740000Y-83945000D02*
G01*
X119260000Y-83945000D01*
X119500000Y-83615000D01*
X119740000Y-83945000D01*
G37*
%TO.C,D20*%
X116160000Y-61800000D02*
X108100000Y-61800000D01*
X116160000Y-61800000D02*
X116160000Y-68000000D01*
X116160000Y-68000000D02*
X108100000Y-68000000D01*
%TO.C,R4*%
X152332936Y-139320000D02*
X152787064Y-139320000D01*
X152332936Y-140790000D02*
X152787064Y-140790000D01*
%TO.C,C7*%
X167965000Y-55388748D02*
X167965000Y-55911252D01*
X169435000Y-55388748D02*
X169435000Y-55911252D01*
%TO.C,C14*%
X123261252Y-82015000D02*
X122738748Y-82015000D01*
X123261252Y-83485000D02*
X122738748Y-83485000D01*
%TO.C,C17*%
X134165000Y-81588748D02*
X134165000Y-82111252D01*
X135635000Y-81588748D02*
X135635000Y-82111252D01*
%TO.C,C20*%
X151165000Y-115668748D02*
X151165000Y-116191252D01*
X152635000Y-115668748D02*
X152635000Y-116191252D01*
%TO.C,U1*%
X159500000Y-130130000D02*
X159500000Y-130600000D01*
X159500000Y-137030000D02*
X159500000Y-136560000D01*
X165920000Y-130130000D02*
X159500000Y-130130000D01*
X165920000Y-137030000D02*
X159500000Y-137030000D01*
X157770000Y-130640000D02*
X157430000Y-130170000D01*
X158110000Y-130170000D01*
X157770000Y-130640000D01*
G36*
X157770000Y-130640000D02*
G01*
X157430000Y-130170000D01*
X158110000Y-130170000D01*
X157770000Y-130640000D01*
G37*
%TO.C,U3*%
X163100000Y-50940000D02*
X161150000Y-50940000D01*
X163100000Y-50940000D02*
X165050000Y-50940000D01*
X163100000Y-56060000D02*
X161150000Y-56060000D01*
X163100000Y-56060000D02*
X165050000Y-56060000D01*
X160400000Y-51035000D02*
X160160000Y-50705000D01*
X160640000Y-50705000D01*
X160400000Y-51035000D01*
G36*
X160400000Y-51035000D02*
G01*
X160160000Y-50705000D01*
X160640000Y-50705000D01*
X160400000Y-51035000D01*
G37*
%TO.C,C9*%
X121765000Y-55388748D02*
X121765000Y-55911252D01*
X123235000Y-55388748D02*
X123235000Y-55911252D01*
%TO.C,C12*%
X123088748Y-51065000D02*
X123611252Y-51065000D01*
X123088748Y-52535000D02*
X123611252Y-52535000D01*
%TO.C,D16*%
X162360000Y-61800000D02*
X154300000Y-61800000D01*
X162360000Y-61800000D02*
X162360000Y-68000000D01*
X162360000Y-68000000D02*
X154300000Y-68000000D01*
%TO.C,C11*%
X146138748Y-51065000D02*
X146661252Y-51065000D01*
X146138748Y-52535000D02*
X146661252Y-52535000D01*
%TO.C,D1*%
X130240000Y-114775000D02*
X130240000Y-116675000D01*
X130240000Y-114775000D02*
X133900000Y-114775000D01*
X130240000Y-116675000D02*
X133900000Y-116675000D01*
%TO.C,C16*%
X157215000Y-81588748D02*
X157215000Y-82111252D01*
X158685000Y-81588748D02*
X158685000Y-82111252D01*
%TO.C,R10*%
X149890000Y-102102064D02*
X149890000Y-101647936D01*
X151360000Y-102102064D02*
X151360000Y-101647936D01*
%TO.C,R8*%
X142115000Y-102102064D02*
X142115000Y-101647936D01*
X143585000Y-102102064D02*
X143585000Y-101647936D01*
%TO.C,D6*%
X160790000Y-84350000D02*
X160790000Y-86250000D01*
X160790000Y-84350000D02*
X164450000Y-84350000D01*
X160790000Y-86250000D02*
X164450000Y-86250000D01*
%TO.C,C13*%
X169511252Y-82015000D02*
X168988748Y-82015000D01*
X169511252Y-83485000D02*
X168988748Y-83485000D01*
%TO.C,R15*%
X140765000Y-70322936D02*
X140765000Y-70777064D01*
X142235000Y-70322936D02*
X142235000Y-70777064D01*
%TO.C,U6*%
X163050000Y-78540000D02*
X161100000Y-78540000D01*
X163050000Y-78540000D02*
X165000000Y-78540000D01*
X163050000Y-83660000D02*
X161100000Y-83660000D01*
X163050000Y-83660000D02*
X165000000Y-83660000D01*
X165990000Y-83895000D02*
X165510000Y-83895000D01*
X165750000Y-83565000D01*
X165990000Y-83895000D01*
G36*
X165990000Y-83895000D02*
G01*
X165510000Y-83895000D01*
X165750000Y-83565000D01*
X165990000Y-83895000D01*
G37*
%TO.C,R13*%
X163865000Y-70322936D02*
X163865000Y-70777064D01*
X165335000Y-70322936D02*
X165335000Y-70777064D01*
%TO.C,U5*%
X116850000Y-50940000D02*
X114900000Y-50940000D01*
X116850000Y-50940000D02*
X118800000Y-50940000D01*
X116850000Y-56060000D02*
X114900000Y-56060000D01*
X116850000Y-56060000D02*
X118800000Y-56060000D01*
X114150000Y-51035000D02*
X113910000Y-50705000D01*
X114390000Y-50705000D01*
X114150000Y-51035000D01*
G36*
X114150000Y-51035000D02*
G01*
X113910000Y-50705000D01*
X114390000Y-50705000D01*
X114150000Y-51035000D01*
G37*
%TO.C,R16*%
X135390000Y-70297936D02*
X135390000Y-70752064D01*
X136860000Y-70297936D02*
X136860000Y-70752064D01*
%TO.C,D14*%
X108850000Y-72810000D02*
X108850000Y-69150000D01*
X108850000Y-72810000D02*
X110750000Y-72810000D01*
X110750000Y-72810000D02*
X110750000Y-69150000D01*
%TO.C,D19*%
X126160000Y-61800000D02*
X118100000Y-61800000D01*
X126160000Y-61800000D02*
X126160000Y-68000000D01*
X126160000Y-68000000D02*
X118100000Y-68000000D01*
%TO.C,D3*%
X154297500Y-120460000D02*
X147287500Y-120460000D01*
X154297500Y-123760000D02*
X147287500Y-123760000D01*
X154297500Y-123760000D02*
X154297500Y-120460000D01*
%TO.C,R14*%
X158540000Y-70322936D02*
X158540000Y-70777064D01*
X160010000Y-70322936D02*
X160010000Y-70777064D01*
%TO.C,C1*%
X156740000Y-117429437D02*
X156740000Y-127085000D01*
X156740000Y-127085000D02*
X160590000Y-127085000D01*
X157804437Y-116365000D02*
X156740000Y-117429437D01*
X157804437Y-116365000D02*
X160590000Y-116365000D01*
X164860000Y-114875000D02*
X164860000Y-116125000D01*
X165485000Y-115500000D02*
X164235000Y-115500000D01*
X166395563Y-116365000D02*
X163610000Y-116365000D01*
X166395563Y-116365000D02*
X167460000Y-117429437D01*
X167460000Y-117429437D02*
X167460000Y-127085000D01*
X167460000Y-127085000D02*
X163610000Y-127085000D01*
%TO.C,R6*%
X147465000Y-101647936D02*
X147465000Y-102102064D01*
X148935000Y-101647936D02*
X148935000Y-102102064D01*
%TO.C,C3*%
X152846252Y-137095000D02*
X152323748Y-137095000D01*
X152846252Y-138565000D02*
X152323748Y-138565000D01*
%TO.C,C8*%
X144765000Y-55388748D02*
X144765000Y-55911252D01*
X146235000Y-55388748D02*
X146235000Y-55911252D01*
%TO.C,R5*%
X152865000Y-101647936D02*
X152865000Y-102102064D01*
X154335000Y-101647936D02*
X154335000Y-102102064D01*
%TO.C,U4*%
X139900000Y-50940000D02*
X137950000Y-50940000D01*
X139900000Y-50940000D02*
X141850000Y-50940000D01*
X139900000Y-56060000D02*
X137950000Y-56060000D01*
X139900000Y-56060000D02*
X141850000Y-56060000D01*
X137200000Y-51035000D02*
X136960000Y-50705000D01*
X137440000Y-50705000D01*
X137200000Y-51035000D01*
G36*
X137200000Y-51035000D02*
G01*
X136960000Y-50705000D01*
X137440000Y-50705000D01*
X137200000Y-51035000D01*
G37*
%TO.C,D9*%
X166800000Y-72810000D02*
X166800000Y-69150000D01*
X166800000Y-72810000D02*
X168700000Y-72810000D01*
X168700000Y-72810000D02*
X168700000Y-69150000D01*
%TO.C,C4*%
X131390000Y-117515000D02*
X131390000Y-121365000D01*
X131390000Y-128235000D02*
X131390000Y-124385000D01*
X141045563Y-117515000D02*
X131390000Y-117515000D01*
X141045563Y-128235000D02*
X131390000Y-128235000D01*
X142110000Y-118579437D02*
X141045563Y-117515000D01*
X142110000Y-118579437D02*
X142110000Y-121365000D01*
X142110000Y-127170563D02*
X141045563Y-128235000D01*
X142110000Y-127170563D02*
X142110000Y-124385000D01*
X142975000Y-126260000D02*
X142975000Y-125010000D01*
X143600000Y-125635000D02*
X142350000Y-125635000D01*
%TO.C,D10*%
X155175000Y-72810000D02*
X155175000Y-69150000D01*
X155175000Y-72810000D02*
X157075000Y-72810000D01*
X157075000Y-72810000D02*
X157075000Y-69150000D01*
%TO.C,J1*%
X123300000Y-131475000D02*
X123300000Y-139775000D01*
X123300000Y-139775000D02*
X136150000Y-139775000D01*
X136150000Y-131475000D02*
X123300000Y-131475000D01*
X136150000Y-139775000D02*
X139000000Y-137225000D01*
X139000000Y-134075000D02*
X136150000Y-131475000D01*
X139000000Y-137225000D02*
X139000000Y-134075000D01*
%TO.C,D12*%
X132075000Y-72785000D02*
X132075000Y-69125000D01*
X132075000Y-72785000D02*
X133975000Y-72785000D01*
X133975000Y-72785000D02*
X133975000Y-69125000D01*
%TO.C,R3*%
X157362064Y-138295000D02*
X156907936Y-138295000D01*
X157362064Y-139765000D02*
X156907936Y-139765000D01*
%TO.C,C5*%
X105181755Y-97290000D02*
X105181755Y-95760000D01*
X105221755Y-97623000D02*
X105221755Y-95427000D01*
X105261755Y-97876000D02*
X105261755Y-95174000D01*
X105301755Y-98089000D02*
X105301755Y-94961000D01*
X105341755Y-98277000D02*
X105341755Y-94773000D01*
X105381755Y-98445000D02*
X105381755Y-94605000D01*
X105421755Y-98599000D02*
X105421755Y-94451000D01*
X105461755Y-98743000D02*
X105461755Y-94307000D01*
X105501755Y-98876000D02*
X105501755Y-94174000D01*
X105541755Y-99003000D02*
X105541755Y-94047000D01*
X105581755Y-99122000D02*
X105581755Y-93928000D01*
X105621755Y-99236000D02*
X105621755Y-93814000D01*
X105661755Y-99345000D02*
X105661755Y-93705000D01*
X105701755Y-99449000D02*
X105701755Y-93601000D01*
X105741755Y-99549000D02*
X105741755Y-93501000D01*
X105781755Y-99645000D02*
X105781755Y-93405000D01*
X105821755Y-99738000D02*
X105821755Y-93312000D01*
X105861755Y-99828000D02*
X105861755Y-93222000D01*
X105901755Y-99915000D02*
X105901755Y-93135000D01*
X105941755Y-100000000D02*
X105941755Y-93050000D01*
X105981755Y-100082000D02*
X105981755Y-92968000D01*
X106021755Y-100162000D02*
X106021755Y-92888000D01*
X106061755Y-100240000D02*
X106061755Y-92810000D01*
X106101755Y-100315000D02*
X106101755Y-92735000D01*
X106141755Y-100389000D02*
X106141755Y-92661000D01*
X106181755Y-100461000D02*
X106181755Y-92589000D01*
X106221755Y-100532000D02*
X106221755Y-92518000D01*
X106261755Y-100601000D02*
X106261755Y-92449000D01*
X106301755Y-100668000D02*
X106301755Y-92382000D01*
X106341755Y-100734000D02*
X106341755Y-92316000D01*
X106381755Y-100798000D02*
X106381755Y-92252000D01*
X106421755Y-100861000D02*
X106421755Y-92189000D01*
X106461755Y-100923000D02*
X106461755Y-92127000D01*
X106501755Y-100984000D02*
X106501755Y-92066000D01*
X106541755Y-101044000D02*
X106541755Y-92006000D01*
X106581755Y-101102000D02*
X106581755Y-91948000D01*
X106621755Y-101159000D02*
X106621755Y-91891000D01*
X106661755Y-101216000D02*
X106661755Y-91834000D01*
X106701755Y-101271000D02*
X106701755Y-91779000D01*
X106741755Y-101325000D02*
X106741755Y-91725000D01*
X106781755Y-101379000D02*
X106781755Y-91671000D01*
X106821755Y-101431000D02*
X106821755Y-91619000D01*
X106861755Y-101483000D02*
X106861755Y-91567000D01*
X106901755Y-101534000D02*
X106901755Y-91516000D01*
X106941755Y-101584000D02*
X106941755Y-91466000D01*
X106981755Y-101633000D02*
X106981755Y-91417000D01*
X107021755Y-101681000D02*
X107021755Y-91369000D01*
X107061755Y-101729000D02*
X107061755Y-91321000D01*
X107101755Y-101776000D02*
X107101755Y-91274000D01*
X107141755Y-101822000D02*
X107141755Y-91228000D01*
X107181755Y-101868000D02*
X107181755Y-91182000D01*
X107221755Y-101913000D02*
X107221755Y-91137000D01*
X107261755Y-101957000D02*
X107261755Y-91093000D01*
X107301755Y-102000000D02*
X107301755Y-91050000D01*
X107341755Y-102043000D02*
X107341755Y-91007000D01*
X107381755Y-102085000D02*
X107381755Y-90965000D01*
X107421755Y-102127000D02*
X107421755Y-90923000D01*
X107461755Y-102168000D02*
X107461755Y-90882000D01*
X107501755Y-102209000D02*
X107501755Y-90841000D01*
X107541755Y-102249000D02*
X107541755Y-90801000D01*
X107581755Y-102288000D02*
X107581755Y-90762000D01*
X107621755Y-102327000D02*
X107621755Y-90723000D01*
X107661755Y-102365000D02*
X107661755Y-90685000D01*
X107701755Y-102403000D02*
X107701755Y-90647000D01*
X107741755Y-102441000D02*
X107741755Y-90609000D01*
X107781755Y-102477000D02*
X107781755Y-90573000D01*
X107821755Y-102514000D02*
X107821755Y-90536000D01*
X107861755Y-102550000D02*
X107861755Y-90500000D01*
X107901755Y-102585000D02*
X107901755Y-90465000D01*
X107941755Y-102620000D02*
X107941755Y-90430000D01*
X107981755Y-102654000D02*
X107981755Y-90396000D01*
X108021755Y-102688000D02*
X108021755Y-90362000D01*
X108061755Y-102722000D02*
X108061755Y-90328000D01*
X108101755Y-95085000D02*
X108101755Y-90295000D01*
X108101755Y-102755000D02*
X108101755Y-97965000D01*
X108141755Y-95085000D02*
X108141755Y-90262000D01*
X108141755Y-102788000D02*
X108141755Y-97965000D01*
X108181755Y-95085000D02*
X108181755Y-90230000D01*
X108181755Y-102820000D02*
X108181755Y-97965000D01*
X108221755Y-95085000D02*
X108221755Y-90198000D01*
X108221755Y-102852000D02*
X108221755Y-97965000D01*
X108261755Y-95085000D02*
X108261755Y-90167000D01*
X108261755Y-102883000D02*
X108261755Y-97965000D01*
X108301755Y-95085000D02*
X108301755Y-90135000D01*
X108301755Y-102915000D02*
X108301755Y-97965000D01*
X108341755Y-95085000D02*
X108341755Y-90105000D01*
X108341755Y-102945000D02*
X108341755Y-97965000D01*
X108381755Y-95085000D02*
X108381755Y-90075000D01*
X108381755Y-102975000D02*
X108381755Y-97965000D01*
X108421755Y-95085000D02*
X108421755Y-90045000D01*
X108421755Y-103005000D02*
X108421755Y-97965000D01*
X108461755Y-95085000D02*
X108461755Y-90015000D01*
X108461755Y-103035000D02*
X108461755Y-97965000D01*
X108501755Y-95085000D02*
X108501755Y-89986000D01*
X108501755Y-103064000D02*
X108501755Y-97965000D01*
X108541755Y-95085000D02*
X108541755Y-89957000D01*
X108541755Y-103093000D02*
X108541755Y-97965000D01*
X108581755Y-95085000D02*
X108581755Y-89929000D01*
X108581755Y-103121000D02*
X108581755Y-97965000D01*
X108621755Y-95085000D02*
X108621755Y-89901000D01*
X108621755Y-103149000D02*
X108621755Y-97965000D01*
X108661755Y-95085000D02*
X108661755Y-89873000D01*
X108661755Y-103177000D02*
X108661755Y-97965000D01*
X108701755Y-95085000D02*
X108701755Y-89846000D01*
X108701755Y-103204000D02*
X108701755Y-97965000D01*
X108741755Y-95085000D02*
X108741755Y-89819000D01*
X108741755Y-103231000D02*
X108741755Y-97965000D01*
X108781755Y-95085000D02*
X108781755Y-89792000D01*
X108781755Y-103258000D02*
X108781755Y-97965000D01*
X108821755Y-95085000D02*
X108821755Y-89766000D01*
X108821755Y-103284000D02*
X108821755Y-97965000D01*
X108861755Y-95085000D02*
X108861755Y-89740000D01*
X108861755Y-103310000D02*
X108861755Y-97965000D01*
X108901755Y-95085000D02*
X108901755Y-89714000D01*
X108901755Y-103336000D02*
X108901755Y-97965000D01*
X108941755Y-95085000D02*
X108941755Y-89689000D01*
X108941755Y-103361000D02*
X108941755Y-97965000D01*
X108981755Y-95085000D02*
X108981755Y-89664000D01*
X108981755Y-103386000D02*
X108981755Y-97965000D01*
X109021755Y-95085000D02*
X109021755Y-89639000D01*
X109021755Y-103411000D02*
X109021755Y-97965000D01*
X109061755Y-95085000D02*
X109061755Y-89615000D01*
X109061755Y-103435000D02*
X109061755Y-97965000D01*
X109101755Y-95085000D02*
X109101755Y-89591000D01*
X109101755Y-103459000D02*
X109101755Y-97965000D01*
X109141755Y-95085000D02*
X109141755Y-89567000D01*
X109141755Y-103483000D02*
X109141755Y-97965000D01*
X109181755Y-95085000D02*
X109181755Y-89544000D01*
X109181755Y-103506000D02*
X109181755Y-97965000D01*
X109221755Y-95085000D02*
X109221755Y-89521000D01*
X109221755Y-103529000D02*
X109221755Y-97965000D01*
X109261755Y-95085000D02*
X109261755Y-89498000D01*
X109261755Y-103552000D02*
X109261755Y-97965000D01*
X109301755Y-95085000D02*
X109301755Y-89476000D01*
X109301755Y-103574000D02*
X109301755Y-97965000D01*
X109341755Y-95085000D02*
X109341755Y-89453000D01*
X109341755Y-103597000D02*
X109341755Y-97965000D01*
X109381755Y-95085000D02*
X109381755Y-89431000D01*
X109381755Y-103619000D02*
X109381755Y-97965000D01*
X109421755Y-95085000D02*
X109421755Y-89410000D01*
X109421755Y-103640000D02*
X109421755Y-97965000D01*
X109461755Y-95085000D02*
X109461755Y-89389000D01*
X109461755Y-103661000D02*
X109461755Y-97965000D01*
X109501755Y-95085000D02*
X109501755Y-89368000D01*
X109501755Y-103682000D02*
X109501755Y-97965000D01*
X109541755Y-95085000D02*
X109541755Y-89347000D01*
X109541755Y-103703000D02*
X109541755Y-97965000D01*
X109581755Y-95085000D02*
X109581755Y-89326000D01*
X109581755Y-103724000D02*
X109581755Y-97965000D01*
X109621755Y-95085000D02*
X109621755Y-89306000D01*
X109621755Y-103744000D02*
X109621755Y-97965000D01*
X109661755Y-95085000D02*
X109661755Y-89286000D01*
X109661755Y-103764000D02*
X109661755Y-97965000D01*
X109701755Y-95085000D02*
X109701755Y-89267000D01*
X109701755Y-103783000D02*
X109701755Y-97965000D01*
X109741755Y-95085000D02*
X109741755Y-89247000D01*
X109741755Y-103803000D02*
X109741755Y-97965000D01*
X109781755Y-95085000D02*
X109781755Y-89228000D01*
X109781755Y-103822000D02*
X109781755Y-97965000D01*
X109821755Y-95085000D02*
X109821755Y-89209000D01*
X109821755Y-103841000D02*
X109821755Y-97965000D01*
X109861755Y-95085000D02*
X109861755Y-89191000D01*
X109861755Y-103859000D02*
X109861755Y-97965000D01*
X109901755Y-95085000D02*
X109901755Y-89172000D01*
X109901755Y-103878000D02*
X109901755Y-97965000D01*
X109941755Y-95085000D02*
X109941755Y-89154000D01*
X109941755Y-103896000D02*
X109941755Y-97965000D01*
X109981755Y-95085000D02*
X109981755Y-89136000D01*
X109981755Y-103914000D02*
X109981755Y-97965000D01*
X110021755Y-95085000D02*
X110021755Y-89119000D01*
X110021755Y-103931000D02*
X110021755Y-97965000D01*
X110061755Y-95085000D02*
X110061755Y-89102000D01*
X110061755Y-103948000D02*
X110061755Y-97965000D01*
X110101755Y-95085000D02*
X110101755Y-89085000D01*
X110101755Y-103965000D02*
X110101755Y-97965000D01*
X110141755Y-95085000D02*
X110141755Y-89068000D01*
X110141755Y-103982000D02*
X110141755Y-97965000D01*
X110181755Y-95085000D02*
X110181755Y-89051000D01*
X110181755Y-103999000D02*
X110181755Y-97965000D01*
X110221755Y-95085000D02*
X110221755Y-89035000D01*
X110221755Y-104015000D02*
X110221755Y-97965000D01*
X110261755Y-95085000D02*
X110261755Y-89019000D01*
X110261755Y-104031000D02*
X110261755Y-97965000D01*
X110301755Y-95085000D02*
X110301755Y-89003000D01*
X110301755Y-104047000D02*
X110301755Y-97965000D01*
X110341755Y-95085000D02*
X110341755Y-88988000D01*
X110341755Y-104062000D02*
X110341755Y-97965000D01*
X110381755Y-95085000D02*
X110381755Y-88972000D01*
X110381755Y-104078000D02*
X110381755Y-97965000D01*
X110421755Y-95085000D02*
X110421755Y-88957000D01*
X110421755Y-104093000D02*
X110421755Y-97965000D01*
X110461755Y-95085000D02*
X110461755Y-88943000D01*
X110461755Y-104107000D02*
X110461755Y-97965000D01*
X110501755Y-95085000D02*
X110501755Y-88928000D01*
X110501755Y-104122000D02*
X110501755Y-97965000D01*
X110541755Y-95085000D02*
X110541755Y-88914000D01*
X110541755Y-104136000D02*
X110541755Y-97965000D01*
X110581755Y-95085000D02*
X110581755Y-88900000D01*
X110581755Y-104150000D02*
X110581755Y-97965000D01*
X110621755Y-95085000D02*
X110621755Y-88886000D01*
X110621755Y-104164000D02*
X110621755Y-97965000D01*
X110661755Y-95085000D02*
X110661755Y-88872000D01*
X110661755Y-104178000D02*
X110661755Y-97965000D01*
X110701755Y-95085000D02*
X110701755Y-88859000D01*
X110701755Y-104191000D02*
X110701755Y-97965000D01*
X110741755Y-95085000D02*
X110741755Y-88845000D01*
X110741755Y-104205000D02*
X110741755Y-97965000D01*
X110781755Y-95085000D02*
X110781755Y-88832000D01*
X110781755Y-104218000D02*
X110781755Y-97965000D01*
X110821755Y-95085000D02*
X110821755Y-88820000D01*
X110821755Y-104230000D02*
X110821755Y-97965000D01*
X110861755Y-95085000D02*
X110861755Y-88807000D01*
X110861755Y-104243000D02*
X110861755Y-97965000D01*
X110901755Y-95085000D02*
X110901755Y-88795000D01*
X110901755Y-104255000D02*
X110901755Y-97965000D01*
X110941755Y-95085000D02*
X110941755Y-88783000D01*
X110941755Y-104267000D02*
X110941755Y-97965000D01*
X110981755Y-104279000D02*
X110981755Y-88771000D01*
X111021755Y-104290000D02*
X111021755Y-88760000D01*
X111061755Y-104302000D02*
X111061755Y-88748000D01*
X111101755Y-104313000D02*
X111101755Y-88737000D01*
X111141755Y-104324000D02*
X111141755Y-88726000D01*
X111181755Y-104335000D02*
X111181755Y-88715000D01*
X111221755Y-104345000D02*
X111221755Y-88705000D01*
X111261755Y-104355000D02*
X111261755Y-88695000D01*
X111301755Y-104365000D02*
X111301755Y-88685000D01*
X111341755Y-104375000D02*
X111341755Y-88675000D01*
X111381755Y-104385000D02*
X111381755Y-88665000D01*
X111421755Y-104394000D02*
X111421755Y-88656000D01*
X111461755Y-104403000D02*
X111461755Y-88647000D01*
X111501755Y-104412000D02*
X111501755Y-88638000D01*
X111541755Y-104421000D02*
X111541755Y-88629000D01*
X111581755Y-104430000D02*
X111581755Y-88620000D01*
X111621755Y-104438000D02*
X111621755Y-88612000D01*
X111661755Y-104446000D02*
X111661755Y-88604000D01*
X111701755Y-104454000D02*
X111701755Y-88596000D01*
X111741755Y-104462000D02*
X111741755Y-88588000D01*
X111781755Y-104469000D02*
X111781755Y-88581000D01*
X111821755Y-104477000D02*
X111821755Y-88573000D01*
X111861755Y-104484000D02*
X111861755Y-88566000D01*
X111901755Y-104491000D02*
X111901755Y-88559000D01*
X111941755Y-104497000D02*
X111941755Y-88553000D01*
X111981755Y-104504000D02*
X111981755Y-88546000D01*
X112021755Y-104510000D02*
X112021755Y-88540000D01*
X112061755Y-104516000D02*
X112061755Y-88534000D01*
X112101755Y-104522000D02*
X112101755Y-88528000D01*
X112141755Y-104528000D02*
X112141755Y-88522000D01*
X112181755Y-104533000D02*
X112181755Y-88517000D01*
X112221755Y-104539000D02*
X112221755Y-88511000D01*
X112261755Y-104544000D02*
X112261755Y-88506000D01*
X112301755Y-104549000D02*
X112301755Y-88501000D01*
X112341755Y-104553000D02*
X112341755Y-88497000D01*
X112381755Y-104558000D02*
X112381755Y-88492000D01*
X112421755Y-104562000D02*
X112421755Y-88488000D01*
X112461755Y-104566000D02*
X112461755Y-88484000D01*
X112501755Y-104570000D02*
X112501755Y-88480000D01*
X112541755Y-104574000D02*
X112541755Y-88476000D01*
X112582755Y-104577000D02*
X112582755Y-88473000D01*
X112622755Y-104580000D02*
X112622755Y-88470000D01*
X112662755Y-104583000D02*
X112662755Y-88467000D01*
X112702755Y-104586000D02*
X112702755Y-88464000D01*
X112742755Y-104589000D02*
X112742755Y-88461000D01*
X112782755Y-104591000D02*
X112782755Y-88459000D01*
X112822755Y-104594000D02*
X112822755Y-88456000D01*
X112862755Y-104596000D02*
X112862755Y-88454000D01*
X112902755Y-104598000D02*
X112902755Y-88452000D01*
X112942755Y-104599000D02*
X112942755Y-88451000D01*
X112982755Y-104601000D02*
X112982755Y-88449000D01*
X113022755Y-104602000D02*
X113022755Y-88448000D01*
X113062755Y-104603000D02*
X113062755Y-88447000D01*
X113102755Y-104604000D02*
X113102755Y-88446000D01*
X113142755Y-104605000D02*
X113142755Y-88445000D01*
X113182755Y-104605000D02*
X113182755Y-88445000D01*
X113222755Y-104605000D02*
X113222755Y-88445000D01*
X113262755Y-104606000D02*
X113262755Y-88444000D01*
X121152246Y-101880000D02*
X121152246Y-100280000D01*
X121952246Y-101080000D02*
X120352246Y-101080000D01*
X121382755Y-96525000D02*
G75*
G02*
X105142755Y-96525000I-8120000J0D01*
G01*
X105142755Y-96525000D02*
G75*
G02*
X121382755Y-96525000I8120000J0D01*
G01*
%TO.C,R18*%
X112215000Y-70322936D02*
X112215000Y-70777064D01*
X113685000Y-70322936D02*
X113685000Y-70777064D01*
%TO.C,F1*%
X137802064Y-88765000D02*
X136597936Y-88765000D01*
X137802064Y-90585000D02*
X136597936Y-90585000D01*
%TO.C,C19*%
X153965000Y-115668748D02*
X153965000Y-116191252D01*
X155435000Y-115668748D02*
X155435000Y-116191252D01*
%TO.C,J2*%
X168525000Y-129425000D02*
X168525000Y-130675000D01*
X168525000Y-130675000D02*
X169775000Y-130675000D01*
X168815000Y-115265000D02*
X168815000Y-130385000D01*
X168815000Y-130385000D02*
X174785000Y-130385000D01*
X168825000Y-115275000D02*
X168825000Y-117075000D01*
X168825000Y-117075000D02*
X169575000Y-117075000D01*
X168825000Y-118575000D02*
X168825000Y-127075000D01*
X168825000Y-127075000D02*
X169575000Y-127075000D01*
X168825000Y-128575000D02*
X168825000Y-130375000D01*
X168825000Y-130375000D02*
X169575000Y-130375000D01*
X169575000Y-115275000D02*
X168825000Y-115275000D01*
X169575000Y-117075000D02*
X169575000Y-115275000D01*
X169575000Y-118575000D02*
X168825000Y-118575000D01*
X169575000Y-127075000D02*
X169575000Y-118575000D01*
X169575000Y-128575000D02*
X168825000Y-128575000D01*
X169575000Y-130375000D02*
X169575000Y-128575000D01*
X171075000Y-115275000D02*
X171075000Y-116025000D01*
X171075000Y-116025000D02*
X174025000Y-116025000D01*
X171075000Y-129625000D02*
X174025000Y-129625000D01*
X171075000Y-130375000D02*
X171075000Y-129625000D01*
X174025000Y-116025000D02*
X174025000Y-122825000D01*
X174025000Y-129625000D02*
X174025000Y-122825000D01*
X174785000Y-115265000D02*
X168815000Y-115265000D01*
X174785000Y-130385000D02*
X174785000Y-115265000D01*
%TD*%
M02*
